<?xml version="1.0" encoding="utf-8" standalone="no"?>
<!DOCTYPE svg PUBLIC "-//W3C//DTD SVG 1.1//EN"
  "http://www.w3.org/Graphics/SVG/1.1/DTD/svg11.dtd">
<!-- Created with matplotlib (https://matplotlib.org/) -->
<svg height="312.077344pt" version="1.1" viewBox="0 0 877.4875 312.077344" width="877.4875pt" xmlns="http://www.w3.org/2000/svg" xmlns:xlink="http://www.w3.org/1999/xlink">
 <defs>
  <style type="text/css">
*{stroke-linecap:butt;stroke-linejoin:round;}
  </style>
 </defs>
 <g id="figure_1">
  <g id="patch_1">
   <path d="M 0 312.077344 
L 877.4875 312.077344 
L 877.4875 0 
L 0 0 
z
" style="fill:#ffffff;"/>
  </g>
  <g id="axes_1">
   <g id="patch_2">
    <path d="M 33.2875 288.199219 
L 870.2875 288.199219 
L 870.2875 10.999219 
L 33.2875 10.999219 
z
" style="fill:#ffffff;"/>
   </g>
   <g id="PolyCollection_1">
    <path clip-path="url(#p43e1220dba)" d="M 33.2875 10.999219 
L 33.2875 288.199219 
L 33.2875 288.199219 
L 33.2875 10.999219 
L 33.2875 10.999219 
L 33.2875 10.999219 
z
" style="fill:#808080;fill-opacity:0.3;"/>
   </g>
   <g id="PolyCollection_2">
    <path clip-path="url(#p43e1220dba)" d="M 469.983152 10.999219 
L 469.983152 288.199219 
L 870.2875 288.199219 
L 870.2875 10.999219 
L 870.2875 10.999219 
L 469.983152 10.999219 
z
" style="fill:#808080;fill-opacity:0.3;"/>
   </g>
   <g id="matplotlib.axis_1">
    <g id="xtick_1">
     <g id="line2d_1">
      <defs>
       <path d="M 0 0 
L 0 3.5 
" id="m6dc5205598" style="stroke:#000000;stroke-width:0.8;"/>
      </defs>
      <g>
       <use style="stroke:#000000;stroke-width:0.8;" x="33.2875" xlink:href="#m6dc5205598" y="288.199219"/>
      </g>
     </g>
     <g id="text_1">
      <!-- 0 -->
      <defs>
       <path d="M 31.78125 66.40625 
Q 24.171875 66.40625 20.328125 58.90625 
Q 16.5 51.421875 16.5 36.375 
Q 16.5 21.390625 20.328125 13.890625 
Q 24.171875 6.390625 31.78125 6.390625 
Q 39.453125 6.390625 43.28125 13.890625 
Q 47.125 21.390625 47.125 36.375 
Q 47.125 51.421875 43.28125 58.90625 
Q 39.453125 66.40625 31.78125 66.40625 
z
M 31.78125 74.21875 
Q 44.046875 74.21875 50.515625 64.515625 
Q 56.984375 54.828125 56.984375 36.375 
Q 56.984375 17.96875 50.515625 8.265625 
Q 44.046875 -1.421875 31.78125 -1.421875 
Q 19.53125 -1.421875 13.0625 8.265625 
Q 6.59375 17.96875 6.59375 36.375 
Q 6.59375 54.828125 13.0625 64.515625 
Q 19.53125 74.21875 31.78125 74.21875 
z
" id="DejaVuSans-48"/>
      </defs>
      <g transform="translate(30.10625 302.797656)scale(0.1 -0.1)">
       <use xlink:href="#DejaVuSans-48"/>
      </g>
     </g>
    </g>
    <g id="xtick_2">
     <g id="line2d_2">
      <g>
       <use style="stroke:#000000;stroke-width:0.8;" x="154.591848" xlink:href="#m6dc5205598" y="288.199219"/>
      </g>
     </g>
     <g id="text_2">
      <!-- 10 -->
      <defs>
       <path d="M 12.40625 8.296875 
L 28.515625 8.296875 
L 28.515625 63.921875 
L 10.984375 60.40625 
L 10.984375 69.390625 
L 28.421875 72.90625 
L 38.28125 72.90625 
L 38.28125 8.296875 
L 54.390625 8.296875 
L 54.390625 0 
L 12.40625 0 
z
" id="DejaVuSans-49"/>
      </defs>
      <g transform="translate(148.229348 302.797656)scale(0.1 -0.1)">
       <use xlink:href="#DejaVuSans-49"/>
       <use x="63.623047" xlink:href="#DejaVuSans-48"/>
      </g>
     </g>
    </g>
    <g id="xtick_3">
     <g id="line2d_3">
      <g>
       <use style="stroke:#000000;stroke-width:0.8;" x="275.896196" xlink:href="#m6dc5205598" y="288.199219"/>
      </g>
     </g>
     <g id="text_3">
      <!-- 20 -->
      <defs>
       <path d="M 19.1875 8.296875 
L 53.609375 8.296875 
L 53.609375 0 
L 7.328125 0 
L 7.328125 8.296875 
Q 12.9375 14.109375 22.625 23.890625 
Q 32.328125 33.6875 34.8125 36.53125 
Q 39.546875 41.84375 41.421875 45.53125 
Q 43.3125 49.21875 43.3125 52.78125 
Q 43.3125 58.59375 39.234375 62.25 
Q 35.15625 65.921875 28.609375 65.921875 
Q 23.96875 65.921875 18.8125 64.3125 
Q 13.671875 62.703125 7.8125 59.421875 
L 7.8125 69.390625 
Q 13.765625 71.78125 18.9375 73 
Q 24.125 74.21875 28.421875 74.21875 
Q 39.75 74.21875 46.484375 68.546875 
Q 53.21875 62.890625 53.21875 53.421875 
Q 53.21875 48.921875 51.53125 44.890625 
Q 49.859375 40.875 45.40625 35.40625 
Q 44.1875 33.984375 37.640625 27.21875 
Q 31.109375 20.453125 19.1875 8.296875 
z
" id="DejaVuSans-50"/>
      </defs>
      <g transform="translate(269.533696 302.797656)scale(0.1 -0.1)">
       <use xlink:href="#DejaVuSans-50"/>
       <use x="63.623047" xlink:href="#DejaVuSans-48"/>
      </g>
     </g>
    </g>
    <g id="xtick_4">
     <g id="line2d_4">
      <g>
       <use style="stroke:#000000;stroke-width:0.8;" x="397.200543" xlink:href="#m6dc5205598" y="288.199219"/>
      </g>
     </g>
     <g id="text_4">
      <!-- 30 -->
      <defs>
       <path d="M 40.578125 39.3125 
Q 47.65625 37.796875 51.625 33 
Q 55.609375 28.21875 55.609375 21.1875 
Q 55.609375 10.40625 48.1875 4.484375 
Q 40.765625 -1.421875 27.09375 -1.421875 
Q 22.515625 -1.421875 17.65625 -0.515625 
Q 12.796875 0.390625 7.625 2.203125 
L 7.625 11.71875 
Q 11.71875 9.328125 16.59375 8.109375 
Q 21.484375 6.890625 26.8125 6.890625 
Q 36.078125 6.890625 40.9375 10.546875 
Q 45.796875 14.203125 45.796875 21.1875 
Q 45.796875 27.640625 41.28125 31.265625 
Q 36.765625 34.90625 28.71875 34.90625 
L 20.21875 34.90625 
L 20.21875 43.015625 
L 29.109375 43.015625 
Q 36.375 43.015625 40.234375 45.921875 
Q 44.09375 48.828125 44.09375 54.296875 
Q 44.09375 59.90625 40.109375 62.90625 
Q 36.140625 65.921875 28.71875 65.921875 
Q 24.65625 65.921875 20.015625 65.03125 
Q 15.375 64.15625 9.8125 62.3125 
L 9.8125 71.09375 
Q 15.4375 72.65625 20.34375 73.4375 
Q 25.25 74.21875 29.59375 74.21875 
Q 40.828125 74.21875 47.359375 69.109375 
Q 53.90625 64.015625 53.90625 55.328125 
Q 53.90625 49.265625 50.4375 45.09375 
Q 46.96875 40.921875 40.578125 39.3125 
z
" id="DejaVuSans-51"/>
      </defs>
      <g transform="translate(390.838043 302.797656)scale(0.1 -0.1)">
       <use xlink:href="#DejaVuSans-51"/>
       <use x="63.623047" xlink:href="#DejaVuSans-48"/>
      </g>
     </g>
    </g>
    <g id="xtick_5">
     <g id="line2d_5">
      <g>
       <use style="stroke:#000000;stroke-width:0.8;" x="518.504891" xlink:href="#m6dc5205598" y="288.199219"/>
      </g>
     </g>
     <g id="text_5">
      <!-- 40 -->
      <defs>
       <path d="M 37.796875 64.3125 
L 12.890625 25.390625 
L 37.796875 25.390625 
z
M 35.203125 72.90625 
L 47.609375 72.90625 
L 47.609375 25.390625 
L 58.015625 25.390625 
L 58.015625 17.1875 
L 47.609375 17.1875 
L 47.609375 0 
L 37.796875 0 
L 37.796875 17.1875 
L 4.890625 17.1875 
L 4.890625 26.703125 
z
" id="DejaVuSans-52"/>
      </defs>
      <g transform="translate(512.142391 302.797656)scale(0.1 -0.1)">
       <use xlink:href="#DejaVuSans-52"/>
       <use x="63.623047" xlink:href="#DejaVuSans-48"/>
      </g>
     </g>
    </g>
    <g id="xtick_6">
     <g id="line2d_6">
      <g>
       <use style="stroke:#000000;stroke-width:0.8;" x="639.809239" xlink:href="#m6dc5205598" y="288.199219"/>
      </g>
     </g>
     <g id="text_6">
      <!-- 50 -->
      <defs>
       <path d="M 10.796875 72.90625 
L 49.515625 72.90625 
L 49.515625 64.59375 
L 19.828125 64.59375 
L 19.828125 46.734375 
Q 21.96875 47.46875 24.109375 47.828125 
Q 26.265625 48.1875 28.421875 48.1875 
Q 40.625 48.1875 47.75 41.5 
Q 54.890625 34.8125 54.890625 23.390625 
Q 54.890625 11.625 47.5625 5.09375 
Q 40.234375 -1.421875 26.90625 -1.421875 
Q 22.3125 -1.421875 17.546875 -0.640625 
Q 12.796875 0.140625 7.71875 1.703125 
L 7.71875 11.625 
Q 12.109375 9.234375 16.796875 8.0625 
Q 21.484375 6.890625 26.703125 6.890625 
Q 35.15625 6.890625 40.078125 11.328125 
Q 45.015625 15.765625 45.015625 23.390625 
Q 45.015625 31 40.078125 35.4375 
Q 35.15625 39.890625 26.703125 39.890625 
Q 22.75 39.890625 18.8125 39.015625 
Q 14.890625 38.140625 10.796875 36.28125 
z
" id="DejaVuSans-53"/>
      </defs>
      <g transform="translate(633.446739 302.797656)scale(0.1 -0.1)">
       <use xlink:href="#DejaVuSans-53"/>
       <use x="63.623047" xlink:href="#DejaVuSans-48"/>
      </g>
     </g>
    </g>
    <g id="xtick_7">
     <g id="line2d_7">
      <g>
       <use style="stroke:#000000;stroke-width:0.8;" x="761.113587" xlink:href="#m6dc5205598" y="288.199219"/>
      </g>
     </g>
     <g id="text_7">
      <!-- 60 -->
      <defs>
       <path d="M 33.015625 40.375 
Q 26.375 40.375 22.484375 35.828125 
Q 18.609375 31.296875 18.609375 23.390625 
Q 18.609375 15.53125 22.484375 10.953125 
Q 26.375 6.390625 33.015625 6.390625 
Q 39.65625 6.390625 43.53125 10.953125 
Q 47.40625 15.53125 47.40625 23.390625 
Q 47.40625 31.296875 43.53125 35.828125 
Q 39.65625 40.375 33.015625 40.375 
z
M 52.59375 71.296875 
L 52.59375 62.3125 
Q 48.875 64.0625 45.09375 64.984375 
Q 41.3125 65.921875 37.59375 65.921875 
Q 27.828125 65.921875 22.671875 59.328125 
Q 17.53125 52.734375 16.796875 39.40625 
Q 19.671875 43.65625 24.015625 45.921875 
Q 28.375 48.1875 33.59375 48.1875 
Q 44.578125 48.1875 50.953125 41.515625 
Q 57.328125 34.859375 57.328125 23.390625 
Q 57.328125 12.15625 50.6875 5.359375 
Q 44.046875 -1.421875 33.015625 -1.421875 
Q 20.359375 -1.421875 13.671875 8.265625 
Q 6.984375 17.96875 6.984375 36.375 
Q 6.984375 53.65625 15.1875 63.9375 
Q 23.390625 74.21875 37.203125 74.21875 
Q 40.921875 74.21875 44.703125 73.484375 
Q 48.484375 72.75 52.59375 71.296875 
z
" id="DejaVuSans-54"/>
      </defs>
      <g transform="translate(754.751087 302.797656)scale(0.1 -0.1)">
       <use xlink:href="#DejaVuSans-54"/>
       <use x="63.623047" xlink:href="#DejaVuSans-48"/>
      </g>
     </g>
    </g>
   </g>
   <g id="matplotlib.axis_2">
    <g id="ytick_1">
     <g id="line2d_8">
      <defs>
       <path d="M 0 0 
L -3.5 0 
" id="m6e6a9361e2" style="stroke:#000000;stroke-width:0.8;"/>
      </defs>
      <g>
       <use style="stroke:#000000;stroke-width:0.8;" x="33.2875" xlink:href="#m6e6a9361e2" y="288.199219"/>
      </g>
     </g>
     <g id="text_8">
      <!-- 0 -->
      <g transform="translate(19.925 291.998438)scale(0.1 -0.1)">
       <use xlink:href="#DejaVuSans-48"/>
      </g>
     </g>
    </g>
    <g id="ytick_2">
     <g id="line2d_9">
      <g>
       <use style="stroke:#000000;stroke-width:0.8;" x="33.2875" xlink:href="#m6e6a9361e2" y="232.759219"/>
      </g>
     </g>
     <g id="text_9">
      <!-- 20 -->
      <g transform="translate(13.5625 236.558438)scale(0.1 -0.1)">
       <use xlink:href="#DejaVuSans-50"/>
       <use x="63.623047" xlink:href="#DejaVuSans-48"/>
      </g>
     </g>
    </g>
    <g id="ytick_3">
     <g id="line2d_10">
      <g>
       <use style="stroke:#000000;stroke-width:0.8;" x="33.2875" xlink:href="#m6e6a9361e2" y="177.319219"/>
      </g>
     </g>
     <g id="text_10">
      <!-- 40 -->
      <g transform="translate(13.5625 181.118438)scale(0.1 -0.1)">
       <use xlink:href="#DejaVuSans-52"/>
       <use x="63.623047" xlink:href="#DejaVuSans-48"/>
      </g>
     </g>
    </g>
    <g id="ytick_4">
     <g id="line2d_11">
      <g>
       <use style="stroke:#000000;stroke-width:0.8;" x="33.2875" xlink:href="#m6e6a9361e2" y="121.879219"/>
      </g>
     </g>
     <g id="text_11">
      <!-- 60 -->
      <g transform="translate(13.5625 125.678438)scale(0.1 -0.1)">
       <use xlink:href="#DejaVuSans-54"/>
       <use x="63.623047" xlink:href="#DejaVuSans-48"/>
      </g>
     </g>
    </g>
    <g id="ytick_5">
     <g id="line2d_12">
      <g>
       <use style="stroke:#000000;stroke-width:0.8;" x="33.2875" xlink:href="#m6e6a9361e2" y="66.439219"/>
      </g>
     </g>
     <g id="text_12">
      <!-- 80 -->
      <defs>
       <path d="M 31.78125 34.625 
Q 24.75 34.625 20.71875 30.859375 
Q 16.703125 27.09375 16.703125 20.515625 
Q 16.703125 13.921875 20.71875 10.15625 
Q 24.75 6.390625 31.78125 6.390625 
Q 38.8125 6.390625 42.859375 10.171875 
Q 46.921875 13.96875 46.921875 20.515625 
Q 46.921875 27.09375 42.890625 30.859375 
Q 38.875 34.625 31.78125 34.625 
z
M 21.921875 38.8125 
Q 15.578125 40.375 12.03125 44.71875 
Q 8.5 49.078125 8.5 55.328125 
Q 8.5 64.0625 14.71875 69.140625 
Q 20.953125 74.21875 31.78125 74.21875 
Q 42.671875 74.21875 48.875 69.140625 
Q 55.078125 64.0625 55.078125 55.328125 
Q 55.078125 49.078125 51.53125 44.71875 
Q 48 40.375 41.703125 38.8125 
Q 48.828125 37.15625 52.796875 32.3125 
Q 56.78125 27.484375 56.78125 20.515625 
Q 56.78125 9.90625 50.3125 4.234375 
Q 43.84375 -1.421875 31.78125 -1.421875 
Q 19.734375 -1.421875 13.25 4.234375 
Q 6.78125 9.90625 6.78125 20.515625 
Q 6.78125 27.484375 10.78125 32.3125 
Q 14.796875 37.15625 21.921875 38.8125 
z
M 18.3125 54.390625 
Q 18.3125 48.734375 21.84375 45.5625 
Q 25.390625 42.390625 31.78125 42.390625 
Q 38.140625 42.390625 41.71875 45.5625 
Q 45.3125 48.734375 45.3125 54.390625 
Q 45.3125 60.0625 41.71875 63.234375 
Q 38.140625 66.40625 31.78125 66.40625 
Q 25.390625 66.40625 21.84375 63.234375 
Q 18.3125 60.0625 18.3125 54.390625 
z
" id="DejaVuSans-56"/>
      </defs>
      <g transform="translate(13.5625 70.238438)scale(0.1 -0.1)">
       <use xlink:href="#DejaVuSans-56"/>
       <use x="63.623047" xlink:href="#DejaVuSans-48"/>
      </g>
     </g>
    </g>
    <g id="ytick_6">
     <g id="line2d_13">
      <g>
       <use style="stroke:#000000;stroke-width:0.8;" x="33.2875" xlink:href="#m6e6a9361e2" y="10.999219"/>
      </g>
     </g>
     <g id="text_13">
      <!-- 100 -->
      <g transform="translate(7.2 14.798438)scale(0.1 -0.1)">
       <use xlink:href="#DejaVuSans-49"/>
       <use x="63.623047" xlink:href="#DejaVuSans-48"/>
       <use x="127.246094" xlink:href="#DejaVuSans-48"/>
      </g>
     </g>
    </g>
   </g>
   <g id="line2d_14">
    <path clip-path="url(#p43e1220dba)" d="M 33.2875 49.164436 
L 45.417935 39.522697 
L 57.54837 29.880958 
L 69.678804 20.239219 
L 81.809239 21.119219 
L 93.939674 21.999219 
L 106.070109 22.879219 
L 118.200543 28.007743 
L 130.330978 33.136268 
L 142.461413 38.264793 
L 154.591848 48.459746 
L 166.722283 58.6547 
L 178.852717 68.849654 
L 190.983152 83.655496 
L 203.113587 98.461338 
L 215.244022 113.26718 
L 227.374457 153.388883 
L 239.504891 193.510586 
L 251.635326 233.63229 
L 263.765761 247.582734 
L 275.896196 261.533178 
L 288.02663 275.483622 
L 300.157065 277.450023 
L 312.2875 279.416424 
L 324.417935 281.382825 
L 336.54837 280.910402 
L 348.678804 280.437979 
L 360.809239 279.965555 
L 372.939674 281.380613 
L 385.070109 282.795671 
L 397.200543 284.21073 
L 409.330978 254.948334 
L 421.461413 225.685939 
L 433.591848 196.423543 
L 445.722283 144.709553 
L 457.852717 92.995562 
L 469.983152 41.281572 
L 482.113587 33.073168 
L 494.244022 24.864765 
L 506.374457 16.656362 
L 518.504891 18.19287 
L 530.635326 19.729377 
L 542.765761 21.265885 
L 554.896196 21.720586 
L 567.02663 22.175287 
L 579.157065 22.629988 
L 591.2875 37.575287 
L 603.417935 52.520586 
L 615.54837 67.465885 
L 627.678804 94.41981 
L 639.809239 121.373735 
L 651.939674 148.327659 
L 664.070109 165.890222 
L 676.200543 183.452785 
L 688.330978 201.015348 
L 700.461413 219.809971 
L 712.591848 238.604595 
L 724.722283 257.399219 
L 736.852717 266.151131 
L 748.983152 274.903044 
L 761.113587 283.654956 
L 773.244022 282.716613 
L 785.374457 281.77827 
L 797.504891 280.839927 
L 809.635326 282.395937 
L 821.765761 283.951947 
L 833.896196 285.507957 
L 846.02663 278.130417 
L 858.157065 270.752878 
L 870.2875 263.375338 
" style="fill:none;stroke:#ff0000;stroke-linecap:square;stroke-width:1.5;"/>
    <defs>
     <path d="M 0 3 
C 0.795609 3 1.55874 2.683901 2.12132 2.12132 
C 2.683901 1.55874 3 0.795609 3 0 
C 3 -0.795609 2.683901 -1.55874 2.12132 -2.12132 
C 1.55874 -2.683901 0.795609 -3 0 -3 
C -0.795609 -3 -1.55874 -2.683901 -2.12132 -2.12132 
C -2.683901 -1.55874 -3 -0.795609 -3 0 
C -3 0.795609 -2.683901 1.55874 -2.12132 2.12132 
C -1.55874 2.683901 -0.795609 3 0 3 
z
" id="m791d75f1a2" style="stroke:#ff0000;"/>
    </defs>
    <g clip-path="url(#p43e1220dba)">
     <use style="fill:#ff0000;stroke:#ff0000;" x="33.2875" xlink:href="#m791d75f1a2" y="49.164436"/>
     <use style="fill:#ff0000;stroke:#ff0000;" x="45.417935" xlink:href="#m791d75f1a2" y="39.522697"/>
     <use style="fill:#ff0000;stroke:#ff0000;" x="57.54837" xlink:href="#m791d75f1a2" y="29.880958"/>
     <use style="fill:#ff0000;stroke:#ff0000;" x="69.678804" xlink:href="#m791d75f1a2" y="20.239219"/>
     <use style="fill:#ff0000;stroke:#ff0000;" x="81.809239" xlink:href="#m791d75f1a2" y="21.119219"/>
     <use style="fill:#ff0000;stroke:#ff0000;" x="93.939674" xlink:href="#m791d75f1a2" y="21.999219"/>
     <use style="fill:#ff0000;stroke:#ff0000;" x="106.070109" xlink:href="#m791d75f1a2" y="22.879219"/>
     <use style="fill:#ff0000;stroke:#ff0000;" x="118.200543" xlink:href="#m791d75f1a2" y="28.007743"/>
     <use style="fill:#ff0000;stroke:#ff0000;" x="130.330978" xlink:href="#m791d75f1a2" y="33.136268"/>
     <use style="fill:#ff0000;stroke:#ff0000;" x="142.461413" xlink:href="#m791d75f1a2" y="38.264793"/>
     <use style="fill:#ff0000;stroke:#ff0000;" x="154.591848" xlink:href="#m791d75f1a2" y="48.459746"/>
     <use style="fill:#ff0000;stroke:#ff0000;" x="166.722283" xlink:href="#m791d75f1a2" y="58.6547"/>
     <use style="fill:#ff0000;stroke:#ff0000;" x="178.852717" xlink:href="#m791d75f1a2" y="68.849654"/>
     <use style="fill:#ff0000;stroke:#ff0000;" x="190.983152" xlink:href="#m791d75f1a2" y="83.655496"/>
     <use style="fill:#ff0000;stroke:#ff0000;" x="203.113587" xlink:href="#m791d75f1a2" y="98.461338"/>
     <use style="fill:#ff0000;stroke:#ff0000;" x="215.244022" xlink:href="#m791d75f1a2" y="113.26718"/>
     <use style="fill:#ff0000;stroke:#ff0000;" x="227.374457" xlink:href="#m791d75f1a2" y="153.388883"/>
     <use style="fill:#ff0000;stroke:#ff0000;" x="239.504891" xlink:href="#m791d75f1a2" y="193.510586"/>
     <use style="fill:#ff0000;stroke:#ff0000;" x="251.635326" xlink:href="#m791d75f1a2" y="233.63229"/>
     <use style="fill:#ff0000;stroke:#ff0000;" x="263.765761" xlink:href="#m791d75f1a2" y="247.582734"/>
     <use style="fill:#ff0000;stroke:#ff0000;" x="275.896196" xlink:href="#m791d75f1a2" y="261.533178"/>
     <use style="fill:#ff0000;stroke:#ff0000;" x="288.02663" xlink:href="#m791d75f1a2" y="275.483622"/>
     <use style="fill:#ff0000;stroke:#ff0000;" x="300.157065" xlink:href="#m791d75f1a2" y="277.450023"/>
     <use style="fill:#ff0000;stroke:#ff0000;" x="312.2875" xlink:href="#m791d75f1a2" y="279.416424"/>
     <use style="fill:#ff0000;stroke:#ff0000;" x="324.417935" xlink:href="#m791d75f1a2" y="281.382825"/>
     <use style="fill:#ff0000;stroke:#ff0000;" x="336.54837" xlink:href="#m791d75f1a2" y="280.910402"/>
     <use style="fill:#ff0000;stroke:#ff0000;" x="348.678804" xlink:href="#m791d75f1a2" y="280.437979"/>
     <use style="fill:#ff0000;stroke:#ff0000;" x="360.809239" xlink:href="#m791d75f1a2" y="279.965555"/>
     <use style="fill:#ff0000;stroke:#ff0000;" x="372.939674" xlink:href="#m791d75f1a2" y="281.380613"/>
     <use style="fill:#ff0000;stroke:#ff0000;" x="385.070109" xlink:href="#m791d75f1a2" y="282.795671"/>
     <use style="fill:#ff0000;stroke:#ff0000;" x="397.200543" xlink:href="#m791d75f1a2" y="284.21073"/>
     <use style="fill:#ff0000;stroke:#ff0000;" x="409.330978" xlink:href="#m791d75f1a2" y="254.948334"/>
     <use style="fill:#ff0000;stroke:#ff0000;" x="421.461413" xlink:href="#m791d75f1a2" y="225.685939"/>
     <use style="fill:#ff0000;stroke:#ff0000;" x="433.591848" xlink:href="#m791d75f1a2" y="196.423543"/>
     <use style="fill:#ff0000;stroke:#ff0000;" x="445.722283" xlink:href="#m791d75f1a2" y="144.709553"/>
     <use style="fill:#ff0000;stroke:#ff0000;" x="457.852717" xlink:href="#m791d75f1a2" y="92.995562"/>
     <use style="fill:#ff0000;stroke:#ff0000;" x="469.983152" xlink:href="#m791d75f1a2" y="41.281572"/>
     <use style="fill:#ff0000;stroke:#ff0000;" x="482.113587" xlink:href="#m791d75f1a2" y="33.073168"/>
     <use style="fill:#ff0000;stroke:#ff0000;" x="494.244022" xlink:href="#m791d75f1a2" y="24.864765"/>
     <use style="fill:#ff0000;stroke:#ff0000;" x="506.374457" xlink:href="#m791d75f1a2" y="16.656362"/>
     <use style="fill:#ff0000;stroke:#ff0000;" x="518.504891" xlink:href="#m791d75f1a2" y="18.19287"/>
     <use style="fill:#ff0000;stroke:#ff0000;" x="530.635326" xlink:href="#m791d75f1a2" y="19.729377"/>
     <use style="fill:#ff0000;stroke:#ff0000;" x="542.765761" xlink:href="#m791d75f1a2" y="21.265885"/>
     <use style="fill:#ff0000;stroke:#ff0000;" x="554.896196" xlink:href="#m791d75f1a2" y="21.720586"/>
     <use style="fill:#ff0000;stroke:#ff0000;" x="567.02663" xlink:href="#m791d75f1a2" y="22.175287"/>
     <use style="fill:#ff0000;stroke:#ff0000;" x="579.157065" xlink:href="#m791d75f1a2" y="22.629988"/>
     <use style="fill:#ff0000;stroke:#ff0000;" x="591.2875" xlink:href="#m791d75f1a2" y="37.575287"/>
     <use style="fill:#ff0000;stroke:#ff0000;" x="603.417935" xlink:href="#m791d75f1a2" y="52.520586"/>
     <use style="fill:#ff0000;stroke:#ff0000;" x="615.54837" xlink:href="#m791d75f1a2" y="67.465885"/>
     <use style="fill:#ff0000;stroke:#ff0000;" x="627.678804" xlink:href="#m791d75f1a2" y="94.41981"/>
     <use style="fill:#ff0000;stroke:#ff0000;" x="639.809239" xlink:href="#m791d75f1a2" y="121.373735"/>
     <use style="fill:#ff0000;stroke:#ff0000;" x="651.939674" xlink:href="#m791d75f1a2" y="148.327659"/>
     <use style="fill:#ff0000;stroke:#ff0000;" x="664.070109" xlink:href="#m791d75f1a2" y="165.890222"/>
     <use style="fill:#ff0000;stroke:#ff0000;" x="676.200543" xlink:href="#m791d75f1a2" y="183.452785"/>
     <use style="fill:#ff0000;stroke:#ff0000;" x="688.330978" xlink:href="#m791d75f1a2" y="201.015348"/>
     <use style="fill:#ff0000;stroke:#ff0000;" x="700.461413" xlink:href="#m791d75f1a2" y="219.809971"/>
     <use style="fill:#ff0000;stroke:#ff0000;" x="712.591848" xlink:href="#m791d75f1a2" y="238.604595"/>
     <use style="fill:#ff0000;stroke:#ff0000;" x="724.722283" xlink:href="#m791d75f1a2" y="257.399219"/>
     <use style="fill:#ff0000;stroke:#ff0000;" x="736.852717" xlink:href="#m791d75f1a2" y="266.151131"/>
     <use style="fill:#ff0000;stroke:#ff0000;" x="748.983152" xlink:href="#m791d75f1a2" y="274.903044"/>
     <use style="fill:#ff0000;stroke:#ff0000;" x="761.113587" xlink:href="#m791d75f1a2" y="283.654956"/>
     <use style="fill:#ff0000;stroke:#ff0000;" x="773.244022" xlink:href="#m791d75f1a2" y="282.716613"/>
     <use style="fill:#ff0000;stroke:#ff0000;" x="785.374457" xlink:href="#m791d75f1a2" y="281.77827"/>
     <use style="fill:#ff0000;stroke:#ff0000;" x="797.504891" xlink:href="#m791d75f1a2" y="280.839927"/>
     <use style="fill:#ff0000;stroke:#ff0000;" x="809.635326" xlink:href="#m791d75f1a2" y="282.395937"/>
     <use style="fill:#ff0000;stroke:#ff0000;" x="821.765761" xlink:href="#m791d75f1a2" y="283.951947"/>
     <use style="fill:#ff0000;stroke:#ff0000;" x="833.896196" xlink:href="#m791d75f1a2" y="285.507957"/>
     <use style="fill:#ff0000;stroke:#ff0000;" x="846.02663" xlink:href="#m791d75f1a2" y="278.130417"/>
     <use style="fill:#ff0000;stroke:#ff0000;" x="858.157065" xlink:href="#m791d75f1a2" y="270.752878"/>
     <use style="fill:#ff0000;stroke:#ff0000;" x="870.2875" xlink:href="#m791d75f1a2" y="263.375338"/>
    </g>
   </g>
   <g id="line2d_15">
    <path clip-path="url(#p43e1220dba)" d="M 33.2875 282.173132 
L 45.417935 281.871827 
L 57.54837 281.570523 
L 69.678804 281.269219 
L 81.809239 279.619219 
L 93.939674 277.969219 
L 106.070109 276.319219 
L 118.200543 271.948071 
L 130.330978 267.576924 
L 142.461413 263.205776 
L 154.591848 252.253445 
L 166.722283 241.301115 
L 178.852717 230.348784 
L 190.983152 215.542942 
L 203.113587 200.7371 
L 215.244022 185.931258 
L 227.374457 145.809554 
L 239.504891 105.687851 
L 251.635326 65.566148 
L 263.765761 102.478089 
L 275.896196 139.39003 
L 288.02663 176.301971 
L 300.157065 181.03384 
L 312.2875 185.76571 
L 324.417935 190.497579 
L 336.54837 209.34202 
L 348.678804 228.186461 
L 360.809239 247.030902 
L 372.939674 253.441444 
L 385.070109 259.851986 
L 397.200543 266.262528 
L 409.330978 273.574758 
L 421.461413 280.886989 
L 433.591848 288.199219 
L 445.722283 288.199219 
L 457.852717 288.199219 
L 469.983152 288.199219 
L 482.113587 287.570647 
L 494.244022 286.942076 
L 506.374457 286.313504 
L 518.504891 284.204298 
L 530.635326 282.095092 
L 542.765761 279.985885 
L 554.896196 278.84674 
L 567.02663 277.707595 
L 579.157065 276.56845 
L 591.2875 261.62315 
L 603.417935 246.677851 
L 615.54837 231.732552 
L 627.678804 204.778628 
L 639.809239 177.824703 
L 651.939674 150.870778 
L 664.070109 133.308215 
L 676.200543 115.745653 
L 688.330978 98.18309 
L 700.461413 145.266244 
L 712.591848 192.349398 
L 724.722283 239.432552 
L 736.852717 249.629091 
L 748.983152 259.82563 
L 761.113587 270.02217 
L 773.244022 267.904195 
L 785.374457 265.78622 
L 797.504891 263.668245 
L 809.635326 269.153974 
L 821.765761 274.639703 
L 833.896196 280.125432 
L 846.02663 279.368933 
L 858.157065 278.612434 
L 870.2875 277.855935 
" style="fill:none;stroke:#008000;stroke-linecap:square;stroke-width:1.5;"/>
    <defs>
     <path d="M 0 3 
C 0.795609 3 1.55874 2.683901 2.12132 2.12132 
C 2.683901 1.55874 3 0.795609 3 0 
C 3 -0.795609 2.683901 -1.55874 2.12132 -2.12132 
C 1.55874 -2.683901 0.795609 -3 0 -3 
C -0.795609 -3 -1.55874 -2.683901 -2.12132 -2.12132 
C -2.683901 -1.55874 -3 -0.795609 -3 0 
C -3 0.795609 -2.683901 1.55874 -2.12132 2.12132 
C -1.55874 2.683901 -0.795609 3 0 3 
z
" id="mcc0fd39ed2" style="stroke:#008000;"/>
    </defs>
    <g clip-path="url(#p43e1220dba)">
     <use style="fill:#008000;stroke:#008000;" x="33.2875" xlink:href="#mcc0fd39ed2" y="282.173132"/>
     <use style="fill:#008000;stroke:#008000;" x="45.417935" xlink:href="#mcc0fd39ed2" y="281.871827"/>
     <use style="fill:#008000;stroke:#008000;" x="57.54837" xlink:href="#mcc0fd39ed2" y="281.570523"/>
     <use style="fill:#008000;stroke:#008000;" x="69.678804" xlink:href="#mcc0fd39ed2" y="281.269219"/>
     <use style="fill:#008000;stroke:#008000;" x="81.809239" xlink:href="#mcc0fd39ed2" y="279.619219"/>
     <use style="fill:#008000;stroke:#008000;" x="93.939674" xlink:href="#mcc0fd39ed2" y="277.969219"/>
     <use style="fill:#008000;stroke:#008000;" x="106.070109" xlink:href="#mcc0fd39ed2" y="276.319219"/>
     <use style="fill:#008000;stroke:#008000;" x="118.200543" xlink:href="#mcc0fd39ed2" y="271.948071"/>
     <use style="fill:#008000;stroke:#008000;" x="130.330978" xlink:href="#mcc0fd39ed2" y="267.576924"/>
     <use style="fill:#008000;stroke:#008000;" x="142.461413" xlink:href="#mcc0fd39ed2" y="263.205776"/>
     <use style="fill:#008000;stroke:#008000;" x="154.591848" xlink:href="#mcc0fd39ed2" y="252.253445"/>
     <use style="fill:#008000;stroke:#008000;" x="166.722283" xlink:href="#mcc0fd39ed2" y="241.301115"/>
     <use style="fill:#008000;stroke:#008000;" x="178.852717" xlink:href="#mcc0fd39ed2" y="230.348784"/>
     <use style="fill:#008000;stroke:#008000;" x="190.983152" xlink:href="#mcc0fd39ed2" y="215.542942"/>
     <use style="fill:#008000;stroke:#008000;" x="203.113587" xlink:href="#mcc0fd39ed2" y="200.7371"/>
     <use style="fill:#008000;stroke:#008000;" x="215.244022" xlink:href="#mcc0fd39ed2" y="185.931258"/>
     <use style="fill:#008000;stroke:#008000;" x="227.374457" xlink:href="#mcc0fd39ed2" y="145.809554"/>
     <use style="fill:#008000;stroke:#008000;" x="239.504891" xlink:href="#mcc0fd39ed2" y="105.687851"/>
     <use style="fill:#008000;stroke:#008000;" x="251.635326" xlink:href="#mcc0fd39ed2" y="65.566148"/>
     <use style="fill:#008000;stroke:#008000;" x="263.765761" xlink:href="#mcc0fd39ed2" y="102.478089"/>
     <use style="fill:#008000;stroke:#008000;" x="275.896196" xlink:href="#mcc0fd39ed2" y="139.39003"/>
     <use style="fill:#008000;stroke:#008000;" x="288.02663" xlink:href="#mcc0fd39ed2" y="176.301971"/>
     <use style="fill:#008000;stroke:#008000;" x="300.157065" xlink:href="#mcc0fd39ed2" y="181.03384"/>
     <use style="fill:#008000;stroke:#008000;" x="312.2875" xlink:href="#mcc0fd39ed2" y="185.76571"/>
     <use style="fill:#008000;stroke:#008000;" x="324.417935" xlink:href="#mcc0fd39ed2" y="190.497579"/>
     <use style="fill:#008000;stroke:#008000;" x="336.54837" xlink:href="#mcc0fd39ed2" y="209.34202"/>
     <use style="fill:#008000;stroke:#008000;" x="348.678804" xlink:href="#mcc0fd39ed2" y="228.186461"/>
     <use style="fill:#008000;stroke:#008000;" x="360.809239" xlink:href="#mcc0fd39ed2" y="247.030902"/>
     <use style="fill:#008000;stroke:#008000;" x="372.939674" xlink:href="#mcc0fd39ed2" y="253.441444"/>
     <use style="fill:#008000;stroke:#008000;" x="385.070109" xlink:href="#mcc0fd39ed2" y="259.851986"/>
     <use style="fill:#008000;stroke:#008000;" x="397.200543" xlink:href="#mcc0fd39ed2" y="266.262528"/>
     <use style="fill:#008000;stroke:#008000;" x="409.330978" xlink:href="#mcc0fd39ed2" y="273.574758"/>
     <use style="fill:#008000;stroke:#008000;" x="421.461413" xlink:href="#mcc0fd39ed2" y="280.886989"/>
     <use style="fill:#008000;stroke:#008000;" x="433.591848" xlink:href="#mcc0fd39ed2" y="288.199219"/>
     <use style="fill:#008000;stroke:#008000;" x="445.722283" xlink:href="#mcc0fd39ed2" y="288.199219"/>
     <use style="fill:#008000;stroke:#008000;" x="457.852717" xlink:href="#mcc0fd39ed2" y="288.199219"/>
     <use style="fill:#008000;stroke:#008000;" x="469.983152" xlink:href="#mcc0fd39ed2" y="288.199219"/>
     <use style="fill:#008000;stroke:#008000;" x="482.113587" xlink:href="#mcc0fd39ed2" y="287.570647"/>
     <use style="fill:#008000;stroke:#008000;" x="494.244022" xlink:href="#mcc0fd39ed2" y="286.942076"/>
     <use style="fill:#008000;stroke:#008000;" x="506.374457" xlink:href="#mcc0fd39ed2" y="286.313504"/>
     <use style="fill:#008000;stroke:#008000;" x="518.504891" xlink:href="#mcc0fd39ed2" y="284.204298"/>
     <use style="fill:#008000;stroke:#008000;" x="530.635326" xlink:href="#mcc0fd39ed2" y="282.095092"/>
     <use style="fill:#008000;stroke:#008000;" x="542.765761" xlink:href="#mcc0fd39ed2" y="279.985885"/>
     <use style="fill:#008000;stroke:#008000;" x="554.896196" xlink:href="#mcc0fd39ed2" y="278.84674"/>
     <use style="fill:#008000;stroke:#008000;" x="567.02663" xlink:href="#mcc0fd39ed2" y="277.707595"/>
     <use style="fill:#008000;stroke:#008000;" x="579.157065" xlink:href="#mcc0fd39ed2" y="276.56845"/>
     <use style="fill:#008000;stroke:#008000;" x="591.2875" xlink:href="#mcc0fd39ed2" y="261.62315"/>
     <use style="fill:#008000;stroke:#008000;" x="603.417935" xlink:href="#mcc0fd39ed2" y="246.677851"/>
     <use style="fill:#008000;stroke:#008000;" x="615.54837" xlink:href="#mcc0fd39ed2" y="231.732552"/>
     <use style="fill:#008000;stroke:#008000;" x="627.678804" xlink:href="#mcc0fd39ed2" y="204.778628"/>
     <use style="fill:#008000;stroke:#008000;" x="639.809239" xlink:href="#mcc0fd39ed2" y="177.824703"/>
     <use style="fill:#008000;stroke:#008000;" x="651.939674" xlink:href="#mcc0fd39ed2" y="150.870778"/>
     <use style="fill:#008000;stroke:#008000;" x="664.070109" xlink:href="#mcc0fd39ed2" y="133.308215"/>
     <use style="fill:#008000;stroke:#008000;" x="676.200543" xlink:href="#mcc0fd39ed2" y="115.745653"/>
     <use style="fill:#008000;stroke:#008000;" x="688.330978" xlink:href="#mcc0fd39ed2" y="98.18309"/>
     <use style="fill:#008000;stroke:#008000;" x="700.461413" xlink:href="#mcc0fd39ed2" y="145.266244"/>
     <use style="fill:#008000;stroke:#008000;" x="712.591848" xlink:href="#mcc0fd39ed2" y="192.349398"/>
     <use style="fill:#008000;stroke:#008000;" x="724.722283" xlink:href="#mcc0fd39ed2" y="239.432552"/>
     <use style="fill:#008000;stroke:#008000;" x="736.852717" xlink:href="#mcc0fd39ed2" y="249.629091"/>
     <use style="fill:#008000;stroke:#008000;" x="748.983152" xlink:href="#mcc0fd39ed2" y="259.82563"/>
     <use style="fill:#008000;stroke:#008000;" x="761.113587" xlink:href="#mcc0fd39ed2" y="270.02217"/>
     <use style="fill:#008000;stroke:#008000;" x="773.244022" xlink:href="#mcc0fd39ed2" y="267.904195"/>
     <use style="fill:#008000;stroke:#008000;" x="785.374457" xlink:href="#mcc0fd39ed2" y="265.78622"/>
     <use style="fill:#008000;stroke:#008000;" x="797.504891" xlink:href="#mcc0fd39ed2" y="263.668245"/>
     <use style="fill:#008000;stroke:#008000;" x="809.635326" xlink:href="#mcc0fd39ed2" y="269.153974"/>
     <use style="fill:#008000;stroke:#008000;" x="821.765761" xlink:href="#mcc0fd39ed2" y="274.639703"/>
     <use style="fill:#008000;stroke:#008000;" x="833.896196" xlink:href="#mcc0fd39ed2" y="280.125432"/>
     <use style="fill:#008000;stroke:#008000;" x="846.02663" xlink:href="#mcc0fd39ed2" y="279.368933"/>
     <use style="fill:#008000;stroke:#008000;" x="858.157065" xlink:href="#mcc0fd39ed2" y="278.612434"/>
     <use style="fill:#008000;stroke:#008000;" x="870.2875" xlink:href="#mcc0fd39ed2" y="277.855935"/>
    </g>
   </g>
   <g id="line2d_16">
    <path clip-path="url(#p43e1220dba)" d="M 33.2875 256.060088 
L 45.417935 266.003132 
L 57.54837 275.946175 
L 69.678804 285.889219 
L 81.809239 286.659219 
L 93.939674 287.429219 
L 106.070109 288.199219 
L 118.200543 287.441842 
L 130.330978 286.684465 
L 142.461413 285.927088 
L 154.591848 286.684465 
L 166.722283 287.441842 
L 178.852717 288.199219 
L 190.983152 288.199219 
L 203.113587 288.199219 
L 215.244022 288.199219 
L 227.374457 288.199219 
L 239.504891 288.199219 
L 251.635326 288.199219 
L 263.765761 237.336833 
L 275.896196 186.474448 
L 288.02663 135.612063 
L 300.157065 128.913792 
L 312.2875 122.215522 
L 324.417935 115.517252 
L 336.54837 97.145234 
L 348.678804 78.773216 
L 360.809239 60.401199 
L 372.939674 52.575599 
L 385.070109 44.749999 
L 397.200543 36.924399 
L 409.330978 58.874564 
L 421.461413 80.824729 
L 433.591848 102.774894 
L 445.722283 154.488885 
L 457.852717 206.202875 
L 469.983152 257.916866 
L 482.113587 266.753841 
L 494.244022 275.590815 
L 506.374457 284.42779 
L 518.504891 285.000489 
L 530.635326 285.573187 
L 542.765761 286.145885 
L 554.896196 286.83033 
L 567.02663 287.514774 
L 579.157065 288.199219 
L 591.2875 288.199219 
L 603.417935 288.199219 
L 615.54837 288.199219 
L 627.678804 288.199219 
L 639.809239 288.199219 
L 651.939674 288.199219 
L 664.070109 288.199219 
L 676.200543 288.199219 
L 688.330978 288.199219 
L 700.461413 222.321441 
L 712.591848 156.443663 
L 724.722283 90.565885 
L 736.852717 71.617434 
L 748.983152 52.668982 
L 761.113587 33.72053 
L 773.244022 36.776848 
L 785.374457 39.833166 
L 797.504891 42.889484 
L 809.635326 35.847745 
L 821.765761 28.806006 
L 833.896196 21.764267 
L 846.02663 29.898306 
L 858.157065 38.032344 
L 870.2875 46.166383 
" style="fill:none;stroke:#0000ff;stroke-linecap:square;stroke-width:1.5;"/>
    <defs>
     <path d="M 0 3 
C 0.795609 3 1.55874 2.683901 2.12132 2.12132 
C 2.683901 1.55874 3 0.795609 3 0 
C 3 -0.795609 2.683901 -1.55874 2.12132 -2.12132 
C 1.55874 -2.683901 0.795609 -3 0 -3 
C -0.795609 -3 -1.55874 -2.683901 -2.12132 -2.12132 
C -2.683901 -1.55874 -3 -0.795609 -3 0 
C -3 0.795609 -2.683901 1.55874 -2.12132 2.12132 
C -1.55874 2.683901 -0.795609 3 0 3 
z
" id="mba79a6943f" style="stroke:#0000ff;"/>
    </defs>
    <g clip-path="url(#p43e1220dba)">
     <use style="fill:#0000ff;stroke:#0000ff;" x="33.2875" xlink:href="#mba79a6943f" y="256.060088"/>
     <use style="fill:#0000ff;stroke:#0000ff;" x="45.417935" xlink:href="#mba79a6943f" y="266.003132"/>
     <use style="fill:#0000ff;stroke:#0000ff;" x="57.54837" xlink:href="#mba79a6943f" y="275.946175"/>
     <use style="fill:#0000ff;stroke:#0000ff;" x="69.678804" xlink:href="#mba79a6943f" y="285.889219"/>
     <use style="fill:#0000ff;stroke:#0000ff;" x="81.809239" xlink:href="#mba79a6943f" y="286.659219"/>
     <use style="fill:#0000ff;stroke:#0000ff;" x="93.939674" xlink:href="#mba79a6943f" y="287.429219"/>
     <use style="fill:#0000ff;stroke:#0000ff;" x="106.070109" xlink:href="#mba79a6943f" y="288.199219"/>
     <use style="fill:#0000ff;stroke:#0000ff;" x="118.200543" xlink:href="#mba79a6943f" y="287.441842"/>
     <use style="fill:#0000ff;stroke:#0000ff;" x="130.330978" xlink:href="#mba79a6943f" y="286.684465"/>
     <use style="fill:#0000ff;stroke:#0000ff;" x="142.461413" xlink:href="#mba79a6943f" y="285.927088"/>
     <use style="fill:#0000ff;stroke:#0000ff;" x="154.591848" xlink:href="#mba79a6943f" y="286.684465"/>
     <use style="fill:#0000ff;stroke:#0000ff;" x="166.722283" xlink:href="#mba79a6943f" y="287.441842"/>
     <use style="fill:#0000ff;stroke:#0000ff;" x="178.852717" xlink:href="#mba79a6943f" y="288.199219"/>
     <use style="fill:#0000ff;stroke:#0000ff;" x="190.983152" xlink:href="#mba79a6943f" y="288.199219"/>
     <use style="fill:#0000ff;stroke:#0000ff;" x="203.113587" xlink:href="#mba79a6943f" y="288.199219"/>
     <use style="fill:#0000ff;stroke:#0000ff;" x="215.244022" xlink:href="#mba79a6943f" y="288.199219"/>
     <use style="fill:#0000ff;stroke:#0000ff;" x="227.374457" xlink:href="#mba79a6943f" y="288.199219"/>
     <use style="fill:#0000ff;stroke:#0000ff;" x="239.504891" xlink:href="#mba79a6943f" y="288.199219"/>
     <use style="fill:#0000ff;stroke:#0000ff;" x="251.635326" xlink:href="#mba79a6943f" y="288.199219"/>
     <use style="fill:#0000ff;stroke:#0000ff;" x="263.765761" xlink:href="#mba79a6943f" y="237.336833"/>
     <use style="fill:#0000ff;stroke:#0000ff;" x="275.896196" xlink:href="#mba79a6943f" y="186.474448"/>
     <use style="fill:#0000ff;stroke:#0000ff;" x="288.02663" xlink:href="#mba79a6943f" y="135.612063"/>
     <use style="fill:#0000ff;stroke:#0000ff;" x="300.157065" xlink:href="#mba79a6943f" y="128.913792"/>
     <use style="fill:#0000ff;stroke:#0000ff;" x="312.2875" xlink:href="#mba79a6943f" y="122.215522"/>
     <use style="fill:#0000ff;stroke:#0000ff;" x="324.417935" xlink:href="#mba79a6943f" y="115.517252"/>
     <use style="fill:#0000ff;stroke:#0000ff;" x="336.54837" xlink:href="#mba79a6943f" y="97.145234"/>
     <use style="fill:#0000ff;stroke:#0000ff;" x="348.678804" xlink:href="#mba79a6943f" y="78.773216"/>
     <use style="fill:#0000ff;stroke:#0000ff;" x="360.809239" xlink:href="#mba79a6943f" y="60.401199"/>
     <use style="fill:#0000ff;stroke:#0000ff;" x="372.939674" xlink:href="#mba79a6943f" y="52.575599"/>
     <use style="fill:#0000ff;stroke:#0000ff;" x="385.070109" xlink:href="#mba79a6943f" y="44.749999"/>
     <use style="fill:#0000ff;stroke:#0000ff;" x="397.200543" xlink:href="#mba79a6943f" y="36.924399"/>
     <use style="fill:#0000ff;stroke:#0000ff;" x="409.330978" xlink:href="#mba79a6943f" y="58.874564"/>
     <use style="fill:#0000ff;stroke:#0000ff;" x="421.461413" xlink:href="#mba79a6943f" y="80.824729"/>
     <use style="fill:#0000ff;stroke:#0000ff;" x="433.591848" xlink:href="#mba79a6943f" y="102.774894"/>
     <use style="fill:#0000ff;stroke:#0000ff;" x="445.722283" xlink:href="#mba79a6943f" y="154.488885"/>
     <use style="fill:#0000ff;stroke:#0000ff;" x="457.852717" xlink:href="#mba79a6943f" y="206.202875"/>
     <use style="fill:#0000ff;stroke:#0000ff;" x="469.983152" xlink:href="#mba79a6943f" y="257.916866"/>
     <use style="fill:#0000ff;stroke:#0000ff;" x="482.113587" xlink:href="#mba79a6943f" y="266.753841"/>
     <use style="fill:#0000ff;stroke:#0000ff;" x="494.244022" xlink:href="#mba79a6943f" y="275.590815"/>
     <use style="fill:#0000ff;stroke:#0000ff;" x="506.374457" xlink:href="#mba79a6943f" y="284.42779"/>
     <use style="fill:#0000ff;stroke:#0000ff;" x="518.504891" xlink:href="#mba79a6943f" y="285.000489"/>
     <use style="fill:#0000ff;stroke:#0000ff;" x="530.635326" xlink:href="#mba79a6943f" y="285.573187"/>
     <use style="fill:#0000ff;stroke:#0000ff;" x="542.765761" xlink:href="#mba79a6943f" y="286.145885"/>
     <use style="fill:#0000ff;stroke:#0000ff;" x="554.896196" xlink:href="#mba79a6943f" y="286.83033"/>
     <use style="fill:#0000ff;stroke:#0000ff;" x="567.02663" xlink:href="#mba79a6943f" y="287.514774"/>
     <use style="fill:#0000ff;stroke:#0000ff;" x="579.157065" xlink:href="#mba79a6943f" y="288.199219"/>
     <use style="fill:#0000ff;stroke:#0000ff;" x="591.2875" xlink:href="#mba79a6943f" y="288.199219"/>
     <use style="fill:#0000ff;stroke:#0000ff;" x="603.417935" xlink:href="#mba79a6943f" y="288.199219"/>
     <use style="fill:#0000ff;stroke:#0000ff;" x="615.54837" xlink:href="#mba79a6943f" y="288.199219"/>
     <use style="fill:#0000ff;stroke:#0000ff;" x="627.678804" xlink:href="#mba79a6943f" y="288.199219"/>
     <use style="fill:#0000ff;stroke:#0000ff;" x="639.809239" xlink:href="#mba79a6943f" y="288.199219"/>
     <use style="fill:#0000ff;stroke:#0000ff;" x="651.939674" xlink:href="#mba79a6943f" y="288.199219"/>
     <use style="fill:#0000ff;stroke:#0000ff;" x="664.070109" xlink:href="#mba79a6943f" y="288.199219"/>
     <use style="fill:#0000ff;stroke:#0000ff;" x="676.200543" xlink:href="#mba79a6943f" y="288.199219"/>
     <use style="fill:#0000ff;stroke:#0000ff;" x="688.330978" xlink:href="#mba79a6943f" y="288.199219"/>
     <use style="fill:#0000ff;stroke:#0000ff;" x="700.461413" xlink:href="#mba79a6943f" y="222.321441"/>
     <use style="fill:#0000ff;stroke:#0000ff;" x="712.591848" xlink:href="#mba79a6943f" y="156.443663"/>
     <use style="fill:#0000ff;stroke:#0000ff;" x="724.722283" xlink:href="#mba79a6943f" y="90.565885"/>
     <use style="fill:#0000ff;stroke:#0000ff;" x="736.852717" xlink:href="#mba79a6943f" y="71.617434"/>
     <use style="fill:#0000ff;stroke:#0000ff;" x="748.983152" xlink:href="#mba79a6943f" y="52.668982"/>
     <use style="fill:#0000ff;stroke:#0000ff;" x="761.113587" xlink:href="#mba79a6943f" y="33.72053"/>
     <use style="fill:#0000ff;stroke:#0000ff;" x="773.244022" xlink:href="#mba79a6943f" y="36.776848"/>
     <use style="fill:#0000ff;stroke:#0000ff;" x="785.374457" xlink:href="#mba79a6943f" y="39.833166"/>
     <use style="fill:#0000ff;stroke:#0000ff;" x="797.504891" xlink:href="#mba79a6943f" y="42.889484"/>
     <use style="fill:#0000ff;stroke:#0000ff;" x="809.635326" xlink:href="#mba79a6943f" y="35.847745"/>
     <use style="fill:#0000ff;stroke:#0000ff;" x="821.765761" xlink:href="#mba79a6943f" y="28.806006"/>
     <use style="fill:#0000ff;stroke:#0000ff;" x="833.896196" xlink:href="#mba79a6943f" y="21.764267"/>
     <use style="fill:#0000ff;stroke:#0000ff;" x="846.02663" xlink:href="#mba79a6943f" y="29.898306"/>
     <use style="fill:#0000ff;stroke:#0000ff;" x="858.157065" xlink:href="#mba79a6943f" y="38.032344"/>
     <use style="fill:#0000ff;stroke:#0000ff;" x="870.2875" xlink:href="#mba79a6943f" y="46.166383"/>
    </g>
   </g>
   <g id="patch_3">
    <path d="M 33.2875 288.199219 
L 33.2875 10.999219 
" style="fill:none;stroke:#000000;stroke-linecap:square;stroke-linejoin:miter;stroke-width:0.8;"/>
   </g>
   <g id="patch_4">
    <path d="M 870.2875 288.199219 
L 870.2875 10.999219 
" style="fill:none;stroke:#000000;stroke-linecap:square;stroke-linejoin:miter;stroke-width:0.8;"/>
   </g>
   <g id="patch_5">
    <path d="M 33.2875 288.199219 
L 870.2875 288.199219 
" style="fill:none;stroke:#000000;stroke-linecap:square;stroke-linejoin:miter;stroke-width:0.8;"/>
   </g>
   <g id="patch_6">
    <path d="M 33.2875 10.999219 
L 870.2875 10.999219 
" style="fill:none;stroke:#000000;stroke-linecap:square;stroke-linejoin:miter;stroke-width:0.8;"/>
   </g>
  </g>
 </g>
 <defs>
  <clipPath id="p43e1220dba">
   <rect height="277.2" width="837" x="33.2875" y="10.999219"/>
  </clipPath>
 </defs>
</svg>
