<?xml version="1.0" encoding="utf-8" standalone="no"?>
<!DOCTYPE svg PUBLIC "-//W3C//DTD SVG 1.1//EN"
  "http://www.w3.org/Graphics/SVG/1.1/DTD/svg11.dtd">
<!-- Created with matplotlib (https://matplotlib.org/) -->
<svg height="312.077344pt" version="1.1" viewBox="0 0 883.85 312.077344" width="883.85pt" xmlns="http://www.w3.org/2000/svg" xmlns:xlink="http://www.w3.org/1999/xlink">
 <defs>
  <style type="text/css">
*{stroke-linecap:butt;stroke-linejoin:round;}
  </style>
 </defs>
 <g id="figure_1">
  <g id="patch_1">
   <path d="M 0 312.077344 
L 883.85 312.077344 
L 883.85 0 
L 0 0 
z
" style="fill:#ffffff;"/>
  </g>
  <g id="axes_1">
   <g id="patch_2">
    <path d="M 33.2875 288.199219 
L 870.2875 288.199219 
L 870.2875 10.999219 
L 33.2875 10.999219 
z
" style="fill:#ffffff;"/>
   </g>
   <g id="matplotlib.axis_1">
    <g id="xtick_1">
     <g id="line2d_1">
      <defs>
       <path d="M 0 0 
L 0 3.5 
" id="m83f5296d81" style="stroke:#000000;stroke-width:0.8;"/>
      </defs>
      <g>
       <use style="stroke:#000000;stroke-width:0.8;" x="33.2875" xlink:href="#m83f5296d81" y="288.199219"/>
      </g>
     </g>
     <g id="text_1">
      <!-- 0 -->
      <defs>
       <path d="M 31.78125 66.40625 
Q 24.171875 66.40625 20.328125 58.90625 
Q 16.5 51.421875 16.5 36.375 
Q 16.5 21.390625 20.328125 13.890625 
Q 24.171875 6.390625 31.78125 6.390625 
Q 39.453125 6.390625 43.28125 13.890625 
Q 47.125 21.390625 47.125 36.375 
Q 47.125 51.421875 43.28125 58.90625 
Q 39.453125 66.40625 31.78125 66.40625 
z
M 31.78125 74.21875 
Q 44.046875 74.21875 50.515625 64.515625 
Q 56.984375 54.828125 56.984375 36.375 
Q 56.984375 17.96875 50.515625 8.265625 
Q 44.046875 -1.421875 31.78125 -1.421875 
Q 19.53125 -1.421875 13.0625 8.265625 
Q 6.59375 17.96875 6.59375 36.375 
Q 6.59375 54.828125 13.0625 64.515625 
Q 19.53125 74.21875 31.78125 74.21875 
z
" id="DejaVuSans-48"/>
      </defs>
      <g transform="translate(30.10625 302.797656)scale(0.1 -0.1)">
       <use xlink:href="#DejaVuSans-48"/>
      </g>
     </g>
    </g>
    <g id="xtick_2">
     <g id="line2d_2">
      <g>
       <use style="stroke:#000000;stroke-width:0.8;" x="152.858929" xlink:href="#m83f5296d81" y="288.199219"/>
      </g>
     </g>
     <g id="text_2">
      <!-- 5 -->
      <defs>
       <path d="M 10.796875 72.90625 
L 49.515625 72.90625 
L 49.515625 64.59375 
L 19.828125 64.59375 
L 19.828125 46.734375 
Q 21.96875 47.46875 24.109375 47.828125 
Q 26.265625 48.1875 28.421875 48.1875 
Q 40.625 48.1875 47.75 41.5 
Q 54.890625 34.8125 54.890625 23.390625 
Q 54.890625 11.625 47.5625 5.09375 
Q 40.234375 -1.421875 26.90625 -1.421875 
Q 22.3125 -1.421875 17.546875 -0.640625 
Q 12.796875 0.140625 7.71875 1.703125 
L 7.71875 11.625 
Q 12.109375 9.234375 16.796875 8.0625 
Q 21.484375 6.890625 26.703125 6.890625 
Q 35.15625 6.890625 40.078125 11.328125 
Q 45.015625 15.765625 45.015625 23.390625 
Q 45.015625 31 40.078125 35.4375 
Q 35.15625 39.890625 26.703125 39.890625 
Q 22.75 39.890625 18.8125 39.015625 
Q 14.890625 38.140625 10.796875 36.28125 
z
" id="DejaVuSans-53"/>
      </defs>
      <g transform="translate(149.677679 302.797656)scale(0.1 -0.1)">
       <use xlink:href="#DejaVuSans-53"/>
      </g>
     </g>
    </g>
    <g id="xtick_3">
     <g id="line2d_3">
      <g>
       <use style="stroke:#000000;stroke-width:0.8;" x="272.430357" xlink:href="#m83f5296d81" y="288.199219"/>
      </g>
     </g>
     <g id="text_3">
      <!-- 10 -->
      <defs>
       <path d="M 12.40625 8.296875 
L 28.515625 8.296875 
L 28.515625 63.921875 
L 10.984375 60.40625 
L 10.984375 69.390625 
L 28.421875 72.90625 
L 38.28125 72.90625 
L 38.28125 8.296875 
L 54.390625 8.296875 
L 54.390625 0 
L 12.40625 0 
z
" id="DejaVuSans-49"/>
      </defs>
      <g transform="translate(266.067857 302.797656)scale(0.1 -0.1)">
       <use xlink:href="#DejaVuSans-49"/>
       <use x="63.623047" xlink:href="#DejaVuSans-48"/>
      </g>
     </g>
    </g>
    <g id="xtick_4">
     <g id="line2d_4">
      <g>
       <use style="stroke:#000000;stroke-width:0.8;" x="392.001786" xlink:href="#m83f5296d81" y="288.199219"/>
      </g>
     </g>
     <g id="text_4">
      <!-- 15 -->
      <g transform="translate(385.639286 302.797656)scale(0.1 -0.1)">
       <use xlink:href="#DejaVuSans-49"/>
       <use x="63.623047" xlink:href="#DejaVuSans-53"/>
      </g>
     </g>
    </g>
    <g id="xtick_5">
     <g id="line2d_5">
      <g>
       <use style="stroke:#000000;stroke-width:0.8;" x="511.573214" xlink:href="#m83f5296d81" y="288.199219"/>
      </g>
     </g>
     <g id="text_5">
      <!-- 20 -->
      <defs>
       <path d="M 19.1875 8.296875 
L 53.609375 8.296875 
L 53.609375 0 
L 7.328125 0 
L 7.328125 8.296875 
Q 12.9375 14.109375 22.625 23.890625 
Q 32.328125 33.6875 34.8125 36.53125 
Q 39.546875 41.84375 41.421875 45.53125 
Q 43.3125 49.21875 43.3125 52.78125 
Q 43.3125 58.59375 39.234375 62.25 
Q 35.15625 65.921875 28.609375 65.921875 
Q 23.96875 65.921875 18.8125 64.3125 
Q 13.671875 62.703125 7.8125 59.421875 
L 7.8125 69.390625 
Q 13.765625 71.78125 18.9375 73 
Q 24.125 74.21875 28.421875 74.21875 
Q 39.75 74.21875 46.484375 68.546875 
Q 53.21875 62.890625 53.21875 53.421875 
Q 53.21875 48.921875 51.53125 44.890625 
Q 49.859375 40.875 45.40625 35.40625 
Q 44.1875 33.984375 37.640625 27.21875 
Q 31.109375 20.453125 19.1875 8.296875 
z
" id="DejaVuSans-50"/>
      </defs>
      <g transform="translate(505.210714 302.797656)scale(0.1 -0.1)">
       <use xlink:href="#DejaVuSans-50"/>
       <use x="63.623047" xlink:href="#DejaVuSans-48"/>
      </g>
     </g>
    </g>
    <g id="xtick_6">
     <g id="line2d_6">
      <g>
       <use style="stroke:#000000;stroke-width:0.8;" x="631.144643" xlink:href="#m83f5296d81" y="288.199219"/>
      </g>
     </g>
     <g id="text_6">
      <!-- 25 -->
      <g transform="translate(624.782143 302.797656)scale(0.1 -0.1)">
       <use xlink:href="#DejaVuSans-50"/>
       <use x="63.623047" xlink:href="#DejaVuSans-53"/>
      </g>
     </g>
    </g>
    <g id="xtick_7">
     <g id="line2d_7">
      <g>
       <use style="stroke:#000000;stroke-width:0.8;" x="750.716071" xlink:href="#m83f5296d81" y="288.199219"/>
      </g>
     </g>
     <g id="text_7">
      <!-- 30 -->
      <defs>
       <path d="M 40.578125 39.3125 
Q 47.65625 37.796875 51.625 33 
Q 55.609375 28.21875 55.609375 21.1875 
Q 55.609375 10.40625 48.1875 4.484375 
Q 40.765625 -1.421875 27.09375 -1.421875 
Q 22.515625 -1.421875 17.65625 -0.515625 
Q 12.796875 0.390625 7.625 2.203125 
L 7.625 11.71875 
Q 11.71875 9.328125 16.59375 8.109375 
Q 21.484375 6.890625 26.8125 6.890625 
Q 36.078125 6.890625 40.9375 10.546875 
Q 45.796875 14.203125 45.796875 21.1875 
Q 45.796875 27.640625 41.28125 31.265625 
Q 36.765625 34.90625 28.71875 34.90625 
L 20.21875 34.90625 
L 20.21875 43.015625 
L 29.109375 43.015625 
Q 36.375 43.015625 40.234375 45.921875 
Q 44.09375 48.828125 44.09375 54.296875 
Q 44.09375 59.90625 40.109375 62.90625 
Q 36.140625 65.921875 28.71875 65.921875 
Q 24.65625 65.921875 20.015625 65.03125 
Q 15.375 64.15625 9.8125 62.3125 
L 9.8125 71.09375 
Q 15.4375 72.65625 20.34375 73.4375 
Q 25.25 74.21875 29.59375 74.21875 
Q 40.828125 74.21875 47.359375 69.109375 
Q 53.90625 64.015625 53.90625 55.328125 
Q 53.90625 49.265625 50.4375 45.09375 
Q 46.96875 40.921875 40.578125 39.3125 
z
" id="DejaVuSans-51"/>
      </defs>
      <g transform="translate(744.353571 302.797656)scale(0.1 -0.1)">
       <use xlink:href="#DejaVuSans-51"/>
       <use x="63.623047" xlink:href="#DejaVuSans-48"/>
      </g>
     </g>
    </g>
    <g id="xtick_8">
     <g id="line2d_8">
      <g>
       <use style="stroke:#000000;stroke-width:0.8;" x="870.2875" xlink:href="#m83f5296d81" y="288.199219"/>
      </g>
     </g>
     <g id="text_8">
      <!-- 35 -->
      <g transform="translate(863.925 302.797656)scale(0.1 -0.1)">
       <use xlink:href="#DejaVuSans-51"/>
       <use x="63.623047" xlink:href="#DejaVuSans-53"/>
      </g>
     </g>
    </g>
   </g>
   <g id="matplotlib.axis_2">
    <g id="ytick_1">
     <g id="line2d_9">
      <defs>
       <path d="M 0 0 
L -3.5 0 
" id="m6e03388c54" style="stroke:#000000;stroke-width:0.8;"/>
      </defs>
      <g>
       <use style="stroke:#000000;stroke-width:0.8;" x="33.2875" xlink:href="#m6e03388c54" y="288.199219"/>
      </g>
     </g>
     <g id="text_9">
      <!-- 0 -->
      <g transform="translate(19.925 291.998438)scale(0.1 -0.1)">
       <use xlink:href="#DejaVuSans-48"/>
      </g>
     </g>
    </g>
    <g id="ytick_2">
     <g id="line2d_10">
      <g>
       <use style="stroke:#000000;stroke-width:0.8;" x="33.2875" xlink:href="#m6e03388c54" y="232.759219"/>
      </g>
     </g>
     <g id="text_10">
      <!-- 20 -->
      <g transform="translate(13.5625 236.558438)scale(0.1 -0.1)">
       <use xlink:href="#DejaVuSans-50"/>
       <use x="63.623047" xlink:href="#DejaVuSans-48"/>
      </g>
     </g>
    </g>
    <g id="ytick_3">
     <g id="line2d_11">
      <g>
       <use style="stroke:#000000;stroke-width:0.8;" x="33.2875" xlink:href="#m6e03388c54" y="177.319219"/>
      </g>
     </g>
     <g id="text_11">
      <!-- 40 -->
      <defs>
       <path d="M 37.796875 64.3125 
L 12.890625 25.390625 
L 37.796875 25.390625 
z
M 35.203125 72.90625 
L 47.609375 72.90625 
L 47.609375 25.390625 
L 58.015625 25.390625 
L 58.015625 17.1875 
L 47.609375 17.1875 
L 47.609375 0 
L 37.796875 0 
L 37.796875 17.1875 
L 4.890625 17.1875 
L 4.890625 26.703125 
z
" id="DejaVuSans-52"/>
      </defs>
      <g transform="translate(13.5625 181.118438)scale(0.1 -0.1)">
       <use xlink:href="#DejaVuSans-52"/>
       <use x="63.623047" xlink:href="#DejaVuSans-48"/>
      </g>
     </g>
    </g>
    <g id="ytick_4">
     <g id="line2d_12">
      <g>
       <use style="stroke:#000000;stroke-width:0.8;" x="33.2875" xlink:href="#m6e03388c54" y="121.879219"/>
      </g>
     </g>
     <g id="text_12">
      <!-- 60 -->
      <defs>
       <path d="M 33.015625 40.375 
Q 26.375 40.375 22.484375 35.828125 
Q 18.609375 31.296875 18.609375 23.390625 
Q 18.609375 15.53125 22.484375 10.953125 
Q 26.375 6.390625 33.015625 6.390625 
Q 39.65625 6.390625 43.53125 10.953125 
Q 47.40625 15.53125 47.40625 23.390625 
Q 47.40625 31.296875 43.53125 35.828125 
Q 39.65625 40.375 33.015625 40.375 
z
M 52.59375 71.296875 
L 52.59375 62.3125 
Q 48.875 64.0625 45.09375 64.984375 
Q 41.3125 65.921875 37.59375 65.921875 
Q 27.828125 65.921875 22.671875 59.328125 
Q 17.53125 52.734375 16.796875 39.40625 
Q 19.671875 43.65625 24.015625 45.921875 
Q 28.375 48.1875 33.59375 48.1875 
Q 44.578125 48.1875 50.953125 41.515625 
Q 57.328125 34.859375 57.328125 23.390625 
Q 57.328125 12.15625 50.6875 5.359375 
Q 44.046875 -1.421875 33.015625 -1.421875 
Q 20.359375 -1.421875 13.671875 8.265625 
Q 6.984375 17.96875 6.984375 36.375 
Q 6.984375 53.65625 15.1875 63.9375 
Q 23.390625 74.21875 37.203125 74.21875 
Q 40.921875 74.21875 44.703125 73.484375 
Q 48.484375 72.75 52.59375 71.296875 
z
" id="DejaVuSans-54"/>
      </defs>
      <g transform="translate(13.5625 125.678438)scale(0.1 -0.1)">
       <use xlink:href="#DejaVuSans-54"/>
       <use x="63.623047" xlink:href="#DejaVuSans-48"/>
      </g>
     </g>
    </g>
    <g id="ytick_5">
     <g id="line2d_13">
      <g>
       <use style="stroke:#000000;stroke-width:0.8;" x="33.2875" xlink:href="#m6e03388c54" y="66.439219"/>
      </g>
     </g>
     <g id="text_13">
      <!-- 80 -->
      <defs>
       <path d="M 31.78125 34.625 
Q 24.75 34.625 20.71875 30.859375 
Q 16.703125 27.09375 16.703125 20.515625 
Q 16.703125 13.921875 20.71875 10.15625 
Q 24.75 6.390625 31.78125 6.390625 
Q 38.8125 6.390625 42.859375 10.171875 
Q 46.921875 13.96875 46.921875 20.515625 
Q 46.921875 27.09375 42.890625 30.859375 
Q 38.875 34.625 31.78125 34.625 
z
M 21.921875 38.8125 
Q 15.578125 40.375 12.03125 44.71875 
Q 8.5 49.078125 8.5 55.328125 
Q 8.5 64.0625 14.71875 69.140625 
Q 20.953125 74.21875 31.78125 74.21875 
Q 42.671875 74.21875 48.875 69.140625 
Q 55.078125 64.0625 55.078125 55.328125 
Q 55.078125 49.078125 51.53125 44.71875 
Q 48 40.375 41.703125 38.8125 
Q 48.828125 37.15625 52.796875 32.3125 
Q 56.78125 27.484375 56.78125 20.515625 
Q 56.78125 9.90625 50.3125 4.234375 
Q 43.84375 -1.421875 31.78125 -1.421875 
Q 19.734375 -1.421875 13.25 4.234375 
Q 6.78125 9.90625 6.78125 20.515625 
Q 6.78125 27.484375 10.78125 32.3125 
Q 14.796875 37.15625 21.921875 38.8125 
z
M 18.3125 54.390625 
Q 18.3125 48.734375 21.84375 45.5625 
Q 25.390625 42.390625 31.78125 42.390625 
Q 38.140625 42.390625 41.71875 45.5625 
Q 45.3125 48.734375 45.3125 54.390625 
Q 45.3125 60.0625 41.71875 63.234375 
Q 38.140625 66.40625 31.78125 66.40625 
Q 25.390625 66.40625 21.84375 63.234375 
Q 18.3125 60.0625 18.3125 54.390625 
z
" id="DejaVuSans-56"/>
      </defs>
      <g transform="translate(13.5625 70.238438)scale(0.1 -0.1)">
       <use xlink:href="#DejaVuSans-56"/>
       <use x="63.623047" xlink:href="#DejaVuSans-48"/>
      </g>
     </g>
    </g>
    <g id="ytick_6">
     <g id="line2d_14">
      <g>
       <use style="stroke:#000000;stroke-width:0.8;" x="33.2875" xlink:href="#m6e03388c54" y="10.999219"/>
      </g>
     </g>
     <g id="text_14">
      <!-- 100 -->
      <g transform="translate(7.2 14.798438)scale(0.1 -0.1)">
       <use xlink:href="#DejaVuSans-49"/>
       <use x="63.623047" xlink:href="#DejaVuSans-48"/>
       <use x="127.246094" xlink:href="#DejaVuSans-48"/>
      </g>
     </g>
    </g>
   </g>
   <g id="line2d_15">
    <path clip-path="url(#p29f2eda5f5)" d="M 33.2875 45.223004 
L 57.201786 36.297933 
L 81.116071 27.372861 
L 105.030357 18.44779 
L 128.944643 19.656044 
L 152.858929 20.864298 
L 176.773214 22.072552 
L 200.6875 24.864165 
L 224.601786 27.655778 
L 248.516071 30.44739 
L 272.430357 43.017517 
L 296.344643 55.587643 
L 320.258929 68.157769 
L 344.173214 89.037653 
L 368.0875 109.917536 
L 392.001786 130.79742 
L 415.916071 159.639553 
L 439.830357 188.481686 
L 463.744643 217.323819 
L 487.658929 233.696353 
L 511.573214 250.068887 
L 535.4875 266.441421 
L 559.401786 271.800577 
L 583.316071 277.159734 
L 607.230357 282.518891 
L 631.144643 281.813508 
L 655.058929 281.108124 
L 678.973214 280.402741 
L 702.8875 281.888275 
L 726.801786 283.373809 
L 750.716071 284.859343 
L 774.630357 266.539376 
L 798.544643 248.219408 
L 822.458929 229.899441 
L 846.373214 144.709553 
L 870.2875 92.995562 
" style="fill:none;stroke:#ff0000;stroke-linecap:square;stroke-width:1.5;"/>
    <defs>
     <path d="M 0 3 
C 0.795609 3 1.55874 2.683901 2.12132 2.12132 
C 2.683901 1.55874 3 0.795609 3 0 
C 3 -0.795609 2.683901 -1.55874 2.12132 -2.12132 
C 1.55874 -2.683901 0.795609 -3 0 -3 
C -0.795609 -3 -1.55874 -2.683901 -2.12132 -2.12132 
C -2.683901 -1.55874 -3 -0.795609 -3 0 
C -3 0.795609 -2.683901 1.55874 -2.12132 2.12132 
C -1.55874 2.683901 -0.795609 3 0 3 
z
" id="mb3cfee4db3" style="stroke:#ff0000;"/>
    </defs>
    <g clip-path="url(#p29f2eda5f5)">
     <use style="fill:#ff0000;stroke:#ff0000;" x="33.2875" xlink:href="#mb3cfee4db3" y="45.223004"/>
     <use style="fill:#ff0000;stroke:#ff0000;" x="57.201786" xlink:href="#mb3cfee4db3" y="36.297933"/>
     <use style="fill:#ff0000;stroke:#ff0000;" x="81.116071" xlink:href="#mb3cfee4db3" y="27.372861"/>
     <use style="fill:#ff0000;stroke:#ff0000;" x="105.030357" xlink:href="#mb3cfee4db3" y="18.44779"/>
     <use style="fill:#ff0000;stroke:#ff0000;" x="128.944643" xlink:href="#mb3cfee4db3" y="19.656044"/>
     <use style="fill:#ff0000;stroke:#ff0000;" x="152.858929" xlink:href="#mb3cfee4db3" y="20.864298"/>
     <use style="fill:#ff0000;stroke:#ff0000;" x="176.773214" xlink:href="#mb3cfee4db3" y="22.072552"/>
     <use style="fill:#ff0000;stroke:#ff0000;" x="200.6875" xlink:href="#mb3cfee4db3" y="24.864165"/>
     <use style="fill:#ff0000;stroke:#ff0000;" x="224.601786" xlink:href="#mb3cfee4db3" y="27.655778"/>
     <use style="fill:#ff0000;stroke:#ff0000;" x="248.516071" xlink:href="#mb3cfee4db3" y="30.44739"/>
     <use style="fill:#ff0000;stroke:#ff0000;" x="272.430357" xlink:href="#mb3cfee4db3" y="43.017517"/>
     <use style="fill:#ff0000;stroke:#ff0000;" x="296.344643" xlink:href="#mb3cfee4db3" y="55.587643"/>
     <use style="fill:#ff0000;stroke:#ff0000;" x="320.258929" xlink:href="#mb3cfee4db3" y="68.157769"/>
     <use style="fill:#ff0000;stroke:#ff0000;" x="344.173214" xlink:href="#mb3cfee4db3" y="89.037653"/>
     <use style="fill:#ff0000;stroke:#ff0000;" x="368.0875" xlink:href="#mb3cfee4db3" y="109.917536"/>
     <use style="fill:#ff0000;stroke:#ff0000;" x="392.001786" xlink:href="#mb3cfee4db3" y="130.79742"/>
     <use style="fill:#ff0000;stroke:#ff0000;" x="415.916071" xlink:href="#mb3cfee4db3" y="159.639553"/>
     <use style="fill:#ff0000;stroke:#ff0000;" x="439.830357" xlink:href="#mb3cfee4db3" y="188.481686"/>
     <use style="fill:#ff0000;stroke:#ff0000;" x="463.744643" xlink:href="#mb3cfee4db3" y="217.323819"/>
     <use style="fill:#ff0000;stroke:#ff0000;" x="487.658929" xlink:href="#mb3cfee4db3" y="233.696353"/>
     <use style="fill:#ff0000;stroke:#ff0000;" x="511.573214" xlink:href="#mb3cfee4db3" y="250.068887"/>
     <use style="fill:#ff0000;stroke:#ff0000;" x="535.4875" xlink:href="#mb3cfee4db3" y="266.441421"/>
     <use style="fill:#ff0000;stroke:#ff0000;" x="559.401786" xlink:href="#mb3cfee4db3" y="271.800577"/>
     <use style="fill:#ff0000;stroke:#ff0000;" x="583.316071" xlink:href="#mb3cfee4db3" y="277.159734"/>
     <use style="fill:#ff0000;stroke:#ff0000;" x="607.230357" xlink:href="#mb3cfee4db3" y="282.518891"/>
     <use style="fill:#ff0000;stroke:#ff0000;" x="631.144643" xlink:href="#mb3cfee4db3" y="281.813508"/>
     <use style="fill:#ff0000;stroke:#ff0000;" x="655.058929" xlink:href="#mb3cfee4db3" y="281.108124"/>
     <use style="fill:#ff0000;stroke:#ff0000;" x="678.973214" xlink:href="#mb3cfee4db3" y="280.402741"/>
     <use style="fill:#ff0000;stroke:#ff0000;" x="702.8875" xlink:href="#mb3cfee4db3" y="281.888275"/>
     <use style="fill:#ff0000;stroke:#ff0000;" x="726.801786" xlink:href="#mb3cfee4db3" y="283.373809"/>
     <use style="fill:#ff0000;stroke:#ff0000;" x="750.716071" xlink:href="#mb3cfee4db3" y="284.859343"/>
     <use style="fill:#ff0000;stroke:#ff0000;" x="774.630357" xlink:href="#mb3cfee4db3" y="266.539376"/>
     <use style="fill:#ff0000;stroke:#ff0000;" x="798.544643" xlink:href="#mb3cfee4db3" y="248.219408"/>
     <use style="fill:#ff0000;stroke:#ff0000;" x="822.458929" xlink:href="#mb3cfee4db3" y="229.899441"/>
     <use style="fill:#ff0000;stroke:#ff0000;" x="846.373214" xlink:href="#mb3cfee4db3" y="144.709553"/>
     <use style="fill:#ff0000;stroke:#ff0000;" x="870.2875" xlink:href="#mb3cfee4db3" y="92.995562"/>
    </g>
   </g>
   <g id="line2d_16">
    <path clip-path="url(#p29f2eda5f5)" d="M 33.2875 285.186175 
L 57.201786 284.721237 
L 81.116071 284.256299 
L 105.030357 283.791362 
L 128.944643 281.911758 
L 152.858929 280.032155 
L 176.773214 278.152552 
L 200.6875 275.397406 
L 224.601786 272.642259 
L 248.516071 269.887113 
L 272.430357 256.938298 
L 296.344643 243.989483 
L 320.258929 231.040668 
L 344.173214 210.160785 
L 368.0875 189.280901 
L 392.001786 168.401018 
L 415.916071 139.558885 
L 439.830357 110.716752 
L 463.744643 81.874619 
L 487.658929 123.872166 
L 511.573214 165.869714 
L 535.4875 207.867262 
L 559.401786 215.331466 
L 583.316071 222.79567 
L 607.230357 230.259874 
L 631.144643 238.623108 
L 655.058929 246.986341 
L 678.973214 255.349574 
L 702.8875 261.297709 
L 726.801786 267.245845 
L 750.716071 273.19398 
L 774.630357 276.471846 
L 798.544643 279.749711 
L 822.458929 283.027577 
L 846.373214 288.199219 
L 870.2875 288.199219 
" style="fill:none;stroke:#008000;stroke-linecap:square;stroke-width:1.5;"/>
    <defs>
     <path d="M 0 3 
C 0.795609 3 1.55874 2.683901 2.12132 2.12132 
C 2.683901 1.55874 3 0.795609 3 0 
C 3 -0.795609 2.683901 -1.55874 2.12132 -2.12132 
C 1.55874 -2.683901 0.795609 -3 0 -3 
C -0.795609 -3 -1.55874 -2.683901 -2.12132 -2.12132 
C -2.683901 -1.55874 -3 -0.795609 -3 0 
C -3 0.795609 -2.683901 1.55874 -2.12132 2.12132 
C -1.55874 2.683901 -0.795609 3 0 3 
z
" id="m176931273e" style="stroke:#008000;"/>
    </defs>
    <g clip-path="url(#p29f2eda5f5)">
     <use style="fill:#008000;stroke:#008000;" x="33.2875" xlink:href="#m176931273e" y="285.186175"/>
     <use style="fill:#008000;stroke:#008000;" x="57.201786" xlink:href="#m176931273e" y="284.721237"/>
     <use style="fill:#008000;stroke:#008000;" x="81.116071" xlink:href="#m176931273e" y="284.256299"/>
     <use style="fill:#008000;stroke:#008000;" x="105.030357" xlink:href="#m176931273e" y="283.791362"/>
     <use style="fill:#008000;stroke:#008000;" x="128.944643" xlink:href="#m176931273e" y="281.911758"/>
     <use style="fill:#008000;stroke:#008000;" x="152.858929" xlink:href="#m176931273e" y="280.032155"/>
     <use style="fill:#008000;stroke:#008000;" x="176.773214" xlink:href="#m176931273e" y="278.152552"/>
     <use style="fill:#008000;stroke:#008000;" x="200.6875" xlink:href="#m176931273e" y="275.397406"/>
     <use style="fill:#008000;stroke:#008000;" x="224.601786" xlink:href="#m176931273e" y="272.642259"/>
     <use style="fill:#008000;stroke:#008000;" x="248.516071" xlink:href="#m176931273e" y="269.887113"/>
     <use style="fill:#008000;stroke:#008000;" x="272.430357" xlink:href="#m176931273e" y="256.938298"/>
     <use style="fill:#008000;stroke:#008000;" x="296.344643" xlink:href="#m176931273e" y="243.989483"/>
     <use style="fill:#008000;stroke:#008000;" x="320.258929" xlink:href="#m176931273e" y="231.040668"/>
     <use style="fill:#008000;stroke:#008000;" x="344.173214" xlink:href="#m176931273e" y="210.160785"/>
     <use style="fill:#008000;stroke:#008000;" x="368.0875" xlink:href="#m176931273e" y="189.280901"/>
     <use style="fill:#008000;stroke:#008000;" x="392.001786" xlink:href="#m176931273e" y="168.401018"/>
     <use style="fill:#008000;stroke:#008000;" x="415.916071" xlink:href="#m176931273e" y="139.558885"/>
     <use style="fill:#008000;stroke:#008000;" x="439.830357" xlink:href="#m176931273e" y="110.716752"/>
     <use style="fill:#008000;stroke:#008000;" x="463.744643" xlink:href="#m176931273e" y="81.874619"/>
     <use style="fill:#008000;stroke:#008000;" x="487.658929" xlink:href="#m176931273e" y="123.872166"/>
     <use style="fill:#008000;stroke:#008000;" x="511.573214" xlink:href="#m176931273e" y="165.869714"/>
     <use style="fill:#008000;stroke:#008000;" x="535.4875" xlink:href="#m176931273e" y="207.867262"/>
     <use style="fill:#008000;stroke:#008000;" x="559.401786" xlink:href="#m176931273e" y="215.331466"/>
     <use style="fill:#008000;stroke:#008000;" x="583.316071" xlink:href="#m176931273e" y="222.79567"/>
     <use style="fill:#008000;stroke:#008000;" x="607.230357" xlink:href="#m176931273e" y="230.259874"/>
     <use style="fill:#008000;stroke:#008000;" x="631.144643" xlink:href="#m176931273e" y="238.623108"/>
     <use style="fill:#008000;stroke:#008000;" x="655.058929" xlink:href="#m176931273e" y="246.986341"/>
     <use style="fill:#008000;stroke:#008000;" x="678.973214" xlink:href="#m176931273e" y="255.349574"/>
     <use style="fill:#008000;stroke:#008000;" x="702.8875" xlink:href="#m176931273e" y="261.297709"/>
     <use style="fill:#008000;stroke:#008000;" x="726.801786" xlink:href="#m176931273e" y="267.245845"/>
     <use style="fill:#008000;stroke:#008000;" x="750.716071" xlink:href="#m176931273e" y="273.19398"/>
     <use style="fill:#008000;stroke:#008000;" x="774.630357" xlink:href="#m176931273e" y="276.471846"/>
     <use style="fill:#008000;stroke:#008000;" x="798.544643" xlink:href="#m176931273e" y="279.749711"/>
     <use style="fill:#008000;stroke:#008000;" x="822.458929" xlink:href="#m176931273e" y="283.027577"/>
     <use style="fill:#008000;stroke:#008000;" x="846.373214" xlink:href="#m176931273e" y="288.199219"/>
     <use style="fill:#008000;stroke:#008000;" x="870.2875" xlink:href="#m176931273e" y="288.199219"/>
    </g>
   </g>
   <g id="line2d_17">
    <path clip-path="url(#p29f2eda5f5)" d="M 33.2875 256.988477 
L 57.201786 266.378486 
L 81.116071 275.768495 
L 105.030357 285.158504 
L 128.944643 285.829854 
L 152.858929 286.501203 
L 176.773214 287.172552 
L 200.6875 287.136086 
L 224.601786 287.099619 
L 248.516071 287.063153 
L 272.430357 287.441842 
L 296.344643 287.82053 
L 320.258929 288.199219 
L 344.173214 288.199219 
L 368.0875 288.199219 
L 392.001786 288.199219 
L 415.916071 288.199219 
L 439.830357 288.199219 
L 463.744643 288.199219 
L 487.658929 229.829137 
L 511.573214 171.459056 
L 535.4875 113.088974 
L 559.401786 100.265613 
L 583.316071 87.442252 
L 607.230357 74.618891 
L 631.144643 66.961041 
L 655.058929 59.303191 
L 678.973214 51.645342 
L 702.8875 44.211672 
L 726.801786 36.778003 
L 750.716071 29.344333 
L 774.630357 44.386435 
L 798.544643 59.428537 
L 822.458929 74.470639 
L 846.373214 154.488885 
L 870.2875 206.202875 
" style="fill:none;stroke:#0000ff;stroke-linecap:square;stroke-width:1.5;"/>
    <defs>
     <path d="M 0 3 
C 0.795609 3 1.55874 2.683901 2.12132 2.12132 
C 2.683901 1.55874 3 0.795609 3 0 
C 3 -0.795609 2.683901 -1.55874 2.12132 -2.12132 
C 1.55874 -2.683901 0.795609 -3 0 -3 
C -0.795609 -3 -1.55874 -2.683901 -2.12132 -2.12132 
C -2.683901 -1.55874 -3 -0.795609 -3 0 
C -3 0.795609 -2.683901 1.55874 -2.12132 2.12132 
C -1.55874 2.683901 -0.795609 3 0 3 
z
" id="m95e7662492" style="stroke:#0000ff;"/>
    </defs>
    <g clip-path="url(#p29f2eda5f5)">
     <use style="fill:#0000ff;stroke:#0000ff;" x="33.2875" xlink:href="#m95e7662492" y="256.988477"/>
     <use style="fill:#0000ff;stroke:#0000ff;" x="57.201786" xlink:href="#m95e7662492" y="266.378486"/>
     <use style="fill:#0000ff;stroke:#0000ff;" x="81.116071" xlink:href="#m95e7662492" y="275.768495"/>
     <use style="fill:#0000ff;stroke:#0000ff;" x="105.030357" xlink:href="#m95e7662492" y="285.158504"/>
     <use style="fill:#0000ff;stroke:#0000ff;" x="128.944643" xlink:href="#m95e7662492" y="285.829854"/>
     <use style="fill:#0000ff;stroke:#0000ff;" x="152.858929" xlink:href="#m95e7662492" y="286.501203"/>
     <use style="fill:#0000ff;stroke:#0000ff;" x="176.773214" xlink:href="#m95e7662492" y="287.172552"/>
     <use style="fill:#0000ff;stroke:#0000ff;" x="200.6875" xlink:href="#m95e7662492" y="287.136086"/>
     <use style="fill:#0000ff;stroke:#0000ff;" x="224.601786" xlink:href="#m95e7662492" y="287.099619"/>
     <use style="fill:#0000ff;stroke:#0000ff;" x="248.516071" xlink:href="#m95e7662492" y="287.063153"/>
     <use style="fill:#0000ff;stroke:#0000ff;" x="272.430357" xlink:href="#m95e7662492" y="287.441842"/>
     <use style="fill:#0000ff;stroke:#0000ff;" x="296.344643" xlink:href="#m95e7662492" y="287.82053"/>
     <use style="fill:#0000ff;stroke:#0000ff;" x="320.258929" xlink:href="#m95e7662492" y="288.199219"/>
     <use style="fill:#0000ff;stroke:#0000ff;" x="344.173214" xlink:href="#m95e7662492" y="288.199219"/>
     <use style="fill:#0000ff;stroke:#0000ff;" x="368.0875" xlink:href="#m95e7662492" y="288.199219"/>
     <use style="fill:#0000ff;stroke:#0000ff;" x="392.001786" xlink:href="#m95e7662492" y="288.199219"/>
     <use style="fill:#0000ff;stroke:#0000ff;" x="415.916071" xlink:href="#m95e7662492" y="288.199219"/>
     <use style="fill:#0000ff;stroke:#0000ff;" x="439.830357" xlink:href="#m95e7662492" y="288.199219"/>
     <use style="fill:#0000ff;stroke:#0000ff;" x="463.744643" xlink:href="#m95e7662492" y="288.199219"/>
     <use style="fill:#0000ff;stroke:#0000ff;" x="487.658929" xlink:href="#m95e7662492" y="229.829137"/>
     <use style="fill:#0000ff;stroke:#0000ff;" x="511.573214" xlink:href="#m95e7662492" y="171.459056"/>
     <use style="fill:#0000ff;stroke:#0000ff;" x="535.4875" xlink:href="#m95e7662492" y="113.088974"/>
     <use style="fill:#0000ff;stroke:#0000ff;" x="559.401786" xlink:href="#m95e7662492" y="100.265613"/>
     <use style="fill:#0000ff;stroke:#0000ff;" x="583.316071" xlink:href="#m95e7662492" y="87.442252"/>
     <use style="fill:#0000ff;stroke:#0000ff;" x="607.230357" xlink:href="#m95e7662492" y="74.618891"/>
     <use style="fill:#0000ff;stroke:#0000ff;" x="631.144643" xlink:href="#m95e7662492" y="66.961041"/>
     <use style="fill:#0000ff;stroke:#0000ff;" x="655.058929" xlink:href="#m95e7662492" y="59.303191"/>
     <use style="fill:#0000ff;stroke:#0000ff;" x="678.973214" xlink:href="#m95e7662492" y="51.645342"/>
     <use style="fill:#0000ff;stroke:#0000ff;" x="702.8875" xlink:href="#m95e7662492" y="44.211672"/>
     <use style="fill:#0000ff;stroke:#0000ff;" x="726.801786" xlink:href="#m95e7662492" y="36.778003"/>
     <use style="fill:#0000ff;stroke:#0000ff;" x="750.716071" xlink:href="#m95e7662492" y="29.344333"/>
     <use style="fill:#0000ff;stroke:#0000ff;" x="774.630357" xlink:href="#m95e7662492" y="44.386435"/>
     <use style="fill:#0000ff;stroke:#0000ff;" x="798.544643" xlink:href="#m95e7662492" y="59.428537"/>
     <use style="fill:#0000ff;stroke:#0000ff;" x="822.458929" xlink:href="#m95e7662492" y="74.470639"/>
     <use style="fill:#0000ff;stroke:#0000ff;" x="846.373214" xlink:href="#m95e7662492" y="154.488885"/>
     <use style="fill:#0000ff;stroke:#0000ff;" x="870.2875" xlink:href="#m95e7662492" y="206.202875"/>
    </g>
   </g>
   <g id="patch_3">
    <path d="M 33.2875 288.199219 
L 33.2875 10.999219 
" style="fill:none;stroke:#000000;stroke-linecap:square;stroke-linejoin:miter;stroke-width:0.8;"/>
   </g>
   <g id="patch_4">
    <path d="M 870.2875 288.199219 
L 870.2875 10.999219 
" style="fill:none;stroke:#000000;stroke-linecap:square;stroke-linejoin:miter;stroke-width:0.8;"/>
   </g>
   <g id="patch_5">
    <path d="M 33.2875 288.199219 
L 870.2875 288.199219 
" style="fill:none;stroke:#000000;stroke-linecap:square;stroke-linejoin:miter;stroke-width:0.8;"/>
   </g>
   <g id="patch_6">
    <path d="M 33.2875 10.999219 
L 870.2875 10.999219 
" style="fill:none;stroke:#000000;stroke-linecap:square;stroke-linejoin:miter;stroke-width:0.8;"/>
   </g>
  </g>
 </g>
 <defs>
  <clipPath id="p29f2eda5f5">
   <rect height="277.2" width="837" x="33.2875" y="10.999219"/>
  </clipPath>
 </defs>
</svg>
