<?xml version="1.0" encoding="utf-8" standalone="no"?>
<!DOCTYPE svg PUBLIC "-//W3C//DTD SVG 1.1//EN"
  "http://www.w3.org/Graphics/SVG/1.1/DTD/svg11.dtd">
<!-- Created with matplotlib (https://matplotlib.org/) -->
<svg height="312.077344pt" version="1.1" viewBox="0 0 883.85 312.077344" width="883.85pt" xmlns="http://www.w3.org/2000/svg" xmlns:xlink="http://www.w3.org/1999/xlink">
 <defs>
  <style type="text/css">
*{stroke-linecap:butt;stroke-linejoin:round;}
  </style>
 </defs>
 <g id="figure_1">
  <g id="patch_1">
   <path d="M 0 312.077344 
L 883.85 312.077344 
L 883.85 0 
L 0 0 
z
" style="fill:#ffffff;"/>
  </g>
  <g id="axes_1">
   <g id="patch_2">
    <path d="M 33.2875 288.199219 
L 870.2875 288.199219 
L 870.2875 10.999219 
L 33.2875 10.999219 
z
" style="fill:#ffffff;"/>
   </g>
   <g id="matplotlib.axis_1">
    <g id="xtick_1">
     <g id="line2d_1">
      <defs>
       <path d="M 0 0 
L 0 3.5 
" id="m41209fdcab" style="stroke:#000000;stroke-width:0.8;"/>
      </defs>
      <g>
       <use style="stroke:#000000;stroke-width:0.8;" x="33.2875" xlink:href="#m41209fdcab" y="288.199219"/>
      </g>
     </g>
     <g id="text_1">
      <!-- 0 -->
      <defs>
       <path d="M 31.78125 66.40625 
Q 24.171875 66.40625 20.328125 58.90625 
Q 16.5 51.421875 16.5 36.375 
Q 16.5 21.390625 20.328125 13.890625 
Q 24.171875 6.390625 31.78125 6.390625 
Q 39.453125 6.390625 43.28125 13.890625 
Q 47.125 21.390625 47.125 36.375 
Q 47.125 51.421875 43.28125 58.90625 
Q 39.453125 66.40625 31.78125 66.40625 
z
M 31.78125 74.21875 
Q 44.046875 74.21875 50.515625 64.515625 
Q 56.984375 54.828125 56.984375 36.375 
Q 56.984375 17.96875 50.515625 8.265625 
Q 44.046875 -1.421875 31.78125 -1.421875 
Q 19.53125 -1.421875 13.0625 8.265625 
Q 6.59375 17.96875 6.59375 36.375 
Q 6.59375 54.828125 13.0625 64.515625 
Q 19.53125 74.21875 31.78125 74.21875 
z
" id="DejaVuSans-48"/>
      </defs>
      <g transform="translate(30.10625 302.797656)scale(0.1 -0.1)">
       <use xlink:href="#DejaVuSans-48"/>
      </g>
     </g>
    </g>
    <g id="xtick_2">
     <g id="line2d_2">
      <g>
       <use style="stroke:#000000;stroke-width:0.8;" x="152.858929" xlink:href="#m41209fdcab" y="288.199219"/>
      </g>
     </g>
     <g id="text_2">
      <!-- 5 -->
      <defs>
       <path d="M 10.796875 72.90625 
L 49.515625 72.90625 
L 49.515625 64.59375 
L 19.828125 64.59375 
L 19.828125 46.734375 
Q 21.96875 47.46875 24.109375 47.828125 
Q 26.265625 48.1875 28.421875 48.1875 
Q 40.625 48.1875 47.75 41.5 
Q 54.890625 34.8125 54.890625 23.390625 
Q 54.890625 11.625 47.5625 5.09375 
Q 40.234375 -1.421875 26.90625 -1.421875 
Q 22.3125 -1.421875 17.546875 -0.640625 
Q 12.796875 0.140625 7.71875 1.703125 
L 7.71875 11.625 
Q 12.109375 9.234375 16.796875 8.0625 
Q 21.484375 6.890625 26.703125 6.890625 
Q 35.15625 6.890625 40.078125 11.328125 
Q 45.015625 15.765625 45.015625 23.390625 
Q 45.015625 31 40.078125 35.4375 
Q 35.15625 39.890625 26.703125 39.890625 
Q 22.75 39.890625 18.8125 39.015625 
Q 14.890625 38.140625 10.796875 36.28125 
z
" id="DejaVuSans-53"/>
      </defs>
      <g transform="translate(149.677679 302.797656)scale(0.1 -0.1)">
       <use xlink:href="#DejaVuSans-53"/>
      </g>
     </g>
    </g>
    <g id="xtick_3">
     <g id="line2d_3">
      <g>
       <use style="stroke:#000000;stroke-width:0.8;" x="272.430357" xlink:href="#m41209fdcab" y="288.199219"/>
      </g>
     </g>
     <g id="text_3">
      <!-- 10 -->
      <defs>
       <path d="M 12.40625 8.296875 
L 28.515625 8.296875 
L 28.515625 63.921875 
L 10.984375 60.40625 
L 10.984375 69.390625 
L 28.421875 72.90625 
L 38.28125 72.90625 
L 38.28125 8.296875 
L 54.390625 8.296875 
L 54.390625 0 
L 12.40625 0 
z
" id="DejaVuSans-49"/>
      </defs>
      <g transform="translate(266.067857 302.797656)scale(0.1 -0.1)">
       <use xlink:href="#DejaVuSans-49"/>
       <use x="63.623047" xlink:href="#DejaVuSans-48"/>
      </g>
     </g>
    </g>
    <g id="xtick_4">
     <g id="line2d_4">
      <g>
       <use style="stroke:#000000;stroke-width:0.8;" x="392.001786" xlink:href="#m41209fdcab" y="288.199219"/>
      </g>
     </g>
     <g id="text_4">
      <!-- 15 -->
      <g transform="translate(385.639286 302.797656)scale(0.1 -0.1)">
       <use xlink:href="#DejaVuSans-49"/>
       <use x="63.623047" xlink:href="#DejaVuSans-53"/>
      </g>
     </g>
    </g>
    <g id="xtick_5">
     <g id="line2d_5">
      <g>
       <use style="stroke:#000000;stroke-width:0.8;" x="511.573214" xlink:href="#m41209fdcab" y="288.199219"/>
      </g>
     </g>
     <g id="text_5">
      <!-- 20 -->
      <defs>
       <path d="M 19.1875 8.296875 
L 53.609375 8.296875 
L 53.609375 0 
L 7.328125 0 
L 7.328125 8.296875 
Q 12.9375 14.109375 22.625 23.890625 
Q 32.328125 33.6875 34.8125 36.53125 
Q 39.546875 41.84375 41.421875 45.53125 
Q 43.3125 49.21875 43.3125 52.78125 
Q 43.3125 58.59375 39.234375 62.25 
Q 35.15625 65.921875 28.609375 65.921875 
Q 23.96875 65.921875 18.8125 64.3125 
Q 13.671875 62.703125 7.8125 59.421875 
L 7.8125 69.390625 
Q 13.765625 71.78125 18.9375 73 
Q 24.125 74.21875 28.421875 74.21875 
Q 39.75 74.21875 46.484375 68.546875 
Q 53.21875 62.890625 53.21875 53.421875 
Q 53.21875 48.921875 51.53125 44.890625 
Q 49.859375 40.875 45.40625 35.40625 
Q 44.1875 33.984375 37.640625 27.21875 
Q 31.109375 20.453125 19.1875 8.296875 
z
" id="DejaVuSans-50"/>
      </defs>
      <g transform="translate(505.210714 302.797656)scale(0.1 -0.1)">
       <use xlink:href="#DejaVuSans-50"/>
       <use x="63.623047" xlink:href="#DejaVuSans-48"/>
      </g>
     </g>
    </g>
    <g id="xtick_6">
     <g id="line2d_6">
      <g>
       <use style="stroke:#000000;stroke-width:0.8;" x="631.144643" xlink:href="#m41209fdcab" y="288.199219"/>
      </g>
     </g>
     <g id="text_6">
      <!-- 25 -->
      <g transform="translate(624.782143 302.797656)scale(0.1 -0.1)">
       <use xlink:href="#DejaVuSans-50"/>
       <use x="63.623047" xlink:href="#DejaVuSans-53"/>
      </g>
     </g>
    </g>
    <g id="xtick_7">
     <g id="line2d_7">
      <g>
       <use style="stroke:#000000;stroke-width:0.8;" x="750.716071" xlink:href="#m41209fdcab" y="288.199219"/>
      </g>
     </g>
     <g id="text_7">
      <!-- 30 -->
      <defs>
       <path d="M 40.578125 39.3125 
Q 47.65625 37.796875 51.625 33 
Q 55.609375 28.21875 55.609375 21.1875 
Q 55.609375 10.40625 48.1875 4.484375 
Q 40.765625 -1.421875 27.09375 -1.421875 
Q 22.515625 -1.421875 17.65625 -0.515625 
Q 12.796875 0.390625 7.625 2.203125 
L 7.625 11.71875 
Q 11.71875 9.328125 16.59375 8.109375 
Q 21.484375 6.890625 26.8125 6.890625 
Q 36.078125 6.890625 40.9375 10.546875 
Q 45.796875 14.203125 45.796875 21.1875 
Q 45.796875 27.640625 41.28125 31.265625 
Q 36.765625 34.90625 28.71875 34.90625 
L 20.21875 34.90625 
L 20.21875 43.015625 
L 29.109375 43.015625 
Q 36.375 43.015625 40.234375 45.921875 
Q 44.09375 48.828125 44.09375 54.296875 
Q 44.09375 59.90625 40.109375 62.90625 
Q 36.140625 65.921875 28.71875 65.921875 
Q 24.65625 65.921875 20.015625 65.03125 
Q 15.375 64.15625 9.8125 62.3125 
L 9.8125 71.09375 
Q 15.4375 72.65625 20.34375 73.4375 
Q 25.25 74.21875 29.59375 74.21875 
Q 40.828125 74.21875 47.359375 69.109375 
Q 53.90625 64.015625 53.90625 55.328125 
Q 53.90625 49.265625 50.4375 45.09375 
Q 46.96875 40.921875 40.578125 39.3125 
z
" id="DejaVuSans-51"/>
      </defs>
      <g transform="translate(744.353571 302.797656)scale(0.1 -0.1)">
       <use xlink:href="#DejaVuSans-51"/>
       <use x="63.623047" xlink:href="#DejaVuSans-48"/>
      </g>
     </g>
    </g>
    <g id="xtick_8">
     <g id="line2d_8">
      <g>
       <use style="stroke:#000000;stroke-width:0.8;" x="870.2875" xlink:href="#m41209fdcab" y="288.199219"/>
      </g>
     </g>
     <g id="text_8">
      <!-- 35 -->
      <g transform="translate(863.925 302.797656)scale(0.1 -0.1)">
       <use xlink:href="#DejaVuSans-51"/>
       <use x="63.623047" xlink:href="#DejaVuSans-53"/>
      </g>
     </g>
    </g>
   </g>
   <g id="matplotlib.axis_2">
    <g id="ytick_1">
     <g id="line2d_9">
      <defs>
       <path d="M 0 0 
L -3.5 0 
" id="m345ea6f2b4" style="stroke:#000000;stroke-width:0.8;"/>
      </defs>
      <g>
       <use style="stroke:#000000;stroke-width:0.8;" x="33.2875" xlink:href="#m345ea6f2b4" y="288.199219"/>
      </g>
     </g>
     <g id="text_9">
      <!-- 0 -->
      <g transform="translate(19.925 291.998438)scale(0.1 -0.1)">
       <use xlink:href="#DejaVuSans-48"/>
      </g>
     </g>
    </g>
    <g id="ytick_2">
     <g id="line2d_10">
      <g>
       <use style="stroke:#000000;stroke-width:0.8;" x="33.2875" xlink:href="#m345ea6f2b4" y="232.759219"/>
      </g>
     </g>
     <g id="text_10">
      <!-- 20 -->
      <g transform="translate(13.5625 236.558438)scale(0.1 -0.1)">
       <use xlink:href="#DejaVuSans-50"/>
       <use x="63.623047" xlink:href="#DejaVuSans-48"/>
      </g>
     </g>
    </g>
    <g id="ytick_3">
     <g id="line2d_11">
      <g>
       <use style="stroke:#000000;stroke-width:0.8;" x="33.2875" xlink:href="#m345ea6f2b4" y="177.319219"/>
      </g>
     </g>
     <g id="text_11">
      <!-- 40 -->
      <defs>
       <path d="M 37.796875 64.3125 
L 12.890625 25.390625 
L 37.796875 25.390625 
z
M 35.203125 72.90625 
L 47.609375 72.90625 
L 47.609375 25.390625 
L 58.015625 25.390625 
L 58.015625 17.1875 
L 47.609375 17.1875 
L 47.609375 0 
L 37.796875 0 
L 37.796875 17.1875 
L 4.890625 17.1875 
L 4.890625 26.703125 
z
" id="DejaVuSans-52"/>
      </defs>
      <g transform="translate(13.5625 181.118438)scale(0.1 -0.1)">
       <use xlink:href="#DejaVuSans-52"/>
       <use x="63.623047" xlink:href="#DejaVuSans-48"/>
      </g>
     </g>
    </g>
    <g id="ytick_4">
     <g id="line2d_12">
      <g>
       <use style="stroke:#000000;stroke-width:0.8;" x="33.2875" xlink:href="#m345ea6f2b4" y="121.879219"/>
      </g>
     </g>
     <g id="text_12">
      <!-- 60 -->
      <defs>
       <path d="M 33.015625 40.375 
Q 26.375 40.375 22.484375 35.828125 
Q 18.609375 31.296875 18.609375 23.390625 
Q 18.609375 15.53125 22.484375 10.953125 
Q 26.375 6.390625 33.015625 6.390625 
Q 39.65625 6.390625 43.53125 10.953125 
Q 47.40625 15.53125 47.40625 23.390625 
Q 47.40625 31.296875 43.53125 35.828125 
Q 39.65625 40.375 33.015625 40.375 
z
M 52.59375 71.296875 
L 52.59375 62.3125 
Q 48.875 64.0625 45.09375 64.984375 
Q 41.3125 65.921875 37.59375 65.921875 
Q 27.828125 65.921875 22.671875 59.328125 
Q 17.53125 52.734375 16.796875 39.40625 
Q 19.671875 43.65625 24.015625 45.921875 
Q 28.375 48.1875 33.59375 48.1875 
Q 44.578125 48.1875 50.953125 41.515625 
Q 57.328125 34.859375 57.328125 23.390625 
Q 57.328125 12.15625 50.6875 5.359375 
Q 44.046875 -1.421875 33.015625 -1.421875 
Q 20.359375 -1.421875 13.671875 8.265625 
Q 6.984375 17.96875 6.984375 36.375 
Q 6.984375 53.65625 15.1875 63.9375 
Q 23.390625 74.21875 37.203125 74.21875 
Q 40.921875 74.21875 44.703125 73.484375 
Q 48.484375 72.75 52.59375 71.296875 
z
" id="DejaVuSans-54"/>
      </defs>
      <g transform="translate(13.5625 125.678438)scale(0.1 -0.1)">
       <use xlink:href="#DejaVuSans-54"/>
       <use x="63.623047" xlink:href="#DejaVuSans-48"/>
      </g>
     </g>
    </g>
    <g id="ytick_5">
     <g id="line2d_13">
      <g>
       <use style="stroke:#000000;stroke-width:0.8;" x="33.2875" xlink:href="#m345ea6f2b4" y="66.439219"/>
      </g>
     </g>
     <g id="text_13">
      <!-- 80 -->
      <defs>
       <path d="M 31.78125 34.625 
Q 24.75 34.625 20.71875 30.859375 
Q 16.703125 27.09375 16.703125 20.515625 
Q 16.703125 13.921875 20.71875 10.15625 
Q 24.75 6.390625 31.78125 6.390625 
Q 38.8125 6.390625 42.859375 10.171875 
Q 46.921875 13.96875 46.921875 20.515625 
Q 46.921875 27.09375 42.890625 30.859375 
Q 38.875 34.625 31.78125 34.625 
z
M 21.921875 38.8125 
Q 15.578125 40.375 12.03125 44.71875 
Q 8.5 49.078125 8.5 55.328125 
Q 8.5 64.0625 14.71875 69.140625 
Q 20.953125 74.21875 31.78125 74.21875 
Q 42.671875 74.21875 48.875 69.140625 
Q 55.078125 64.0625 55.078125 55.328125 
Q 55.078125 49.078125 51.53125 44.71875 
Q 48 40.375 41.703125 38.8125 
Q 48.828125 37.15625 52.796875 32.3125 
Q 56.78125 27.484375 56.78125 20.515625 
Q 56.78125 9.90625 50.3125 4.234375 
Q 43.84375 -1.421875 31.78125 -1.421875 
Q 19.734375 -1.421875 13.25 4.234375 
Q 6.78125 9.90625 6.78125 20.515625 
Q 6.78125 27.484375 10.78125 32.3125 
Q 14.796875 37.15625 21.921875 38.8125 
z
M 18.3125 54.390625 
Q 18.3125 48.734375 21.84375 45.5625 
Q 25.390625 42.390625 31.78125 42.390625 
Q 38.140625 42.390625 41.71875 45.5625 
Q 45.3125 48.734375 45.3125 54.390625 
Q 45.3125 60.0625 41.71875 63.234375 
Q 38.140625 66.40625 31.78125 66.40625 
Q 25.390625 66.40625 21.84375 63.234375 
Q 18.3125 60.0625 18.3125 54.390625 
z
" id="DejaVuSans-56"/>
      </defs>
      <g transform="translate(13.5625 70.238438)scale(0.1 -0.1)">
       <use xlink:href="#DejaVuSans-56"/>
       <use x="63.623047" xlink:href="#DejaVuSans-48"/>
      </g>
     </g>
    </g>
    <g id="ytick_6">
     <g id="line2d_14">
      <g>
       <use style="stroke:#000000;stroke-width:0.8;" x="33.2875" xlink:href="#m345ea6f2b4" y="10.999219"/>
      </g>
     </g>
     <g id="text_14">
      <!-- 100 -->
      <g transform="translate(7.2 14.798438)scale(0.1 -0.1)">
       <use xlink:href="#DejaVuSans-49"/>
       <use x="63.623047" xlink:href="#DejaVuSans-48"/>
       <use x="127.246094" xlink:href="#DejaVuSans-48"/>
      </g>
     </g>
    </g>
   </g>
   <g id="line2d_15">
    <path clip-path="url(#pa70a15fca8)" d="M 33.2875 49.164436 
L 57.201786 39.522697 
L 81.116071 29.880958 
L 105.030357 20.239219 
L 128.944643 21.119219 
L 152.858929 21.999219 
L 176.773214 22.879219 
L 200.6875 28.007743 
L 224.601786 33.136268 
L 248.516071 38.264793 
L 272.430357 48.459746 
L 296.344643 58.6547 
L 320.258929 68.849654 
L 344.173214 83.655496 
L 368.0875 98.461338 
L 392.001786 113.26718 
L 415.916071 153.388883 
L 439.830357 193.510586 
L 463.744643 233.63229 
L 487.658929 247.582734 
L 511.573214 261.533178 
L 535.4875 275.483622 
L 559.401786 277.450023 
L 583.316071 279.416424 
L 607.230357 281.382825 
L 631.144643 280.910402 
L 655.058929 280.437979 
L 678.973214 279.965555 
L 702.8875 281.380613 
L 726.801786 282.795671 
L 750.716071 284.21073 
L 774.630357 254.948334 
L 798.544643 225.685939 
L 822.458929 196.423543 
L 846.373214 144.709553 
L 870.2875 92.995562 
" style="fill:none;stroke:#ff0000;stroke-linecap:square;stroke-opacity:0.25;stroke-width:1.5;"/>
    <defs>
     <path d="M 0 3 
C 0.795609 3 1.55874 2.683901 2.12132 2.12132 
C 2.683901 1.55874 3 0.795609 3 0 
C 3 -0.795609 2.683901 -1.55874 2.12132 -2.12132 
C 1.55874 -2.683901 0.795609 -3 0 -3 
C -0.795609 -3 -1.55874 -2.683901 -2.12132 -2.12132 
C -2.683901 -1.55874 -3 -0.795609 -3 0 
C -3 0.795609 -2.683901 1.55874 -2.12132 2.12132 
C -1.55874 2.683901 -0.795609 3 0 3 
z
" id="m35de88362d" style="stroke:#ff0000;stroke-opacity:0.25;"/>
    </defs>
    <g clip-path="url(#pa70a15fca8)">
     <use style="fill:#ff0000;fill-opacity:0.25;stroke:#ff0000;stroke-opacity:0.25;" x="33.2875" xlink:href="#m35de88362d" y="49.164436"/>
     <use style="fill:#ff0000;fill-opacity:0.25;stroke:#ff0000;stroke-opacity:0.25;" x="57.201786" xlink:href="#m35de88362d" y="39.522697"/>
     <use style="fill:#ff0000;fill-opacity:0.25;stroke:#ff0000;stroke-opacity:0.25;" x="81.116071" xlink:href="#m35de88362d" y="29.880958"/>
     <use style="fill:#ff0000;fill-opacity:0.25;stroke:#ff0000;stroke-opacity:0.25;" x="105.030357" xlink:href="#m35de88362d" y="20.239219"/>
     <use style="fill:#ff0000;fill-opacity:0.25;stroke:#ff0000;stroke-opacity:0.25;" x="128.944643" xlink:href="#m35de88362d" y="21.119219"/>
     <use style="fill:#ff0000;fill-opacity:0.25;stroke:#ff0000;stroke-opacity:0.25;" x="152.858929" xlink:href="#m35de88362d" y="21.999219"/>
     <use style="fill:#ff0000;fill-opacity:0.25;stroke:#ff0000;stroke-opacity:0.25;" x="176.773214" xlink:href="#m35de88362d" y="22.879219"/>
     <use style="fill:#ff0000;fill-opacity:0.25;stroke:#ff0000;stroke-opacity:0.25;" x="200.6875" xlink:href="#m35de88362d" y="28.007743"/>
     <use style="fill:#ff0000;fill-opacity:0.25;stroke:#ff0000;stroke-opacity:0.25;" x="224.601786" xlink:href="#m35de88362d" y="33.136268"/>
     <use style="fill:#ff0000;fill-opacity:0.25;stroke:#ff0000;stroke-opacity:0.25;" x="248.516071" xlink:href="#m35de88362d" y="38.264793"/>
     <use style="fill:#ff0000;fill-opacity:0.25;stroke:#ff0000;stroke-opacity:0.25;" x="272.430357" xlink:href="#m35de88362d" y="48.459746"/>
     <use style="fill:#ff0000;fill-opacity:0.25;stroke:#ff0000;stroke-opacity:0.25;" x="296.344643" xlink:href="#m35de88362d" y="58.6547"/>
     <use style="fill:#ff0000;fill-opacity:0.25;stroke:#ff0000;stroke-opacity:0.25;" x="320.258929" xlink:href="#m35de88362d" y="68.849654"/>
     <use style="fill:#ff0000;fill-opacity:0.25;stroke:#ff0000;stroke-opacity:0.25;" x="344.173214" xlink:href="#m35de88362d" y="83.655496"/>
     <use style="fill:#ff0000;fill-opacity:0.25;stroke:#ff0000;stroke-opacity:0.25;" x="368.0875" xlink:href="#m35de88362d" y="98.461338"/>
     <use style="fill:#ff0000;fill-opacity:0.25;stroke:#ff0000;stroke-opacity:0.25;" x="392.001786" xlink:href="#m35de88362d" y="113.26718"/>
     <use style="fill:#ff0000;fill-opacity:0.25;stroke:#ff0000;stroke-opacity:0.25;" x="415.916071" xlink:href="#m35de88362d" y="153.388883"/>
     <use style="fill:#ff0000;fill-opacity:0.25;stroke:#ff0000;stroke-opacity:0.25;" x="439.830357" xlink:href="#m35de88362d" y="193.510586"/>
     <use style="fill:#ff0000;fill-opacity:0.25;stroke:#ff0000;stroke-opacity:0.25;" x="463.744643" xlink:href="#m35de88362d" y="233.63229"/>
     <use style="fill:#ff0000;fill-opacity:0.25;stroke:#ff0000;stroke-opacity:0.25;" x="487.658929" xlink:href="#m35de88362d" y="247.582734"/>
     <use style="fill:#ff0000;fill-opacity:0.25;stroke:#ff0000;stroke-opacity:0.25;" x="511.573214" xlink:href="#m35de88362d" y="261.533178"/>
     <use style="fill:#ff0000;fill-opacity:0.25;stroke:#ff0000;stroke-opacity:0.25;" x="535.4875" xlink:href="#m35de88362d" y="275.483622"/>
     <use style="fill:#ff0000;fill-opacity:0.25;stroke:#ff0000;stroke-opacity:0.25;" x="559.401786" xlink:href="#m35de88362d" y="277.450023"/>
     <use style="fill:#ff0000;fill-opacity:0.25;stroke:#ff0000;stroke-opacity:0.25;" x="583.316071" xlink:href="#m35de88362d" y="279.416424"/>
     <use style="fill:#ff0000;fill-opacity:0.25;stroke:#ff0000;stroke-opacity:0.25;" x="607.230357" xlink:href="#m35de88362d" y="281.382825"/>
     <use style="fill:#ff0000;fill-opacity:0.25;stroke:#ff0000;stroke-opacity:0.25;" x="631.144643" xlink:href="#m35de88362d" y="280.910402"/>
     <use style="fill:#ff0000;fill-opacity:0.25;stroke:#ff0000;stroke-opacity:0.25;" x="655.058929" xlink:href="#m35de88362d" y="280.437979"/>
     <use style="fill:#ff0000;fill-opacity:0.25;stroke:#ff0000;stroke-opacity:0.25;" x="678.973214" xlink:href="#m35de88362d" y="279.965555"/>
     <use style="fill:#ff0000;fill-opacity:0.25;stroke:#ff0000;stroke-opacity:0.25;" x="702.8875" xlink:href="#m35de88362d" y="281.380613"/>
     <use style="fill:#ff0000;fill-opacity:0.25;stroke:#ff0000;stroke-opacity:0.25;" x="726.801786" xlink:href="#m35de88362d" y="282.795671"/>
     <use style="fill:#ff0000;fill-opacity:0.25;stroke:#ff0000;stroke-opacity:0.25;" x="750.716071" xlink:href="#m35de88362d" y="284.21073"/>
     <use style="fill:#ff0000;fill-opacity:0.25;stroke:#ff0000;stroke-opacity:0.25;" x="774.630357" xlink:href="#m35de88362d" y="254.948334"/>
     <use style="fill:#ff0000;fill-opacity:0.25;stroke:#ff0000;stroke-opacity:0.25;" x="798.544643" xlink:href="#m35de88362d" y="225.685939"/>
     <use style="fill:#ff0000;fill-opacity:0.25;stroke:#ff0000;stroke-opacity:0.25;" x="822.458929" xlink:href="#m35de88362d" y="196.423543"/>
     <use style="fill:#ff0000;fill-opacity:0.25;stroke:#ff0000;stroke-opacity:0.25;" x="846.373214" xlink:href="#m35de88362d" y="144.709553"/>
     <use style="fill:#ff0000;fill-opacity:0.25;stroke:#ff0000;stroke-opacity:0.25;" x="870.2875" xlink:href="#m35de88362d" y="92.995562"/>
    </g>
   </g>
   <g id="line2d_16">
    <path clip-path="url(#pa70a15fca8)" d="M 33.2875 41.281572 
L 57.201786 33.073168 
L 81.116071 24.864765 
L 105.030357 16.656362 
L 128.944643 18.19287 
L 152.858929 19.729377 
L 176.773214 21.265885 
L 200.6875 21.720586 
L 224.601786 22.175287 
L 248.516071 22.629988 
L 272.430357 37.575287 
L 296.344643 52.520586 
L 320.258929 67.465885 
L 344.173214 94.41981 
L 368.0875 121.373735 
L 392.001786 148.327659 
L 415.916071 165.890222 
L 439.830357 183.452785 
L 463.744643 201.015348 
L 487.658929 219.809971 
L 511.573214 238.604595 
L 535.4875 257.399219 
L 559.401786 266.151131 
L 583.316071 274.903044 
L 607.230357 283.654956 
L 631.144643 282.716613 
L 655.058929 281.77827 
L 678.973214 280.839927 
L 702.8875 282.395937 
L 726.801786 283.951947 
L 750.716071 285.507957 
L 774.630357 278.130417 
L 798.544643 270.752878 
L 822.458929 263.375338 
" style="fill:none;stroke:#ff0000;stroke-linecap:square;stroke-width:1.5;"/>
    <defs>
     <path d="M 0 3 
C 0.795609 3 1.55874 2.683901 2.12132 2.12132 
C 2.683901 1.55874 3 0.795609 3 0 
C 3 -0.795609 2.683901 -1.55874 2.12132 -2.12132 
C 1.55874 -2.683901 0.795609 -3 0 -3 
C -0.795609 -3 -1.55874 -2.683901 -2.12132 -2.12132 
C -2.683901 -1.55874 -3 -0.795609 -3 0 
C -3 0.795609 -2.683901 1.55874 -2.12132 2.12132 
C -1.55874 2.683901 -0.795609 3 0 3 
z
" id="mdeee46f80b" style="stroke:#ff0000;"/>
    </defs>
    <g clip-path="url(#pa70a15fca8)">
     <use style="fill:#ff0000;stroke:#ff0000;" x="33.2875" xlink:href="#mdeee46f80b" y="41.281572"/>
     <use style="fill:#ff0000;stroke:#ff0000;" x="57.201786" xlink:href="#mdeee46f80b" y="33.073168"/>
     <use style="fill:#ff0000;stroke:#ff0000;" x="81.116071" xlink:href="#mdeee46f80b" y="24.864765"/>
     <use style="fill:#ff0000;stroke:#ff0000;" x="105.030357" xlink:href="#mdeee46f80b" y="16.656362"/>
     <use style="fill:#ff0000;stroke:#ff0000;" x="128.944643" xlink:href="#mdeee46f80b" y="18.19287"/>
     <use style="fill:#ff0000;stroke:#ff0000;" x="152.858929" xlink:href="#mdeee46f80b" y="19.729377"/>
     <use style="fill:#ff0000;stroke:#ff0000;" x="176.773214" xlink:href="#mdeee46f80b" y="21.265885"/>
     <use style="fill:#ff0000;stroke:#ff0000;" x="200.6875" xlink:href="#mdeee46f80b" y="21.720586"/>
     <use style="fill:#ff0000;stroke:#ff0000;" x="224.601786" xlink:href="#mdeee46f80b" y="22.175287"/>
     <use style="fill:#ff0000;stroke:#ff0000;" x="248.516071" xlink:href="#mdeee46f80b" y="22.629988"/>
     <use style="fill:#ff0000;stroke:#ff0000;" x="272.430357" xlink:href="#mdeee46f80b" y="37.575287"/>
     <use style="fill:#ff0000;stroke:#ff0000;" x="296.344643" xlink:href="#mdeee46f80b" y="52.520586"/>
     <use style="fill:#ff0000;stroke:#ff0000;" x="320.258929" xlink:href="#mdeee46f80b" y="67.465885"/>
     <use style="fill:#ff0000;stroke:#ff0000;" x="344.173214" xlink:href="#mdeee46f80b" y="94.41981"/>
     <use style="fill:#ff0000;stroke:#ff0000;" x="368.0875" xlink:href="#mdeee46f80b" y="121.373735"/>
     <use style="fill:#ff0000;stroke:#ff0000;" x="392.001786" xlink:href="#mdeee46f80b" y="148.327659"/>
     <use style="fill:#ff0000;stroke:#ff0000;" x="415.916071" xlink:href="#mdeee46f80b" y="165.890222"/>
     <use style="fill:#ff0000;stroke:#ff0000;" x="439.830357" xlink:href="#mdeee46f80b" y="183.452785"/>
     <use style="fill:#ff0000;stroke:#ff0000;" x="463.744643" xlink:href="#mdeee46f80b" y="201.015348"/>
     <use style="fill:#ff0000;stroke:#ff0000;" x="487.658929" xlink:href="#mdeee46f80b" y="219.809971"/>
     <use style="fill:#ff0000;stroke:#ff0000;" x="511.573214" xlink:href="#mdeee46f80b" y="238.604595"/>
     <use style="fill:#ff0000;stroke:#ff0000;" x="535.4875" xlink:href="#mdeee46f80b" y="257.399219"/>
     <use style="fill:#ff0000;stroke:#ff0000;" x="559.401786" xlink:href="#mdeee46f80b" y="266.151131"/>
     <use style="fill:#ff0000;stroke:#ff0000;" x="583.316071" xlink:href="#mdeee46f80b" y="274.903044"/>
     <use style="fill:#ff0000;stroke:#ff0000;" x="607.230357" xlink:href="#mdeee46f80b" y="283.654956"/>
     <use style="fill:#ff0000;stroke:#ff0000;" x="631.144643" xlink:href="#mdeee46f80b" y="282.716613"/>
     <use style="fill:#ff0000;stroke:#ff0000;" x="655.058929" xlink:href="#mdeee46f80b" y="281.77827"/>
     <use style="fill:#ff0000;stroke:#ff0000;" x="678.973214" xlink:href="#mdeee46f80b" y="280.839927"/>
     <use style="fill:#ff0000;stroke:#ff0000;" x="702.8875" xlink:href="#mdeee46f80b" y="282.395937"/>
     <use style="fill:#ff0000;stroke:#ff0000;" x="726.801786" xlink:href="#mdeee46f80b" y="283.951947"/>
     <use style="fill:#ff0000;stroke:#ff0000;" x="750.716071" xlink:href="#mdeee46f80b" y="285.507957"/>
     <use style="fill:#ff0000;stroke:#ff0000;" x="774.630357" xlink:href="#mdeee46f80b" y="278.130417"/>
     <use style="fill:#ff0000;stroke:#ff0000;" x="798.544643" xlink:href="#mdeee46f80b" y="270.752878"/>
     <use style="fill:#ff0000;stroke:#ff0000;" x="822.458929" xlink:href="#mdeee46f80b" y="263.375338"/>
    </g>
   </g>
   <g id="line2d_17"/>
   <g id="line2d_18">
    <path clip-path="url(#pa70a15fca8)" d="M 33.2875 282.173132 
L 57.201786 281.871827 
L 81.116071 281.570523 
L 105.030357 281.269219 
L 128.944643 279.619219 
L 152.858929 277.969219 
L 176.773214 276.319219 
L 200.6875 271.948071 
L 224.601786 267.576924 
L 248.516071 263.205776 
L 272.430357 252.253445 
L 296.344643 241.301115 
L 320.258929 230.348784 
L 344.173214 215.542942 
L 368.0875 200.7371 
L 392.001786 185.931258 
L 415.916071 145.809554 
L 439.830357 105.687851 
L 463.744643 65.566148 
L 487.658929 102.478089 
L 511.573214 139.39003 
L 535.4875 176.301971 
L 559.401786 181.03384 
L 583.316071 185.76571 
L 607.230357 190.497579 
L 631.144643 209.34202 
L 655.058929 228.186461 
L 678.973214 247.030902 
L 702.8875 253.441444 
L 726.801786 259.851986 
L 750.716071 266.262528 
L 774.630357 273.574758 
L 798.544643 280.886989 
L 822.458929 288.199219 
L 846.373214 288.199219 
L 870.2875 288.199219 
" style="fill:none;stroke:#008000;stroke-linecap:square;stroke-opacity:0.25;stroke-width:1.5;"/>
    <defs>
     <path d="M 0 3 
C 0.795609 3 1.55874 2.683901 2.12132 2.12132 
C 2.683901 1.55874 3 0.795609 3 0 
C 3 -0.795609 2.683901 -1.55874 2.12132 -2.12132 
C 1.55874 -2.683901 0.795609 -3 0 -3 
C -0.795609 -3 -1.55874 -2.683901 -2.12132 -2.12132 
C -2.683901 -1.55874 -3 -0.795609 -3 0 
C -3 0.795609 -2.683901 1.55874 -2.12132 2.12132 
C -1.55874 2.683901 -0.795609 3 0 3 
z
" id="m03bcfd3323" style="stroke:#008000;stroke-opacity:0.25;"/>
    </defs>
    <g clip-path="url(#pa70a15fca8)">
     <use style="fill:#008000;fill-opacity:0.25;stroke:#008000;stroke-opacity:0.25;" x="33.2875" xlink:href="#m03bcfd3323" y="282.173132"/>
     <use style="fill:#008000;fill-opacity:0.25;stroke:#008000;stroke-opacity:0.25;" x="57.201786" xlink:href="#m03bcfd3323" y="281.871827"/>
     <use style="fill:#008000;fill-opacity:0.25;stroke:#008000;stroke-opacity:0.25;" x="81.116071" xlink:href="#m03bcfd3323" y="281.570523"/>
     <use style="fill:#008000;fill-opacity:0.25;stroke:#008000;stroke-opacity:0.25;" x="105.030357" xlink:href="#m03bcfd3323" y="281.269219"/>
     <use style="fill:#008000;fill-opacity:0.25;stroke:#008000;stroke-opacity:0.25;" x="128.944643" xlink:href="#m03bcfd3323" y="279.619219"/>
     <use style="fill:#008000;fill-opacity:0.25;stroke:#008000;stroke-opacity:0.25;" x="152.858929" xlink:href="#m03bcfd3323" y="277.969219"/>
     <use style="fill:#008000;fill-opacity:0.25;stroke:#008000;stroke-opacity:0.25;" x="176.773214" xlink:href="#m03bcfd3323" y="276.319219"/>
     <use style="fill:#008000;fill-opacity:0.25;stroke:#008000;stroke-opacity:0.25;" x="200.6875" xlink:href="#m03bcfd3323" y="271.948071"/>
     <use style="fill:#008000;fill-opacity:0.25;stroke:#008000;stroke-opacity:0.25;" x="224.601786" xlink:href="#m03bcfd3323" y="267.576924"/>
     <use style="fill:#008000;fill-opacity:0.25;stroke:#008000;stroke-opacity:0.25;" x="248.516071" xlink:href="#m03bcfd3323" y="263.205776"/>
     <use style="fill:#008000;fill-opacity:0.25;stroke:#008000;stroke-opacity:0.25;" x="272.430357" xlink:href="#m03bcfd3323" y="252.253445"/>
     <use style="fill:#008000;fill-opacity:0.25;stroke:#008000;stroke-opacity:0.25;" x="296.344643" xlink:href="#m03bcfd3323" y="241.301115"/>
     <use style="fill:#008000;fill-opacity:0.25;stroke:#008000;stroke-opacity:0.25;" x="320.258929" xlink:href="#m03bcfd3323" y="230.348784"/>
     <use style="fill:#008000;fill-opacity:0.25;stroke:#008000;stroke-opacity:0.25;" x="344.173214" xlink:href="#m03bcfd3323" y="215.542942"/>
     <use style="fill:#008000;fill-opacity:0.25;stroke:#008000;stroke-opacity:0.25;" x="368.0875" xlink:href="#m03bcfd3323" y="200.7371"/>
     <use style="fill:#008000;fill-opacity:0.25;stroke:#008000;stroke-opacity:0.25;" x="392.001786" xlink:href="#m03bcfd3323" y="185.931258"/>
     <use style="fill:#008000;fill-opacity:0.25;stroke:#008000;stroke-opacity:0.25;" x="415.916071" xlink:href="#m03bcfd3323" y="145.809554"/>
     <use style="fill:#008000;fill-opacity:0.25;stroke:#008000;stroke-opacity:0.25;" x="439.830357" xlink:href="#m03bcfd3323" y="105.687851"/>
     <use style="fill:#008000;fill-opacity:0.25;stroke:#008000;stroke-opacity:0.25;" x="463.744643" xlink:href="#m03bcfd3323" y="65.566148"/>
     <use style="fill:#008000;fill-opacity:0.25;stroke:#008000;stroke-opacity:0.25;" x="487.658929" xlink:href="#m03bcfd3323" y="102.478089"/>
     <use style="fill:#008000;fill-opacity:0.25;stroke:#008000;stroke-opacity:0.25;" x="511.573214" xlink:href="#m03bcfd3323" y="139.39003"/>
     <use style="fill:#008000;fill-opacity:0.25;stroke:#008000;stroke-opacity:0.25;" x="535.4875" xlink:href="#m03bcfd3323" y="176.301971"/>
     <use style="fill:#008000;fill-opacity:0.25;stroke:#008000;stroke-opacity:0.25;" x="559.401786" xlink:href="#m03bcfd3323" y="181.03384"/>
     <use style="fill:#008000;fill-opacity:0.25;stroke:#008000;stroke-opacity:0.25;" x="583.316071" xlink:href="#m03bcfd3323" y="185.76571"/>
     <use style="fill:#008000;fill-opacity:0.25;stroke:#008000;stroke-opacity:0.25;" x="607.230357" xlink:href="#m03bcfd3323" y="190.497579"/>
     <use style="fill:#008000;fill-opacity:0.25;stroke:#008000;stroke-opacity:0.25;" x="631.144643" xlink:href="#m03bcfd3323" y="209.34202"/>
     <use style="fill:#008000;fill-opacity:0.25;stroke:#008000;stroke-opacity:0.25;" x="655.058929" xlink:href="#m03bcfd3323" y="228.186461"/>
     <use style="fill:#008000;fill-opacity:0.25;stroke:#008000;stroke-opacity:0.25;" x="678.973214" xlink:href="#m03bcfd3323" y="247.030902"/>
     <use style="fill:#008000;fill-opacity:0.25;stroke:#008000;stroke-opacity:0.25;" x="702.8875" xlink:href="#m03bcfd3323" y="253.441444"/>
     <use style="fill:#008000;fill-opacity:0.25;stroke:#008000;stroke-opacity:0.25;" x="726.801786" xlink:href="#m03bcfd3323" y="259.851986"/>
     <use style="fill:#008000;fill-opacity:0.25;stroke:#008000;stroke-opacity:0.25;" x="750.716071" xlink:href="#m03bcfd3323" y="266.262528"/>
     <use style="fill:#008000;fill-opacity:0.25;stroke:#008000;stroke-opacity:0.25;" x="774.630357" xlink:href="#m03bcfd3323" y="273.574758"/>
     <use style="fill:#008000;fill-opacity:0.25;stroke:#008000;stroke-opacity:0.25;" x="798.544643" xlink:href="#m03bcfd3323" y="280.886989"/>
     <use style="fill:#008000;fill-opacity:0.25;stroke:#008000;stroke-opacity:0.25;" x="822.458929" xlink:href="#m03bcfd3323" y="288.199219"/>
     <use style="fill:#008000;fill-opacity:0.25;stroke:#008000;stroke-opacity:0.25;" x="846.373214" xlink:href="#m03bcfd3323" y="288.199219"/>
     <use style="fill:#008000;fill-opacity:0.25;stroke:#008000;stroke-opacity:0.25;" x="870.2875" xlink:href="#m03bcfd3323" y="288.199219"/>
    </g>
   </g>
   <g id="line2d_19">
    <path clip-path="url(#pa70a15fca8)" d="M 33.2875 288.199219 
L 57.201786 287.570647 
L 81.116071 286.942076 
L 105.030357 286.313504 
L 128.944643 284.204298 
L 152.858929 282.095092 
L 176.773214 279.985885 
L 200.6875 278.84674 
L 224.601786 277.707595 
L 248.516071 276.56845 
L 272.430357 261.62315 
L 296.344643 246.677851 
L 320.258929 231.732552 
L 344.173214 204.778628 
L 368.0875 177.824703 
L 392.001786 150.870778 
L 415.916071 133.308215 
L 439.830357 115.745653 
L 463.744643 98.18309 
L 487.658929 145.266244 
L 511.573214 192.349398 
L 535.4875 239.432552 
L 559.401786 249.629091 
L 583.316071 259.82563 
L 607.230357 270.02217 
L 631.144643 267.904195 
L 655.058929 265.78622 
L 678.973214 263.668245 
L 702.8875 269.153974 
L 726.801786 274.639703 
L 750.716071 280.125432 
L 774.630357 279.368933 
L 798.544643 278.612434 
L 822.458929 277.855935 
" style="fill:none;stroke:#008000;stroke-linecap:square;stroke-width:1.5;"/>
    <defs>
     <path d="M 0 3 
C 0.795609 3 1.55874 2.683901 2.12132 2.12132 
C 2.683901 1.55874 3 0.795609 3 0 
C 3 -0.795609 2.683901 -1.55874 2.12132 -2.12132 
C 1.55874 -2.683901 0.795609 -3 0 -3 
C -0.795609 -3 -1.55874 -2.683901 -2.12132 -2.12132 
C -2.683901 -1.55874 -3 -0.795609 -3 0 
C -3 0.795609 -2.683901 1.55874 -2.12132 2.12132 
C -1.55874 2.683901 -0.795609 3 0 3 
z
" id="m1725d0de56" style="stroke:#008000;"/>
    </defs>
    <g clip-path="url(#pa70a15fca8)">
     <use style="fill:#008000;stroke:#008000;" x="33.2875" xlink:href="#m1725d0de56" y="288.199219"/>
     <use style="fill:#008000;stroke:#008000;" x="57.201786" xlink:href="#m1725d0de56" y="287.570647"/>
     <use style="fill:#008000;stroke:#008000;" x="81.116071" xlink:href="#m1725d0de56" y="286.942076"/>
     <use style="fill:#008000;stroke:#008000;" x="105.030357" xlink:href="#m1725d0de56" y="286.313504"/>
     <use style="fill:#008000;stroke:#008000;" x="128.944643" xlink:href="#m1725d0de56" y="284.204298"/>
     <use style="fill:#008000;stroke:#008000;" x="152.858929" xlink:href="#m1725d0de56" y="282.095092"/>
     <use style="fill:#008000;stroke:#008000;" x="176.773214" xlink:href="#m1725d0de56" y="279.985885"/>
     <use style="fill:#008000;stroke:#008000;" x="200.6875" xlink:href="#m1725d0de56" y="278.84674"/>
     <use style="fill:#008000;stroke:#008000;" x="224.601786" xlink:href="#m1725d0de56" y="277.707595"/>
     <use style="fill:#008000;stroke:#008000;" x="248.516071" xlink:href="#m1725d0de56" y="276.56845"/>
     <use style="fill:#008000;stroke:#008000;" x="272.430357" xlink:href="#m1725d0de56" y="261.62315"/>
     <use style="fill:#008000;stroke:#008000;" x="296.344643" xlink:href="#m1725d0de56" y="246.677851"/>
     <use style="fill:#008000;stroke:#008000;" x="320.258929" xlink:href="#m1725d0de56" y="231.732552"/>
     <use style="fill:#008000;stroke:#008000;" x="344.173214" xlink:href="#m1725d0de56" y="204.778628"/>
     <use style="fill:#008000;stroke:#008000;" x="368.0875" xlink:href="#m1725d0de56" y="177.824703"/>
     <use style="fill:#008000;stroke:#008000;" x="392.001786" xlink:href="#m1725d0de56" y="150.870778"/>
     <use style="fill:#008000;stroke:#008000;" x="415.916071" xlink:href="#m1725d0de56" y="133.308215"/>
     <use style="fill:#008000;stroke:#008000;" x="439.830357" xlink:href="#m1725d0de56" y="115.745653"/>
     <use style="fill:#008000;stroke:#008000;" x="463.744643" xlink:href="#m1725d0de56" y="98.18309"/>
     <use style="fill:#008000;stroke:#008000;" x="487.658929" xlink:href="#m1725d0de56" y="145.266244"/>
     <use style="fill:#008000;stroke:#008000;" x="511.573214" xlink:href="#m1725d0de56" y="192.349398"/>
     <use style="fill:#008000;stroke:#008000;" x="535.4875" xlink:href="#m1725d0de56" y="239.432552"/>
     <use style="fill:#008000;stroke:#008000;" x="559.401786" xlink:href="#m1725d0de56" y="249.629091"/>
     <use style="fill:#008000;stroke:#008000;" x="583.316071" xlink:href="#m1725d0de56" y="259.82563"/>
     <use style="fill:#008000;stroke:#008000;" x="607.230357" xlink:href="#m1725d0de56" y="270.02217"/>
     <use style="fill:#008000;stroke:#008000;" x="631.144643" xlink:href="#m1725d0de56" y="267.904195"/>
     <use style="fill:#008000;stroke:#008000;" x="655.058929" xlink:href="#m1725d0de56" y="265.78622"/>
     <use style="fill:#008000;stroke:#008000;" x="678.973214" xlink:href="#m1725d0de56" y="263.668245"/>
     <use style="fill:#008000;stroke:#008000;" x="702.8875" xlink:href="#m1725d0de56" y="269.153974"/>
     <use style="fill:#008000;stroke:#008000;" x="726.801786" xlink:href="#m1725d0de56" y="274.639703"/>
     <use style="fill:#008000;stroke:#008000;" x="750.716071" xlink:href="#m1725d0de56" y="280.125432"/>
     <use style="fill:#008000;stroke:#008000;" x="774.630357" xlink:href="#m1725d0de56" y="279.368933"/>
     <use style="fill:#008000;stroke:#008000;" x="798.544643" xlink:href="#m1725d0de56" y="278.612434"/>
     <use style="fill:#008000;stroke:#008000;" x="822.458929" xlink:href="#m1725d0de56" y="277.855935"/>
    </g>
   </g>
   <g id="line2d_20"/>
   <g id="line2d_21">
    <path clip-path="url(#pa70a15fca8)" d="M 33.2875 256.060088 
L 57.201786 266.003132 
L 81.116071 275.946175 
L 105.030357 285.889219 
L 128.944643 286.659219 
L 152.858929 287.429219 
L 176.773214 288.199219 
L 200.6875 287.441842 
L 224.601786 286.684465 
L 248.516071 285.927088 
L 272.430357 286.684465 
L 296.344643 287.441842 
L 320.258929 288.199219 
L 344.173214 288.199219 
L 368.0875 288.199219 
L 392.001786 288.199219 
L 415.916071 288.199219 
L 439.830357 288.199219 
L 463.744643 288.199219 
L 487.658929 237.336833 
L 511.573214 186.474448 
L 535.4875 135.612063 
L 559.401786 128.913792 
L 583.316071 122.215522 
L 607.230357 115.517252 
L 631.144643 97.145234 
L 655.058929 78.773216 
L 678.973214 60.401199 
L 702.8875 52.575599 
L 726.801786 44.749999 
L 750.716071 36.924399 
L 774.630357 58.874564 
L 798.544643 80.824729 
L 822.458929 102.774894 
L 846.373214 154.488885 
L 870.2875 206.202875 
" style="fill:none;stroke:#0000ff;stroke-linecap:square;stroke-opacity:0.25;stroke-width:1.5;"/>
    <defs>
     <path d="M 0 3 
C 0.795609 3 1.55874 2.683901 2.12132 2.12132 
C 2.683901 1.55874 3 0.795609 3 0 
C 3 -0.795609 2.683901 -1.55874 2.12132 -2.12132 
C 1.55874 -2.683901 0.795609 -3 0 -3 
C -0.795609 -3 -1.55874 -2.683901 -2.12132 -2.12132 
C -2.683901 -1.55874 -3 -0.795609 -3 0 
C -3 0.795609 -2.683901 1.55874 -2.12132 2.12132 
C -1.55874 2.683901 -0.795609 3 0 3 
z
" id="md17f926c1a" style="stroke:#0000ff;stroke-opacity:0.25;"/>
    </defs>
    <g clip-path="url(#pa70a15fca8)">
     <use style="fill:#0000ff;fill-opacity:0.25;stroke:#0000ff;stroke-opacity:0.25;" x="33.2875" xlink:href="#md17f926c1a" y="256.060088"/>
     <use style="fill:#0000ff;fill-opacity:0.25;stroke:#0000ff;stroke-opacity:0.25;" x="57.201786" xlink:href="#md17f926c1a" y="266.003132"/>
     <use style="fill:#0000ff;fill-opacity:0.25;stroke:#0000ff;stroke-opacity:0.25;" x="81.116071" xlink:href="#md17f926c1a" y="275.946175"/>
     <use style="fill:#0000ff;fill-opacity:0.25;stroke:#0000ff;stroke-opacity:0.25;" x="105.030357" xlink:href="#md17f926c1a" y="285.889219"/>
     <use style="fill:#0000ff;fill-opacity:0.25;stroke:#0000ff;stroke-opacity:0.25;" x="128.944643" xlink:href="#md17f926c1a" y="286.659219"/>
     <use style="fill:#0000ff;fill-opacity:0.25;stroke:#0000ff;stroke-opacity:0.25;" x="152.858929" xlink:href="#md17f926c1a" y="287.429219"/>
     <use style="fill:#0000ff;fill-opacity:0.25;stroke:#0000ff;stroke-opacity:0.25;" x="176.773214" xlink:href="#md17f926c1a" y="288.199219"/>
     <use style="fill:#0000ff;fill-opacity:0.25;stroke:#0000ff;stroke-opacity:0.25;" x="200.6875" xlink:href="#md17f926c1a" y="287.441842"/>
     <use style="fill:#0000ff;fill-opacity:0.25;stroke:#0000ff;stroke-opacity:0.25;" x="224.601786" xlink:href="#md17f926c1a" y="286.684465"/>
     <use style="fill:#0000ff;fill-opacity:0.25;stroke:#0000ff;stroke-opacity:0.25;" x="248.516071" xlink:href="#md17f926c1a" y="285.927088"/>
     <use style="fill:#0000ff;fill-opacity:0.25;stroke:#0000ff;stroke-opacity:0.25;" x="272.430357" xlink:href="#md17f926c1a" y="286.684465"/>
     <use style="fill:#0000ff;fill-opacity:0.25;stroke:#0000ff;stroke-opacity:0.25;" x="296.344643" xlink:href="#md17f926c1a" y="287.441842"/>
     <use style="fill:#0000ff;fill-opacity:0.25;stroke:#0000ff;stroke-opacity:0.25;" x="320.258929" xlink:href="#md17f926c1a" y="288.199219"/>
     <use style="fill:#0000ff;fill-opacity:0.25;stroke:#0000ff;stroke-opacity:0.25;" x="344.173214" xlink:href="#md17f926c1a" y="288.199219"/>
     <use style="fill:#0000ff;fill-opacity:0.25;stroke:#0000ff;stroke-opacity:0.25;" x="368.0875" xlink:href="#md17f926c1a" y="288.199219"/>
     <use style="fill:#0000ff;fill-opacity:0.25;stroke:#0000ff;stroke-opacity:0.25;" x="392.001786" xlink:href="#md17f926c1a" y="288.199219"/>
     <use style="fill:#0000ff;fill-opacity:0.25;stroke:#0000ff;stroke-opacity:0.25;" x="415.916071" xlink:href="#md17f926c1a" y="288.199219"/>
     <use style="fill:#0000ff;fill-opacity:0.25;stroke:#0000ff;stroke-opacity:0.25;" x="439.830357" xlink:href="#md17f926c1a" y="288.199219"/>
     <use style="fill:#0000ff;fill-opacity:0.25;stroke:#0000ff;stroke-opacity:0.25;" x="463.744643" xlink:href="#md17f926c1a" y="288.199219"/>
     <use style="fill:#0000ff;fill-opacity:0.25;stroke:#0000ff;stroke-opacity:0.25;" x="487.658929" xlink:href="#md17f926c1a" y="237.336833"/>
     <use style="fill:#0000ff;fill-opacity:0.25;stroke:#0000ff;stroke-opacity:0.25;" x="511.573214" xlink:href="#md17f926c1a" y="186.474448"/>
     <use style="fill:#0000ff;fill-opacity:0.25;stroke:#0000ff;stroke-opacity:0.25;" x="535.4875" xlink:href="#md17f926c1a" y="135.612063"/>
     <use style="fill:#0000ff;fill-opacity:0.25;stroke:#0000ff;stroke-opacity:0.25;" x="559.401786" xlink:href="#md17f926c1a" y="128.913792"/>
     <use style="fill:#0000ff;fill-opacity:0.25;stroke:#0000ff;stroke-opacity:0.25;" x="583.316071" xlink:href="#md17f926c1a" y="122.215522"/>
     <use style="fill:#0000ff;fill-opacity:0.25;stroke:#0000ff;stroke-opacity:0.25;" x="607.230357" xlink:href="#md17f926c1a" y="115.517252"/>
     <use style="fill:#0000ff;fill-opacity:0.25;stroke:#0000ff;stroke-opacity:0.25;" x="631.144643" xlink:href="#md17f926c1a" y="97.145234"/>
     <use style="fill:#0000ff;fill-opacity:0.25;stroke:#0000ff;stroke-opacity:0.25;" x="655.058929" xlink:href="#md17f926c1a" y="78.773216"/>
     <use style="fill:#0000ff;fill-opacity:0.25;stroke:#0000ff;stroke-opacity:0.25;" x="678.973214" xlink:href="#md17f926c1a" y="60.401199"/>
     <use style="fill:#0000ff;fill-opacity:0.25;stroke:#0000ff;stroke-opacity:0.25;" x="702.8875" xlink:href="#md17f926c1a" y="52.575599"/>
     <use style="fill:#0000ff;fill-opacity:0.25;stroke:#0000ff;stroke-opacity:0.25;" x="726.801786" xlink:href="#md17f926c1a" y="44.749999"/>
     <use style="fill:#0000ff;fill-opacity:0.25;stroke:#0000ff;stroke-opacity:0.25;" x="750.716071" xlink:href="#md17f926c1a" y="36.924399"/>
     <use style="fill:#0000ff;fill-opacity:0.25;stroke:#0000ff;stroke-opacity:0.25;" x="774.630357" xlink:href="#md17f926c1a" y="58.874564"/>
     <use style="fill:#0000ff;fill-opacity:0.25;stroke:#0000ff;stroke-opacity:0.25;" x="798.544643" xlink:href="#md17f926c1a" y="80.824729"/>
     <use style="fill:#0000ff;fill-opacity:0.25;stroke:#0000ff;stroke-opacity:0.25;" x="822.458929" xlink:href="#md17f926c1a" y="102.774894"/>
     <use style="fill:#0000ff;fill-opacity:0.25;stroke:#0000ff;stroke-opacity:0.25;" x="846.373214" xlink:href="#md17f926c1a" y="154.488885"/>
     <use style="fill:#0000ff;fill-opacity:0.25;stroke:#0000ff;stroke-opacity:0.25;" x="870.2875" xlink:href="#md17f926c1a" y="206.202875"/>
    </g>
   </g>
   <g id="line2d_22">
    <path clip-path="url(#pa70a15fca8)" d="M 33.2875 257.916866 
L 57.201786 266.753841 
L 81.116071 275.590815 
L 105.030357 284.42779 
L 128.944643 285.000489 
L 152.858929 285.573187 
L 176.773214 286.145885 
L 200.6875 286.83033 
L 224.601786 287.514774 
L 248.516071 288.199219 
L 272.430357 288.199219 
L 296.344643 288.199219 
L 320.258929 288.199219 
L 344.173214 288.199219 
L 368.0875 288.199219 
L 392.001786 288.199219 
L 415.916071 288.199219 
L 439.830357 288.199219 
L 463.744643 288.199219 
L 487.658929 222.321441 
L 511.573214 156.443663 
L 535.4875 90.565885 
L 559.401786 71.617434 
L 583.316071 52.668982 
L 607.230357 33.72053 
L 631.144643 36.776848 
L 655.058929 39.833166 
L 678.973214 42.889484 
L 702.8875 35.847745 
L 726.801786 28.806006 
L 750.716071 21.764267 
L 774.630357 29.898306 
L 798.544643 38.032344 
L 822.458929 46.166383 
" style="fill:none;stroke:#0000ff;stroke-linecap:square;stroke-width:1.5;"/>
    <defs>
     <path d="M 0 3 
C 0.795609 3 1.55874 2.683901 2.12132 2.12132 
C 2.683901 1.55874 3 0.795609 3 0 
C 3 -0.795609 2.683901 -1.55874 2.12132 -2.12132 
C 1.55874 -2.683901 0.795609 -3 0 -3 
C -0.795609 -3 -1.55874 -2.683901 -2.12132 -2.12132 
C -2.683901 -1.55874 -3 -0.795609 -3 0 
C -3 0.795609 -2.683901 1.55874 -2.12132 2.12132 
C -1.55874 2.683901 -0.795609 3 0 3 
z
" id="mef4310767d" style="stroke:#0000ff;"/>
    </defs>
    <g clip-path="url(#pa70a15fca8)">
     <use style="fill:#0000ff;stroke:#0000ff;" x="33.2875" xlink:href="#mef4310767d" y="257.916866"/>
     <use style="fill:#0000ff;stroke:#0000ff;" x="57.201786" xlink:href="#mef4310767d" y="266.753841"/>
     <use style="fill:#0000ff;stroke:#0000ff;" x="81.116071" xlink:href="#mef4310767d" y="275.590815"/>
     <use style="fill:#0000ff;stroke:#0000ff;" x="105.030357" xlink:href="#mef4310767d" y="284.42779"/>
     <use style="fill:#0000ff;stroke:#0000ff;" x="128.944643" xlink:href="#mef4310767d" y="285.000489"/>
     <use style="fill:#0000ff;stroke:#0000ff;" x="152.858929" xlink:href="#mef4310767d" y="285.573187"/>
     <use style="fill:#0000ff;stroke:#0000ff;" x="176.773214" xlink:href="#mef4310767d" y="286.145885"/>
     <use style="fill:#0000ff;stroke:#0000ff;" x="200.6875" xlink:href="#mef4310767d" y="286.83033"/>
     <use style="fill:#0000ff;stroke:#0000ff;" x="224.601786" xlink:href="#mef4310767d" y="287.514774"/>
     <use style="fill:#0000ff;stroke:#0000ff;" x="248.516071" xlink:href="#mef4310767d" y="288.199219"/>
     <use style="fill:#0000ff;stroke:#0000ff;" x="272.430357" xlink:href="#mef4310767d" y="288.199219"/>
     <use style="fill:#0000ff;stroke:#0000ff;" x="296.344643" xlink:href="#mef4310767d" y="288.199219"/>
     <use style="fill:#0000ff;stroke:#0000ff;" x="320.258929" xlink:href="#mef4310767d" y="288.199219"/>
     <use style="fill:#0000ff;stroke:#0000ff;" x="344.173214" xlink:href="#mef4310767d" y="288.199219"/>
     <use style="fill:#0000ff;stroke:#0000ff;" x="368.0875" xlink:href="#mef4310767d" y="288.199219"/>
     <use style="fill:#0000ff;stroke:#0000ff;" x="392.001786" xlink:href="#mef4310767d" y="288.199219"/>
     <use style="fill:#0000ff;stroke:#0000ff;" x="415.916071" xlink:href="#mef4310767d" y="288.199219"/>
     <use style="fill:#0000ff;stroke:#0000ff;" x="439.830357" xlink:href="#mef4310767d" y="288.199219"/>
     <use style="fill:#0000ff;stroke:#0000ff;" x="463.744643" xlink:href="#mef4310767d" y="288.199219"/>
     <use style="fill:#0000ff;stroke:#0000ff;" x="487.658929" xlink:href="#mef4310767d" y="222.321441"/>
     <use style="fill:#0000ff;stroke:#0000ff;" x="511.573214" xlink:href="#mef4310767d" y="156.443663"/>
     <use style="fill:#0000ff;stroke:#0000ff;" x="535.4875" xlink:href="#mef4310767d" y="90.565885"/>
     <use style="fill:#0000ff;stroke:#0000ff;" x="559.401786" xlink:href="#mef4310767d" y="71.617434"/>
     <use style="fill:#0000ff;stroke:#0000ff;" x="583.316071" xlink:href="#mef4310767d" y="52.668982"/>
     <use style="fill:#0000ff;stroke:#0000ff;" x="607.230357" xlink:href="#mef4310767d" y="33.72053"/>
     <use style="fill:#0000ff;stroke:#0000ff;" x="631.144643" xlink:href="#mef4310767d" y="36.776848"/>
     <use style="fill:#0000ff;stroke:#0000ff;" x="655.058929" xlink:href="#mef4310767d" y="39.833166"/>
     <use style="fill:#0000ff;stroke:#0000ff;" x="678.973214" xlink:href="#mef4310767d" y="42.889484"/>
     <use style="fill:#0000ff;stroke:#0000ff;" x="702.8875" xlink:href="#mef4310767d" y="35.847745"/>
     <use style="fill:#0000ff;stroke:#0000ff;" x="726.801786" xlink:href="#mef4310767d" y="28.806006"/>
     <use style="fill:#0000ff;stroke:#0000ff;" x="750.716071" xlink:href="#mef4310767d" y="21.764267"/>
     <use style="fill:#0000ff;stroke:#0000ff;" x="774.630357" xlink:href="#mef4310767d" y="29.898306"/>
     <use style="fill:#0000ff;stroke:#0000ff;" x="798.544643" xlink:href="#mef4310767d" y="38.032344"/>
     <use style="fill:#0000ff;stroke:#0000ff;" x="822.458929" xlink:href="#mef4310767d" y="46.166383"/>
    </g>
   </g>
   <g id="line2d_23"/>
   <g id="patch_3">
    <path d="M 33.2875 288.199219 
L 33.2875 10.999219 
" style="fill:none;stroke:#000000;stroke-linecap:square;stroke-linejoin:miter;stroke-width:0.8;"/>
   </g>
   <g id="patch_4">
    <path d="M 870.2875 288.199219 
L 870.2875 10.999219 
" style="fill:none;stroke:#000000;stroke-linecap:square;stroke-linejoin:miter;stroke-width:0.8;"/>
   </g>
   <g id="patch_5">
    <path d="M 33.2875 288.199219 
L 870.2875 288.199219 
" style="fill:none;stroke:#000000;stroke-linecap:square;stroke-linejoin:miter;stroke-width:0.8;"/>
   </g>
   <g id="patch_6">
    <path d="M 33.2875 10.999219 
L 870.2875 10.999219 
" style="fill:none;stroke:#000000;stroke-linecap:square;stroke-linejoin:miter;stroke-width:0.8;"/>
   </g>
  </g>
 </g>
 <defs>
  <clipPath id="pa70a15fca8">
   <rect height="277.2" width="837" x="33.2875" y="10.999219"/>
  </clipPath>
 </defs>
</svg>
