<?xml version="1.0" encoding="utf-8" standalone="no"?>
<!DOCTYPE svg PUBLIC "-//W3C//DTD SVG 1.1//EN"
  "http://www.w3.org/Graphics/SVG/1.1/DTD/svg11.dtd">
<!-- Created with matplotlib (https://matplotlib.org/) -->
<svg height="312.077344pt" version="1.1" viewBox="0 0 877.4875 312.077344" width="877.4875pt" xmlns="http://www.w3.org/2000/svg" xmlns:xlink="http://www.w3.org/1999/xlink">
 <defs>
  <style type="text/css">
*{stroke-linecap:butt;stroke-linejoin:round;}
  </style>
 </defs>
 <g id="figure_1">
  <g id="patch_1">
   <path d="M 0 312.077344 
L 877.4875 312.077344 
L 877.4875 0 
L 0 0 
z
" style="fill:#ffffff;"/>
  </g>
  <g id="axes_1">
   <g id="patch_2">
    <path d="M 33.2875 288.199219 
L 870.2875 288.199219 
L 870.2875 10.999219 
L 33.2875 10.999219 
z
" style="fill:#ffffff;"/>
   </g>
   <g id="matplotlib.axis_1">
    <g id="xtick_1">
     <g id="line2d_1">
      <defs>
       <path d="M 0 0 
L 0 3.5 
" id="me31c3eb953" style="stroke:#000000;stroke-width:0.8;"/>
      </defs>
      <g>
       <use style="stroke:#000000;stroke-width:0.8;" x="33.2875" xlink:href="#me31c3eb953" y="288.199219"/>
      </g>
     </g>
     <g id="text_1">
      <!-- 0 -->
      <defs>
       <path d="M 31.78125 66.40625 
Q 24.171875 66.40625 20.328125 58.90625 
Q 16.5 51.421875 16.5 36.375 
Q 16.5 21.390625 20.328125 13.890625 
Q 24.171875 6.390625 31.78125 6.390625 
Q 39.453125 6.390625 43.28125 13.890625 
Q 47.125 21.390625 47.125 36.375 
Q 47.125 51.421875 43.28125 58.90625 
Q 39.453125 66.40625 31.78125 66.40625 
z
M 31.78125 74.21875 
Q 44.046875 74.21875 50.515625 64.515625 
Q 56.984375 54.828125 56.984375 36.375 
Q 56.984375 17.96875 50.515625 8.265625 
Q 44.046875 -1.421875 31.78125 -1.421875 
Q 19.53125 -1.421875 13.0625 8.265625 
Q 6.59375 17.96875 6.59375 36.375 
Q 6.59375 54.828125 13.0625 64.515625 
Q 19.53125 74.21875 31.78125 74.21875 
z
" id="DejaVuSans-48"/>
      </defs>
      <g transform="translate(30.10625 302.797656)scale(0.1 -0.1)">
       <use xlink:href="#DejaVuSans-48"/>
      </g>
     </g>
    </g>
    <g id="xtick_2">
     <g id="line2d_2">
      <g>
       <use style="stroke:#000000;stroke-width:0.8;" x="191.212028" xlink:href="#me31c3eb953" y="288.199219"/>
      </g>
     </g>
     <g id="text_2">
      <!-- 10 -->
      <defs>
       <path d="M 12.40625 8.296875 
L 28.515625 8.296875 
L 28.515625 63.921875 
L 10.984375 60.40625 
L 10.984375 69.390625 
L 28.421875 72.90625 
L 38.28125 72.90625 
L 38.28125 8.296875 
L 54.390625 8.296875 
L 54.390625 0 
L 12.40625 0 
z
" id="DejaVuSans-49"/>
      </defs>
      <g transform="translate(184.849528 302.797656)scale(0.1 -0.1)">
       <use xlink:href="#DejaVuSans-49"/>
       <use x="63.623047" xlink:href="#DejaVuSans-48"/>
      </g>
     </g>
    </g>
    <g id="xtick_3">
     <g id="line2d_3">
      <g>
       <use style="stroke:#000000;stroke-width:0.8;" x="349.136557" xlink:href="#me31c3eb953" y="288.199219"/>
      </g>
     </g>
     <g id="text_3">
      <!-- 20 -->
      <defs>
       <path d="M 19.1875 8.296875 
L 53.609375 8.296875 
L 53.609375 0 
L 7.328125 0 
L 7.328125 8.296875 
Q 12.9375 14.109375 22.625 23.890625 
Q 32.328125 33.6875 34.8125 36.53125 
Q 39.546875 41.84375 41.421875 45.53125 
Q 43.3125 49.21875 43.3125 52.78125 
Q 43.3125 58.59375 39.234375 62.25 
Q 35.15625 65.921875 28.609375 65.921875 
Q 23.96875 65.921875 18.8125 64.3125 
Q 13.671875 62.703125 7.8125 59.421875 
L 7.8125 69.390625 
Q 13.765625 71.78125 18.9375 73 
Q 24.125 74.21875 28.421875 74.21875 
Q 39.75 74.21875 46.484375 68.546875 
Q 53.21875 62.890625 53.21875 53.421875 
Q 53.21875 48.921875 51.53125 44.890625 
Q 49.859375 40.875 45.40625 35.40625 
Q 44.1875 33.984375 37.640625 27.21875 
Q 31.109375 20.453125 19.1875 8.296875 
z
" id="DejaVuSans-50"/>
      </defs>
      <g transform="translate(342.774057 302.797656)scale(0.1 -0.1)">
       <use xlink:href="#DejaVuSans-50"/>
       <use x="63.623047" xlink:href="#DejaVuSans-48"/>
      </g>
     </g>
    </g>
    <g id="xtick_4">
     <g id="line2d_4">
      <g>
       <use style="stroke:#000000;stroke-width:0.8;" x="507.061085" xlink:href="#me31c3eb953" y="288.199219"/>
      </g>
     </g>
     <g id="text_4">
      <!-- 30 -->
      <defs>
       <path d="M 40.578125 39.3125 
Q 47.65625 37.796875 51.625 33 
Q 55.609375 28.21875 55.609375 21.1875 
Q 55.609375 10.40625 48.1875 4.484375 
Q 40.765625 -1.421875 27.09375 -1.421875 
Q 22.515625 -1.421875 17.65625 -0.515625 
Q 12.796875 0.390625 7.625 2.203125 
L 7.625 11.71875 
Q 11.71875 9.328125 16.59375 8.109375 
Q 21.484375 6.890625 26.8125 6.890625 
Q 36.078125 6.890625 40.9375 10.546875 
Q 45.796875 14.203125 45.796875 21.1875 
Q 45.796875 27.640625 41.28125 31.265625 
Q 36.765625 34.90625 28.71875 34.90625 
L 20.21875 34.90625 
L 20.21875 43.015625 
L 29.109375 43.015625 
Q 36.375 43.015625 40.234375 45.921875 
Q 44.09375 48.828125 44.09375 54.296875 
Q 44.09375 59.90625 40.109375 62.90625 
Q 36.140625 65.921875 28.71875 65.921875 
Q 24.65625 65.921875 20.015625 65.03125 
Q 15.375 64.15625 9.8125 62.3125 
L 9.8125 71.09375 
Q 15.4375 72.65625 20.34375 73.4375 
Q 25.25 74.21875 29.59375 74.21875 
Q 40.828125 74.21875 47.359375 69.109375 
Q 53.90625 64.015625 53.90625 55.328125 
Q 53.90625 49.265625 50.4375 45.09375 
Q 46.96875 40.921875 40.578125 39.3125 
z
" id="DejaVuSans-51"/>
      </defs>
      <g transform="translate(500.698585 302.797656)scale(0.1 -0.1)">
       <use xlink:href="#DejaVuSans-51"/>
       <use x="63.623047" xlink:href="#DejaVuSans-48"/>
      </g>
     </g>
    </g>
    <g id="xtick_5">
     <g id="line2d_5">
      <g>
       <use style="stroke:#000000;stroke-width:0.8;" x="664.985613" xlink:href="#me31c3eb953" y="288.199219"/>
      </g>
     </g>
     <g id="text_5">
      <!-- 40 -->
      <defs>
       <path d="M 37.796875 64.3125 
L 12.890625 25.390625 
L 37.796875 25.390625 
z
M 35.203125 72.90625 
L 47.609375 72.90625 
L 47.609375 25.390625 
L 58.015625 25.390625 
L 58.015625 17.1875 
L 47.609375 17.1875 
L 47.609375 0 
L 37.796875 0 
L 37.796875 17.1875 
L 4.890625 17.1875 
L 4.890625 26.703125 
z
" id="DejaVuSans-52"/>
      </defs>
      <g transform="translate(658.623113 302.797656)scale(0.1 -0.1)">
       <use xlink:href="#DejaVuSans-52"/>
       <use x="63.623047" xlink:href="#DejaVuSans-48"/>
      </g>
     </g>
    </g>
    <g id="xtick_6">
     <g id="line2d_6">
      <g>
       <use style="stroke:#000000;stroke-width:0.8;" x="822.910142" xlink:href="#me31c3eb953" y="288.199219"/>
      </g>
     </g>
     <g id="text_6">
      <!-- 50 -->
      <defs>
       <path d="M 10.796875 72.90625 
L 49.515625 72.90625 
L 49.515625 64.59375 
L 19.828125 64.59375 
L 19.828125 46.734375 
Q 21.96875 47.46875 24.109375 47.828125 
Q 26.265625 48.1875 28.421875 48.1875 
Q 40.625 48.1875 47.75 41.5 
Q 54.890625 34.8125 54.890625 23.390625 
Q 54.890625 11.625 47.5625 5.09375 
Q 40.234375 -1.421875 26.90625 -1.421875 
Q 22.3125 -1.421875 17.546875 -0.640625 
Q 12.796875 0.140625 7.71875 1.703125 
L 7.71875 11.625 
Q 12.109375 9.234375 16.796875 8.0625 
Q 21.484375 6.890625 26.703125 6.890625 
Q 35.15625 6.890625 40.078125 11.328125 
Q 45.015625 15.765625 45.015625 23.390625 
Q 45.015625 31 40.078125 35.4375 
Q 35.15625 39.890625 26.703125 39.890625 
Q 22.75 39.890625 18.8125 39.015625 
Q 14.890625 38.140625 10.796875 36.28125 
z
" id="DejaVuSans-53"/>
      </defs>
      <g transform="translate(816.547642 302.797656)scale(0.1 -0.1)">
       <use xlink:href="#DejaVuSans-53"/>
       <use x="63.623047" xlink:href="#DejaVuSans-48"/>
      </g>
     </g>
    </g>
   </g>
   <g id="matplotlib.axis_2">
    <g id="ytick_1">
     <g id="line2d_7">
      <defs>
       <path d="M 0 0 
L -3.5 0 
" id="mdccf9c6456" style="stroke:#000000;stroke-width:0.8;"/>
      </defs>
      <g>
       <use style="stroke:#000000;stroke-width:0.8;" x="33.2875" xlink:href="#mdccf9c6456" y="288.199219"/>
      </g>
     </g>
     <g id="text_7">
      <!-- 0 -->
      <g transform="translate(19.925 291.998438)scale(0.1 -0.1)">
       <use xlink:href="#DejaVuSans-48"/>
      </g>
     </g>
    </g>
    <g id="ytick_2">
     <g id="line2d_8">
      <g>
       <use style="stroke:#000000;stroke-width:0.8;" x="33.2875" xlink:href="#mdccf9c6456" y="232.759219"/>
      </g>
     </g>
     <g id="text_8">
      <!-- 20 -->
      <g transform="translate(13.5625 236.558438)scale(0.1 -0.1)">
       <use xlink:href="#DejaVuSans-50"/>
       <use x="63.623047" xlink:href="#DejaVuSans-48"/>
      </g>
     </g>
    </g>
    <g id="ytick_3">
     <g id="line2d_9">
      <g>
       <use style="stroke:#000000;stroke-width:0.8;" x="33.2875" xlink:href="#mdccf9c6456" y="177.319219"/>
      </g>
     </g>
     <g id="text_9">
      <!-- 40 -->
      <g transform="translate(13.5625 181.118438)scale(0.1 -0.1)">
       <use xlink:href="#DejaVuSans-52"/>
       <use x="63.623047" xlink:href="#DejaVuSans-48"/>
      </g>
     </g>
    </g>
    <g id="ytick_4">
     <g id="line2d_10">
      <g>
       <use style="stroke:#000000;stroke-width:0.8;" x="33.2875" xlink:href="#mdccf9c6456" y="121.879219"/>
      </g>
     </g>
     <g id="text_10">
      <!-- 60 -->
      <defs>
       <path d="M 33.015625 40.375 
Q 26.375 40.375 22.484375 35.828125 
Q 18.609375 31.296875 18.609375 23.390625 
Q 18.609375 15.53125 22.484375 10.953125 
Q 26.375 6.390625 33.015625 6.390625 
Q 39.65625 6.390625 43.53125 10.953125 
Q 47.40625 15.53125 47.40625 23.390625 
Q 47.40625 31.296875 43.53125 35.828125 
Q 39.65625 40.375 33.015625 40.375 
z
M 52.59375 71.296875 
L 52.59375 62.3125 
Q 48.875 64.0625 45.09375 64.984375 
Q 41.3125 65.921875 37.59375 65.921875 
Q 27.828125 65.921875 22.671875 59.328125 
Q 17.53125 52.734375 16.796875 39.40625 
Q 19.671875 43.65625 24.015625 45.921875 
Q 28.375 48.1875 33.59375 48.1875 
Q 44.578125 48.1875 50.953125 41.515625 
Q 57.328125 34.859375 57.328125 23.390625 
Q 57.328125 12.15625 50.6875 5.359375 
Q 44.046875 -1.421875 33.015625 -1.421875 
Q 20.359375 -1.421875 13.671875 8.265625 
Q 6.984375 17.96875 6.984375 36.375 
Q 6.984375 53.65625 15.1875 63.9375 
Q 23.390625 74.21875 37.203125 74.21875 
Q 40.921875 74.21875 44.703125 73.484375 
Q 48.484375 72.75 52.59375 71.296875 
z
" id="DejaVuSans-54"/>
      </defs>
      <g transform="translate(13.5625 125.678438)scale(0.1 -0.1)">
       <use xlink:href="#DejaVuSans-54"/>
       <use x="63.623047" xlink:href="#DejaVuSans-48"/>
      </g>
     </g>
    </g>
    <g id="ytick_5">
     <g id="line2d_11">
      <g>
       <use style="stroke:#000000;stroke-width:0.8;" x="33.2875" xlink:href="#mdccf9c6456" y="66.439219"/>
      </g>
     </g>
     <g id="text_11">
      <!-- 80 -->
      <defs>
       <path d="M 31.78125 34.625 
Q 24.75 34.625 20.71875 30.859375 
Q 16.703125 27.09375 16.703125 20.515625 
Q 16.703125 13.921875 20.71875 10.15625 
Q 24.75 6.390625 31.78125 6.390625 
Q 38.8125 6.390625 42.859375 10.171875 
Q 46.921875 13.96875 46.921875 20.515625 
Q 46.921875 27.09375 42.890625 30.859375 
Q 38.875 34.625 31.78125 34.625 
z
M 21.921875 38.8125 
Q 15.578125 40.375 12.03125 44.71875 
Q 8.5 49.078125 8.5 55.328125 
Q 8.5 64.0625 14.71875 69.140625 
Q 20.953125 74.21875 31.78125 74.21875 
Q 42.671875 74.21875 48.875 69.140625 
Q 55.078125 64.0625 55.078125 55.328125 
Q 55.078125 49.078125 51.53125 44.71875 
Q 48 40.375 41.703125 38.8125 
Q 48.828125 37.15625 52.796875 32.3125 
Q 56.78125 27.484375 56.78125 20.515625 
Q 56.78125 9.90625 50.3125 4.234375 
Q 43.84375 -1.421875 31.78125 -1.421875 
Q 19.734375 -1.421875 13.25 4.234375 
Q 6.78125 9.90625 6.78125 20.515625 
Q 6.78125 27.484375 10.78125 32.3125 
Q 14.796875 37.15625 21.921875 38.8125 
z
M 18.3125 54.390625 
Q 18.3125 48.734375 21.84375 45.5625 
Q 25.390625 42.390625 31.78125 42.390625 
Q 38.140625 42.390625 41.71875 45.5625 
Q 45.3125 48.734375 45.3125 54.390625 
Q 45.3125 60.0625 41.71875 63.234375 
Q 38.140625 66.40625 31.78125 66.40625 
Q 25.390625 66.40625 21.84375 63.234375 
Q 18.3125 60.0625 18.3125 54.390625 
z
" id="DejaVuSans-56"/>
      </defs>
      <g transform="translate(13.5625 70.238438)scale(0.1 -0.1)">
       <use xlink:href="#DejaVuSans-56"/>
       <use x="63.623047" xlink:href="#DejaVuSans-48"/>
      </g>
     </g>
    </g>
    <g id="ytick_6">
     <g id="line2d_12">
      <g>
       <use style="stroke:#000000;stroke-width:0.8;" x="33.2875" xlink:href="#mdccf9c6456" y="10.999219"/>
      </g>
     </g>
     <g id="text_12">
      <!-- 100 -->
      <g transform="translate(7.2 14.798438)scale(0.1 -0.1)">
       <use xlink:href="#DejaVuSans-49"/>
       <use x="63.623047" xlink:href="#DejaVuSans-48"/>
       <use x="127.246094" xlink:href="#DejaVuSans-48"/>
      </g>
     </g>
    </g>
   </g>
   <g id="line2d_13">
    <path clip-path="url(#pa22012dc67)" d="M 33.2875 238.149219 
L 49.079953 180.068562 
L 64.872406 121.987906 
L 80.664858 63.907249 
L 96.457311 56.111033 
L 112.249764 48.314816 
L 128.042217 40.5186 
L 143.83467 46.450472 
L 159.627123 52.382343 
L 175.419575 58.314215 
L 191.212028 13.007914 
L 207.004481 12.003567 
L 222.796934 10.999219 
L 238.589387 10.999219 
L 254.38184 10.999219 
L 270.174292 10.999219 
L 285.966745 11.78227 
L 301.759198 12.56532 
L 317.551651 13.348371 
L 333.344104 13.997879 
L 349.136557 14.647386 
L 364.929009 15.296893 
L 380.721462 40.557668 
L 396.513915 65.818444 
L 412.306368 91.079219 
L 428.098821 145.994645 
L 443.891274 200.91007 
L 459.683726 255.825496 
L 475.476179 260.901273 
L 491.268632 265.97705 
L 507.061085 271.052827 
L 522.853538 270.432291 
L 538.645991 269.811755 
L 554.438443 269.191219 
L 570.230896 260.485358 
L 586.023349 251.779498 
L 601.815802 243.073637 
L 617.608255 255.397851 
L 633.400708 267.722064 
L 649.19316 280.046278 
L 664.985613 277.543586 
L 680.778066 275.040894 
L 696.570519 272.538202 
L 712.362972 273.908541 
L 728.155425 275.27888 
L 743.947877 276.649219 
L 759.74033 274.975306 
L 775.532783 273.301393 
L 791.325236 271.62748 
L 807.117689 274.566777 
L 822.910142 277.506075 
L 838.702594 280.445373 
L 854.495047 252.229988 
L 870.2875 224.014603 
" style="fill:none;stroke:#ff0000;stroke-linecap:square;stroke-width:1.5;"/>
    <defs>
     <path d="M 0 3 
C 0.795609 3 1.55874 2.683901 2.12132 2.12132 
C 2.683901 1.55874 3 0.795609 3 0 
C 3 -0.795609 2.683901 -1.55874 2.12132 -2.12132 
C 1.55874 -2.683901 0.795609 -3 0 -3 
C -0.795609 -3 -1.55874 -2.683901 -2.12132 -2.12132 
C -2.683901 -1.55874 -3 -0.795609 -3 0 
C -3 0.795609 -2.683901 1.55874 -2.12132 2.12132 
C -1.55874 2.683901 -0.795609 3 0 3 
z
" id="m38ca59fdc9" style="stroke:#ff0000;"/>
    </defs>
    <g clip-path="url(#pa22012dc67)">
     <use style="fill:#ff0000;stroke:#ff0000;" x="33.2875" xlink:href="#m38ca59fdc9" y="238.149219"/>
     <use style="fill:#ff0000;stroke:#ff0000;" x="49.079953" xlink:href="#m38ca59fdc9" y="180.068562"/>
     <use style="fill:#ff0000;stroke:#ff0000;" x="64.872406" xlink:href="#m38ca59fdc9" y="121.987906"/>
     <use style="fill:#ff0000;stroke:#ff0000;" x="80.664858" xlink:href="#m38ca59fdc9" y="63.907249"/>
     <use style="fill:#ff0000;stroke:#ff0000;" x="96.457311" xlink:href="#m38ca59fdc9" y="56.111033"/>
     <use style="fill:#ff0000;stroke:#ff0000;" x="112.249764" xlink:href="#m38ca59fdc9" y="48.314816"/>
     <use style="fill:#ff0000;stroke:#ff0000;" x="128.042217" xlink:href="#m38ca59fdc9" y="40.5186"/>
     <use style="fill:#ff0000;stroke:#ff0000;" x="143.83467" xlink:href="#m38ca59fdc9" y="46.450472"/>
     <use style="fill:#ff0000;stroke:#ff0000;" x="159.627123" xlink:href="#m38ca59fdc9" y="52.382343"/>
     <use style="fill:#ff0000;stroke:#ff0000;" x="175.419575" xlink:href="#m38ca59fdc9" y="58.314215"/>
     <use style="fill:#ff0000;stroke:#ff0000;" x="191.212028" xlink:href="#m38ca59fdc9" y="13.007914"/>
     <use style="fill:#ff0000;stroke:#ff0000;" x="207.004481" xlink:href="#m38ca59fdc9" y="12.003567"/>
     <use style="fill:#ff0000;stroke:#ff0000;" x="222.796934" xlink:href="#m38ca59fdc9" y="10.999219"/>
     <use style="fill:#ff0000;stroke:#ff0000;" x="238.589387" xlink:href="#m38ca59fdc9" y="10.999219"/>
     <use style="fill:#ff0000;stroke:#ff0000;" x="254.38184" xlink:href="#m38ca59fdc9" y="10.999219"/>
     <use style="fill:#ff0000;stroke:#ff0000;" x="270.174292" xlink:href="#m38ca59fdc9" y="10.999219"/>
     <use style="fill:#ff0000;stroke:#ff0000;" x="285.966745" xlink:href="#m38ca59fdc9" y="11.78227"/>
     <use style="fill:#ff0000;stroke:#ff0000;" x="301.759198" xlink:href="#m38ca59fdc9" y="12.56532"/>
     <use style="fill:#ff0000;stroke:#ff0000;" x="317.551651" xlink:href="#m38ca59fdc9" y="13.348371"/>
     <use style="fill:#ff0000;stroke:#ff0000;" x="333.344104" xlink:href="#m38ca59fdc9" y="13.997879"/>
     <use style="fill:#ff0000;stroke:#ff0000;" x="349.136557" xlink:href="#m38ca59fdc9" y="14.647386"/>
     <use style="fill:#ff0000;stroke:#ff0000;" x="364.929009" xlink:href="#m38ca59fdc9" y="15.296893"/>
     <use style="fill:#ff0000;stroke:#ff0000;" x="380.721462" xlink:href="#m38ca59fdc9" y="40.557668"/>
     <use style="fill:#ff0000;stroke:#ff0000;" x="396.513915" xlink:href="#m38ca59fdc9" y="65.818444"/>
     <use style="fill:#ff0000;stroke:#ff0000;" x="412.306368" xlink:href="#m38ca59fdc9" y="91.079219"/>
     <use style="fill:#ff0000;stroke:#ff0000;" x="428.098821" xlink:href="#m38ca59fdc9" y="145.994645"/>
     <use style="fill:#ff0000;stroke:#ff0000;" x="443.891274" xlink:href="#m38ca59fdc9" y="200.91007"/>
     <use style="fill:#ff0000;stroke:#ff0000;" x="459.683726" xlink:href="#m38ca59fdc9" y="255.825496"/>
     <use style="fill:#ff0000;stroke:#ff0000;" x="475.476179" xlink:href="#m38ca59fdc9" y="260.901273"/>
     <use style="fill:#ff0000;stroke:#ff0000;" x="491.268632" xlink:href="#m38ca59fdc9" y="265.97705"/>
     <use style="fill:#ff0000;stroke:#ff0000;" x="507.061085" xlink:href="#m38ca59fdc9" y="271.052827"/>
     <use style="fill:#ff0000;stroke:#ff0000;" x="522.853538" xlink:href="#m38ca59fdc9" y="270.432291"/>
     <use style="fill:#ff0000;stroke:#ff0000;" x="538.645991" xlink:href="#m38ca59fdc9" y="269.811755"/>
     <use style="fill:#ff0000;stroke:#ff0000;" x="554.438443" xlink:href="#m38ca59fdc9" y="269.191219"/>
     <use style="fill:#ff0000;stroke:#ff0000;" x="570.230896" xlink:href="#m38ca59fdc9" y="260.485358"/>
     <use style="fill:#ff0000;stroke:#ff0000;" x="586.023349" xlink:href="#m38ca59fdc9" y="251.779498"/>
     <use style="fill:#ff0000;stroke:#ff0000;" x="601.815802" xlink:href="#m38ca59fdc9" y="243.073637"/>
     <use style="fill:#ff0000;stroke:#ff0000;" x="617.608255" xlink:href="#m38ca59fdc9" y="255.397851"/>
     <use style="fill:#ff0000;stroke:#ff0000;" x="633.400708" xlink:href="#m38ca59fdc9" y="267.722064"/>
     <use style="fill:#ff0000;stroke:#ff0000;" x="649.19316" xlink:href="#m38ca59fdc9" y="280.046278"/>
     <use style="fill:#ff0000;stroke:#ff0000;" x="664.985613" xlink:href="#m38ca59fdc9" y="277.543586"/>
     <use style="fill:#ff0000;stroke:#ff0000;" x="680.778066" xlink:href="#m38ca59fdc9" y="275.040894"/>
     <use style="fill:#ff0000;stroke:#ff0000;" x="696.570519" xlink:href="#m38ca59fdc9" y="272.538202"/>
     <use style="fill:#ff0000;stroke:#ff0000;" x="712.362972" xlink:href="#m38ca59fdc9" y="273.908541"/>
     <use style="fill:#ff0000;stroke:#ff0000;" x="728.155425" xlink:href="#m38ca59fdc9" y="275.27888"/>
     <use style="fill:#ff0000;stroke:#ff0000;" x="743.947877" xlink:href="#m38ca59fdc9" y="276.649219"/>
     <use style="fill:#ff0000;stroke:#ff0000;" x="759.74033" xlink:href="#m38ca59fdc9" y="274.975306"/>
     <use style="fill:#ff0000;stroke:#ff0000;" x="775.532783" xlink:href="#m38ca59fdc9" y="273.301393"/>
     <use style="fill:#ff0000;stroke:#ff0000;" x="791.325236" xlink:href="#m38ca59fdc9" y="271.62748"/>
     <use style="fill:#ff0000;stroke:#ff0000;" x="807.117689" xlink:href="#m38ca59fdc9" y="274.566777"/>
     <use style="fill:#ff0000;stroke:#ff0000;" x="822.910142" xlink:href="#m38ca59fdc9" y="277.506075"/>
     <use style="fill:#ff0000;stroke:#ff0000;" x="838.702594" xlink:href="#m38ca59fdc9" y="280.445373"/>
     <use style="fill:#ff0000;stroke:#ff0000;" x="854.495047" xlink:href="#m38ca59fdc9" y="252.229988"/>
     <use style="fill:#ff0000;stroke:#ff0000;" x="870.2875" xlink:href="#m38ca59fdc9" y="224.014603"/>
    </g>
   </g>
   <g id="line2d_14">
    <path clip-path="url(#pa22012dc67)" d="M 33.2875 286.77768 
L 49.079953 287.251526 
L 64.872406 287.725373 
L 80.664858 288.199219 
L 96.457311 288.199219 
L 112.249764 288.199219 
L 128.042217 288.199219 
L 143.83467 288.199219 
L 159.627123 288.199219 
L 175.419575 288.199219 
L 191.212028 288.199219 
L 207.004481 288.199219 
L 222.796934 288.199219 
L 238.589387 288.199219 
L 254.38184 288.199219 
L 270.174292 288.199219 
L 285.966745 287.416168 
L 301.759198 286.633117 
L 317.551651 285.850066 
L 333.344104 285.200559 
L 349.136557 284.551052 
L 364.929009 283.901544 
L 380.721462 258.640769 
L 396.513915 233.379994 
L 412.306368 208.119219 
L 428.098821 153.203793 
L 443.891274 98.288367 
L 459.683726 43.372941 
L 475.476179 38.297164 
L 491.268632 33.221387 
L 507.061085 28.145611 
L 522.853538 28.766147 
L 538.645991 29.386683 
L 554.438443 30.007219 
L 570.230896 47.308428 
L 586.023349 64.609637 
L 601.815802 81.910847 
L 617.608255 114.257167 
L 633.400708 146.603487 
L 649.19316 178.949807 
L 664.985613 187.176447 
L 680.778066 195.403087 
L 696.570519 203.629727 
L 712.362972 228.450808 
L 728.155425 253.271888 
L 743.947877 278.092969 
L 759.74033 279.453023 
L 775.532783 280.813077 
L 791.325236 282.173132 
L 807.117689 280.951058 
L 822.910142 279.728985 
L 838.702594 278.506911 
L 854.495047 280.789988 
L 870.2875 283.073065 
" style="fill:none;stroke:#008000;stroke-linecap:square;stroke-width:1.5;"/>
    <defs>
     <path d="M 0 3 
C 0.795609 3 1.55874 2.683901 2.12132 2.12132 
C 2.683901 1.55874 3 0.795609 3 0 
C 3 -0.795609 2.683901 -1.55874 2.12132 -2.12132 
C 1.55874 -2.683901 0.795609 -3 0 -3 
C -0.795609 -3 -1.55874 -2.683901 -2.12132 -2.12132 
C -2.683901 -1.55874 -3 -0.795609 -3 0 
C -3 0.795609 -2.683901 1.55874 -2.12132 2.12132 
C -1.55874 2.683901 -0.795609 3 0 3 
z
" id="md6db787eaf" style="stroke:#008000;"/>
    </defs>
    <g clip-path="url(#pa22012dc67)">
     <use style="fill:#008000;stroke:#008000;" x="33.2875" xlink:href="#md6db787eaf" y="286.77768"/>
     <use style="fill:#008000;stroke:#008000;" x="49.079953" xlink:href="#md6db787eaf" y="287.251526"/>
     <use style="fill:#008000;stroke:#008000;" x="64.872406" xlink:href="#md6db787eaf" y="287.725373"/>
     <use style="fill:#008000;stroke:#008000;" x="80.664858" xlink:href="#md6db787eaf" y="288.199219"/>
     <use style="fill:#008000;stroke:#008000;" x="96.457311" xlink:href="#md6db787eaf" y="288.199219"/>
     <use style="fill:#008000;stroke:#008000;" x="112.249764" xlink:href="#md6db787eaf" y="288.199219"/>
     <use style="fill:#008000;stroke:#008000;" x="128.042217" xlink:href="#md6db787eaf" y="288.199219"/>
     <use style="fill:#008000;stroke:#008000;" x="143.83467" xlink:href="#md6db787eaf" y="288.199219"/>
     <use style="fill:#008000;stroke:#008000;" x="159.627123" xlink:href="#md6db787eaf" y="288.199219"/>
     <use style="fill:#008000;stroke:#008000;" x="175.419575" xlink:href="#md6db787eaf" y="288.199219"/>
     <use style="fill:#008000;stroke:#008000;" x="191.212028" xlink:href="#md6db787eaf" y="288.199219"/>
     <use style="fill:#008000;stroke:#008000;" x="207.004481" xlink:href="#md6db787eaf" y="288.199219"/>
     <use style="fill:#008000;stroke:#008000;" x="222.796934" xlink:href="#md6db787eaf" y="288.199219"/>
     <use style="fill:#008000;stroke:#008000;" x="238.589387" xlink:href="#md6db787eaf" y="288.199219"/>
     <use style="fill:#008000;stroke:#008000;" x="254.38184" xlink:href="#md6db787eaf" y="288.199219"/>
     <use style="fill:#008000;stroke:#008000;" x="270.174292" xlink:href="#md6db787eaf" y="288.199219"/>
     <use style="fill:#008000;stroke:#008000;" x="285.966745" xlink:href="#md6db787eaf" y="287.416168"/>
     <use style="fill:#008000;stroke:#008000;" x="301.759198" xlink:href="#md6db787eaf" y="286.633117"/>
     <use style="fill:#008000;stroke:#008000;" x="317.551651" xlink:href="#md6db787eaf" y="285.850066"/>
     <use style="fill:#008000;stroke:#008000;" x="333.344104" xlink:href="#md6db787eaf" y="285.200559"/>
     <use style="fill:#008000;stroke:#008000;" x="349.136557" xlink:href="#md6db787eaf" y="284.551052"/>
     <use style="fill:#008000;stroke:#008000;" x="364.929009" xlink:href="#md6db787eaf" y="283.901544"/>
     <use style="fill:#008000;stroke:#008000;" x="380.721462" xlink:href="#md6db787eaf" y="258.640769"/>
     <use style="fill:#008000;stroke:#008000;" x="396.513915" xlink:href="#md6db787eaf" y="233.379994"/>
     <use style="fill:#008000;stroke:#008000;" x="412.306368" xlink:href="#md6db787eaf" y="208.119219"/>
     <use style="fill:#008000;stroke:#008000;" x="428.098821" xlink:href="#md6db787eaf" y="153.203793"/>
     <use style="fill:#008000;stroke:#008000;" x="443.891274" xlink:href="#md6db787eaf" y="98.288367"/>
     <use style="fill:#008000;stroke:#008000;" x="459.683726" xlink:href="#md6db787eaf" y="43.372941"/>
     <use style="fill:#008000;stroke:#008000;" x="475.476179" xlink:href="#md6db787eaf" y="38.297164"/>
     <use style="fill:#008000;stroke:#008000;" x="491.268632" xlink:href="#md6db787eaf" y="33.221387"/>
     <use style="fill:#008000;stroke:#008000;" x="507.061085" xlink:href="#md6db787eaf" y="28.145611"/>
     <use style="fill:#008000;stroke:#008000;" x="522.853538" xlink:href="#md6db787eaf" y="28.766147"/>
     <use style="fill:#008000;stroke:#008000;" x="538.645991" xlink:href="#md6db787eaf" y="29.386683"/>
     <use style="fill:#008000;stroke:#008000;" x="554.438443" xlink:href="#md6db787eaf" y="30.007219"/>
     <use style="fill:#008000;stroke:#008000;" x="570.230896" xlink:href="#md6db787eaf" y="47.308428"/>
     <use style="fill:#008000;stroke:#008000;" x="586.023349" xlink:href="#md6db787eaf" y="64.609637"/>
     <use style="fill:#008000;stroke:#008000;" x="601.815802" xlink:href="#md6db787eaf" y="81.910847"/>
     <use style="fill:#008000;stroke:#008000;" x="617.608255" xlink:href="#md6db787eaf" y="114.257167"/>
     <use style="fill:#008000;stroke:#008000;" x="633.400708" xlink:href="#md6db787eaf" y="146.603487"/>
     <use style="fill:#008000;stroke:#008000;" x="649.19316" xlink:href="#md6db787eaf" y="178.949807"/>
     <use style="fill:#008000;stroke:#008000;" x="664.985613" xlink:href="#md6db787eaf" y="187.176447"/>
     <use style="fill:#008000;stroke:#008000;" x="680.778066" xlink:href="#md6db787eaf" y="195.403087"/>
     <use style="fill:#008000;stroke:#008000;" x="696.570519" xlink:href="#md6db787eaf" y="203.629727"/>
     <use style="fill:#008000;stroke:#008000;" x="712.362972" xlink:href="#md6db787eaf" y="228.450808"/>
     <use style="fill:#008000;stroke:#008000;" x="728.155425" xlink:href="#md6db787eaf" y="253.271888"/>
     <use style="fill:#008000;stroke:#008000;" x="743.947877" xlink:href="#md6db787eaf" y="278.092969"/>
     <use style="fill:#008000;stroke:#008000;" x="759.74033" xlink:href="#md6db787eaf" y="279.453023"/>
     <use style="fill:#008000;stroke:#008000;" x="775.532783" xlink:href="#md6db787eaf" y="280.813077"/>
     <use style="fill:#008000;stroke:#008000;" x="791.325236" xlink:href="#md6db787eaf" y="282.173132"/>
     <use style="fill:#008000;stroke:#008000;" x="807.117689" xlink:href="#md6db787eaf" y="280.951058"/>
     <use style="fill:#008000;stroke:#008000;" x="822.910142" xlink:href="#md6db787eaf" y="279.728985"/>
     <use style="fill:#008000;stroke:#008000;" x="838.702594" xlink:href="#md6db787eaf" y="278.506911"/>
     <use style="fill:#008000;stroke:#008000;" x="854.495047" xlink:href="#md6db787eaf" y="280.789988"/>
     <use style="fill:#008000;stroke:#008000;" x="870.2875" xlink:href="#md6db787eaf" y="283.073065"/>
    </g>
   </g>
   <g id="line2d_15">
    <path clip-path="url(#pa22012dc67)" d="M 33.2875 62.470757 
L 49.079953 120.077567 
L 64.872406 177.684378 
L 80.664858 235.291188 
L 96.457311 243.087405 
L 112.249764 250.883621 
L 128.042217 258.679837 
L 143.83467 252.747966 
L 159.627123 246.816094 
L 175.419575 240.884222 
L 191.212028 286.190523 
L 207.004481 287.194871 
L 222.796934 288.199219 
L 238.589387 288.199219 
L 254.38184 288.199219 
L 270.174292 288.199219 
L 285.966745 288.199219 
L 301.759198 288.199219 
L 317.551651 288.199219 
L 333.344104 288.199219 
L 349.136557 288.199219 
L 364.929009 288.199219 
L 380.721462 288.199219 
L 396.513915 288.199219 
L 412.306368 288.199219 
L 428.098821 288.199219 
L 443.891274 288.199219 
L 459.683726 288.199219 
L 475.476179 288.199219 
L 491.268632 288.199219 
L 507.061085 288.199219 
L 522.853538 288.199219 
L 538.645991 288.199219 
L 554.438443 288.199219 
L 570.230896 279.60387 
L 586.023349 271.008521 
L 601.815802 262.413172 
L 617.608255 217.742639 
L 633.400708 173.072105 
L 649.19316 128.401572 
L 664.985613 122.677624 
L 680.778066 116.953675 
L 696.570519 111.229727 
L 712.362972 85.038308 
L 728.155425 58.846888 
L 743.947877 32.655469 
L 759.74033 32.969327 
L 775.532783 33.283186 
L 791.325236 33.597045 
L 807.117689 31.879821 
L 822.910142 30.162597 
L 838.702594 28.445373 
L 854.495047 54.37768 
L 870.2875 80.309988 
" style="fill:none;stroke:#0000ff;stroke-linecap:square;stroke-width:1.5;"/>
    <defs>
     <path d="M 0 3 
C 0.795609 3 1.55874 2.683901 2.12132 2.12132 
C 2.683901 1.55874 3 0.795609 3 0 
C 3 -0.795609 2.683901 -1.55874 2.12132 -2.12132 
C 1.55874 -2.683901 0.795609 -3 0 -3 
C -0.795609 -3 -1.55874 -2.683901 -2.12132 -2.12132 
C -2.683901 -1.55874 -3 -0.795609 -3 0 
C -3 0.795609 -2.683901 1.55874 -2.12132 2.12132 
C -1.55874 2.683901 -0.795609 3 0 3 
z
" id="m769201ab8a" style="stroke:#0000ff;"/>
    </defs>
    <g clip-path="url(#pa22012dc67)">
     <use style="fill:#0000ff;stroke:#0000ff;" x="33.2875" xlink:href="#m769201ab8a" y="62.470757"/>
     <use style="fill:#0000ff;stroke:#0000ff;" x="49.079953" xlink:href="#m769201ab8a" y="120.077567"/>
     <use style="fill:#0000ff;stroke:#0000ff;" x="64.872406" xlink:href="#m769201ab8a" y="177.684378"/>
     <use style="fill:#0000ff;stroke:#0000ff;" x="80.664858" xlink:href="#m769201ab8a" y="235.291188"/>
     <use style="fill:#0000ff;stroke:#0000ff;" x="96.457311" xlink:href="#m769201ab8a" y="243.087405"/>
     <use style="fill:#0000ff;stroke:#0000ff;" x="112.249764" xlink:href="#m769201ab8a" y="250.883621"/>
     <use style="fill:#0000ff;stroke:#0000ff;" x="128.042217" xlink:href="#m769201ab8a" y="258.679837"/>
     <use style="fill:#0000ff;stroke:#0000ff;" x="143.83467" xlink:href="#m769201ab8a" y="252.747966"/>
     <use style="fill:#0000ff;stroke:#0000ff;" x="159.627123" xlink:href="#m769201ab8a" y="246.816094"/>
     <use style="fill:#0000ff;stroke:#0000ff;" x="175.419575" xlink:href="#m769201ab8a" y="240.884222"/>
     <use style="fill:#0000ff;stroke:#0000ff;" x="191.212028" xlink:href="#m769201ab8a" y="286.190523"/>
     <use style="fill:#0000ff;stroke:#0000ff;" x="207.004481" xlink:href="#m769201ab8a" y="287.194871"/>
     <use style="fill:#0000ff;stroke:#0000ff;" x="222.796934" xlink:href="#m769201ab8a" y="288.199219"/>
     <use style="fill:#0000ff;stroke:#0000ff;" x="238.589387" xlink:href="#m769201ab8a" y="288.199219"/>
     <use style="fill:#0000ff;stroke:#0000ff;" x="254.38184" xlink:href="#m769201ab8a" y="288.199219"/>
     <use style="fill:#0000ff;stroke:#0000ff;" x="270.174292" xlink:href="#m769201ab8a" y="288.199219"/>
     <use style="fill:#0000ff;stroke:#0000ff;" x="285.966745" xlink:href="#m769201ab8a" y="288.199219"/>
     <use style="fill:#0000ff;stroke:#0000ff;" x="301.759198" xlink:href="#m769201ab8a" y="288.199219"/>
     <use style="fill:#0000ff;stroke:#0000ff;" x="317.551651" xlink:href="#m769201ab8a" y="288.199219"/>
     <use style="fill:#0000ff;stroke:#0000ff;" x="333.344104" xlink:href="#m769201ab8a" y="288.199219"/>
     <use style="fill:#0000ff;stroke:#0000ff;" x="349.136557" xlink:href="#m769201ab8a" y="288.199219"/>
     <use style="fill:#0000ff;stroke:#0000ff;" x="364.929009" xlink:href="#m769201ab8a" y="288.199219"/>
     <use style="fill:#0000ff;stroke:#0000ff;" x="380.721462" xlink:href="#m769201ab8a" y="288.199219"/>
     <use style="fill:#0000ff;stroke:#0000ff;" x="396.513915" xlink:href="#m769201ab8a" y="288.199219"/>
     <use style="fill:#0000ff;stroke:#0000ff;" x="412.306368" xlink:href="#m769201ab8a" y="288.199219"/>
     <use style="fill:#0000ff;stroke:#0000ff;" x="428.098821" xlink:href="#m769201ab8a" y="288.199219"/>
     <use style="fill:#0000ff;stroke:#0000ff;" x="443.891274" xlink:href="#m769201ab8a" y="288.199219"/>
     <use style="fill:#0000ff;stroke:#0000ff;" x="459.683726" xlink:href="#m769201ab8a" y="288.199219"/>
     <use style="fill:#0000ff;stroke:#0000ff;" x="475.476179" xlink:href="#m769201ab8a" y="288.199219"/>
     <use style="fill:#0000ff;stroke:#0000ff;" x="491.268632" xlink:href="#m769201ab8a" y="288.199219"/>
     <use style="fill:#0000ff;stroke:#0000ff;" x="507.061085" xlink:href="#m769201ab8a" y="288.199219"/>
     <use style="fill:#0000ff;stroke:#0000ff;" x="522.853538" xlink:href="#m769201ab8a" y="288.199219"/>
     <use style="fill:#0000ff;stroke:#0000ff;" x="538.645991" xlink:href="#m769201ab8a" y="288.199219"/>
     <use style="fill:#0000ff;stroke:#0000ff;" x="554.438443" xlink:href="#m769201ab8a" y="288.199219"/>
     <use style="fill:#0000ff;stroke:#0000ff;" x="570.230896" xlink:href="#m769201ab8a" y="279.60387"/>
     <use style="fill:#0000ff;stroke:#0000ff;" x="586.023349" xlink:href="#m769201ab8a" y="271.008521"/>
     <use style="fill:#0000ff;stroke:#0000ff;" x="601.815802" xlink:href="#m769201ab8a" y="262.413172"/>
     <use style="fill:#0000ff;stroke:#0000ff;" x="617.608255" xlink:href="#m769201ab8a" y="217.742639"/>
     <use style="fill:#0000ff;stroke:#0000ff;" x="633.400708" xlink:href="#m769201ab8a" y="173.072105"/>
     <use style="fill:#0000ff;stroke:#0000ff;" x="649.19316" xlink:href="#m769201ab8a" y="128.401572"/>
     <use style="fill:#0000ff;stroke:#0000ff;" x="664.985613" xlink:href="#m769201ab8a" y="122.677624"/>
     <use style="fill:#0000ff;stroke:#0000ff;" x="680.778066" xlink:href="#m769201ab8a" y="116.953675"/>
     <use style="fill:#0000ff;stroke:#0000ff;" x="696.570519" xlink:href="#m769201ab8a" y="111.229727"/>
     <use style="fill:#0000ff;stroke:#0000ff;" x="712.362972" xlink:href="#m769201ab8a" y="85.038308"/>
     <use style="fill:#0000ff;stroke:#0000ff;" x="728.155425" xlink:href="#m769201ab8a" y="58.846888"/>
     <use style="fill:#0000ff;stroke:#0000ff;" x="743.947877" xlink:href="#m769201ab8a" y="32.655469"/>
     <use style="fill:#0000ff;stroke:#0000ff;" x="759.74033" xlink:href="#m769201ab8a" y="32.969327"/>
     <use style="fill:#0000ff;stroke:#0000ff;" x="775.532783" xlink:href="#m769201ab8a" y="33.283186"/>
     <use style="fill:#0000ff;stroke:#0000ff;" x="791.325236" xlink:href="#m769201ab8a" y="33.597045"/>
     <use style="fill:#0000ff;stroke:#0000ff;" x="807.117689" xlink:href="#m769201ab8a" y="31.879821"/>
     <use style="fill:#0000ff;stroke:#0000ff;" x="822.910142" xlink:href="#m769201ab8a" y="30.162597"/>
     <use style="fill:#0000ff;stroke:#0000ff;" x="838.702594" xlink:href="#m769201ab8a" y="28.445373"/>
     <use style="fill:#0000ff;stroke:#0000ff;" x="854.495047" xlink:href="#m769201ab8a" y="54.37768"/>
     <use style="fill:#0000ff;stroke:#0000ff;" x="870.2875" xlink:href="#m769201ab8a" y="80.309988"/>
    </g>
   </g>
   <g id="patch_3">
    <path d="M 33.2875 288.199219 
L 33.2875 10.999219 
" style="fill:none;stroke:#000000;stroke-linecap:square;stroke-linejoin:miter;stroke-width:0.8;"/>
   </g>
   <g id="patch_4">
    <path d="M 870.2875 288.199219 
L 870.2875 10.999219 
" style="fill:none;stroke:#000000;stroke-linecap:square;stroke-linejoin:miter;stroke-width:0.8;"/>
   </g>
   <g id="patch_5">
    <path d="M 33.2875 288.199219 
L 870.2875 288.199219 
" style="fill:none;stroke:#000000;stroke-linecap:square;stroke-linejoin:miter;stroke-width:0.8;"/>
   </g>
   <g id="patch_6">
    <path d="M 33.2875 10.999219 
L 870.2875 10.999219 
" style="fill:none;stroke:#000000;stroke-linecap:square;stroke-linejoin:miter;stroke-width:0.8;"/>
   </g>
  </g>
 </g>
 <defs>
  <clipPath id="pa22012dc67">
   <rect height="277.2" width="837" x="33.2875" y="10.999219"/>
  </clipPath>
 </defs>
</svg>
