<?xml version="1.0" encoding="utf-8" standalone="no"?>
<!DOCTYPE svg PUBLIC "-//W3C//DTD SVG 1.1//EN"
  "http://www.w3.org/Graphics/SVG/1.1/DTD/svg11.dtd">
<!-- Created with matplotlib (https://matplotlib.org/) -->
<svg height="312.077344pt" version="1.1" viewBox="0 0 874.303125 312.077344" width="874.303125pt" xmlns="http://www.w3.org/2000/svg" xmlns:xlink="http://www.w3.org/1999/xlink">
 <defs>
  <style type="text/css">
*{stroke-linecap:butt;stroke-linejoin:round;}
  </style>
 </defs>
 <g id="figure_1">
  <g id="patch_1">
   <path d="M 0 312.077344 
L 874.303125 312.077344 
L 874.303125 0 
L 0 0 
z
" style="fill:#ffffff;"/>
  </g>
  <g id="axes_1">
   <g id="patch_2">
    <path d="M 30.103125 288.199219 
L 867.103125 288.199219 
L 867.103125 10.999219 
L 30.103125 10.999219 
z
" style="fill:#ffffff;"/>
   </g>
   <g id="matplotlib.axis_1">
    <g id="xtick_1">
     <g id="line2d_1">
      <defs>
       <path d="M 0 0 
L 0 3.5 
" id="mef83994b50" style="stroke:#000000;stroke-width:0.8;"/>
      </defs>
      <g>
       <use style="stroke:#000000;stroke-width:0.8;" x="30.103125" xlink:href="#mef83994b50" y="288.199219"/>
      </g>
     </g>
     <g id="text_1">
      <!-- 0 -->
      <defs>
       <path d="M 31.78125 66.40625 
Q 24.171875 66.40625 20.328125 58.90625 
Q 16.5 51.421875 16.5 36.375 
Q 16.5 21.390625 20.328125 13.890625 
Q 24.171875 6.390625 31.78125 6.390625 
Q 39.453125 6.390625 43.28125 13.890625 
Q 47.125 21.390625 47.125 36.375 
Q 47.125 51.421875 43.28125 58.90625 
Q 39.453125 66.40625 31.78125 66.40625 
z
M 31.78125 74.21875 
Q 44.046875 74.21875 50.515625 64.515625 
Q 56.984375 54.828125 56.984375 36.375 
Q 56.984375 17.96875 50.515625 8.265625 
Q 44.046875 -1.421875 31.78125 -1.421875 
Q 19.53125 -1.421875 13.0625 8.265625 
Q 6.59375 17.96875 6.59375 36.375 
Q 6.59375 54.828125 13.0625 64.515625 
Q 19.53125 74.21875 31.78125 74.21875 
z
" id="DejaVuSans-48"/>
      </defs>
      <g transform="translate(26.921875 302.797656)scale(0.1 -0.1)">
       <use xlink:href="#DejaVuSans-48"/>
      </g>
     </g>
    </g>
    <g id="xtick_2">
     <g id="line2d_2">
      <g>
       <use style="stroke:#000000;stroke-width:0.8;" x="140.234704" xlink:href="#mef83994b50" y="288.199219"/>
      </g>
     </g>
     <g id="text_2">
      <!-- 5 -->
      <defs>
       <path d="M 10.796875 72.90625 
L 49.515625 72.90625 
L 49.515625 64.59375 
L 19.828125 64.59375 
L 19.828125 46.734375 
Q 21.96875 47.46875 24.109375 47.828125 
Q 26.265625 48.1875 28.421875 48.1875 
Q 40.625 48.1875 47.75 41.5 
Q 54.890625 34.8125 54.890625 23.390625 
Q 54.890625 11.625 47.5625 5.09375 
Q 40.234375 -1.421875 26.90625 -1.421875 
Q 22.3125 -1.421875 17.546875 -0.640625 
Q 12.796875 0.140625 7.71875 1.703125 
L 7.71875 11.625 
Q 12.109375 9.234375 16.796875 8.0625 
Q 21.484375 6.890625 26.703125 6.890625 
Q 35.15625 6.890625 40.078125 11.328125 
Q 45.015625 15.765625 45.015625 23.390625 
Q 45.015625 31 40.078125 35.4375 
Q 35.15625 39.890625 26.703125 39.890625 
Q 22.75 39.890625 18.8125 39.015625 
Q 14.890625 38.140625 10.796875 36.28125 
z
" id="DejaVuSans-53"/>
      </defs>
      <g transform="translate(137.053454 302.797656)scale(0.1 -0.1)">
       <use xlink:href="#DejaVuSans-53"/>
      </g>
     </g>
    </g>
    <g id="xtick_3">
     <g id="line2d_3">
      <g>
       <use style="stroke:#000000;stroke-width:0.8;" x="250.366283" xlink:href="#mef83994b50" y="288.199219"/>
      </g>
     </g>
     <g id="text_3">
      <!-- 10 -->
      <defs>
       <path d="M 12.40625 8.296875 
L 28.515625 8.296875 
L 28.515625 63.921875 
L 10.984375 60.40625 
L 10.984375 69.390625 
L 28.421875 72.90625 
L 38.28125 72.90625 
L 38.28125 8.296875 
L 54.390625 8.296875 
L 54.390625 0 
L 12.40625 0 
z
" id="DejaVuSans-49"/>
      </defs>
      <g transform="translate(244.003783 302.797656)scale(0.1 -0.1)">
       <use xlink:href="#DejaVuSans-49"/>
       <use x="63.623047" xlink:href="#DejaVuSans-48"/>
      </g>
     </g>
    </g>
    <g id="xtick_4">
     <g id="line2d_4">
      <g>
       <use style="stroke:#000000;stroke-width:0.8;" x="360.497862" xlink:href="#mef83994b50" y="288.199219"/>
      </g>
     </g>
     <g id="text_4">
      <!-- 15 -->
      <g transform="translate(354.135362 302.797656)scale(0.1 -0.1)">
       <use xlink:href="#DejaVuSans-49"/>
       <use x="63.623047" xlink:href="#DejaVuSans-53"/>
      </g>
     </g>
    </g>
    <g id="xtick_5">
     <g id="line2d_5">
      <g>
       <use style="stroke:#000000;stroke-width:0.8;" x="470.629441" xlink:href="#mef83994b50" y="288.199219"/>
      </g>
     </g>
     <g id="text_5">
      <!-- 20 -->
      <defs>
       <path d="M 19.1875 8.296875 
L 53.609375 8.296875 
L 53.609375 0 
L 7.328125 0 
L 7.328125 8.296875 
Q 12.9375 14.109375 22.625 23.890625 
Q 32.328125 33.6875 34.8125 36.53125 
Q 39.546875 41.84375 41.421875 45.53125 
Q 43.3125 49.21875 43.3125 52.78125 
Q 43.3125 58.59375 39.234375 62.25 
Q 35.15625 65.921875 28.609375 65.921875 
Q 23.96875 65.921875 18.8125 64.3125 
Q 13.671875 62.703125 7.8125 59.421875 
L 7.8125 69.390625 
Q 13.765625 71.78125 18.9375 73 
Q 24.125 74.21875 28.421875 74.21875 
Q 39.75 74.21875 46.484375 68.546875 
Q 53.21875 62.890625 53.21875 53.421875 
Q 53.21875 48.921875 51.53125 44.890625 
Q 49.859375 40.875 45.40625 35.40625 
Q 44.1875 33.984375 37.640625 27.21875 
Q 31.109375 20.453125 19.1875 8.296875 
z
" id="DejaVuSans-50"/>
      </defs>
      <g transform="translate(464.266941 302.797656)scale(0.1 -0.1)">
       <use xlink:href="#DejaVuSans-50"/>
       <use x="63.623047" xlink:href="#DejaVuSans-48"/>
      </g>
     </g>
    </g>
    <g id="xtick_6">
     <g id="line2d_6">
      <g>
       <use style="stroke:#000000;stroke-width:0.8;" x="580.76102" xlink:href="#mef83994b50" y="288.199219"/>
      </g>
     </g>
     <g id="text_6">
      <!-- 25 -->
      <g transform="translate(574.39852 302.797656)scale(0.1 -0.1)">
       <use xlink:href="#DejaVuSans-50"/>
       <use x="63.623047" xlink:href="#DejaVuSans-53"/>
      </g>
     </g>
    </g>
    <g id="xtick_7">
     <g id="line2d_7">
      <g>
       <use style="stroke:#000000;stroke-width:0.8;" x="690.892599" xlink:href="#mef83994b50" y="288.199219"/>
      </g>
     </g>
     <g id="text_7">
      <!-- 30 -->
      <defs>
       <path d="M 40.578125 39.3125 
Q 47.65625 37.796875 51.625 33 
Q 55.609375 28.21875 55.609375 21.1875 
Q 55.609375 10.40625 48.1875 4.484375 
Q 40.765625 -1.421875 27.09375 -1.421875 
Q 22.515625 -1.421875 17.65625 -0.515625 
Q 12.796875 0.390625 7.625 2.203125 
L 7.625 11.71875 
Q 11.71875 9.328125 16.59375 8.109375 
Q 21.484375 6.890625 26.8125 6.890625 
Q 36.078125 6.890625 40.9375 10.546875 
Q 45.796875 14.203125 45.796875 21.1875 
Q 45.796875 27.640625 41.28125 31.265625 
Q 36.765625 34.90625 28.71875 34.90625 
L 20.21875 34.90625 
L 20.21875 43.015625 
L 29.109375 43.015625 
Q 36.375 43.015625 40.234375 45.921875 
Q 44.09375 48.828125 44.09375 54.296875 
Q 44.09375 59.90625 40.109375 62.90625 
Q 36.140625 65.921875 28.71875 65.921875 
Q 24.65625 65.921875 20.015625 65.03125 
Q 15.375 64.15625 9.8125 62.3125 
L 9.8125 71.09375 
Q 15.4375 72.65625 20.34375 73.4375 
Q 25.25 74.21875 29.59375 74.21875 
Q 40.828125 74.21875 47.359375 69.109375 
Q 53.90625 64.015625 53.90625 55.328125 
Q 53.90625 49.265625 50.4375 45.09375 
Q 46.96875 40.921875 40.578125 39.3125 
z
" id="DejaVuSans-51"/>
      </defs>
      <g transform="translate(684.530099 302.797656)scale(0.1 -0.1)">
       <use xlink:href="#DejaVuSans-51"/>
       <use x="63.623047" xlink:href="#DejaVuSans-48"/>
      </g>
     </g>
    </g>
    <g id="xtick_8">
     <g id="line2d_8">
      <g>
       <use style="stroke:#000000;stroke-width:0.8;" x="801.024178" xlink:href="#mef83994b50" y="288.199219"/>
      </g>
     </g>
     <g id="text_8">
      <!-- 35 -->
      <g transform="translate(794.661678 302.797656)scale(0.1 -0.1)">
       <use xlink:href="#DejaVuSans-51"/>
       <use x="63.623047" xlink:href="#DejaVuSans-53"/>
      </g>
     </g>
    </g>
   </g>
   <g id="matplotlib.axis_2">
    <g id="ytick_1">
     <g id="line2d_9">
      <defs>
       <path d="M 0 0 
L -3.5 0 
" id="ma97291907e" style="stroke:#000000;stroke-width:0.8;"/>
      </defs>
      <g>
       <use style="stroke:#000000;stroke-width:0.8;" x="30.103125" xlink:href="#ma97291907e" y="288.199219"/>
      </g>
     </g>
     <g id="text_9">
      <!-- 0.0 -->
      <defs>
       <path d="M 10.6875 12.40625 
L 21 12.40625 
L 21 0 
L 10.6875 0 
z
" id="DejaVuSans-46"/>
      </defs>
      <g transform="translate(7.2 291.998438)scale(0.1 -0.1)">
       <use xlink:href="#DejaVuSans-48"/>
       <use x="63.623047" xlink:href="#DejaVuSans-46"/>
       <use x="95.410156" xlink:href="#DejaVuSans-48"/>
      </g>
     </g>
    </g>
    <g id="ytick_2">
     <g id="line2d_10">
      <g>
       <use style="stroke:#000000;stroke-width:0.8;" x="30.103125" xlink:href="#ma97291907e" y="232.759219"/>
      </g>
     </g>
     <g id="text_10">
      <!-- 0.2 -->
      <g transform="translate(7.2 236.558438)scale(0.1 -0.1)">
       <use xlink:href="#DejaVuSans-48"/>
       <use x="63.623047" xlink:href="#DejaVuSans-46"/>
       <use x="95.410156" xlink:href="#DejaVuSans-50"/>
      </g>
     </g>
    </g>
    <g id="ytick_3">
     <g id="line2d_11">
      <g>
       <use style="stroke:#000000;stroke-width:0.8;" x="30.103125" xlink:href="#ma97291907e" y="177.319219"/>
      </g>
     </g>
     <g id="text_11">
      <!-- 0.4 -->
      <defs>
       <path d="M 37.796875 64.3125 
L 12.890625 25.390625 
L 37.796875 25.390625 
z
M 35.203125 72.90625 
L 47.609375 72.90625 
L 47.609375 25.390625 
L 58.015625 25.390625 
L 58.015625 17.1875 
L 47.609375 17.1875 
L 47.609375 0 
L 37.796875 0 
L 37.796875 17.1875 
L 4.890625 17.1875 
L 4.890625 26.703125 
z
" id="DejaVuSans-52"/>
      </defs>
      <g transform="translate(7.2 181.118438)scale(0.1 -0.1)">
       <use xlink:href="#DejaVuSans-48"/>
       <use x="63.623047" xlink:href="#DejaVuSans-46"/>
       <use x="95.410156" xlink:href="#DejaVuSans-52"/>
      </g>
     </g>
    </g>
    <g id="ytick_4">
     <g id="line2d_12">
      <g>
       <use style="stroke:#000000;stroke-width:0.8;" x="30.103125" xlink:href="#ma97291907e" y="121.879219"/>
      </g>
     </g>
     <g id="text_12">
      <!-- 0.6 -->
      <defs>
       <path d="M 33.015625 40.375 
Q 26.375 40.375 22.484375 35.828125 
Q 18.609375 31.296875 18.609375 23.390625 
Q 18.609375 15.53125 22.484375 10.953125 
Q 26.375 6.390625 33.015625 6.390625 
Q 39.65625 6.390625 43.53125 10.953125 
Q 47.40625 15.53125 47.40625 23.390625 
Q 47.40625 31.296875 43.53125 35.828125 
Q 39.65625 40.375 33.015625 40.375 
z
M 52.59375 71.296875 
L 52.59375 62.3125 
Q 48.875 64.0625 45.09375 64.984375 
Q 41.3125 65.921875 37.59375 65.921875 
Q 27.828125 65.921875 22.671875 59.328125 
Q 17.53125 52.734375 16.796875 39.40625 
Q 19.671875 43.65625 24.015625 45.921875 
Q 28.375 48.1875 33.59375 48.1875 
Q 44.578125 48.1875 50.953125 41.515625 
Q 57.328125 34.859375 57.328125 23.390625 
Q 57.328125 12.15625 50.6875 5.359375 
Q 44.046875 -1.421875 33.015625 -1.421875 
Q 20.359375 -1.421875 13.671875 8.265625 
Q 6.984375 17.96875 6.984375 36.375 
Q 6.984375 53.65625 15.1875 63.9375 
Q 23.390625 74.21875 37.203125 74.21875 
Q 40.921875 74.21875 44.703125 73.484375 
Q 48.484375 72.75 52.59375 71.296875 
z
" id="DejaVuSans-54"/>
      </defs>
      <g transform="translate(7.2 125.678438)scale(0.1 -0.1)">
       <use xlink:href="#DejaVuSans-48"/>
       <use x="63.623047" xlink:href="#DejaVuSans-46"/>
       <use x="95.410156" xlink:href="#DejaVuSans-54"/>
      </g>
     </g>
    </g>
    <g id="ytick_5">
     <g id="line2d_13">
      <g>
       <use style="stroke:#000000;stroke-width:0.8;" x="30.103125" xlink:href="#ma97291907e" y="66.439219"/>
      </g>
     </g>
     <g id="text_13">
      <!-- 0.8 -->
      <defs>
       <path d="M 31.78125 34.625 
Q 24.75 34.625 20.71875 30.859375 
Q 16.703125 27.09375 16.703125 20.515625 
Q 16.703125 13.921875 20.71875 10.15625 
Q 24.75 6.390625 31.78125 6.390625 
Q 38.8125 6.390625 42.859375 10.171875 
Q 46.921875 13.96875 46.921875 20.515625 
Q 46.921875 27.09375 42.890625 30.859375 
Q 38.875 34.625 31.78125 34.625 
z
M 21.921875 38.8125 
Q 15.578125 40.375 12.03125 44.71875 
Q 8.5 49.078125 8.5 55.328125 
Q 8.5 64.0625 14.71875 69.140625 
Q 20.953125 74.21875 31.78125 74.21875 
Q 42.671875 74.21875 48.875 69.140625 
Q 55.078125 64.0625 55.078125 55.328125 
Q 55.078125 49.078125 51.53125 44.71875 
Q 48 40.375 41.703125 38.8125 
Q 48.828125 37.15625 52.796875 32.3125 
Q 56.78125 27.484375 56.78125 20.515625 
Q 56.78125 9.90625 50.3125 4.234375 
Q 43.84375 -1.421875 31.78125 -1.421875 
Q 19.734375 -1.421875 13.25 4.234375 
Q 6.78125 9.90625 6.78125 20.515625 
Q 6.78125 27.484375 10.78125 32.3125 
Q 14.796875 37.15625 21.921875 38.8125 
z
M 18.3125 54.390625 
Q 18.3125 48.734375 21.84375 45.5625 
Q 25.390625 42.390625 31.78125 42.390625 
Q 38.140625 42.390625 41.71875 45.5625 
Q 45.3125 48.734375 45.3125 54.390625 
Q 45.3125 60.0625 41.71875 63.234375 
Q 38.140625 66.40625 31.78125 66.40625 
Q 25.390625 66.40625 21.84375 63.234375 
Q 18.3125 60.0625 18.3125 54.390625 
z
" id="DejaVuSans-56"/>
      </defs>
      <g transform="translate(7.2 70.238438)scale(0.1 -0.1)">
       <use xlink:href="#DejaVuSans-48"/>
       <use x="63.623047" xlink:href="#DejaVuSans-46"/>
       <use x="95.410156" xlink:href="#DejaVuSans-56"/>
      </g>
     </g>
    </g>
    <g id="ytick_6">
     <g id="line2d_14">
      <g>
       <use style="stroke:#000000;stroke-width:0.8;" x="30.103125" xlink:href="#ma97291907e" y="10.999219"/>
      </g>
     </g>
     <g id="text_14">
      <!-- 1.0 -->
      <g transform="translate(7.2 14.798438)scale(0.1 -0.1)">
       <use xlink:href="#DejaVuSans-49"/>
       <use x="63.623047" xlink:href="#DejaVuSans-46"/>
       <use x="95.410156" xlink:href="#DejaVuSans-48"/>
      </g>
     </g>
    </g>
   </g>
   <g id="line2d_15">
    <path clip-path="url(#p877c2ff464)" d="M 30.103125 10.999219 
L 52.129441 10.999219 
L 74.155757 10.999219 
L 96.182072 10.999219 
L 118.208388 11.854774 
L 140.234704 13.443663 
L 162.26102 14.299219 
L 184.287336 13.443663 
L 206.313651 11.854774 
L 228.339967 10.999219 
L 250.366283 17.746175 
L 272.392599 35.273131 
L 294.418914 59.509219 
L 316.44523 122.461733 
L 338.471546 214.237799 
L 360.497862 267.916292 
L 382.524178 278.651569 
L 404.550493 285.679052 
L 426.576809 288.199219 
L 448.603125 288.199219 
L 470.629441 288.199219 
L 492.655757 288.199219 
L 514.682072 288.199219 
L 536.708388 288.199219 
L 558.734704 288.199219 
L 580.76102 288.199219 
L 602.787336 288.199219 
L 624.813651 288.199219 
L 646.839967 288.199219 
L 668.866283 288.199219 
L 690.892599 288.199219 
L 712.918914 288.199219 
L 734.94523 288.199219 
L 756.971546 288.199219 
L 778.997862 288.199219 
L 801.024178 288.199219 
L 823.050493 288.199219 
L 845.076809 288.199219 
L 867.103125 288.199219 
" style="fill:none;stroke:#ff0000;stroke-linecap:square;stroke-opacity:0.25;stroke-width:1.5;"/>
    <defs>
     <path d="M 0 3 
C 0.795609 3 1.55874 2.683901 2.12132 2.12132 
C 2.683901 1.55874 3 0.795609 3 0 
C 3 -0.795609 2.683901 -1.55874 2.12132 -2.12132 
C 1.55874 -2.683901 0.795609 -3 0 -3 
C -0.795609 -3 -1.55874 -2.683901 -2.12132 -2.12132 
C -2.683901 -1.55874 -3 -0.795609 -3 0 
C -3 0.795609 -2.683901 1.55874 -2.12132 2.12132 
C -1.55874 2.683901 -0.795609 3 0 3 
z
" id="m0687070fdf" style="stroke:#ff0000;stroke-opacity:0.25;"/>
    </defs>
    <g clip-path="url(#p877c2ff464)">
     <use style="fill:#ff0000;fill-opacity:0.25;stroke:#ff0000;stroke-opacity:0.25;" x="30.103125" xlink:href="#m0687070fdf" y="10.999219"/>
     <use style="fill:#ff0000;fill-opacity:0.25;stroke:#ff0000;stroke-opacity:0.25;" x="52.129441" xlink:href="#m0687070fdf" y="10.999219"/>
     <use style="fill:#ff0000;fill-opacity:0.25;stroke:#ff0000;stroke-opacity:0.25;" x="74.155757" xlink:href="#m0687070fdf" y="10.999219"/>
     <use style="fill:#ff0000;fill-opacity:0.25;stroke:#ff0000;stroke-opacity:0.25;" x="96.182072" xlink:href="#m0687070fdf" y="10.999219"/>
     <use style="fill:#ff0000;fill-opacity:0.25;stroke:#ff0000;stroke-opacity:0.25;" x="118.208388" xlink:href="#m0687070fdf" y="11.854774"/>
     <use style="fill:#ff0000;fill-opacity:0.25;stroke:#ff0000;stroke-opacity:0.25;" x="140.234704" xlink:href="#m0687070fdf" y="13.443663"/>
     <use style="fill:#ff0000;fill-opacity:0.25;stroke:#ff0000;stroke-opacity:0.25;" x="162.26102" xlink:href="#m0687070fdf" y="14.299219"/>
     <use style="fill:#ff0000;fill-opacity:0.25;stroke:#ff0000;stroke-opacity:0.25;" x="184.287336" xlink:href="#m0687070fdf" y="13.443663"/>
     <use style="fill:#ff0000;fill-opacity:0.25;stroke:#ff0000;stroke-opacity:0.25;" x="206.313651" xlink:href="#m0687070fdf" y="11.854774"/>
     <use style="fill:#ff0000;fill-opacity:0.25;stroke:#ff0000;stroke-opacity:0.25;" x="228.339967" xlink:href="#m0687070fdf" y="10.999219"/>
     <use style="fill:#ff0000;fill-opacity:0.25;stroke:#ff0000;stroke-opacity:0.25;" x="250.366283" xlink:href="#m0687070fdf" y="17.746175"/>
     <use style="fill:#ff0000;fill-opacity:0.25;stroke:#ff0000;stroke-opacity:0.25;" x="272.392599" xlink:href="#m0687070fdf" y="35.273131"/>
     <use style="fill:#ff0000;fill-opacity:0.25;stroke:#ff0000;stroke-opacity:0.25;" x="294.418914" xlink:href="#m0687070fdf" y="59.509219"/>
     <use style="fill:#ff0000;fill-opacity:0.25;stroke:#ff0000;stroke-opacity:0.25;" x="316.44523" xlink:href="#m0687070fdf" y="122.461733"/>
     <use style="fill:#ff0000;fill-opacity:0.25;stroke:#ff0000;stroke-opacity:0.25;" x="338.471546" xlink:href="#m0687070fdf" y="214.237799"/>
     <use style="fill:#ff0000;fill-opacity:0.25;stroke:#ff0000;stroke-opacity:0.25;" x="360.497862" xlink:href="#m0687070fdf" y="267.916292"/>
     <use style="fill:#ff0000;fill-opacity:0.25;stroke:#ff0000;stroke-opacity:0.25;" x="382.524178" xlink:href="#m0687070fdf" y="278.651569"/>
     <use style="fill:#ff0000;fill-opacity:0.25;stroke:#ff0000;stroke-opacity:0.25;" x="404.550493" xlink:href="#m0687070fdf" y="285.679052"/>
     <use style="fill:#ff0000;fill-opacity:0.25;stroke:#ff0000;stroke-opacity:0.25;" x="426.576809" xlink:href="#m0687070fdf" y="288.199219"/>
     <use style="fill:#ff0000;fill-opacity:0.25;stroke:#ff0000;stroke-opacity:0.25;" x="448.603125" xlink:href="#m0687070fdf" y="288.199219"/>
     <use style="fill:#ff0000;fill-opacity:0.25;stroke:#ff0000;stroke-opacity:0.25;" x="470.629441" xlink:href="#m0687070fdf" y="288.199219"/>
     <use style="fill:#ff0000;fill-opacity:0.25;stroke:#ff0000;stroke-opacity:0.25;" x="492.655757" xlink:href="#m0687070fdf" y="288.199219"/>
     <use style="fill:#ff0000;fill-opacity:0.25;stroke:#ff0000;stroke-opacity:0.25;" x="514.682072" xlink:href="#m0687070fdf" y="288.199219"/>
     <use style="fill:#ff0000;fill-opacity:0.25;stroke:#ff0000;stroke-opacity:0.25;" x="536.708388" xlink:href="#m0687070fdf" y="288.199219"/>
     <use style="fill:#ff0000;fill-opacity:0.25;stroke:#ff0000;stroke-opacity:0.25;" x="558.734704" xlink:href="#m0687070fdf" y="288.199219"/>
     <use style="fill:#ff0000;fill-opacity:0.25;stroke:#ff0000;stroke-opacity:0.25;" x="580.76102" xlink:href="#m0687070fdf" y="288.199219"/>
     <use style="fill:#ff0000;fill-opacity:0.25;stroke:#ff0000;stroke-opacity:0.25;" x="602.787336" xlink:href="#m0687070fdf" y="288.199219"/>
     <use style="fill:#ff0000;fill-opacity:0.25;stroke:#ff0000;stroke-opacity:0.25;" x="624.813651" xlink:href="#m0687070fdf" y="288.199219"/>
     <use style="fill:#ff0000;fill-opacity:0.25;stroke:#ff0000;stroke-opacity:0.25;" x="646.839967" xlink:href="#m0687070fdf" y="288.199219"/>
     <use style="fill:#ff0000;fill-opacity:0.25;stroke:#ff0000;stroke-opacity:0.25;" x="668.866283" xlink:href="#m0687070fdf" y="288.199219"/>
     <use style="fill:#ff0000;fill-opacity:0.25;stroke:#ff0000;stroke-opacity:0.25;" x="690.892599" xlink:href="#m0687070fdf" y="288.199219"/>
     <use style="fill:#ff0000;fill-opacity:0.25;stroke:#ff0000;stroke-opacity:0.25;" x="712.918914" xlink:href="#m0687070fdf" y="288.199219"/>
     <use style="fill:#ff0000;fill-opacity:0.25;stroke:#ff0000;stroke-opacity:0.25;" x="734.94523" xlink:href="#m0687070fdf" y="288.199219"/>
     <use style="fill:#ff0000;fill-opacity:0.25;stroke:#ff0000;stroke-opacity:0.25;" x="756.971546" xlink:href="#m0687070fdf" y="288.199219"/>
     <use style="fill:#ff0000;fill-opacity:0.25;stroke:#ff0000;stroke-opacity:0.25;" x="778.997862" xlink:href="#m0687070fdf" y="288.199219"/>
     <use style="fill:#ff0000;fill-opacity:0.25;stroke:#ff0000;stroke-opacity:0.25;" x="801.024178" xlink:href="#m0687070fdf" y="288.199219"/>
     <use style="fill:#ff0000;fill-opacity:0.25;stroke:#ff0000;stroke-opacity:0.25;" x="823.050493" xlink:href="#m0687070fdf" y="288.199219"/>
     <use style="fill:#ff0000;fill-opacity:0.25;stroke:#ff0000;stroke-opacity:0.25;" x="845.076809" xlink:href="#m0687070fdf" y="288.199219"/>
     <use style="fill:#ff0000;fill-opacity:0.25;stroke:#ff0000;stroke-opacity:0.25;" x="867.103125" xlink:href="#m0687070fdf" y="288.199219"/>
    </g>
   </g>
   <g id="line2d_16">
    <path clip-path="url(#p877c2ff464)" d="M 30.103125 288.199219 
L 52.129441 216.332552 
L 74.155757 82.865885 
L 96.182072 10.999219 
L 118.208388 10.999219 
L 140.234704 10.999219 
L 162.26102 10.999219 
L 184.287336 10.999219 
L 206.313651 10.999219 
L 228.339967 10.999219 
L 250.366283 82.865885 
L 272.392599 216.332552 
L 294.418914 288.199219 
L 316.44523 284.776997 
L 338.471546 278.421441 
L 360.497862 274.999219 
L 382.524178 278.421441 
L 404.550493 284.776997 
L 426.576809 288.199219 
L 448.603125 288.199219 
L 470.629441 288.199219 
L 492.655757 288.199219 
" style="fill:none;stroke:#ff0000;stroke-linecap:square;stroke-width:1.5;"/>
    <defs>
     <path d="M 0 3 
C 0.795609 3 1.55874 2.683901 2.12132 2.12132 
C 2.683901 1.55874 3 0.795609 3 0 
C 3 -0.795609 2.683901 -1.55874 2.12132 -2.12132 
C 1.55874 -2.683901 0.795609 -3 0 -3 
C -0.795609 -3 -1.55874 -2.683901 -2.12132 -2.12132 
C -2.683901 -1.55874 -3 -0.795609 -3 0 
C -3 0.795609 -2.683901 1.55874 -2.12132 2.12132 
C -1.55874 2.683901 -0.795609 3 0 3 
z
" id="mf76464ab92" style="stroke:#ff0000;"/>
    </defs>
    <g clip-path="url(#p877c2ff464)">
     <use style="fill:#ff0000;stroke:#ff0000;" x="30.103125" xlink:href="#mf76464ab92" y="288.199219"/>
     <use style="fill:#ff0000;stroke:#ff0000;" x="52.129441" xlink:href="#mf76464ab92" y="216.332552"/>
     <use style="fill:#ff0000;stroke:#ff0000;" x="74.155757" xlink:href="#mf76464ab92" y="82.865885"/>
     <use style="fill:#ff0000;stroke:#ff0000;" x="96.182072" xlink:href="#mf76464ab92" y="10.999219"/>
     <use style="fill:#ff0000;stroke:#ff0000;" x="118.208388" xlink:href="#mf76464ab92" y="10.999219"/>
     <use style="fill:#ff0000;stroke:#ff0000;" x="140.234704" xlink:href="#mf76464ab92" y="10.999219"/>
     <use style="fill:#ff0000;stroke:#ff0000;" x="162.26102" xlink:href="#mf76464ab92" y="10.999219"/>
     <use style="fill:#ff0000;stroke:#ff0000;" x="184.287336" xlink:href="#mf76464ab92" y="10.999219"/>
     <use style="fill:#ff0000;stroke:#ff0000;" x="206.313651" xlink:href="#mf76464ab92" y="10.999219"/>
     <use style="fill:#ff0000;stroke:#ff0000;" x="228.339967" xlink:href="#mf76464ab92" y="10.999219"/>
     <use style="fill:#ff0000;stroke:#ff0000;" x="250.366283" xlink:href="#mf76464ab92" y="82.865885"/>
     <use style="fill:#ff0000;stroke:#ff0000;" x="272.392599" xlink:href="#mf76464ab92" y="216.332552"/>
     <use style="fill:#ff0000;stroke:#ff0000;" x="294.418914" xlink:href="#mf76464ab92" y="288.199219"/>
     <use style="fill:#ff0000;stroke:#ff0000;" x="316.44523" xlink:href="#mf76464ab92" y="284.776997"/>
     <use style="fill:#ff0000;stroke:#ff0000;" x="338.471546" xlink:href="#mf76464ab92" y="278.421441"/>
     <use style="fill:#ff0000;stroke:#ff0000;" x="360.497862" xlink:href="#mf76464ab92" y="274.999219"/>
     <use style="fill:#ff0000;stroke:#ff0000;" x="382.524178" xlink:href="#mf76464ab92" y="278.421441"/>
     <use style="fill:#ff0000;stroke:#ff0000;" x="404.550493" xlink:href="#mf76464ab92" y="284.776997"/>
     <use style="fill:#ff0000;stroke:#ff0000;" x="426.576809" xlink:href="#mf76464ab92" y="288.199219"/>
     <use style="fill:#ff0000;stroke:#ff0000;" x="448.603125" xlink:href="#mf76464ab92" y="288.199219"/>
     <use style="fill:#ff0000;stroke:#ff0000;" x="470.629441" xlink:href="#mf76464ab92" y="288.199219"/>
     <use style="fill:#ff0000;stroke:#ff0000;" x="492.655757" xlink:href="#mf76464ab92" y="288.199219"/>
    </g>
   </g>
   <g id="line2d_17"/>
   <g id="line2d_18">
    <path clip-path="url(#p877c2ff464)" d="M 30.103125 288.199219 
L 52.129441 288.199219 
L 74.155757 288.199219 
L 96.182072 288.199219 
L 118.208388 288.199219 
L 140.234704 288.199219 
L 162.26102 288.199219 
L 184.287336 288.199219 
L 206.313651 288.199219 
L 228.339967 288.199219 
L 250.366283 281.452263 
L 272.392599 263.925306 
L 294.418914 239.689219 
L 316.44523 176.736704 
L 338.471546 84.960639 
L 360.497862 31.282146 
L 382.524178 20.546869 
L 404.550493 13.519385 
L 426.576809 10.999219 
L 448.603125 10.999219 
L 470.629441 10.999219 
L 492.655757 10.999219 
L 514.682072 64.215366 
L 536.708388 168.160926 
L 558.734704 239.281572 
L 580.76102 263.900257 
L 602.787336 281.485032 
L 624.813651 288.199219 
L 646.839967 288.199219 
L 668.866283 288.199219 
L 690.892599 288.199219 
L 712.918914 288.199219 
L 734.94523 288.199219 
L 756.971546 288.199219 
L 778.997862 288.199219 
L 801.024178 288.199219 
L 823.050493 288.199219 
L 845.076809 288.199219 
L 867.103125 288.199219 
" style="fill:none;stroke:#008000;stroke-linecap:square;stroke-opacity:0.25;stroke-width:1.5;"/>
    <defs>
     <path d="M 0 3 
C 0.795609 3 1.55874 2.683901 2.12132 2.12132 
C 2.683901 1.55874 3 0.795609 3 0 
C 3 -0.795609 2.683901 -1.55874 2.12132 -2.12132 
C 1.55874 -2.683901 0.795609 -3 0 -3 
C -0.795609 -3 -1.55874 -2.683901 -2.12132 -2.12132 
C -2.683901 -1.55874 -3 -0.795609 -3 0 
C -3 0.795609 -2.683901 1.55874 -2.12132 2.12132 
C -1.55874 2.683901 -0.795609 3 0 3 
z
" id="m4bb17a4388" style="stroke:#008000;stroke-opacity:0.25;"/>
    </defs>
    <g clip-path="url(#p877c2ff464)">
     <use style="fill:#008000;fill-opacity:0.25;stroke:#008000;stroke-opacity:0.25;" x="30.103125" xlink:href="#m4bb17a4388" y="288.199219"/>
     <use style="fill:#008000;fill-opacity:0.25;stroke:#008000;stroke-opacity:0.25;" x="52.129441" xlink:href="#m4bb17a4388" y="288.199219"/>
     <use style="fill:#008000;fill-opacity:0.25;stroke:#008000;stroke-opacity:0.25;" x="74.155757" xlink:href="#m4bb17a4388" y="288.199219"/>
     <use style="fill:#008000;fill-opacity:0.25;stroke:#008000;stroke-opacity:0.25;" x="96.182072" xlink:href="#m4bb17a4388" y="288.199219"/>
     <use style="fill:#008000;fill-opacity:0.25;stroke:#008000;stroke-opacity:0.25;" x="118.208388" xlink:href="#m4bb17a4388" y="288.199219"/>
     <use style="fill:#008000;fill-opacity:0.25;stroke:#008000;stroke-opacity:0.25;" x="140.234704" xlink:href="#m4bb17a4388" y="288.199219"/>
     <use style="fill:#008000;fill-opacity:0.25;stroke:#008000;stroke-opacity:0.25;" x="162.26102" xlink:href="#m4bb17a4388" y="288.199219"/>
     <use style="fill:#008000;fill-opacity:0.25;stroke:#008000;stroke-opacity:0.25;" x="184.287336" xlink:href="#m4bb17a4388" y="288.199219"/>
     <use style="fill:#008000;fill-opacity:0.25;stroke:#008000;stroke-opacity:0.25;" x="206.313651" xlink:href="#m4bb17a4388" y="288.199219"/>
     <use style="fill:#008000;fill-opacity:0.25;stroke:#008000;stroke-opacity:0.25;" x="228.339967" xlink:href="#m4bb17a4388" y="288.199219"/>
     <use style="fill:#008000;fill-opacity:0.25;stroke:#008000;stroke-opacity:0.25;" x="250.366283" xlink:href="#m4bb17a4388" y="281.452263"/>
     <use style="fill:#008000;fill-opacity:0.25;stroke:#008000;stroke-opacity:0.25;" x="272.392599" xlink:href="#m4bb17a4388" y="263.925306"/>
     <use style="fill:#008000;fill-opacity:0.25;stroke:#008000;stroke-opacity:0.25;" x="294.418914" xlink:href="#m4bb17a4388" y="239.689219"/>
     <use style="fill:#008000;fill-opacity:0.25;stroke:#008000;stroke-opacity:0.25;" x="316.44523" xlink:href="#m4bb17a4388" y="176.736704"/>
     <use style="fill:#008000;fill-opacity:0.25;stroke:#008000;stroke-opacity:0.25;" x="338.471546" xlink:href="#m4bb17a4388" y="84.960639"/>
     <use style="fill:#008000;fill-opacity:0.25;stroke:#008000;stroke-opacity:0.25;" x="360.497862" xlink:href="#m4bb17a4388" y="31.282146"/>
     <use style="fill:#008000;fill-opacity:0.25;stroke:#008000;stroke-opacity:0.25;" x="382.524178" xlink:href="#m4bb17a4388" y="20.546869"/>
     <use style="fill:#008000;fill-opacity:0.25;stroke:#008000;stroke-opacity:0.25;" x="404.550493" xlink:href="#m4bb17a4388" y="13.519385"/>
     <use style="fill:#008000;fill-opacity:0.25;stroke:#008000;stroke-opacity:0.25;" x="426.576809" xlink:href="#m4bb17a4388" y="10.999219"/>
     <use style="fill:#008000;fill-opacity:0.25;stroke:#008000;stroke-opacity:0.25;" x="448.603125" xlink:href="#m4bb17a4388" y="10.999219"/>
     <use style="fill:#008000;fill-opacity:0.25;stroke:#008000;stroke-opacity:0.25;" x="470.629441" xlink:href="#m4bb17a4388" y="10.999219"/>
     <use style="fill:#008000;fill-opacity:0.25;stroke:#008000;stroke-opacity:0.25;" x="492.655757" xlink:href="#m4bb17a4388" y="10.999219"/>
     <use style="fill:#008000;fill-opacity:0.25;stroke:#008000;stroke-opacity:0.25;" x="514.682072" xlink:href="#m4bb17a4388" y="64.215366"/>
     <use style="fill:#008000;fill-opacity:0.25;stroke:#008000;stroke-opacity:0.25;" x="536.708388" xlink:href="#m4bb17a4388" y="168.160926"/>
     <use style="fill:#008000;fill-opacity:0.25;stroke:#008000;stroke-opacity:0.25;" x="558.734704" xlink:href="#m4bb17a4388" y="239.281572"/>
     <use style="fill:#008000;fill-opacity:0.25;stroke:#008000;stroke-opacity:0.25;" x="580.76102" xlink:href="#m4bb17a4388" y="263.900257"/>
     <use style="fill:#008000;fill-opacity:0.25;stroke:#008000;stroke-opacity:0.25;" x="602.787336" xlink:href="#m4bb17a4388" y="281.485032"/>
     <use style="fill:#008000;fill-opacity:0.25;stroke:#008000;stroke-opacity:0.25;" x="624.813651" xlink:href="#m4bb17a4388" y="288.199219"/>
     <use style="fill:#008000;fill-opacity:0.25;stroke:#008000;stroke-opacity:0.25;" x="646.839967" xlink:href="#m4bb17a4388" y="288.199219"/>
     <use style="fill:#008000;fill-opacity:0.25;stroke:#008000;stroke-opacity:0.25;" x="668.866283" xlink:href="#m4bb17a4388" y="288.199219"/>
     <use style="fill:#008000;fill-opacity:0.25;stroke:#008000;stroke-opacity:0.25;" x="690.892599" xlink:href="#m4bb17a4388" y="288.199219"/>
     <use style="fill:#008000;fill-opacity:0.25;stroke:#008000;stroke-opacity:0.25;" x="712.918914" xlink:href="#m4bb17a4388" y="288.199219"/>
     <use style="fill:#008000;fill-opacity:0.25;stroke:#008000;stroke-opacity:0.25;" x="734.94523" xlink:href="#m4bb17a4388" y="288.199219"/>
     <use style="fill:#008000;fill-opacity:0.25;stroke:#008000;stroke-opacity:0.25;" x="756.971546" xlink:href="#m4bb17a4388" y="288.199219"/>
     <use style="fill:#008000;fill-opacity:0.25;stroke:#008000;stroke-opacity:0.25;" x="778.997862" xlink:href="#m4bb17a4388" y="288.199219"/>
     <use style="fill:#008000;fill-opacity:0.25;stroke:#008000;stroke-opacity:0.25;" x="801.024178" xlink:href="#m4bb17a4388" y="288.199219"/>
     <use style="fill:#008000;fill-opacity:0.25;stroke:#008000;stroke-opacity:0.25;" x="823.050493" xlink:href="#m4bb17a4388" y="288.199219"/>
     <use style="fill:#008000;fill-opacity:0.25;stroke:#008000;stroke-opacity:0.25;" x="845.076809" xlink:href="#m4bb17a4388" y="288.199219"/>
     <use style="fill:#008000;fill-opacity:0.25;stroke:#008000;stroke-opacity:0.25;" x="867.103125" xlink:href="#m4bb17a4388" y="288.199219"/>
    </g>
   </g>
   <g id="line2d_19">
    <path clip-path="url(#p877c2ff464)" d="M 30.103125 288.199219 
L 52.129441 288.199219 
L 74.155757 288.199219 
L 96.182072 288.199219 
L 118.208388 288.199219 
L 140.234704 288.199219 
L 162.26102 288.199219 
L 184.287336 288.199219 
L 206.313651 288.199219 
L 228.339967 288.199219 
L 250.366283 216.332552 
L 272.392599 82.865885 
L 294.418914 10.999219 
L 316.44523 14.421441 
L 338.471546 20.776997 
L 360.497862 24.199219 
L 382.524178 20.776997 
L 404.550493 14.421441 
L 426.576809 10.999219 
L 448.603125 12.376997 
L 470.629441 16.554774 
L 492.655757 23.599219 
" style="fill:none;stroke:#008000;stroke-linecap:square;stroke-width:1.5;"/>
    <defs>
     <path d="M 0 3 
C 0.795609 3 1.55874 2.683901 2.12132 2.12132 
C 2.683901 1.55874 3 0.795609 3 0 
C 3 -0.795609 2.683901 -1.55874 2.12132 -2.12132 
C 1.55874 -2.683901 0.795609 -3 0 -3 
C -0.795609 -3 -1.55874 -2.683901 -2.12132 -2.12132 
C -2.683901 -1.55874 -3 -0.795609 -3 0 
C -3 0.795609 -2.683901 1.55874 -2.12132 2.12132 
C -1.55874 2.683901 -0.795609 3 0 3 
z
" id="m770f70e157" style="stroke:#008000;"/>
    </defs>
    <g clip-path="url(#p877c2ff464)">
     <use style="fill:#008000;stroke:#008000;" x="30.103125" xlink:href="#m770f70e157" y="288.199219"/>
     <use style="fill:#008000;stroke:#008000;" x="52.129441" xlink:href="#m770f70e157" y="288.199219"/>
     <use style="fill:#008000;stroke:#008000;" x="74.155757" xlink:href="#m770f70e157" y="288.199219"/>
     <use style="fill:#008000;stroke:#008000;" x="96.182072" xlink:href="#m770f70e157" y="288.199219"/>
     <use style="fill:#008000;stroke:#008000;" x="118.208388" xlink:href="#m770f70e157" y="288.199219"/>
     <use style="fill:#008000;stroke:#008000;" x="140.234704" xlink:href="#m770f70e157" y="288.199219"/>
     <use style="fill:#008000;stroke:#008000;" x="162.26102" xlink:href="#m770f70e157" y="288.199219"/>
     <use style="fill:#008000;stroke:#008000;" x="184.287336" xlink:href="#m770f70e157" y="288.199219"/>
     <use style="fill:#008000;stroke:#008000;" x="206.313651" xlink:href="#m770f70e157" y="288.199219"/>
     <use style="fill:#008000;stroke:#008000;" x="228.339967" xlink:href="#m770f70e157" y="288.199219"/>
     <use style="fill:#008000;stroke:#008000;" x="250.366283" xlink:href="#m770f70e157" y="216.332552"/>
     <use style="fill:#008000;stroke:#008000;" x="272.392599" xlink:href="#m770f70e157" y="82.865885"/>
     <use style="fill:#008000;stroke:#008000;" x="294.418914" xlink:href="#m770f70e157" y="10.999219"/>
     <use style="fill:#008000;stroke:#008000;" x="316.44523" xlink:href="#m770f70e157" y="14.421441"/>
     <use style="fill:#008000;stroke:#008000;" x="338.471546" xlink:href="#m770f70e157" y="20.776997"/>
     <use style="fill:#008000;stroke:#008000;" x="360.497862" xlink:href="#m770f70e157" y="24.199219"/>
     <use style="fill:#008000;stroke:#008000;" x="382.524178" xlink:href="#m770f70e157" y="20.776997"/>
     <use style="fill:#008000;stroke:#008000;" x="404.550493" xlink:href="#m770f70e157" y="14.421441"/>
     <use style="fill:#008000;stroke:#008000;" x="426.576809" xlink:href="#m770f70e157" y="10.999219"/>
     <use style="fill:#008000;stroke:#008000;" x="448.603125" xlink:href="#m770f70e157" y="12.376997"/>
     <use style="fill:#008000;stroke:#008000;" x="470.629441" xlink:href="#m770f70e157" y="16.554774"/>
     <use style="fill:#008000;stroke:#008000;" x="492.655757" xlink:href="#m770f70e157" y="23.599219"/>
    </g>
   </g>
   <g id="line2d_20"/>
   <g id="line2d_21">
    <path clip-path="url(#p877c2ff464)" d="M 30.103125 288.199219 
L 52.129441 288.199219 
L 74.155757 288.199219 
L 96.182072 288.199219 
L 118.208388 287.343663 
L 140.234704 285.754774 
L 162.26102 284.899219 
L 184.287336 285.754774 
L 206.313651 287.343663 
L 228.339967 288.199219 
L 250.366283 288.199219 
L 272.392599 288.199219 
L 294.418914 288.199219 
L 316.44523 288.199219 
L 338.471546 288.199219 
L 360.497862 288.199219 
L 382.524178 288.199219 
L 404.550493 288.199219 
L 426.576809 288.199219 
L 448.603125 288.199219 
L 470.629441 288.199219 
L 492.655757 288.199219 
L 514.682072 234.983071 
L 536.708388 131.037512 
L 558.734704 59.916866 
L 580.76102 35.298181 
L 602.787336 17.713406 
L 624.813651 10.999219 
L 646.839967 10.999219 
L 668.866283 10.999219 
L 690.892599 10.999219 
L 712.918914 10.999219 
L 734.94523 10.999219 
L 756.971546 10.999219 
L 778.997862 10.999219 
L 801.024178 10.999219 
L 823.050493 10.999219 
L 845.076809 10.999219 
L 867.103125 10.999219 
" style="fill:none;stroke:#0000ff;stroke-linecap:square;stroke-opacity:0.25;stroke-width:1.5;"/>
    <defs>
     <path d="M 0 3 
C 0.795609 3 1.55874 2.683901 2.12132 2.12132 
C 2.683901 1.55874 3 0.795609 3 0 
C 3 -0.795609 2.683901 -1.55874 2.12132 -2.12132 
C 1.55874 -2.683901 0.795609 -3 0 -3 
C -0.795609 -3 -1.55874 -2.683901 -2.12132 -2.12132 
C -2.683901 -1.55874 -3 -0.795609 -3 0 
C -3 0.795609 -2.683901 1.55874 -2.12132 2.12132 
C -1.55874 2.683901 -0.795609 3 0 3 
z
" id="m5dc68acaed" style="stroke:#0000ff;stroke-opacity:0.25;"/>
    </defs>
    <g clip-path="url(#p877c2ff464)">
     <use style="fill:#0000ff;fill-opacity:0.25;stroke:#0000ff;stroke-opacity:0.25;" x="30.103125" xlink:href="#m5dc68acaed" y="288.199219"/>
     <use style="fill:#0000ff;fill-opacity:0.25;stroke:#0000ff;stroke-opacity:0.25;" x="52.129441" xlink:href="#m5dc68acaed" y="288.199219"/>
     <use style="fill:#0000ff;fill-opacity:0.25;stroke:#0000ff;stroke-opacity:0.25;" x="74.155757" xlink:href="#m5dc68acaed" y="288.199219"/>
     <use style="fill:#0000ff;fill-opacity:0.25;stroke:#0000ff;stroke-opacity:0.25;" x="96.182072" xlink:href="#m5dc68acaed" y="288.199219"/>
     <use style="fill:#0000ff;fill-opacity:0.25;stroke:#0000ff;stroke-opacity:0.25;" x="118.208388" xlink:href="#m5dc68acaed" y="287.343663"/>
     <use style="fill:#0000ff;fill-opacity:0.25;stroke:#0000ff;stroke-opacity:0.25;" x="140.234704" xlink:href="#m5dc68acaed" y="285.754774"/>
     <use style="fill:#0000ff;fill-opacity:0.25;stroke:#0000ff;stroke-opacity:0.25;" x="162.26102" xlink:href="#m5dc68acaed" y="284.899219"/>
     <use style="fill:#0000ff;fill-opacity:0.25;stroke:#0000ff;stroke-opacity:0.25;" x="184.287336" xlink:href="#m5dc68acaed" y="285.754774"/>
     <use style="fill:#0000ff;fill-opacity:0.25;stroke:#0000ff;stroke-opacity:0.25;" x="206.313651" xlink:href="#m5dc68acaed" y="287.343663"/>
     <use style="fill:#0000ff;fill-opacity:0.25;stroke:#0000ff;stroke-opacity:0.25;" x="228.339967" xlink:href="#m5dc68acaed" y="288.199219"/>
     <use style="fill:#0000ff;fill-opacity:0.25;stroke:#0000ff;stroke-opacity:0.25;" x="250.366283" xlink:href="#m5dc68acaed" y="288.199219"/>
     <use style="fill:#0000ff;fill-opacity:0.25;stroke:#0000ff;stroke-opacity:0.25;" x="272.392599" xlink:href="#m5dc68acaed" y="288.199219"/>
     <use style="fill:#0000ff;fill-opacity:0.25;stroke:#0000ff;stroke-opacity:0.25;" x="294.418914" xlink:href="#m5dc68acaed" y="288.199219"/>
     <use style="fill:#0000ff;fill-opacity:0.25;stroke:#0000ff;stroke-opacity:0.25;" x="316.44523" xlink:href="#m5dc68acaed" y="288.199219"/>
     <use style="fill:#0000ff;fill-opacity:0.25;stroke:#0000ff;stroke-opacity:0.25;" x="338.471546" xlink:href="#m5dc68acaed" y="288.199219"/>
     <use style="fill:#0000ff;fill-opacity:0.25;stroke:#0000ff;stroke-opacity:0.25;" x="360.497862" xlink:href="#m5dc68acaed" y="288.199219"/>
     <use style="fill:#0000ff;fill-opacity:0.25;stroke:#0000ff;stroke-opacity:0.25;" x="382.524178" xlink:href="#m5dc68acaed" y="288.199219"/>
     <use style="fill:#0000ff;fill-opacity:0.25;stroke:#0000ff;stroke-opacity:0.25;" x="404.550493" xlink:href="#m5dc68acaed" y="288.199219"/>
     <use style="fill:#0000ff;fill-opacity:0.25;stroke:#0000ff;stroke-opacity:0.25;" x="426.576809" xlink:href="#m5dc68acaed" y="288.199219"/>
     <use style="fill:#0000ff;fill-opacity:0.25;stroke:#0000ff;stroke-opacity:0.25;" x="448.603125" xlink:href="#m5dc68acaed" y="288.199219"/>
     <use style="fill:#0000ff;fill-opacity:0.25;stroke:#0000ff;stroke-opacity:0.25;" x="470.629441" xlink:href="#m5dc68acaed" y="288.199219"/>
     <use style="fill:#0000ff;fill-opacity:0.25;stroke:#0000ff;stroke-opacity:0.25;" x="492.655757" xlink:href="#m5dc68acaed" y="288.199219"/>
     <use style="fill:#0000ff;fill-opacity:0.25;stroke:#0000ff;stroke-opacity:0.25;" x="514.682072" xlink:href="#m5dc68acaed" y="234.983071"/>
     <use style="fill:#0000ff;fill-opacity:0.25;stroke:#0000ff;stroke-opacity:0.25;" x="536.708388" xlink:href="#m5dc68acaed" y="131.037512"/>
     <use style="fill:#0000ff;fill-opacity:0.25;stroke:#0000ff;stroke-opacity:0.25;" x="558.734704" xlink:href="#m5dc68acaed" y="59.916866"/>
     <use style="fill:#0000ff;fill-opacity:0.25;stroke:#0000ff;stroke-opacity:0.25;" x="580.76102" xlink:href="#m5dc68acaed" y="35.298181"/>
     <use style="fill:#0000ff;fill-opacity:0.25;stroke:#0000ff;stroke-opacity:0.25;" x="602.787336" xlink:href="#m5dc68acaed" y="17.713406"/>
     <use style="fill:#0000ff;fill-opacity:0.25;stroke:#0000ff;stroke-opacity:0.25;" x="624.813651" xlink:href="#m5dc68acaed" y="10.999219"/>
     <use style="fill:#0000ff;fill-opacity:0.25;stroke:#0000ff;stroke-opacity:0.25;" x="646.839967" xlink:href="#m5dc68acaed" y="10.999219"/>
     <use style="fill:#0000ff;fill-opacity:0.25;stroke:#0000ff;stroke-opacity:0.25;" x="668.866283" xlink:href="#m5dc68acaed" y="10.999219"/>
     <use style="fill:#0000ff;fill-opacity:0.25;stroke:#0000ff;stroke-opacity:0.25;" x="690.892599" xlink:href="#m5dc68acaed" y="10.999219"/>
     <use style="fill:#0000ff;fill-opacity:0.25;stroke:#0000ff;stroke-opacity:0.25;" x="712.918914" xlink:href="#m5dc68acaed" y="10.999219"/>
     <use style="fill:#0000ff;fill-opacity:0.25;stroke:#0000ff;stroke-opacity:0.25;" x="734.94523" xlink:href="#m5dc68acaed" y="10.999219"/>
     <use style="fill:#0000ff;fill-opacity:0.25;stroke:#0000ff;stroke-opacity:0.25;" x="756.971546" xlink:href="#m5dc68acaed" y="10.999219"/>
     <use style="fill:#0000ff;fill-opacity:0.25;stroke:#0000ff;stroke-opacity:0.25;" x="778.997862" xlink:href="#m5dc68acaed" y="10.999219"/>
     <use style="fill:#0000ff;fill-opacity:0.25;stroke:#0000ff;stroke-opacity:0.25;" x="801.024178" xlink:href="#m5dc68acaed" y="10.999219"/>
     <use style="fill:#0000ff;fill-opacity:0.25;stroke:#0000ff;stroke-opacity:0.25;" x="823.050493" xlink:href="#m5dc68acaed" y="10.999219"/>
     <use style="fill:#0000ff;fill-opacity:0.25;stroke:#0000ff;stroke-opacity:0.25;" x="845.076809" xlink:href="#m5dc68acaed" y="10.999219"/>
     <use style="fill:#0000ff;fill-opacity:0.25;stroke:#0000ff;stroke-opacity:0.25;" x="867.103125" xlink:href="#m5dc68acaed" y="10.999219"/>
    </g>
   </g>
   <g id="line2d_22">
    <path clip-path="url(#p877c2ff464)" d="M 30.103125 10.999219 
L 52.129441 82.865885 
L 74.155757 216.332552 
L 96.182072 288.199219 
L 118.208388 288.199219 
L 140.234704 288.199219 
L 162.26102 288.199219 
L 184.287336 288.199219 
L 206.313651 288.199219 
L 228.339967 288.199219 
L 250.366283 288.199219 
L 272.392599 288.199219 
L 294.418914 288.199219 
L 316.44523 288.199219 
L 338.471546 288.199219 
L 360.497862 288.199219 
L 382.524178 288.199219 
L 404.550493 288.199219 
L 426.576809 288.199219 
L 448.603125 286.332552 
L 470.629441 281.665885 
L 492.655757 275.599219 
" style="fill:none;stroke:#0000ff;stroke-linecap:square;stroke-width:1.5;"/>
    <defs>
     <path d="M 0 3 
C 0.795609 3 1.55874 2.683901 2.12132 2.12132 
C 2.683901 1.55874 3 0.795609 3 0 
C 3 -0.795609 2.683901 -1.55874 2.12132 -2.12132 
C 1.55874 -2.683901 0.795609 -3 0 -3 
C -0.795609 -3 -1.55874 -2.683901 -2.12132 -2.12132 
C -2.683901 -1.55874 -3 -0.795609 -3 0 
C -3 0.795609 -2.683901 1.55874 -2.12132 2.12132 
C -1.55874 2.683901 -0.795609 3 0 3 
z
" id="m787c4c2154" style="stroke:#0000ff;"/>
    </defs>
    <g clip-path="url(#p877c2ff464)">
     <use style="fill:#0000ff;stroke:#0000ff;" x="30.103125" xlink:href="#m787c4c2154" y="10.999219"/>
     <use style="fill:#0000ff;stroke:#0000ff;" x="52.129441" xlink:href="#m787c4c2154" y="82.865885"/>
     <use style="fill:#0000ff;stroke:#0000ff;" x="74.155757" xlink:href="#m787c4c2154" y="216.332552"/>
     <use style="fill:#0000ff;stroke:#0000ff;" x="96.182072" xlink:href="#m787c4c2154" y="288.199219"/>
     <use style="fill:#0000ff;stroke:#0000ff;" x="118.208388" xlink:href="#m787c4c2154" y="288.199219"/>
     <use style="fill:#0000ff;stroke:#0000ff;" x="140.234704" xlink:href="#m787c4c2154" y="288.199219"/>
     <use style="fill:#0000ff;stroke:#0000ff;" x="162.26102" xlink:href="#m787c4c2154" y="288.199219"/>
     <use style="fill:#0000ff;stroke:#0000ff;" x="184.287336" xlink:href="#m787c4c2154" y="288.199219"/>
     <use style="fill:#0000ff;stroke:#0000ff;" x="206.313651" xlink:href="#m787c4c2154" y="288.199219"/>
     <use style="fill:#0000ff;stroke:#0000ff;" x="228.339967" xlink:href="#m787c4c2154" y="288.199219"/>
     <use style="fill:#0000ff;stroke:#0000ff;" x="250.366283" xlink:href="#m787c4c2154" y="288.199219"/>
     <use style="fill:#0000ff;stroke:#0000ff;" x="272.392599" xlink:href="#m787c4c2154" y="288.199219"/>
     <use style="fill:#0000ff;stroke:#0000ff;" x="294.418914" xlink:href="#m787c4c2154" y="288.199219"/>
     <use style="fill:#0000ff;stroke:#0000ff;" x="316.44523" xlink:href="#m787c4c2154" y="288.199219"/>
     <use style="fill:#0000ff;stroke:#0000ff;" x="338.471546" xlink:href="#m787c4c2154" y="288.199219"/>
     <use style="fill:#0000ff;stroke:#0000ff;" x="360.497862" xlink:href="#m787c4c2154" y="288.199219"/>
     <use style="fill:#0000ff;stroke:#0000ff;" x="382.524178" xlink:href="#m787c4c2154" y="288.199219"/>
     <use style="fill:#0000ff;stroke:#0000ff;" x="404.550493" xlink:href="#m787c4c2154" y="288.199219"/>
     <use style="fill:#0000ff;stroke:#0000ff;" x="426.576809" xlink:href="#m787c4c2154" y="288.199219"/>
     <use style="fill:#0000ff;stroke:#0000ff;" x="448.603125" xlink:href="#m787c4c2154" y="286.332552"/>
     <use style="fill:#0000ff;stroke:#0000ff;" x="470.629441" xlink:href="#m787c4c2154" y="281.665885"/>
     <use style="fill:#0000ff;stroke:#0000ff;" x="492.655757" xlink:href="#m787c4c2154" y="275.599219"/>
    </g>
   </g>
   <g id="line2d_23"/>
   <g id="patch_3">
    <path d="M 30.103125 288.199219 
L 30.103125 10.999219 
" style="fill:none;stroke:#000000;stroke-linecap:square;stroke-linejoin:miter;stroke-width:0.8;"/>
   </g>
   <g id="patch_4">
    <path d="M 867.103125 288.199219 
L 867.103125 10.999219 
" style="fill:none;stroke:#000000;stroke-linecap:square;stroke-linejoin:miter;stroke-width:0.8;"/>
   </g>
   <g id="patch_5">
    <path d="M 30.103125 288.199219 
L 867.103125 288.199219 
" style="fill:none;stroke:#000000;stroke-linecap:square;stroke-linejoin:miter;stroke-width:0.8;"/>
   </g>
   <g id="patch_6">
    <path d="M 30.103125 10.999219 
L 867.103125 10.999219 
" style="fill:none;stroke:#000000;stroke-linecap:square;stroke-linejoin:miter;stroke-width:0.8;"/>
   </g>
  </g>
 </g>
 <defs>
  <clipPath id="p877c2ff464">
   <rect height="277.2" width="837" x="30.103125" y="10.999219"/>
  </clipPath>
 </defs>
</svg>
