<?xml version="1.0" encoding="utf-8" standalone="no"?>
<!DOCTYPE svg PUBLIC "-//W3C//DTD SVG 1.1//EN"
  "http://www.w3.org/Graphics/SVG/1.1/DTD/svg11.dtd">
<!-- Created with matplotlib (https://matplotlib.org/) -->
<svg height="312.077344pt" version="1.1" viewBox="0 0 877.4875 312.077344" width="877.4875pt" xmlns="http://www.w3.org/2000/svg" xmlns:xlink="http://www.w3.org/1999/xlink">
 <defs>
  <style type="text/css">
*{stroke-linecap:butt;stroke-linejoin:round;}
  </style>
 </defs>
 <g id="figure_1">
  <g id="patch_1">
   <path d="M 0 312.077344 
L 877.4875 312.077344 
L 877.4875 0 
L 0 0 
z
" style="fill:#ffffff;"/>
  </g>
  <g id="axes_1">
   <g id="patch_2">
    <path d="M 33.2875 288.199219 
L 870.2875 288.199219 
L 870.2875 10.999219 
L 33.2875 10.999219 
z
" style="fill:#ffffff;"/>
   </g>
   <g id="PolyCollection_1">
    <path clip-path="url(#pa8fdfe667a)" d="M 33.2875 10.999219 
L 33.2875 288.199219 
L 33.2875 288.199219 
L 33.2875 10.999219 
L 33.2875 10.999219 
L 33.2875 10.999219 
z
" style="fill:#808080;fill-opacity:0.3;"/>
   </g>
   <g id="PolyCollection_2">
    <path clip-path="url(#pa8fdfe667a)" d="M 469.983152 10.999219 
L 469.983152 288.199219 
L 870.2875 288.199219 
L 870.2875 10.999219 
L 870.2875 10.999219 
L 469.983152 10.999219 
z
" style="fill:#808080;fill-opacity:0.3;"/>
   </g>
   <g id="matplotlib.axis_1">
    <g id="xtick_1">
     <g id="line2d_1">
      <defs>
       <path d="M 0 0 
L 0 3.5 
" id="mf8eecf7c63" style="stroke:#000000;stroke-width:0.8;"/>
      </defs>
      <g>
       <use style="stroke:#000000;stroke-width:0.8;" x="33.2875" xlink:href="#mf8eecf7c63" y="288.199219"/>
      </g>
     </g>
     <g id="text_1">
      <!-- 0 -->
      <defs>
       <path d="M 31.78125 66.40625 
Q 24.171875 66.40625 20.328125 58.90625 
Q 16.5 51.421875 16.5 36.375 
Q 16.5 21.390625 20.328125 13.890625 
Q 24.171875 6.390625 31.78125 6.390625 
Q 39.453125 6.390625 43.28125 13.890625 
Q 47.125 21.390625 47.125 36.375 
Q 47.125 51.421875 43.28125 58.90625 
Q 39.453125 66.40625 31.78125 66.40625 
z
M 31.78125 74.21875 
Q 44.046875 74.21875 50.515625 64.515625 
Q 56.984375 54.828125 56.984375 36.375 
Q 56.984375 17.96875 50.515625 8.265625 
Q 44.046875 -1.421875 31.78125 -1.421875 
Q 19.53125 -1.421875 13.0625 8.265625 
Q 6.59375 17.96875 6.59375 36.375 
Q 6.59375 54.828125 13.0625 64.515625 
Q 19.53125 74.21875 31.78125 74.21875 
z
" id="DejaVuSans-48"/>
      </defs>
      <g transform="translate(30.10625 302.797656)scale(0.1 -0.1)">
       <use xlink:href="#DejaVuSans-48"/>
      </g>
     </g>
    </g>
    <g id="xtick_2">
     <g id="line2d_2">
      <g>
       <use style="stroke:#000000;stroke-width:0.8;" x="154.591848" xlink:href="#mf8eecf7c63" y="288.199219"/>
      </g>
     </g>
     <g id="text_2">
      <!-- 10 -->
      <defs>
       <path d="M 12.40625 8.296875 
L 28.515625 8.296875 
L 28.515625 63.921875 
L 10.984375 60.40625 
L 10.984375 69.390625 
L 28.421875 72.90625 
L 38.28125 72.90625 
L 38.28125 8.296875 
L 54.390625 8.296875 
L 54.390625 0 
L 12.40625 0 
z
" id="DejaVuSans-49"/>
      </defs>
      <g transform="translate(148.229348 302.797656)scale(0.1 -0.1)">
       <use xlink:href="#DejaVuSans-49"/>
       <use x="63.623047" xlink:href="#DejaVuSans-48"/>
      </g>
     </g>
    </g>
    <g id="xtick_3">
     <g id="line2d_3">
      <g>
       <use style="stroke:#000000;stroke-width:0.8;" x="275.896196" xlink:href="#mf8eecf7c63" y="288.199219"/>
      </g>
     </g>
     <g id="text_3">
      <!-- 20 -->
      <defs>
       <path d="M 19.1875 8.296875 
L 53.609375 8.296875 
L 53.609375 0 
L 7.328125 0 
L 7.328125 8.296875 
Q 12.9375 14.109375 22.625 23.890625 
Q 32.328125 33.6875 34.8125 36.53125 
Q 39.546875 41.84375 41.421875 45.53125 
Q 43.3125 49.21875 43.3125 52.78125 
Q 43.3125 58.59375 39.234375 62.25 
Q 35.15625 65.921875 28.609375 65.921875 
Q 23.96875 65.921875 18.8125 64.3125 
Q 13.671875 62.703125 7.8125 59.421875 
L 7.8125 69.390625 
Q 13.765625 71.78125 18.9375 73 
Q 24.125 74.21875 28.421875 74.21875 
Q 39.75 74.21875 46.484375 68.546875 
Q 53.21875 62.890625 53.21875 53.421875 
Q 53.21875 48.921875 51.53125 44.890625 
Q 49.859375 40.875 45.40625 35.40625 
Q 44.1875 33.984375 37.640625 27.21875 
Q 31.109375 20.453125 19.1875 8.296875 
z
" id="DejaVuSans-50"/>
      </defs>
      <g transform="translate(269.533696 302.797656)scale(0.1 -0.1)">
       <use xlink:href="#DejaVuSans-50"/>
       <use x="63.623047" xlink:href="#DejaVuSans-48"/>
      </g>
     </g>
    </g>
    <g id="xtick_4">
     <g id="line2d_4">
      <g>
       <use style="stroke:#000000;stroke-width:0.8;" x="397.200543" xlink:href="#mf8eecf7c63" y="288.199219"/>
      </g>
     </g>
     <g id="text_4">
      <!-- 30 -->
      <defs>
       <path d="M 40.578125 39.3125 
Q 47.65625 37.796875 51.625 33 
Q 55.609375 28.21875 55.609375 21.1875 
Q 55.609375 10.40625 48.1875 4.484375 
Q 40.765625 -1.421875 27.09375 -1.421875 
Q 22.515625 -1.421875 17.65625 -0.515625 
Q 12.796875 0.390625 7.625 2.203125 
L 7.625 11.71875 
Q 11.71875 9.328125 16.59375 8.109375 
Q 21.484375 6.890625 26.8125 6.890625 
Q 36.078125 6.890625 40.9375 10.546875 
Q 45.796875 14.203125 45.796875 21.1875 
Q 45.796875 27.640625 41.28125 31.265625 
Q 36.765625 34.90625 28.71875 34.90625 
L 20.21875 34.90625 
L 20.21875 43.015625 
L 29.109375 43.015625 
Q 36.375 43.015625 40.234375 45.921875 
Q 44.09375 48.828125 44.09375 54.296875 
Q 44.09375 59.90625 40.109375 62.90625 
Q 36.140625 65.921875 28.71875 65.921875 
Q 24.65625 65.921875 20.015625 65.03125 
Q 15.375 64.15625 9.8125 62.3125 
L 9.8125 71.09375 
Q 15.4375 72.65625 20.34375 73.4375 
Q 25.25 74.21875 29.59375 74.21875 
Q 40.828125 74.21875 47.359375 69.109375 
Q 53.90625 64.015625 53.90625 55.328125 
Q 53.90625 49.265625 50.4375 45.09375 
Q 46.96875 40.921875 40.578125 39.3125 
z
" id="DejaVuSans-51"/>
      </defs>
      <g transform="translate(390.838043 302.797656)scale(0.1 -0.1)">
       <use xlink:href="#DejaVuSans-51"/>
       <use x="63.623047" xlink:href="#DejaVuSans-48"/>
      </g>
     </g>
    </g>
    <g id="xtick_5">
     <g id="line2d_5">
      <g>
       <use style="stroke:#000000;stroke-width:0.8;" x="518.504891" xlink:href="#mf8eecf7c63" y="288.199219"/>
      </g>
     </g>
     <g id="text_5">
      <!-- 40 -->
      <defs>
       <path d="M 37.796875 64.3125 
L 12.890625 25.390625 
L 37.796875 25.390625 
z
M 35.203125 72.90625 
L 47.609375 72.90625 
L 47.609375 25.390625 
L 58.015625 25.390625 
L 58.015625 17.1875 
L 47.609375 17.1875 
L 47.609375 0 
L 37.796875 0 
L 37.796875 17.1875 
L 4.890625 17.1875 
L 4.890625 26.703125 
z
" id="DejaVuSans-52"/>
      </defs>
      <g transform="translate(512.142391 302.797656)scale(0.1 -0.1)">
       <use xlink:href="#DejaVuSans-52"/>
       <use x="63.623047" xlink:href="#DejaVuSans-48"/>
      </g>
     </g>
    </g>
    <g id="xtick_6">
     <g id="line2d_6">
      <g>
       <use style="stroke:#000000;stroke-width:0.8;" x="639.809239" xlink:href="#mf8eecf7c63" y="288.199219"/>
      </g>
     </g>
     <g id="text_6">
      <!-- 50 -->
      <defs>
       <path d="M 10.796875 72.90625 
L 49.515625 72.90625 
L 49.515625 64.59375 
L 19.828125 64.59375 
L 19.828125 46.734375 
Q 21.96875 47.46875 24.109375 47.828125 
Q 26.265625 48.1875 28.421875 48.1875 
Q 40.625 48.1875 47.75 41.5 
Q 54.890625 34.8125 54.890625 23.390625 
Q 54.890625 11.625 47.5625 5.09375 
Q 40.234375 -1.421875 26.90625 -1.421875 
Q 22.3125 -1.421875 17.546875 -0.640625 
Q 12.796875 0.140625 7.71875 1.703125 
L 7.71875 11.625 
Q 12.109375 9.234375 16.796875 8.0625 
Q 21.484375 6.890625 26.703125 6.890625 
Q 35.15625 6.890625 40.078125 11.328125 
Q 45.015625 15.765625 45.015625 23.390625 
Q 45.015625 31 40.078125 35.4375 
Q 35.15625 39.890625 26.703125 39.890625 
Q 22.75 39.890625 18.8125 39.015625 
Q 14.890625 38.140625 10.796875 36.28125 
z
" id="DejaVuSans-53"/>
      </defs>
      <g transform="translate(633.446739 302.797656)scale(0.1 -0.1)">
       <use xlink:href="#DejaVuSans-53"/>
       <use x="63.623047" xlink:href="#DejaVuSans-48"/>
      </g>
     </g>
    </g>
    <g id="xtick_7">
     <g id="line2d_7">
      <g>
       <use style="stroke:#000000;stroke-width:0.8;" x="761.113587" xlink:href="#mf8eecf7c63" y="288.199219"/>
      </g>
     </g>
     <g id="text_7">
      <!-- 60 -->
      <defs>
       <path d="M 33.015625 40.375 
Q 26.375 40.375 22.484375 35.828125 
Q 18.609375 31.296875 18.609375 23.390625 
Q 18.609375 15.53125 22.484375 10.953125 
Q 26.375 6.390625 33.015625 6.390625 
Q 39.65625 6.390625 43.53125 10.953125 
Q 47.40625 15.53125 47.40625 23.390625 
Q 47.40625 31.296875 43.53125 35.828125 
Q 39.65625 40.375 33.015625 40.375 
z
M 52.59375 71.296875 
L 52.59375 62.3125 
Q 48.875 64.0625 45.09375 64.984375 
Q 41.3125 65.921875 37.59375 65.921875 
Q 27.828125 65.921875 22.671875 59.328125 
Q 17.53125 52.734375 16.796875 39.40625 
Q 19.671875 43.65625 24.015625 45.921875 
Q 28.375 48.1875 33.59375 48.1875 
Q 44.578125 48.1875 50.953125 41.515625 
Q 57.328125 34.859375 57.328125 23.390625 
Q 57.328125 12.15625 50.6875 5.359375 
Q 44.046875 -1.421875 33.015625 -1.421875 
Q 20.359375 -1.421875 13.671875 8.265625 
Q 6.984375 17.96875 6.984375 36.375 
Q 6.984375 53.65625 15.1875 63.9375 
Q 23.390625 74.21875 37.203125 74.21875 
Q 40.921875 74.21875 44.703125 73.484375 
Q 48.484375 72.75 52.59375 71.296875 
z
" id="DejaVuSans-54"/>
      </defs>
      <g transform="translate(754.751087 302.797656)scale(0.1 -0.1)">
       <use xlink:href="#DejaVuSans-54"/>
       <use x="63.623047" xlink:href="#DejaVuSans-48"/>
      </g>
     </g>
    </g>
   </g>
   <g id="matplotlib.axis_2">
    <g id="ytick_1">
     <g id="line2d_8">
      <defs>
       <path d="M 0 0 
L -3.5 0 
" id="mcc87687f9e" style="stroke:#000000;stroke-width:0.8;"/>
      </defs>
      <g>
       <use style="stroke:#000000;stroke-width:0.8;" x="33.2875" xlink:href="#mcc87687f9e" y="288.199219"/>
      </g>
     </g>
     <g id="text_8">
      <!-- 0 -->
      <g transform="translate(19.925 291.998438)scale(0.1 -0.1)">
       <use xlink:href="#DejaVuSans-48"/>
      </g>
     </g>
    </g>
    <g id="ytick_2">
     <g id="line2d_9">
      <g>
       <use style="stroke:#000000;stroke-width:0.8;" x="33.2875" xlink:href="#mcc87687f9e" y="232.759219"/>
      </g>
     </g>
     <g id="text_9">
      <!-- 20 -->
      <g transform="translate(13.5625 236.558438)scale(0.1 -0.1)">
       <use xlink:href="#DejaVuSans-50"/>
       <use x="63.623047" xlink:href="#DejaVuSans-48"/>
      </g>
     </g>
    </g>
    <g id="ytick_3">
     <g id="line2d_10">
      <g>
       <use style="stroke:#000000;stroke-width:0.8;" x="33.2875" xlink:href="#mcc87687f9e" y="177.319219"/>
      </g>
     </g>
     <g id="text_10">
      <!-- 40 -->
      <g transform="translate(13.5625 181.118438)scale(0.1 -0.1)">
       <use xlink:href="#DejaVuSans-52"/>
       <use x="63.623047" xlink:href="#DejaVuSans-48"/>
      </g>
     </g>
    </g>
    <g id="ytick_4">
     <g id="line2d_11">
      <g>
       <use style="stroke:#000000;stroke-width:0.8;" x="33.2875" xlink:href="#mcc87687f9e" y="121.879219"/>
      </g>
     </g>
     <g id="text_11">
      <!-- 60 -->
      <g transform="translate(13.5625 125.678438)scale(0.1 -0.1)">
       <use xlink:href="#DejaVuSans-54"/>
       <use x="63.623047" xlink:href="#DejaVuSans-48"/>
      </g>
     </g>
    </g>
    <g id="ytick_5">
     <g id="line2d_12">
      <g>
       <use style="stroke:#000000;stroke-width:0.8;" x="33.2875" xlink:href="#mcc87687f9e" y="66.439219"/>
      </g>
     </g>
     <g id="text_12">
      <!-- 80 -->
      <defs>
       <path d="M 31.78125 34.625 
Q 24.75 34.625 20.71875 30.859375 
Q 16.703125 27.09375 16.703125 20.515625 
Q 16.703125 13.921875 20.71875 10.15625 
Q 24.75 6.390625 31.78125 6.390625 
Q 38.8125 6.390625 42.859375 10.171875 
Q 46.921875 13.96875 46.921875 20.515625 
Q 46.921875 27.09375 42.890625 30.859375 
Q 38.875 34.625 31.78125 34.625 
z
M 21.921875 38.8125 
Q 15.578125 40.375 12.03125 44.71875 
Q 8.5 49.078125 8.5 55.328125 
Q 8.5 64.0625 14.71875 69.140625 
Q 20.953125 74.21875 31.78125 74.21875 
Q 42.671875 74.21875 48.875 69.140625 
Q 55.078125 64.0625 55.078125 55.328125 
Q 55.078125 49.078125 51.53125 44.71875 
Q 48 40.375 41.703125 38.8125 
Q 48.828125 37.15625 52.796875 32.3125 
Q 56.78125 27.484375 56.78125 20.515625 
Q 56.78125 9.90625 50.3125 4.234375 
Q 43.84375 -1.421875 31.78125 -1.421875 
Q 19.734375 -1.421875 13.25 4.234375 
Q 6.78125 9.90625 6.78125 20.515625 
Q 6.78125 27.484375 10.78125 32.3125 
Q 14.796875 37.15625 21.921875 38.8125 
z
M 18.3125 54.390625 
Q 18.3125 48.734375 21.84375 45.5625 
Q 25.390625 42.390625 31.78125 42.390625 
Q 38.140625 42.390625 41.71875 45.5625 
Q 45.3125 48.734375 45.3125 54.390625 
Q 45.3125 60.0625 41.71875 63.234375 
Q 38.140625 66.40625 31.78125 66.40625 
Q 25.390625 66.40625 21.84375 63.234375 
Q 18.3125 60.0625 18.3125 54.390625 
z
" id="DejaVuSans-56"/>
      </defs>
      <g transform="translate(13.5625 70.238438)scale(0.1 -0.1)">
       <use xlink:href="#DejaVuSans-56"/>
       <use x="63.623047" xlink:href="#DejaVuSans-48"/>
      </g>
     </g>
    </g>
    <g id="ytick_6">
     <g id="line2d_13">
      <g>
       <use style="stroke:#000000;stroke-width:0.8;" x="33.2875" xlink:href="#mcc87687f9e" y="10.999219"/>
      </g>
     </g>
     <g id="text_13">
      <!-- 100 -->
      <g transform="translate(7.2 14.798438)scale(0.1 -0.1)">
       <use xlink:href="#DejaVuSans-49"/>
       <use x="63.623047" xlink:href="#DejaVuSans-48"/>
       <use x="127.246094" xlink:href="#DejaVuSans-48"/>
      </g>
     </g>
    </g>
   </g>
   <g id="line2d_14">
    <path clip-path="url(#pa8fdfe667a)" d="M 33.2875 49.164436 
L 45.417935 35.041924 
L 57.54837 24.426658 
L 69.678804 20.239219 
L 81.809239 20.589834 
L 93.939674 21.527115 
L 106.070109 22.879219 
L 118.200543 26.019246 
L 130.330978 31.576802 
L 142.461413 38.264793 
L 154.591848 46.54379 
L 166.722283 57.069971 
L 178.852717 68.849654 
L 190.983152 80.925447 
L 203.113587 94.821664 
L 215.244022 113.26718 
L 227.374457 149.485623 
L 239.504891 198.032008 
L 251.635326 233.63229 
L 263.765761 252.917782 
L 275.896196 267.701872 
L 288.02663 275.483622 
L 300.157065 278.545017 
L 312.2875 280.619388 
L 324.417935 281.382825 
L 336.54837 281.015385 
L 348.678804 280.332996 
L 360.809239 279.965555 
L 372.939674 281.066156 
L 385.070109 283.110129 
L 397.200543 284.21073 
L 409.330978 269.756803 
L 421.461413 235.794614 
L 433.591848 196.423543 
L 445.722283 142.738558 
L 457.852717 79.494724 
L 469.983152 41.281572 
L 482.113587 28.600383 
L 494.244022 19.892238 
L 506.374457 16.656362 
L 518.504891 17.695482 
L 530.635326 19.758941 
L 542.765761 21.265885 
L 554.896196 21.735302 
L 567.02663 22.040028 
L 579.157065 22.629988 
L 591.2875 30.373303 
L 603.417935 47.491783 
L 615.54837 67.465885 
L 627.678804 92.250013 
L 639.809239 122.184269 
L 651.939674 148.327659 
L 664.070109 167.40466 
L 676.200543 184.011619 
L 688.330978 201.015348 
L 700.461413 221.04957 
L 712.591848 241.508395 
L 724.722283 257.399219 
L 736.852717 269.514093 
L 748.983152 279.501829 
L 761.113587 283.654956 
L 773.244022 282.925134 
L 785.374457 281.569749 
L 797.504891 280.839927 
L 809.635326 282.050157 
L 821.765761 284.297727 
L 833.896196 285.507957 
L 846.02663 282.40194 
L 858.157065 274.377564 
L 870.2875 263.375338 
" style="fill:none;stroke:#ff0000;stroke-linecap:square;stroke-width:1.5;"/>
    <defs>
     <path d="M 0 3 
C 0.795609 3 1.55874 2.683901 2.12132 2.12132 
C 2.683901 1.55874 3 0.795609 3 0 
C 3 -0.795609 2.683901 -1.55874 2.12132 -2.12132 
C 1.55874 -2.683901 0.795609 -3 0 -3 
C -0.795609 -3 -1.55874 -2.683901 -2.12132 -2.12132 
C -2.683901 -1.55874 -3 -0.795609 -3 0 
C -3 0.795609 -2.683901 1.55874 -2.12132 2.12132 
C -1.55874 2.683901 -0.795609 3 0 3 
z
" id="m2b454516dc" style="stroke:#ff0000;"/>
    </defs>
    <g clip-path="url(#pa8fdfe667a)">
     <use style="fill:#ff0000;stroke:#ff0000;" x="33.2875" xlink:href="#m2b454516dc" y="49.164436"/>
     <use style="fill:#ff0000;stroke:#ff0000;" x="45.417935" xlink:href="#m2b454516dc" y="35.041924"/>
     <use style="fill:#ff0000;stroke:#ff0000;" x="57.54837" xlink:href="#m2b454516dc" y="24.426658"/>
     <use style="fill:#ff0000;stroke:#ff0000;" x="69.678804" xlink:href="#m2b454516dc" y="20.239219"/>
     <use style="fill:#ff0000;stroke:#ff0000;" x="81.809239" xlink:href="#m2b454516dc" y="20.589834"/>
     <use style="fill:#ff0000;stroke:#ff0000;" x="93.939674" xlink:href="#m2b454516dc" y="21.527115"/>
     <use style="fill:#ff0000;stroke:#ff0000;" x="106.070109" xlink:href="#m2b454516dc" y="22.879219"/>
     <use style="fill:#ff0000;stroke:#ff0000;" x="118.200543" xlink:href="#m2b454516dc" y="26.019246"/>
     <use style="fill:#ff0000;stroke:#ff0000;" x="130.330978" xlink:href="#m2b454516dc" y="31.576802"/>
     <use style="fill:#ff0000;stroke:#ff0000;" x="142.461413" xlink:href="#m2b454516dc" y="38.264793"/>
     <use style="fill:#ff0000;stroke:#ff0000;" x="154.591848" xlink:href="#m2b454516dc" y="46.54379"/>
     <use style="fill:#ff0000;stroke:#ff0000;" x="166.722283" xlink:href="#m2b454516dc" y="57.069971"/>
     <use style="fill:#ff0000;stroke:#ff0000;" x="178.852717" xlink:href="#m2b454516dc" y="68.849654"/>
     <use style="fill:#ff0000;stroke:#ff0000;" x="190.983152" xlink:href="#m2b454516dc" y="80.925447"/>
     <use style="fill:#ff0000;stroke:#ff0000;" x="203.113587" xlink:href="#m2b454516dc" y="94.821664"/>
     <use style="fill:#ff0000;stroke:#ff0000;" x="215.244022" xlink:href="#m2b454516dc" y="113.26718"/>
     <use style="fill:#ff0000;stroke:#ff0000;" x="227.374457" xlink:href="#m2b454516dc" y="149.485623"/>
     <use style="fill:#ff0000;stroke:#ff0000;" x="239.504891" xlink:href="#m2b454516dc" y="198.032008"/>
     <use style="fill:#ff0000;stroke:#ff0000;" x="251.635326" xlink:href="#m2b454516dc" y="233.63229"/>
     <use style="fill:#ff0000;stroke:#ff0000;" x="263.765761" xlink:href="#m2b454516dc" y="252.917782"/>
     <use style="fill:#ff0000;stroke:#ff0000;" x="275.896196" xlink:href="#m2b454516dc" y="267.701872"/>
     <use style="fill:#ff0000;stroke:#ff0000;" x="288.02663" xlink:href="#m2b454516dc" y="275.483622"/>
     <use style="fill:#ff0000;stroke:#ff0000;" x="300.157065" xlink:href="#m2b454516dc" y="278.545017"/>
     <use style="fill:#ff0000;stroke:#ff0000;" x="312.2875" xlink:href="#m2b454516dc" y="280.619388"/>
     <use style="fill:#ff0000;stroke:#ff0000;" x="324.417935" xlink:href="#m2b454516dc" y="281.382825"/>
     <use style="fill:#ff0000;stroke:#ff0000;" x="336.54837" xlink:href="#m2b454516dc" y="281.015385"/>
     <use style="fill:#ff0000;stroke:#ff0000;" x="348.678804" xlink:href="#m2b454516dc" y="280.332996"/>
     <use style="fill:#ff0000;stroke:#ff0000;" x="360.809239" xlink:href="#m2b454516dc" y="279.965555"/>
     <use style="fill:#ff0000;stroke:#ff0000;" x="372.939674" xlink:href="#m2b454516dc" y="281.066156"/>
     <use style="fill:#ff0000;stroke:#ff0000;" x="385.070109" xlink:href="#m2b454516dc" y="283.110129"/>
     <use style="fill:#ff0000;stroke:#ff0000;" x="397.200543" xlink:href="#m2b454516dc" y="284.21073"/>
     <use style="fill:#ff0000;stroke:#ff0000;" x="409.330978" xlink:href="#m2b454516dc" y="269.756803"/>
     <use style="fill:#ff0000;stroke:#ff0000;" x="421.461413" xlink:href="#m2b454516dc" y="235.794614"/>
     <use style="fill:#ff0000;stroke:#ff0000;" x="433.591848" xlink:href="#m2b454516dc" y="196.423543"/>
     <use style="fill:#ff0000;stroke:#ff0000;" x="445.722283" xlink:href="#m2b454516dc" y="142.738558"/>
     <use style="fill:#ff0000;stroke:#ff0000;" x="457.852717" xlink:href="#m2b454516dc" y="79.494724"/>
     <use style="fill:#ff0000;stroke:#ff0000;" x="469.983152" xlink:href="#m2b454516dc" y="41.281572"/>
     <use style="fill:#ff0000;stroke:#ff0000;" x="482.113587" xlink:href="#m2b454516dc" y="28.600383"/>
     <use style="fill:#ff0000;stroke:#ff0000;" x="494.244022" xlink:href="#m2b454516dc" y="19.892238"/>
     <use style="fill:#ff0000;stroke:#ff0000;" x="506.374457" xlink:href="#m2b454516dc" y="16.656362"/>
     <use style="fill:#ff0000;stroke:#ff0000;" x="518.504891" xlink:href="#m2b454516dc" y="17.695482"/>
     <use style="fill:#ff0000;stroke:#ff0000;" x="530.635326" xlink:href="#m2b454516dc" y="19.758941"/>
     <use style="fill:#ff0000;stroke:#ff0000;" x="542.765761" xlink:href="#m2b454516dc" y="21.265885"/>
     <use style="fill:#ff0000;stroke:#ff0000;" x="554.896196" xlink:href="#m2b454516dc" y="21.735302"/>
     <use style="fill:#ff0000;stroke:#ff0000;" x="567.02663" xlink:href="#m2b454516dc" y="22.040028"/>
     <use style="fill:#ff0000;stroke:#ff0000;" x="579.157065" xlink:href="#m2b454516dc" y="22.629988"/>
     <use style="fill:#ff0000;stroke:#ff0000;" x="591.2875" xlink:href="#m2b454516dc" y="30.373303"/>
     <use style="fill:#ff0000;stroke:#ff0000;" x="603.417935" xlink:href="#m2b454516dc" y="47.491783"/>
     <use style="fill:#ff0000;stroke:#ff0000;" x="615.54837" xlink:href="#m2b454516dc" y="67.465885"/>
     <use style="fill:#ff0000;stroke:#ff0000;" x="627.678804" xlink:href="#m2b454516dc" y="92.250013"/>
     <use style="fill:#ff0000;stroke:#ff0000;" x="639.809239" xlink:href="#m2b454516dc" y="122.184269"/>
     <use style="fill:#ff0000;stroke:#ff0000;" x="651.939674" xlink:href="#m2b454516dc" y="148.327659"/>
     <use style="fill:#ff0000;stroke:#ff0000;" x="664.070109" xlink:href="#m2b454516dc" y="167.40466"/>
     <use style="fill:#ff0000;stroke:#ff0000;" x="676.200543" xlink:href="#m2b454516dc" y="184.011619"/>
     <use style="fill:#ff0000;stroke:#ff0000;" x="688.330978" xlink:href="#m2b454516dc" y="201.015348"/>
     <use style="fill:#ff0000;stroke:#ff0000;" x="700.461413" xlink:href="#m2b454516dc" y="221.04957"/>
     <use style="fill:#ff0000;stroke:#ff0000;" x="712.591848" xlink:href="#m2b454516dc" y="241.508395"/>
     <use style="fill:#ff0000;stroke:#ff0000;" x="724.722283" xlink:href="#m2b454516dc" y="257.399219"/>
     <use style="fill:#ff0000;stroke:#ff0000;" x="736.852717" xlink:href="#m2b454516dc" y="269.514093"/>
     <use style="fill:#ff0000;stroke:#ff0000;" x="748.983152" xlink:href="#m2b454516dc" y="279.501829"/>
     <use style="fill:#ff0000;stroke:#ff0000;" x="761.113587" xlink:href="#m2b454516dc" y="283.654956"/>
     <use style="fill:#ff0000;stroke:#ff0000;" x="773.244022" xlink:href="#m2b454516dc" y="282.925134"/>
     <use style="fill:#ff0000;stroke:#ff0000;" x="785.374457" xlink:href="#m2b454516dc" y="281.569749"/>
     <use style="fill:#ff0000;stroke:#ff0000;" x="797.504891" xlink:href="#m2b454516dc" y="280.839927"/>
     <use style="fill:#ff0000;stroke:#ff0000;" x="809.635326" xlink:href="#m2b454516dc" y="282.050157"/>
     <use style="fill:#ff0000;stroke:#ff0000;" x="821.765761" xlink:href="#m2b454516dc" y="284.297727"/>
     <use style="fill:#ff0000;stroke:#ff0000;" x="833.896196" xlink:href="#m2b454516dc" y="285.507957"/>
     <use style="fill:#ff0000;stroke:#ff0000;" x="846.02663" xlink:href="#m2b454516dc" y="282.40194"/>
     <use style="fill:#ff0000;stroke:#ff0000;" x="858.157065" xlink:href="#m2b454516dc" y="274.377564"/>
     <use style="fill:#ff0000;stroke:#ff0000;" x="870.2875" xlink:href="#m2b454516dc" y="263.375338"/>
    </g>
   </g>
   <g id="line2d_15">
    <path clip-path="url(#pa8fdfe667a)" d="M 33.2875 282.173132 
L 45.417935 282.052019 
L 57.54837 281.730037 
L 69.678804 281.269219 
L 81.809239 280.29179 
L 93.939674 278.554067 
L 106.070109 276.319219 
L 118.200543 273.243239 
L 130.330978 268.850287 
L 142.461413 263.205776 
L 154.591848 254.708157 
L 166.722283 243.074639 
L 178.852717 230.348784 
L 190.983152 218.043821 
L 203.113587 204.262188 
L 215.244022 185.931258 
L 227.374457 145.112249 
L 239.504891 91.965297 
L 251.635326 65.566148 
L 263.765761 92.411346 
L 275.896196 143.864505 
L 288.02663 176.301971 
L 300.157065 182.029531 
L 312.2875 185.319403 
L 324.417935 190.497579 
L 336.54837 206.390362 
L 348.678804 229.803221 
L 360.809239 247.030902 
L 372.939674 254.750564 
L 385.070109 260.366139 
L 397.200543 266.262528 
L 409.330978 274.986157 
L 421.461413 284.030098 
L 433.591848 288.199219 
L 445.722283 288.199219 
L 457.852717 288.199219 
L 469.983152 288.199219 
L 482.113587 287.925555 
L 494.244022 287.232844 
L 506.374457 286.313504 
L 518.504891 284.5713 
L 530.635326 282.068634 
L 542.765761 279.985885 
L 554.896196 278.912834 
L 567.02663 278.066572 
L 579.157065 276.56845 
L 591.2875 268.276519 
L 603.417935 251.432346 
L 615.54837 231.732552 
L 627.678804 206.948425 
L 639.809239 177.014169 
L 651.939674 150.870778 
L 664.070109 127.758729 
L 676.200543 107.116722 
L 688.330978 98.18309 
L 700.461413 131.078245 
L 712.591848 195.362169 
L 724.722283 239.432552 
L 736.852717 254.813346 
L 748.983152 265.816604 
L 761.113587 270.02217 
L 773.244022 268.374856 
L 785.374457 265.315559 
L 797.504891 263.668245 
L 809.635326 267.934923 
L 821.765761 275.858754 
L 833.896196 280.125432 
L 846.02663 280.041377 
L 858.157065 279.452989 
L 870.2875 277.855935 
" style="fill:none;stroke:#008000;stroke-linecap:square;stroke-width:1.5;"/>
    <defs>
     <path d="M 0 3 
C 0.795609 3 1.55874 2.683901 2.12132 2.12132 
C 2.683901 1.55874 3 0.795609 3 0 
C 3 -0.795609 2.683901 -1.55874 2.12132 -2.12132 
C 1.55874 -2.683901 0.795609 -3 0 -3 
C -0.795609 -3 -1.55874 -2.683901 -2.12132 -2.12132 
C -2.683901 -1.55874 -3 -0.795609 -3 0 
C -3 0.795609 -2.683901 1.55874 -2.12132 2.12132 
C -1.55874 2.683901 -0.795609 3 0 3 
z
" id="m0c7bad217d" style="stroke:#008000;"/>
    </defs>
    <g clip-path="url(#pa8fdfe667a)">
     <use style="fill:#008000;stroke:#008000;" x="33.2875" xlink:href="#m0c7bad217d" y="282.173132"/>
     <use style="fill:#008000;stroke:#008000;" x="45.417935" xlink:href="#m0c7bad217d" y="282.052019"/>
     <use style="fill:#008000;stroke:#008000;" x="57.54837" xlink:href="#m0c7bad217d" y="281.730037"/>
     <use style="fill:#008000;stroke:#008000;" x="69.678804" xlink:href="#m0c7bad217d" y="281.269219"/>
     <use style="fill:#008000;stroke:#008000;" x="81.809239" xlink:href="#m0c7bad217d" y="280.29179"/>
     <use style="fill:#008000;stroke:#008000;" x="93.939674" xlink:href="#m0c7bad217d" y="278.554067"/>
     <use style="fill:#008000;stroke:#008000;" x="106.070109" xlink:href="#m0c7bad217d" y="276.319219"/>
     <use style="fill:#008000;stroke:#008000;" x="118.200543" xlink:href="#m0c7bad217d" y="273.243239"/>
     <use style="fill:#008000;stroke:#008000;" x="130.330978" xlink:href="#m0c7bad217d" y="268.850287"/>
     <use style="fill:#008000;stroke:#008000;" x="142.461413" xlink:href="#m0c7bad217d" y="263.205776"/>
     <use style="fill:#008000;stroke:#008000;" x="154.591848" xlink:href="#m0c7bad217d" y="254.708157"/>
     <use style="fill:#008000;stroke:#008000;" x="166.722283" xlink:href="#m0c7bad217d" y="243.074639"/>
     <use style="fill:#008000;stroke:#008000;" x="178.852717" xlink:href="#m0c7bad217d" y="230.348784"/>
     <use style="fill:#008000;stroke:#008000;" x="190.983152" xlink:href="#m0c7bad217d" y="218.043821"/>
     <use style="fill:#008000;stroke:#008000;" x="203.113587" xlink:href="#m0c7bad217d" y="204.262188"/>
     <use style="fill:#008000;stroke:#008000;" x="215.244022" xlink:href="#m0c7bad217d" y="185.931258"/>
     <use style="fill:#008000;stroke:#008000;" x="227.374457" xlink:href="#m0c7bad217d" y="145.112249"/>
     <use style="fill:#008000;stroke:#008000;" x="239.504891" xlink:href="#m0c7bad217d" y="91.965297"/>
     <use style="fill:#008000;stroke:#008000;" x="251.635326" xlink:href="#m0c7bad217d" y="65.566148"/>
     <use style="fill:#008000;stroke:#008000;" x="263.765761" xlink:href="#m0c7bad217d" y="92.411346"/>
     <use style="fill:#008000;stroke:#008000;" x="275.896196" xlink:href="#m0c7bad217d" y="143.864505"/>
     <use style="fill:#008000;stroke:#008000;" x="288.02663" xlink:href="#m0c7bad217d" y="176.301971"/>
     <use style="fill:#008000;stroke:#008000;" x="300.157065" xlink:href="#m0c7bad217d" y="182.029531"/>
     <use style="fill:#008000;stroke:#008000;" x="312.2875" xlink:href="#m0c7bad217d" y="185.319403"/>
     <use style="fill:#008000;stroke:#008000;" x="324.417935" xlink:href="#m0c7bad217d" y="190.497579"/>
     <use style="fill:#008000;stroke:#008000;" x="336.54837" xlink:href="#m0c7bad217d" y="206.390362"/>
     <use style="fill:#008000;stroke:#008000;" x="348.678804" xlink:href="#m0c7bad217d" y="229.803221"/>
     <use style="fill:#008000;stroke:#008000;" x="360.809239" xlink:href="#m0c7bad217d" y="247.030902"/>
     <use style="fill:#008000;stroke:#008000;" x="372.939674" xlink:href="#m0c7bad217d" y="254.750564"/>
     <use style="fill:#008000;stroke:#008000;" x="385.070109" xlink:href="#m0c7bad217d" y="260.366139"/>
     <use style="fill:#008000;stroke:#008000;" x="397.200543" xlink:href="#m0c7bad217d" y="266.262528"/>
     <use style="fill:#008000;stroke:#008000;" x="409.330978" xlink:href="#m0c7bad217d" y="274.986157"/>
     <use style="fill:#008000;stroke:#008000;" x="421.461413" xlink:href="#m0c7bad217d" y="284.030098"/>
     <use style="fill:#008000;stroke:#008000;" x="433.591848" xlink:href="#m0c7bad217d" y="288.199219"/>
     <use style="fill:#008000;stroke:#008000;" x="445.722283" xlink:href="#m0c7bad217d" y="288.199219"/>
     <use style="fill:#008000;stroke:#008000;" x="457.852717" xlink:href="#m0c7bad217d" y="288.199219"/>
     <use style="fill:#008000;stroke:#008000;" x="469.983152" xlink:href="#m0c7bad217d" y="288.199219"/>
     <use style="fill:#008000;stroke:#008000;" x="482.113587" xlink:href="#m0c7bad217d" y="287.925555"/>
     <use style="fill:#008000;stroke:#008000;" x="494.244022" xlink:href="#m0c7bad217d" y="287.232844"/>
     <use style="fill:#008000;stroke:#008000;" x="506.374457" xlink:href="#m0c7bad217d" y="286.313504"/>
     <use style="fill:#008000;stroke:#008000;" x="518.504891" xlink:href="#m0c7bad217d" y="284.5713"/>
     <use style="fill:#008000;stroke:#008000;" x="530.635326" xlink:href="#m0c7bad217d" y="282.068634"/>
     <use style="fill:#008000;stroke:#008000;" x="542.765761" xlink:href="#m0c7bad217d" y="279.985885"/>
     <use style="fill:#008000;stroke:#008000;" x="554.896196" xlink:href="#m0c7bad217d" y="278.912834"/>
     <use style="fill:#008000;stroke:#008000;" x="567.02663" xlink:href="#m0c7bad217d" y="278.066572"/>
     <use style="fill:#008000;stroke:#008000;" x="579.157065" xlink:href="#m0c7bad217d" y="276.56845"/>
     <use style="fill:#008000;stroke:#008000;" x="591.2875" xlink:href="#m0c7bad217d" y="268.276519"/>
     <use style="fill:#008000;stroke:#008000;" x="603.417935" xlink:href="#m0c7bad217d" y="251.432346"/>
     <use style="fill:#008000;stroke:#008000;" x="615.54837" xlink:href="#m0c7bad217d" y="231.732552"/>
     <use style="fill:#008000;stroke:#008000;" x="627.678804" xlink:href="#m0c7bad217d" y="206.948425"/>
     <use style="fill:#008000;stroke:#008000;" x="639.809239" xlink:href="#m0c7bad217d" y="177.014169"/>
     <use style="fill:#008000;stroke:#008000;" x="651.939674" xlink:href="#m0c7bad217d" y="150.870778"/>
     <use style="fill:#008000;stroke:#008000;" x="664.070109" xlink:href="#m0c7bad217d" y="127.758729"/>
     <use style="fill:#008000;stroke:#008000;" x="676.200543" xlink:href="#m0c7bad217d" y="107.116722"/>
     <use style="fill:#008000;stroke:#008000;" x="688.330978" xlink:href="#m0c7bad217d" y="98.18309"/>
     <use style="fill:#008000;stroke:#008000;" x="700.461413" xlink:href="#m0c7bad217d" y="131.078245"/>
     <use style="fill:#008000;stroke:#008000;" x="712.591848" xlink:href="#m0c7bad217d" y="195.362169"/>
     <use style="fill:#008000;stroke:#008000;" x="724.722283" xlink:href="#m0c7bad217d" y="239.432552"/>
     <use style="fill:#008000;stroke:#008000;" x="736.852717" xlink:href="#m0c7bad217d" y="254.813346"/>
     <use style="fill:#008000;stroke:#008000;" x="748.983152" xlink:href="#m0c7bad217d" y="265.816604"/>
     <use style="fill:#008000;stroke:#008000;" x="761.113587" xlink:href="#m0c7bad217d" y="270.02217"/>
     <use style="fill:#008000;stroke:#008000;" x="773.244022" xlink:href="#m0c7bad217d" y="268.374856"/>
     <use style="fill:#008000;stroke:#008000;" x="785.374457" xlink:href="#m0c7bad217d" y="265.315559"/>
     <use style="fill:#008000;stroke:#008000;" x="797.504891" xlink:href="#m0c7bad217d" y="263.668245"/>
     <use style="fill:#008000;stroke:#008000;" x="809.635326" xlink:href="#m0c7bad217d" y="267.934923"/>
     <use style="fill:#008000;stroke:#008000;" x="821.765761" xlink:href="#m0c7bad217d" y="275.858754"/>
     <use style="fill:#008000;stroke:#008000;" x="833.896196" xlink:href="#m0c7bad217d" y="280.125432"/>
     <use style="fill:#008000;stroke:#008000;" x="846.02663" xlink:href="#m0c7bad217d" y="280.041377"/>
     <use style="fill:#008000;stroke:#008000;" x="858.157065" xlink:href="#m0c7bad217d" y="279.452989"/>
     <use style="fill:#008000;stroke:#008000;" x="870.2875" xlink:href="#m0c7bad217d" y="277.855935"/>
    </g>
   </g>
   <g id="line2d_16">
    <path clip-path="url(#pa8fdfe667a)" d="M 33.2875 256.060088 
L 45.417935 269.933526 
L 57.54837 280.749283 
L 69.678804 285.889219 
L 81.809239 287.123358 
L 93.939674 287.917955 
L 106.070109 288.199219 
L 118.200543 287.610148 
L 130.330978 286.516159 
L 142.461413 285.927088 
L 154.591848 286.516159 
L 166.722283 287.610148 
L 178.852717 288.199219 
L 190.983152 288.199219 
L 203.113587 288.199219 
L 215.244022 288.199219 
L 227.374457 288.199219 
L 239.504891 288.199219 
L 251.635326 288.199219 
L 263.765761 251.270164 
L 275.896196 180.432851 
L 288.02663 135.612063 
L 300.157065 127.322754 
L 312.2875 122.459665 
L 324.417935 115.517252 
L 336.54837 99.303782 
L 348.678804 77.38714 
L 360.809239 60.401199 
L 372.939674 49.436415 
L 385.070109 40.571873 
L 397.200543 36.924399 
L 409.330978 47.148066 
L 421.461413 72.005176 
L 433.591848 102.774894 
L 445.722283 153.339907 
L 457.852717 217.834862 
L 469.983152 257.916866 
L 482.113587 271.259723 
L 494.244022 280.430853 
L 506.374457 284.42779 
L 518.504891 285.212726 
L 530.635326 285.662337 
L 542.765761 286.145885 
L 554.896196 286.955389 
L 567.02663 287.805452 
L 579.157065 288.199219 
L 591.2875 288.199219 
L 603.417935 288.199219 
L 615.54837 288.199219 
L 627.678804 288.199219 
L 639.809239 288.199219 
L 651.939674 288.199219 
L 664.070109 288.199219 
L 676.200543 288.199219 
L 688.330978 288.199219 
L 700.461413 243.501282 
L 712.591848 154.884827 
L 724.722283 90.565885 
L 736.852717 62.747531 
L 748.983152 41.91788 
L 761.113587 33.72053 
L 773.244022 36.097666 
L 785.374457 40.512348 
L 797.504891 42.889484 
L 809.635326 37.412576 
L 821.765761 27.241175 
L 833.896196 21.764267 
L 846.02663 24.59698 
L 858.157065 32.852385 
L 870.2875 46.166383 
" style="fill:none;stroke:#0000ff;stroke-linecap:square;stroke-width:1.5;"/>
    <defs>
     <path d="M 0 3 
C 0.795609 3 1.55874 2.683901 2.12132 2.12132 
C 2.683901 1.55874 3 0.795609 3 0 
C 3 -0.795609 2.683901 -1.55874 2.12132 -2.12132 
C 1.55874 -2.683901 0.795609 -3 0 -3 
C -0.795609 -3 -1.55874 -2.683901 -2.12132 -2.12132 
C -2.683901 -1.55874 -3 -0.795609 -3 0 
C -3 0.795609 -2.683901 1.55874 -2.12132 2.12132 
C -1.55874 2.683901 -0.795609 3 0 3 
z
" id="m49f369ec52" style="stroke:#0000ff;"/>
    </defs>
    <g clip-path="url(#pa8fdfe667a)">
     <use style="fill:#0000ff;stroke:#0000ff;" x="33.2875" xlink:href="#m49f369ec52" y="256.060088"/>
     <use style="fill:#0000ff;stroke:#0000ff;" x="45.417935" xlink:href="#m49f369ec52" y="269.933526"/>
     <use style="fill:#0000ff;stroke:#0000ff;" x="57.54837" xlink:href="#m49f369ec52" y="280.749283"/>
     <use style="fill:#0000ff;stroke:#0000ff;" x="69.678804" xlink:href="#m49f369ec52" y="285.889219"/>
     <use style="fill:#0000ff;stroke:#0000ff;" x="81.809239" xlink:href="#m49f369ec52" y="287.123358"/>
     <use style="fill:#0000ff;stroke:#0000ff;" x="93.939674" xlink:href="#m49f369ec52" y="287.917955"/>
     <use style="fill:#0000ff;stroke:#0000ff;" x="106.070109" xlink:href="#m49f369ec52" y="288.199219"/>
     <use style="fill:#0000ff;stroke:#0000ff;" x="118.200543" xlink:href="#m49f369ec52" y="287.610148"/>
     <use style="fill:#0000ff;stroke:#0000ff;" x="130.330978" xlink:href="#m49f369ec52" y="286.516159"/>
     <use style="fill:#0000ff;stroke:#0000ff;" x="142.461413" xlink:href="#m49f369ec52" y="285.927088"/>
     <use style="fill:#0000ff;stroke:#0000ff;" x="154.591848" xlink:href="#m49f369ec52" y="286.516159"/>
     <use style="fill:#0000ff;stroke:#0000ff;" x="166.722283" xlink:href="#m49f369ec52" y="287.610148"/>
     <use style="fill:#0000ff;stroke:#0000ff;" x="178.852717" xlink:href="#m49f369ec52" y="288.199219"/>
     <use style="fill:#0000ff;stroke:#0000ff;" x="190.983152" xlink:href="#m49f369ec52" y="288.199219"/>
     <use style="fill:#0000ff;stroke:#0000ff;" x="203.113587" xlink:href="#m49f369ec52" y="288.199219"/>
     <use style="fill:#0000ff;stroke:#0000ff;" x="215.244022" xlink:href="#m49f369ec52" y="288.199219"/>
     <use style="fill:#0000ff;stroke:#0000ff;" x="227.374457" xlink:href="#m49f369ec52" y="288.199219"/>
     <use style="fill:#0000ff;stroke:#0000ff;" x="239.504891" xlink:href="#m49f369ec52" y="288.199219"/>
     <use style="fill:#0000ff;stroke:#0000ff;" x="251.635326" xlink:href="#m49f369ec52" y="288.199219"/>
     <use style="fill:#0000ff;stroke:#0000ff;" x="263.765761" xlink:href="#m49f369ec52" y="251.270164"/>
     <use style="fill:#0000ff;stroke:#0000ff;" x="275.896196" xlink:href="#m49f369ec52" y="180.432851"/>
     <use style="fill:#0000ff;stroke:#0000ff;" x="288.02663" xlink:href="#m49f369ec52" y="135.612063"/>
     <use style="fill:#0000ff;stroke:#0000ff;" x="300.157065" xlink:href="#m49f369ec52" y="127.322754"/>
     <use style="fill:#0000ff;stroke:#0000ff;" x="312.2875" xlink:href="#m49f369ec52" y="122.459665"/>
     <use style="fill:#0000ff;stroke:#0000ff;" x="324.417935" xlink:href="#m49f369ec52" y="115.517252"/>
     <use style="fill:#0000ff;stroke:#0000ff;" x="336.54837" xlink:href="#m49f369ec52" y="99.303782"/>
     <use style="fill:#0000ff;stroke:#0000ff;" x="348.678804" xlink:href="#m49f369ec52" y="77.38714"/>
     <use style="fill:#0000ff;stroke:#0000ff;" x="360.809239" xlink:href="#m49f369ec52" y="60.401199"/>
     <use style="fill:#0000ff;stroke:#0000ff;" x="372.939674" xlink:href="#m49f369ec52" y="49.436415"/>
     <use style="fill:#0000ff;stroke:#0000ff;" x="385.070109" xlink:href="#m49f369ec52" y="40.571873"/>
     <use style="fill:#0000ff;stroke:#0000ff;" x="397.200543" xlink:href="#m49f369ec52" y="36.924399"/>
     <use style="fill:#0000ff;stroke:#0000ff;" x="409.330978" xlink:href="#m49f369ec52" y="47.148066"/>
     <use style="fill:#0000ff;stroke:#0000ff;" x="421.461413" xlink:href="#m49f369ec52" y="72.005176"/>
     <use style="fill:#0000ff;stroke:#0000ff;" x="433.591848" xlink:href="#m49f369ec52" y="102.774894"/>
     <use style="fill:#0000ff;stroke:#0000ff;" x="445.722283" xlink:href="#m49f369ec52" y="153.339907"/>
     <use style="fill:#0000ff;stroke:#0000ff;" x="457.852717" xlink:href="#m49f369ec52" y="217.834862"/>
     <use style="fill:#0000ff;stroke:#0000ff;" x="469.983152" xlink:href="#m49f369ec52" y="257.916866"/>
     <use style="fill:#0000ff;stroke:#0000ff;" x="482.113587" xlink:href="#m49f369ec52" y="271.259723"/>
     <use style="fill:#0000ff;stroke:#0000ff;" x="494.244022" xlink:href="#m49f369ec52" y="280.430853"/>
     <use style="fill:#0000ff;stroke:#0000ff;" x="506.374457" xlink:href="#m49f369ec52" y="284.42779"/>
     <use style="fill:#0000ff;stroke:#0000ff;" x="518.504891" xlink:href="#m49f369ec52" y="285.212726"/>
     <use style="fill:#0000ff;stroke:#0000ff;" x="530.635326" xlink:href="#m49f369ec52" y="285.662337"/>
     <use style="fill:#0000ff;stroke:#0000ff;" x="542.765761" xlink:href="#m49f369ec52" y="286.145885"/>
     <use style="fill:#0000ff;stroke:#0000ff;" x="554.896196" xlink:href="#m49f369ec52" y="286.955389"/>
     <use style="fill:#0000ff;stroke:#0000ff;" x="567.02663" xlink:href="#m49f369ec52" y="287.805452"/>
     <use style="fill:#0000ff;stroke:#0000ff;" x="579.157065" xlink:href="#m49f369ec52" y="288.199219"/>
     <use style="fill:#0000ff;stroke:#0000ff;" x="591.2875" xlink:href="#m49f369ec52" y="288.199219"/>
     <use style="fill:#0000ff;stroke:#0000ff;" x="603.417935" xlink:href="#m49f369ec52" y="288.199219"/>
     <use style="fill:#0000ff;stroke:#0000ff;" x="615.54837" xlink:href="#m49f369ec52" y="288.199219"/>
     <use style="fill:#0000ff;stroke:#0000ff;" x="627.678804" xlink:href="#m49f369ec52" y="288.199219"/>
     <use style="fill:#0000ff;stroke:#0000ff;" x="639.809239" xlink:href="#m49f369ec52" y="288.199219"/>
     <use style="fill:#0000ff;stroke:#0000ff;" x="651.939674" xlink:href="#m49f369ec52" y="288.199219"/>
     <use style="fill:#0000ff;stroke:#0000ff;" x="664.070109" xlink:href="#m49f369ec52" y="288.199219"/>
     <use style="fill:#0000ff;stroke:#0000ff;" x="676.200543" xlink:href="#m49f369ec52" y="288.199219"/>
     <use style="fill:#0000ff;stroke:#0000ff;" x="688.330978" xlink:href="#m49f369ec52" y="288.199219"/>
     <use style="fill:#0000ff;stroke:#0000ff;" x="700.461413" xlink:href="#m49f369ec52" y="243.501282"/>
     <use style="fill:#0000ff;stroke:#0000ff;" x="712.591848" xlink:href="#m49f369ec52" y="154.884827"/>
     <use style="fill:#0000ff;stroke:#0000ff;" x="724.722283" xlink:href="#m49f369ec52" y="90.565885"/>
     <use style="fill:#0000ff;stroke:#0000ff;" x="736.852717" xlink:href="#m49f369ec52" y="62.747531"/>
     <use style="fill:#0000ff;stroke:#0000ff;" x="748.983152" xlink:href="#m49f369ec52" y="41.91788"/>
     <use style="fill:#0000ff;stroke:#0000ff;" x="761.113587" xlink:href="#m49f369ec52" y="33.72053"/>
     <use style="fill:#0000ff;stroke:#0000ff;" x="773.244022" xlink:href="#m49f369ec52" y="36.097666"/>
     <use style="fill:#0000ff;stroke:#0000ff;" x="785.374457" xlink:href="#m49f369ec52" y="40.512348"/>
     <use style="fill:#0000ff;stroke:#0000ff;" x="797.504891" xlink:href="#m49f369ec52" y="42.889484"/>
     <use style="fill:#0000ff;stroke:#0000ff;" x="809.635326" xlink:href="#m49f369ec52" y="37.412576"/>
     <use style="fill:#0000ff;stroke:#0000ff;" x="821.765761" xlink:href="#m49f369ec52" y="27.241175"/>
     <use style="fill:#0000ff;stroke:#0000ff;" x="833.896196" xlink:href="#m49f369ec52" y="21.764267"/>
     <use style="fill:#0000ff;stroke:#0000ff;" x="846.02663" xlink:href="#m49f369ec52" y="24.59698"/>
     <use style="fill:#0000ff;stroke:#0000ff;" x="858.157065" xlink:href="#m49f369ec52" y="32.852385"/>
     <use style="fill:#0000ff;stroke:#0000ff;" x="870.2875" xlink:href="#m49f369ec52" y="46.166383"/>
    </g>
   </g>
   <g id="patch_3">
    <path d="M 33.2875 288.199219 
L 33.2875 10.999219 
" style="fill:none;stroke:#000000;stroke-linecap:square;stroke-linejoin:miter;stroke-width:0.8;"/>
   </g>
   <g id="patch_4">
    <path d="M 870.2875 288.199219 
L 870.2875 10.999219 
" style="fill:none;stroke:#000000;stroke-linecap:square;stroke-linejoin:miter;stroke-width:0.8;"/>
   </g>
   <g id="patch_5">
    <path d="M 33.2875 288.199219 
L 870.2875 288.199219 
" style="fill:none;stroke:#000000;stroke-linecap:square;stroke-linejoin:miter;stroke-width:0.8;"/>
   </g>
   <g id="patch_6">
    <path d="M 33.2875 10.999219 
L 870.2875 10.999219 
" style="fill:none;stroke:#000000;stroke-linecap:square;stroke-linejoin:miter;stroke-width:0.8;"/>
   </g>
  </g>
 </g>
 <defs>
  <clipPath id="pa8fdfe667a">
   <rect height="277.2" width="837" x="33.2875" y="10.999219"/>
  </clipPath>
 </defs>
</svg>
