<?xml version="1.0" encoding="utf-8" standalone="no"?>
<!DOCTYPE svg PUBLIC "-//W3C//DTD SVG 1.1//EN"
  "http://www.w3.org/Graphics/SVG/1.1/DTD/svg11.dtd">
<!-- Created with matplotlib (http://matplotlib.org/) -->
<svg height="323pt" version="1.1" viewBox="0 0 876 323" width="876pt" xmlns="http://www.w3.org/2000/svg" xmlns:xlink="http://www.w3.org/1999/xlink">
 <defs>
  <style type="text/css">
*{stroke-linecap:butt;stroke-linejoin:round;}
  </style>
 </defs>
 <g id="figure_1">
  <g id="patch_1">
   <path d="
M0 323.821
L876.19 323.821
L876.19 0
L0 0
z
" style="fill:#ffffff;"/>
  </g>
  <g id="axes_1">
   <g id="patch_2">
    <path d="
M31.99 301.007
L868.99 301.007
L868.99 13.0069
L31.99 13.0069
z
" style="fill:#ffffff;"/>
   </g>
   <g id="PolyCollection_1">
    <defs>
     <path d="
M31.99 -310.814
L31.99 -22.8137
L31.99 -22.8137
L31.99 -310.814
L31.99 -310.814
L31.99 -310.814
z
" id="m5d11d200be" style="stroke:#000000;stroke-opacity:0.3;"/>
    </defs>
    <g clip-path="url(#p3e29ac047c)">
     <use style="fill:#808080;fill-opacity:0.3;stroke:#000000;stroke-opacity:0.3;" x="0.0" xlink:href="#m5d11d200be" y="323.820625"/>
    </g>
   </g>
   <g id="PolyCollection_2">
    <defs>
     <path d="
M553.599 -310.814
L553.599 -22.8137
L868.99 -22.8137
L868.99 -310.814
L868.99 -310.814
L553.599 -310.814
z
" id="m4f205f2d49" style="stroke:#000000;stroke-opacity:0.3;"/>
    </defs>
    <g clip-path="url(#p3e29ac047c)">
     <use style="fill:#808080;fill-opacity:0.3;stroke:#000000;stroke-opacity:0.3;" x="0.0" xlink:href="#m4f205f2d49" y="323.820625"/>
    </g>
   </g>
   <g id="line2d_1">
    <path clip-path="url(#p3e29ac047c)" d="
M31.99 298.127
L44.1204 230.382
L56.2509 116.503
L68.3813 46.7029
L80.5117 31.6763
L92.6422 21.8504
L104.773 17.0389
L116.903 14.9418
L129.033 13.5264
L141.164 13.0069
L153.294 13.0069
L165.425 13.0069
L177.555 13.0069
L189.686 13.0069
L201.816 13.0069
L213.947 13.0069
L226.077 13.0069
L238.207 13.0069
L250.338 13.0069
L262.468 14.237
L274.599 17.5151
L286.729 22.2229
L298.86 32.4614
L310.99 50.7421
L323.12 74.0629
L335.251 113.338
L347.381 165.494
L359.512 206.543
L371.642 234.296
L383.773 257.028
L395.903 266.447
L408.033 266.298
L420.164 266.02
L432.294 265.871
L444.425 273.487
L456.555 287.631
L468.686 295.247
L480.816 294.923
L492.947 294.086
L505.077 292.943
L517.207 291.29
L529.338 288.408
L541.468 283.727
L553.599 253.64
L565.729 195.656
L577.86 140.879
L589.99 91.6136
L602.12 44.9662
L614.251 24.2389
L626.381 30.5855
L638.512 42.3722
L650.642 48.7189
L662.773 43.8655
L674.903 34.8522
L687.033 29.9989
L699.164 30.432
L711.294 31.6332
L723.425 33.4549
L735.555 42.5748
L747.686 57.5382
L759.816 65.9989
L771.947 66.7003
L784.077 67.0565
L796.207 67.7269
L808.338 72.6723
L820.468 80.7596
L832.599 85.0069
L844.729 85.0069
L856.86 85.0069
L868.99 85.0069" style="fill:none;stroke:#ff0000;stroke-linecap:square;"/>
    <defs>
     <path d="
M0 3
C0.795609 3 1.55874 2.6839 2.12132 2.12132
C2.6839 1.55874 3 0.795609 3 0
C3 -0.795609 2.6839 -1.55874 2.12132 -2.12132
C1.55874 -2.6839 0.795609 -3 0 -3
C-0.795609 -3 -1.55874 -2.6839 -2.12132 -2.12132
C-2.6839 -1.55874 -3 -0.795609 -3 0
C-3 0.795609 -2.6839 1.55874 -2.12132 2.12132
C-1.55874 2.6839 -0.795609 3 0 3
z
" id="m231f9b0f49" style="stroke:#000000;stroke-width:0.5;"/>
    </defs>
    <g clip-path="url(#p3e29ac047c)">
     <use style="fill:#ff0000;stroke:#000000;stroke-width:0.5;" x="31.99" xlink:href="#m231f9b0f49" y="298.126875"/>
     <use style="fill:#ff0000;stroke:#000000;stroke-width:0.5;" x="44.1204347826" xlink:href="#m231f9b0f49" y="230.382146033"/>
     <use style="fill:#ff0000;stroke:#000000;stroke-width:0.5;" x="56.2508695652" xlink:href="#m231f9b0f49" y="116.502838385"/>
     <use style="fill:#ff0000;stroke:#000000;stroke-width:0.5;" x="68.3813043478" xlink:href="#m231f9b0f49" y="46.702875"/>
     <use style="fill:#ff0000;stroke:#000000;stroke-width:0.5;" x="80.5117391304" xlink:href="#m231f9b0f49" y="31.6762953914"/>
     <use style="fill:#ff0000;stroke:#000000;stroke-width:0.5;" x="92.642173913" xlink:href="#m231f9b0f49" y="21.8503715205"/>
     <use style="fill:#ff0000;stroke:#000000;stroke-width:0.5;" x="104.772608696" xlink:href="#m231f9b0f49" y="17.038875"/>
     <use style="fill:#ff0000;stroke:#000000;stroke-width:0.5;" x="116.903043478" xlink:href="#m231f9b0f49" y="14.941826567"/>
     <use style="fill:#ff0000;stroke:#000000;stroke-width:0.5;" x="129.033478261" xlink:href="#m231f9b0f49" y="13.5263507835"/>
     <use style="fill:#ff0000;stroke:#000000;stroke-width:0.5;" x="141.163913043" xlink:href="#m231f9b0f49" y="13.006875"/>
     <use style="fill:#ff0000;stroke:#000000;stroke-width:0.5;" x="153.294347826" xlink:href="#m231f9b0f49" y="13.006875"/>
     <use style="fill:#ff0000;stroke:#000000;stroke-width:0.5;" x="165.424782609" xlink:href="#m231f9b0f49" y="13.006875"/>
     <use style="fill:#ff0000;stroke:#000000;stroke-width:0.5;" x="177.555217391" xlink:href="#m231f9b0f49" y="13.006875"/>
     <use style="fill:#ff0000;stroke:#000000;stroke-width:0.5;" x="189.685652174" xlink:href="#m231f9b0f49" y="13.006875"/>
     <use style="fill:#ff0000;stroke:#000000;stroke-width:0.5;" x="201.816086957" xlink:href="#m231f9b0f49" y="13.006875"/>
     <use style="fill:#ff0000;stroke:#000000;stroke-width:0.5;" x="213.946521739" xlink:href="#m231f9b0f49" y="13.006875"/>
     <use style="fill:#ff0000;stroke:#000000;stroke-width:0.5;" x="226.076956522" xlink:href="#m231f9b0f49" y="13.006875"/>
     <use style="fill:#ff0000;stroke:#000000;stroke-width:0.5;" x="238.207391304" xlink:href="#m231f9b0f49" y="13.006875"/>
     <use style="fill:#ff0000;stroke:#000000;stroke-width:0.5;" x="250.337826087" xlink:href="#m231f9b0f49" y="13.006875"/>
     <use style="fill:#ff0000;stroke:#000000;stroke-width:0.5;" x="262.46826087" xlink:href="#m231f9b0f49" y="14.2369630503"/>
     <use style="fill:#ff0000;stroke:#000000;stroke-width:0.5;" x="274.598695652" xlink:href="#m231f9b0f49" y="17.5150511006"/>
     <use style="fill:#ff0000;stroke:#000000;stroke-width:0.5;" x="286.729130435" xlink:href="#m231f9b0f49" y="22.222875"/>
     <use style="fill:#ff0000;stroke:#000000;stroke-width:0.5;" x="298.859565217" xlink:href="#m231f9b0f49" y="32.461365566"/>
     <use style="fill:#ff0000;stroke:#000000;stroke-width:0.5;" x="310.99" xlink:href="#m231f9b0f49" y="50.742120283"/>
     <use style="fill:#ff0000;stroke:#000000;stroke-width:0.5;" x="323.120434783" xlink:href="#m231f9b0f49" y="74.062875"/>
     <use style="fill:#ff0000;stroke:#000000;stroke-width:0.5;" x="335.250869565" xlink:href="#m231f9b0f49" y="113.338244261"/>
     <use style="fill:#ff0000;stroke:#000000;stroke-width:0.5;" x="347.381304348" xlink:href="#m231f9b0f49" y="165.493613523"/>
     <use style="fill:#ff0000;stroke:#000000;stroke-width:0.5;" x="359.51173913" xlink:href="#m231f9b0f49" y="206.542875"/>
     <use style="fill:#ff0000;stroke:#000000;stroke-width:0.5;" x="371.642173913" xlink:href="#m231f9b0f49" y="234.296136477"/>
     <use style="fill:#ff0000;stroke:#000000;stroke-width:0.5;" x="383.772608696" xlink:href="#m231f9b0f49" y="257.027505739"/>
     <use style="fill:#ff0000;stroke:#000000;stroke-width:0.5;" x="395.903043478" xlink:href="#m231f9b0f49" y="266.446875"/>
     <use style="fill:#ff0000;stroke:#000000;stroke-width:0.5;" x="408.033478261" xlink:href="#m231f9b0f49" y="266.297541667"/>
     <use style="fill:#ff0000;stroke:#000000;stroke-width:0.5;" x="420.163913043" xlink:href="#m231f9b0f49" y="266.020208333"/>
     <use style="fill:#ff0000;stroke:#000000;stroke-width:0.5;" x="432.294347826" xlink:href="#m231f9b0f49" y="265.870875"/>
     <use style="fill:#ff0000;stroke:#000000;stroke-width:0.5;" x="444.424782609" xlink:href="#m231f9b0f49" y="273.486875"/>
     <use style="fill:#ff0000;stroke:#000000;stroke-width:0.5;" x="456.555217391" xlink:href="#m231f9b0f49" y="287.630875"/>
     <use style="fill:#ff0000;stroke:#000000;stroke-width:0.5;" x="468.685652174" xlink:href="#m231f9b0f49" y="295.246875"/>
     <use style="fill:#ff0000;stroke:#000000;stroke-width:0.5;" x="480.816086957" xlink:href="#m231f9b0f49" y="294.922608333"/>
     <use style="fill:#ff0000;stroke:#000000;stroke-width:0.5;" x="492.946521739" xlink:href="#m231f9b0f49" y="294.086341667"/>
     <use style="fill:#ff0000;stroke:#000000;stroke-width:0.5;" x="505.076956522" xlink:href="#m231f9b0f49" y="292.942875"/>
     <use style="fill:#ff0000;stroke:#000000;stroke-width:0.5;" x="517.207391304" xlink:href="#m231f9b0f49" y="291.289994192"/>
     <use style="fill:#ff0000;stroke:#000000;stroke-width:0.5;" x="529.337826087" xlink:href="#m231f9b0f49" y="288.408313384"/>
     <use style="fill:#ff0000;stroke:#000000;stroke-width:0.5;" x="541.46826087" xlink:href="#m231f9b0f49" y="283.726875"/>
     <use style="fill:#ff0000;stroke:#000000;stroke-width:0.5;" x="553.598695652" xlink:href="#m231f9b0f49" y="253.639667027"/>
     <use style="fill:#ff0000;stroke:#000000;stroke-width:0.5;" x="565.729130435" xlink:href="#m231f9b0f49" y="195.656216629"/>
     <use style="fill:#ff0000;stroke:#000000;stroke-width:0.5;" x="577.859565217" xlink:href="#m231f9b0f49" y="140.878875"/>
     <use style="fill:#ff0000;stroke:#000000;stroke-width:0.5;" x="589.99" xlink:href="#m231f9b0f49" y="91.6136141787"/>
     <use style="fill:#ff0000;stroke:#000000;stroke-width:0.5;" x="602.120434783" xlink:href="#m231f9b0f49" y="44.9662445893"/>
     <use style="fill:#ff0000;stroke:#000000;stroke-width:0.5;" x="614.250869565" xlink:href="#m231f9b0f49" y="24.238875"/>
     <use style="fill:#ff0000;stroke:#000000;stroke-width:0.5;" x="626.381304348" xlink:href="#m231f9b0f49" y="30.5855416667"/>
     <use style="fill:#ff0000;stroke:#000000;stroke-width:0.5;" x="638.51173913" xlink:href="#m231f9b0f49" y="42.3722083333"/>
     <use style="fill:#ff0000;stroke:#000000;stroke-width:0.5;" x="650.642173913" xlink:href="#m231f9b0f49" y="48.718875"/>
     <use style="fill:#ff0000;stroke:#000000;stroke-width:0.5;" x="662.772608696" xlink:href="#m231f9b0f49" y="43.8655416667"/>
     <use style="fill:#ff0000;stroke:#000000;stroke-width:0.5;" x="674.903043478" xlink:href="#m231f9b0f49" y="34.8522083333"/>
     <use style="fill:#ff0000;stroke:#000000;stroke-width:0.5;" x="687.033478261" xlink:href="#m231f9b0f49" y="29.998875"/>
     <use style="fill:#ff0000;stroke:#000000;stroke-width:0.5;" x="699.163913043" xlink:href="#m231f9b0f49" y="30.432027"/>
     <use style="fill:#ff0000;stroke:#000000;stroke-width:0.5;" x="711.294347826" xlink:href="#m231f9b0f49" y="31.633179"/>
     <use style="fill:#ff0000;stroke:#000000;stroke-width:0.5;" x="723.424782609" xlink:href="#m231f9b0f49" y="33.454875"/>
     <use style="fill:#ff0000;stroke:#000000;stroke-width:0.5;" x="735.555217391" xlink:href="#m231f9b0f49" y="42.5748118964"/>
     <use style="fill:#ff0000;stroke:#000000;stroke-width:0.5;" x="747.685652174" xlink:href="#m231f9b0f49" y="57.5382047927"/>
     <use style="fill:#ff0000;stroke:#000000;stroke-width:0.5;" x="759.816086957" xlink:href="#m231f9b0f49" y="65.998875"/>
     <use style="fill:#ff0000;stroke:#000000;stroke-width:0.5;" x="771.946521739" xlink:href="#m231f9b0f49" y="66.7003326012"/>
     <use style="fill:#ff0000;stroke:#000000;stroke-width:0.5;" x="784.076956522" xlink:href="#m231f9b0f49" y="67.0565128915"/>
     <use style="fill:#ff0000;stroke:#000000;stroke-width:0.5;" x="796.207391304" xlink:href="#m231f9b0f49" y="67.726875"/>
     <use style="fill:#ff0000;stroke:#000000;stroke-width:0.5;" x="808.337826087" xlink:href="#m231f9b0f49" y="72.6723295455"/>
     <use style="fill:#ff0000;stroke:#000000;stroke-width:0.5;" x="820.46826087" xlink:href="#m231f9b0f49" y="80.7596022727"/>
     <use style="fill:#ff0000;stroke:#000000;stroke-width:0.5;" x="832.598695652" xlink:href="#m231f9b0f49" y="85.006875"/>
     <use style="fill:#ff0000;stroke:#000000;stroke-width:0.5;" x="844.729130435" xlink:href="#m231f9b0f49" y="85.006875"/>
     <use style="fill:#ff0000;stroke:#000000;stroke-width:0.5;" x="856.859565217" xlink:href="#m231f9b0f49" y="85.006875"/>
     <use style="fill:#ff0000;stroke:#000000;stroke-width:0.5;" x="868.99" xlink:href="#m231f9b0f49" y="85.006875"/>
    </g>
   </g>
   <g id="line2d_2">
    <path clip-path="url(#p3e29ac047c)" d="
M31.99 301.007
L44.1204 301.007
L56.2509 301.007
L68.3813 301.007
L80.5117 301.007
L92.6422 301.007
L104.773 301.007
L116.903 301.007
L129.033 301.007
L141.164 301.007
L153.294 301.007
L165.425 301.007
L177.555 301.007
L189.686 301.007
L201.816 301.007
L213.947 301.007
L226.077 301.007
L238.207 301.007
L250.338 301.007
L262.468 299.777
L274.599 296.499
L286.729 291.791
L298.86 281.552
L310.99 263.272
L323.12 239.951
L335.251 200.676
L347.381 148.52
L359.512 107.471
L371.642 79.7176
L383.773 56.9862
L395.903 47.5669
L408.033 47.6313
L420.164 47.8238
L432.294 48.1429
L444.425 69.1031
L456.555 114.641
L468.686 159.887
L480.816 204.546
L492.947 248.92
L505.077 269.039
L517.207 265.38
L529.338 258.586
L541.468 254.927
L553.599 266.874
L565.729 289.06
L577.86 301.007
L589.99 301.007
L602.12 301.007
L614.251 301.007
L626.381 301.007
L638.512 301.007
L650.642 301.007
L662.773 301.007
L674.903 301.007
L687.033 301.007
L699.164 297.572
L711.294 289.594
L723.425 280.559
L735.555 268.313
L747.686 254.372
L759.816 247.727
L771.947 248.1
L784.077 248.794
L796.207 249.167
L808.338 243.94
L820.468 234.234
L832.599 229.007
L844.729 229.007
L856.86 229.007
L868.99 229.007" style="fill:none;stroke:#008000;stroke-linecap:square;"/>
    <defs>
     <path d="
M0 3
C0.795609 3 1.55874 2.6839 2.12132 2.12132
C2.6839 1.55874 3 0.795609 3 0
C3 -0.795609 2.6839 -1.55874 2.12132 -2.12132
C1.55874 -2.6839 0.795609 -3 0 -3
C-0.795609 -3 -1.55874 -2.6839 -2.12132 -2.12132
C-2.6839 -1.55874 -3 -0.795609 -3 0
C-3 0.795609 -2.6839 1.55874 -2.12132 2.12132
C-1.55874 2.6839 -0.795609 3 0 3
z
" id="m25f47eefb8" style="stroke:#000000;stroke-width:0.5;"/>
    </defs>
    <g clip-path="url(#p3e29ac047c)">
     <use style="fill:#008000;stroke:#000000;stroke-width:0.5;" x="31.99" xlink:href="#m25f47eefb8" y="301.006875"/>
     <use style="fill:#008000;stroke:#000000;stroke-width:0.5;" x="44.1204347826" xlink:href="#m25f47eefb8" y="301.006875"/>
     <use style="fill:#008000;stroke:#000000;stroke-width:0.5;" x="56.2508695652" xlink:href="#m25f47eefb8" y="301.006875"/>
     <use style="fill:#008000;stroke:#000000;stroke-width:0.5;" x="68.3813043478" xlink:href="#m25f47eefb8" y="301.006875"/>
     <use style="fill:#008000;stroke:#000000;stroke-width:0.5;" x="80.5117391304" xlink:href="#m25f47eefb8" y="301.006875"/>
     <use style="fill:#008000;stroke:#000000;stroke-width:0.5;" x="92.642173913" xlink:href="#m25f47eefb8" y="301.006875"/>
     <use style="fill:#008000;stroke:#000000;stroke-width:0.5;" x="104.772608696" xlink:href="#m25f47eefb8" y="301.006875"/>
     <use style="fill:#008000;stroke:#000000;stroke-width:0.5;" x="116.903043478" xlink:href="#m25f47eefb8" y="301.006875"/>
     <use style="fill:#008000;stroke:#000000;stroke-width:0.5;" x="129.033478261" xlink:href="#m25f47eefb8" y="301.006875"/>
     <use style="fill:#008000;stroke:#000000;stroke-width:0.5;" x="141.163913043" xlink:href="#m25f47eefb8" y="301.006875"/>
     <use style="fill:#008000;stroke:#000000;stroke-width:0.5;" x="153.294347826" xlink:href="#m25f47eefb8" y="301.006875"/>
     <use style="fill:#008000;stroke:#000000;stroke-width:0.5;" x="165.424782609" xlink:href="#m25f47eefb8" y="301.006875"/>
     <use style="fill:#008000;stroke:#000000;stroke-width:0.5;" x="177.555217391" xlink:href="#m25f47eefb8" y="301.006875"/>
     <use style="fill:#008000;stroke:#000000;stroke-width:0.5;" x="189.685652174" xlink:href="#m25f47eefb8" y="301.006875"/>
     <use style="fill:#008000;stroke:#000000;stroke-width:0.5;" x="201.816086957" xlink:href="#m25f47eefb8" y="301.006875"/>
     <use style="fill:#008000;stroke:#000000;stroke-width:0.5;" x="213.946521739" xlink:href="#m25f47eefb8" y="301.006875"/>
     <use style="fill:#008000;stroke:#000000;stroke-width:0.5;" x="226.076956522" xlink:href="#m25f47eefb8" y="301.006875"/>
     <use style="fill:#008000;stroke:#000000;stroke-width:0.5;" x="238.207391304" xlink:href="#m25f47eefb8" y="301.006875"/>
     <use style="fill:#008000;stroke:#000000;stroke-width:0.5;" x="250.337826087" xlink:href="#m25f47eefb8" y="301.006875"/>
     <use style="fill:#008000;stroke:#000000;stroke-width:0.5;" x="262.46826087" xlink:href="#m25f47eefb8" y="299.77678695"/>
     <use style="fill:#008000;stroke:#000000;stroke-width:0.5;" x="274.598695652" xlink:href="#m25f47eefb8" y="296.498698899"/>
     <use style="fill:#008000;stroke:#000000;stroke-width:0.5;" x="286.729130435" xlink:href="#m25f47eefb8" y="291.790875"/>
     <use style="fill:#008000;stroke:#000000;stroke-width:0.5;" x="298.859565217" xlink:href="#m25f47eefb8" y="281.552384434"/>
     <use style="fill:#008000;stroke:#000000;stroke-width:0.5;" x="310.99" xlink:href="#m25f47eefb8" y="263.271629717"/>
     <use style="fill:#008000;stroke:#000000;stroke-width:0.5;" x="323.120434783" xlink:href="#m25f47eefb8" y="239.950875"/>
     <use style="fill:#008000;stroke:#000000;stroke-width:0.5;" x="335.250869565" xlink:href="#m25f47eefb8" y="200.675505739"/>
     <use style="fill:#008000;stroke:#000000;stroke-width:0.5;" x="347.381304348" xlink:href="#m25f47eefb8" y="148.520136477"/>
     <use style="fill:#008000;stroke:#000000;stroke-width:0.5;" x="359.51173913" xlink:href="#m25f47eefb8" y="107.470875"/>
     <use style="fill:#008000;stroke:#000000;stroke-width:0.5;" x="371.642173913" xlink:href="#m25f47eefb8" y="79.717613523"/>
     <use style="fill:#008000;stroke:#000000;stroke-width:0.5;" x="383.772608696" xlink:href="#m25f47eefb8" y="56.9862442615"/>
     <use style="fill:#008000;stroke:#000000;stroke-width:0.5;" x="395.903043478" xlink:href="#m25f47eefb8" y="47.566875"/>
     <use style="fill:#008000;stroke:#000000;stroke-width:0.5;" x="408.033478261" xlink:href="#m25f47eefb8" y="47.6313126068"/>
     <use style="fill:#008000;stroke:#000000;stroke-width:0.5;" x="420.163913043" xlink:href="#m25f47eefb8" y="47.8237502137"/>
     <use style="fill:#008000;stroke:#000000;stroke-width:0.5;" x="432.294347826" xlink:href="#m25f47eefb8" y="48.142875"/>
     <use style="fill:#008000;stroke:#000000;stroke-width:0.5;" x="444.424782609" xlink:href="#m25f47eefb8" y="69.1031262531"/>
     <use style="fill:#008000;stroke:#000000;stroke-width:0.5;" x="456.555217391" xlink:href="#m25f47eefb8" y="114.640690327"/>
     <use style="fill:#008000;stroke:#000000;stroke-width:0.5;" x="468.685652174" xlink:href="#m25f47eefb8" y="159.886875"/>
     <use style="fill:#008000;stroke:#000000;stroke-width:0.5;" x="480.816086957" xlink:href="#m25f47eefb8" y="204.5459554"/>
     <use style="fill:#008000;stroke:#000000;stroke-width:0.5;" x="492.946521739" xlink:href="#m25f47eefb8" y="248.9204152"/>
     <use style="fill:#008000;stroke:#000000;stroke-width:0.5;" x="505.076956522" xlink:href="#m25f47eefb8" y="269.038875"/>
     <use style="fill:#008000;stroke:#000000;stroke-width:0.5;" x="517.207391304" xlink:href="#m25f47eefb8" y="265.380208333"/>
     <use style="fill:#008000;stroke:#000000;stroke-width:0.5;" x="529.337826087" xlink:href="#m25f47eefb8" y="258.585541667"/>
     <use style="fill:#008000;stroke:#000000;stroke-width:0.5;" x="541.46826087" xlink:href="#m25f47eefb8" y="254.926875"/>
     <use style="fill:#008000;stroke:#000000;stroke-width:0.5;" x="553.598695652" xlink:href="#m25f47eefb8" y="266.873541667"/>
     <use style="fill:#008000;stroke:#000000;stroke-width:0.5;" x="565.729130435" xlink:href="#m25f47eefb8" y="289.060208333"/>
     <use style="fill:#008000;stroke:#000000;stroke-width:0.5;" x="577.859565217" xlink:href="#m25f47eefb8" y="301.006875"/>
     <use style="fill:#008000;stroke:#000000;stroke-width:0.5;" x="589.99" xlink:href="#m25f47eefb8" y="301.006875"/>
     <use style="fill:#008000;stroke:#000000;stroke-width:0.5;" x="602.120434783" xlink:href="#m25f47eefb8" y="301.006875"/>
     <use style="fill:#008000;stroke:#000000;stroke-width:0.5;" x="614.250869565" xlink:href="#m25f47eefb8" y="301.006875"/>
     <use style="fill:#008000;stroke:#000000;stroke-width:0.5;" x="626.381304348" xlink:href="#m25f47eefb8" y="301.006875"/>
     <use style="fill:#008000;stroke:#000000;stroke-width:0.5;" x="638.51173913" xlink:href="#m25f47eefb8" y="301.006875"/>
     <use style="fill:#008000;stroke:#000000;stroke-width:0.5;" x="650.642173913" xlink:href="#m25f47eefb8" y="301.006875"/>
     <use style="fill:#008000;stroke:#000000;stroke-width:0.5;" x="662.772608696" xlink:href="#m25f47eefb8" y="301.006875"/>
     <use style="fill:#008000;stroke:#000000;stroke-width:0.5;" x="674.903043478" xlink:href="#m25f47eefb8" y="301.006875"/>
     <use style="fill:#008000;stroke:#000000;stroke-width:0.5;" x="687.033478261" xlink:href="#m25f47eefb8" y="301.006875"/>
     <use style="fill:#008000;stroke:#000000;stroke-width:0.5;" x="699.163913043" xlink:href="#m25f47eefb8" y="297.572265991"/>
     <use style="fill:#008000;stroke:#000000;stroke-width:0.5;" x="711.294347826" xlink:href="#m25f47eefb8" y="289.593656982"/>
     <use style="fill:#008000;stroke:#000000;stroke-width:0.5;" x="723.424782609" xlink:href="#m25f47eefb8" y="280.558875"/>
     <use style="fill:#008000;stroke:#000000;stroke-width:0.5;" x="735.555217391" xlink:href="#m25f47eefb8" y="268.313426351"/>
     <use style="fill:#008000;stroke:#000000;stroke-width:0.5;" x="747.685652174" xlink:href="#m25f47eefb8" y="254.372150676"/>
     <use style="fill:#008000;stroke:#000000;stroke-width:0.5;" x="759.816086957" xlink:href="#m25f47eefb8" y="247.726875"/>
     <use style="fill:#008000;stroke:#000000;stroke-width:0.5;" x="771.946521739" xlink:href="#m25f47eefb8" y="248.100208333"/>
     <use style="fill:#008000;stroke:#000000;stroke-width:0.5;" x="784.076956522" xlink:href="#m25f47eefb8" y="248.793541667"/>
     <use style="fill:#008000;stroke:#000000;stroke-width:0.5;" x="796.207391304" xlink:href="#m25f47eefb8" y="249.166875"/>
     <use style="fill:#008000;stroke:#000000;stroke-width:0.5;" x="808.337826087" xlink:href="#m25f47eefb8" y="243.940208333"/>
     <use style="fill:#008000;stroke:#000000;stroke-width:0.5;" x="820.46826087" xlink:href="#m25f47eefb8" y="234.233541667"/>
     <use style="fill:#008000;stroke:#000000;stroke-width:0.5;" x="832.598695652" xlink:href="#m25f47eefb8" y="229.006875"/>
     <use style="fill:#008000;stroke:#000000;stroke-width:0.5;" x="844.729130435" xlink:href="#m25f47eefb8" y="229.006875"/>
     <use style="fill:#008000;stroke:#000000;stroke-width:0.5;" x="856.859565217" xlink:href="#m25f47eefb8" y="229.006875"/>
     <use style="fill:#008000;stroke:#000000;stroke-width:0.5;" x="868.99" xlink:href="#m25f47eefb8" y="229.006875"/>
    </g>
   </g>
   <g id="line2d_3">
    <path clip-path="url(#p3e29ac047c)" d="
M31.99 15.8869
L44.1204 83.6952
L56.2509 197.769
L68.3813 267.599
L80.5117 282.484
L92.6422 292.206
L104.773 296.975
L116.903 299.071
L129.033 300.487
L141.164 301.007
L153.294 301.007
L165.425 301.007
L177.555 301.007
L189.686 301.007
L201.816 301.007
L213.947 301.007
L226.077 301.007
L238.207 301.007
L250.338 301.007
L262.468 301.007
L274.599 301.007
L286.729 301.007
L298.86 301.007
L310.99 301.007
L323.12 301.007
L335.251 301.007
L347.381 301.007
L359.512 301.007
L371.642 301.007
L383.773 301.007
L395.903 301.007
L408.033 301.007
L420.164 301.007
L432.294 301.007
L444.425 273.429
L456.555 214.491
L468.686 159.887
L480.816 114.168
L492.947 71.7316
L505.077 53.0389
L517.207 56.3022
L529.338 64.7495
L541.468 76.3669
L553.599 99.18
L565.729 135.143
L577.86 173.135
L589.99 219.138
L602.12 267.592
L614.251 290.063
L626.381 283.642
L638.512 271.716
L650.642 265.295
L662.773 268.829
L674.903 276.522
L687.033 284.015
L699.164 291.059
L711.294 297.921
L723.425 301.007
L735.555 301.007
L747.686 301.007
L759.816 301.007
L771.947 301.007
L784.077 301.007
L796.207 301.007
L808.338 301.007
L820.468 301.007
L832.599 301.007
L844.729 301.007
L856.86 301.007
L868.99 301.007" style="fill:none;stroke:#0000ff;stroke-linecap:square;"/>
    <defs>
     <path d="
M0 3
C0.795609 3 1.55874 2.6839 2.12132 2.12132
C2.6839 1.55874 3 0.795609 3 0
C3 -0.795609 2.6839 -1.55874 2.12132 -2.12132
C1.55874 -2.6839 0.795609 -3 0 -3
C-0.795609 -3 -1.55874 -2.6839 -2.12132 -2.12132
C-2.6839 -1.55874 -3 -0.795609 -3 0
C-3 0.795609 -2.6839 1.55874 -2.12132 2.12132
C-1.55874 2.6839 -0.795609 3 0 3
z
" id="mdb00ba95ec" style="stroke:#000000;stroke-width:0.5;"/>
    </defs>
    <g clip-path="url(#p3e29ac047c)">
     <use style="fill:#0000ff;stroke:#000000;stroke-width:0.5;" x="31.99" xlink:href="#mdb00ba95ec" y="15.886875"/>
     <use style="fill:#0000ff;stroke:#000000;stroke-width:0.5;" x="44.1204347826" xlink:href="#mdb00ba95ec" y="83.6952223557"/>
     <use style="fill:#0000ff;stroke:#000000;stroke-width:0.5;" x="56.2508695652" xlink:href="#mdb00ba95ec" y="197.769278186"/>
     <use style="fill:#0000ff;stroke:#000000;stroke-width:0.5;" x="68.3813043478" xlink:href="#mdb00ba95ec" y="267.598875"/>
     <use style="fill:#0000ff;stroke:#000000;stroke-width:0.5;" x="80.5117391304" xlink:href="#mdb00ba95ec" y="282.483994276"/>
     <use style="fill:#0000ff;stroke:#000000;stroke-width:0.5;" x="92.642173913" xlink:href="#mdb00ba95ec" y="292.205572569"/>
     <use style="fill:#0000ff;stroke:#000000;stroke-width:0.5;" x="104.772608696" xlink:href="#mdb00ba95ec" y="296.974875"/>
     <use style="fill:#0000ff;stroke:#000000;stroke-width:0.5;" x="116.903043478" xlink:href="#mdb00ba95ec" y="299.070691092"/>
     <use style="fill:#0000ff;stroke:#000000;stroke-width:0.5;" x="129.033478261" xlink:href="#mdb00ba95ec" y="300.486783046"/>
     <use style="fill:#0000ff;stroke:#000000;stroke-width:0.5;" x="141.163913043" xlink:href="#mdb00ba95ec" y="301.006875"/>
     <use style="fill:#0000ff;stroke:#000000;stroke-width:0.5;" x="153.294347826" xlink:href="#mdb00ba95ec" y="301.006875"/>
     <use style="fill:#0000ff;stroke:#000000;stroke-width:0.5;" x="165.424782609" xlink:href="#mdb00ba95ec" y="301.006875"/>
     <use style="fill:#0000ff;stroke:#000000;stroke-width:0.5;" x="177.555217391" xlink:href="#mdb00ba95ec" y="301.006875"/>
     <use style="fill:#0000ff;stroke:#000000;stroke-width:0.5;" x="189.685652174" xlink:href="#mdb00ba95ec" y="301.006875"/>
     <use style="fill:#0000ff;stroke:#000000;stroke-width:0.5;" x="201.816086957" xlink:href="#mdb00ba95ec" y="301.006875"/>
     <use style="fill:#0000ff;stroke:#000000;stroke-width:0.5;" x="213.946521739" xlink:href="#mdb00ba95ec" y="301.006875"/>
     <use style="fill:#0000ff;stroke:#000000;stroke-width:0.5;" x="226.076956522" xlink:href="#mdb00ba95ec" y="301.006875"/>
     <use style="fill:#0000ff;stroke:#000000;stroke-width:0.5;" x="238.207391304" xlink:href="#mdb00ba95ec" y="301.006875"/>
     <use style="fill:#0000ff;stroke:#000000;stroke-width:0.5;" x="250.337826087" xlink:href="#mdb00ba95ec" y="301.006875"/>
     <use style="fill:#0000ff;stroke:#000000;stroke-width:0.5;" x="262.46826087" xlink:href="#mdb00ba95ec" y="301.006875"/>
     <use style="fill:#0000ff;stroke:#000000;stroke-width:0.5;" x="274.598695652" xlink:href="#mdb00ba95ec" y="301.006875"/>
     <use style="fill:#0000ff;stroke:#000000;stroke-width:0.5;" x="286.729130435" xlink:href="#mdb00ba95ec" y="301.006875"/>
     <use style="fill:#0000ff;stroke:#000000;stroke-width:0.5;" x="298.859565217" xlink:href="#mdb00ba95ec" y="301.006875"/>
     <use style="fill:#0000ff;stroke:#000000;stroke-width:0.5;" x="310.99" xlink:href="#mdb00ba95ec" y="301.006875"/>
     <use style="fill:#0000ff;stroke:#000000;stroke-width:0.5;" x="323.120434783" xlink:href="#mdb00ba95ec" y="301.006875"/>
     <use style="fill:#0000ff;stroke:#000000;stroke-width:0.5;" x="335.250869565" xlink:href="#mdb00ba95ec" y="301.006875"/>
     <use style="fill:#0000ff;stroke:#000000;stroke-width:0.5;" x="347.381304348" xlink:href="#mdb00ba95ec" y="301.006875"/>
     <use style="fill:#0000ff;stroke:#000000;stroke-width:0.5;" x="359.51173913" xlink:href="#mdb00ba95ec" y="301.006875"/>
     <use style="fill:#0000ff;stroke:#000000;stroke-width:0.5;" x="371.642173913" xlink:href="#mdb00ba95ec" y="301.006875"/>
     <use style="fill:#0000ff;stroke:#000000;stroke-width:0.5;" x="383.772608696" xlink:href="#mdb00ba95ec" y="301.006875"/>
     <use style="fill:#0000ff;stroke:#000000;stroke-width:0.5;" x="395.903043478" xlink:href="#mdb00ba95ec" y="301.006875"/>
     <use style="fill:#0000ff;stroke:#000000;stroke-width:0.5;" x="408.033478261" xlink:href="#mdb00ba95ec" y="301.006875"/>
     <use style="fill:#0000ff;stroke:#000000;stroke-width:0.5;" x="420.163913043" xlink:href="#mdb00ba95ec" y="301.006875"/>
     <use style="fill:#0000ff;stroke:#000000;stroke-width:0.5;" x="432.294347826" xlink:href="#mdb00ba95ec" y="301.006875"/>
     <use style="fill:#0000ff;stroke:#000000;stroke-width:0.5;" x="444.424782609" xlink:href="#mdb00ba95ec" y="273.428772019"/>
     <use style="fill:#0000ff;stroke:#000000;stroke-width:0.5;" x="456.555217391" xlink:href="#mdb00ba95ec" y="214.490669038"/>
     <use style="fill:#0000ff;stroke:#000000;stroke-width:0.5;" x="468.685652174" xlink:href="#mdb00ba95ec" y="159.886875"/>
     <use style="fill:#0000ff;stroke:#000000;stroke-width:0.5;" x="480.816086957" xlink:href="#mdb00ba95ec" y="114.168414295"/>
     <use style="fill:#0000ff;stroke:#000000;stroke-width:0.5;" x="492.946521739" xlink:href="#mdb00ba95ec" y="71.7316446477"/>
     <use style="fill:#0000ff;stroke:#000000;stroke-width:0.5;" x="505.076956522" xlink:href="#mdb00ba95ec" y="53.038875"/>
     <use style="fill:#0000ff;stroke:#000000;stroke-width:0.5;" x="517.207391304" xlink:href="#mdb00ba95ec" y="56.3021843525"/>
     <use style="fill:#0000ff;stroke:#000000;stroke-width:0.5;" x="529.337826087" xlink:href="#mdb00ba95ec" y="64.749493705"/>
     <use style="fill:#0000ff;stroke:#000000;stroke-width:0.5;" x="541.46826087" xlink:href="#mdb00ba95ec" y="76.366875"/>
     <use style="fill:#0000ff;stroke:#000000;stroke-width:0.5;" x="553.598695652" xlink:href="#mdb00ba95ec" y="99.1800298799"/>
     <use style="fill:#0000ff;stroke:#000000;stroke-width:0.5;" x="565.729130435" xlink:href="#mdb00ba95ec" y="135.143112817"/>
     <use style="fill:#0000ff;stroke:#000000;stroke-width:0.5;" x="577.859565217" xlink:href="#mdb00ba95ec" y="173.134875"/>
     <use style="fill:#0000ff;stroke:#000000;stroke-width:0.5;" x="589.99" xlink:href="#mdb00ba95ec" y="219.137994497"/>
     <use style="fill:#0000ff;stroke:#000000;stroke-width:0.5;" x="602.120434783" xlink:href="#mdb00ba95ec" y="267.592434748"/>
     <use style="fill:#0000ff;stroke:#000000;stroke-width:0.5;" x="614.250869565" xlink:href="#mdb00ba95ec" y="290.062875"/>
     <use style="fill:#0000ff;stroke:#000000;stroke-width:0.5;" x="626.381304348" xlink:href="#mdb00ba95ec" y="283.641541667"/>
     <use style="fill:#0000ff;stroke:#000000;stroke-width:0.5;" x="638.51173913" xlink:href="#mdb00ba95ec" y="271.716208333"/>
     <use style="fill:#0000ff;stroke:#000000;stroke-width:0.5;" x="650.642173913" xlink:href="#mdb00ba95ec" y="265.294875"/>
     <use style="fill:#0000ff;stroke:#000000;stroke-width:0.5;" x="662.772608696" xlink:href="#mdb00ba95ec" y="268.828638441"/>
     <use style="fill:#0000ff;stroke:#000000;stroke-width:0.5;" x="674.903043478" xlink:href="#mdb00ba95ec" y="276.522401882"/>
     <use style="fill:#0000ff;stroke:#000000;stroke-width:0.5;" x="687.033478261" xlink:href="#mdb00ba95ec" y="284.014875"/>
     <use style="fill:#0000ff;stroke:#000000;stroke-width:0.5;" x="699.163913043" xlink:href="#mdb00ba95ec" y="291.059348118"/>
     <use style="fill:#0000ff;stroke:#000000;stroke-width:0.5;" x="711.294347826" xlink:href="#mdb00ba95ec" y="297.921111559"/>
     <use style="fill:#0000ff;stroke:#000000;stroke-width:0.5;" x="723.424782609" xlink:href="#mdb00ba95ec" y="301.006875"/>
     <use style="fill:#0000ff;stroke:#000000;stroke-width:0.5;" x="735.555217391" xlink:href="#mdb00ba95ec" y="301.006875"/>
     <use style="fill:#0000ff;stroke:#000000;stroke-width:0.5;" x="747.685652174" xlink:href="#mdb00ba95ec" y="301.006875"/>
     <use style="fill:#0000ff;stroke:#000000;stroke-width:0.5;" x="759.816086957" xlink:href="#mdb00ba95ec" y="301.006875"/>
     <use style="fill:#0000ff;stroke:#000000;stroke-width:0.5;" x="771.946521739" xlink:href="#mdb00ba95ec" y="301.006875"/>
     <use style="fill:#0000ff;stroke:#000000;stroke-width:0.5;" x="784.076956522" xlink:href="#mdb00ba95ec" y="301.006875"/>
     <use style="fill:#0000ff;stroke:#000000;stroke-width:0.5;" x="796.207391304" xlink:href="#mdb00ba95ec" y="301.006875"/>
     <use style="fill:#0000ff;stroke:#000000;stroke-width:0.5;" x="808.337826087" xlink:href="#mdb00ba95ec" y="301.006875"/>
     <use style="fill:#0000ff;stroke:#000000;stroke-width:0.5;" x="820.46826087" xlink:href="#mdb00ba95ec" y="301.006875"/>
     <use style="fill:#0000ff;stroke:#000000;stroke-width:0.5;" x="832.598695652" xlink:href="#mdb00ba95ec" y="301.006875"/>
     <use style="fill:#0000ff;stroke:#000000;stroke-width:0.5;" x="844.729130435" xlink:href="#mdb00ba95ec" y="301.006875"/>
     <use style="fill:#0000ff;stroke:#000000;stroke-width:0.5;" x="856.859565217" xlink:href="#mdb00ba95ec" y="301.006875"/>
     <use style="fill:#0000ff;stroke:#000000;stroke-width:0.5;" x="868.99" xlink:href="#mdb00ba95ec" y="301.006875"/>
    </g>
   </g>
   <g id="patch_3">
    <path d="
M31.99 301.007
L868.99 301.007" style="fill:none;stroke:#000000;stroke-linecap:square;stroke-linejoin:miter;"/>
   </g>
   <g id="patch_4">
    <path d="
M31.99 13.0069
L868.99 13.0069" style="fill:none;stroke:#000000;stroke-linecap:square;stroke-linejoin:miter;"/>
   </g>
   <g id="patch_5">
    <path d="
M868.99 301.007
L868.99 13.0069" style="fill:none;stroke:#000000;stroke-linecap:square;stroke-linejoin:miter;"/>
   </g>
   <g id="patch_6">
    <path d="
M31.99 301.007
L31.99 13.0069" style="fill:none;stroke:#000000;stroke-linecap:square;stroke-linejoin:miter;"/>
   </g>
   <g id="matplotlib.axis_1">
    <g id="xtick_1">
     <g id="line2d_4">
      <defs>
       <path d="
M0 0
L0 -4" id="mc7db9fdffb" style="stroke:#000000;stroke-width:0.5;"/>
      </defs>
      <g>
       <use style="stroke:#000000;stroke-width:0.5;" x="31.99" xlink:href="#mc7db9fdffb" y="301.006875"/>
      </g>
     </g>
     <g id="line2d_5">
      <defs>
       <path d="
M0 0
L0 4" id="m5a7d422ac3" style="stroke:#000000;stroke-width:0.5;"/>
      </defs>
      <g>
       <use style="stroke:#000000;stroke-width:0.5;" x="31.99" xlink:href="#m5a7d422ac3" y="13.006875"/>
      </g>
     </g>
     <g id="text_1">
      <!-- 0 -->
      <defs>
       <path d="
M31.7812 66.4062
Q24.1719 66.4062 20.3281 58.9062
Q16.5 51.4219 16.5 36.375
Q16.5 21.3906 20.3281 13.8906
Q24.1719 6.39062 31.7812 6.39062
Q39.4531 6.39062 43.2812 13.8906
Q47.125 21.3906 47.125 36.375
Q47.125 51.4219 43.2812 58.9062
Q39.4531 66.4062 31.7812 66.4062
M31.7812 74.2188
Q44.0469 74.2188 50.5156 64.5156
Q56.9844 54.8281 56.9844 36.375
Q56.9844 17.9688 50.5156 8.26562
Q44.0469 -1.42188 31.7812 -1.42188
Q19.5312 -1.42188 13.0625 8.26562
Q6.59375 17.9688 6.59375 36.375
Q6.59375 54.8281 13.0625 64.5156
Q19.5312 74.2188 31.7812 74.2188" id="BitstreamVeraSans-Roman-30"/>
      </defs>
      <g transform="translate(28.9665625 314.125)scale(0.12 -0.12)">
       <use xlink:href="#BitstreamVeraSans-Roman-30"/>
      </g>
     </g>
    </g>
    <g id="xtick_2">
     <g id="line2d_6">
      <g>
       <use style="stroke:#000000;stroke-width:0.5;" x="153.294347826" xlink:href="#mc7db9fdffb" y="301.006875"/>
      </g>
     </g>
     <g id="line2d_7">
      <g>
       <use style="stroke:#000000;stroke-width:0.5;" x="153.294347826" xlink:href="#m5a7d422ac3" y="13.006875"/>
      </g>
     </g>
     <g id="text_2">
      <!-- 10 -->
      <defs>
       <path d="
M12.4062 8.29688
L28.5156 8.29688
L28.5156 63.9219
L10.9844 60.4062
L10.9844 69.3906
L28.4219 72.9062
L38.2812 72.9062
L38.2812 8.29688
L54.3906 8.29688
L54.3906 0
L12.4062 0
z
" id="BitstreamVeraSans-Roman-31"/>
      </defs>
      <g transform="translate(146.716847826 314.125)scale(0.12 -0.12)">
       <use xlink:href="#BitstreamVeraSans-Roman-31"/>
       <use x="63.623046875" xlink:href="#BitstreamVeraSans-Roman-30"/>
      </g>
     </g>
    </g>
    <g id="xtick_3">
     <g id="line2d_8">
      <g>
       <use style="stroke:#000000;stroke-width:0.5;" x="274.598695652" xlink:href="#mc7db9fdffb" y="301.006875"/>
      </g>
     </g>
     <g id="line2d_9">
      <g>
       <use style="stroke:#000000;stroke-width:0.5;" x="274.598695652" xlink:href="#m5a7d422ac3" y="13.006875"/>
      </g>
     </g>
     <g id="text_3">
      <!-- 20 -->
      <defs>
       <path d="
M19.1875 8.29688
L53.6094 8.29688
L53.6094 0
L7.32812 0
L7.32812 8.29688
Q12.9375 14.1094 22.625 23.8906
Q32.3281 33.6875 34.8125 36.5312
Q39.5469 41.8438 41.4219 45.5312
Q43.3125 49.2188 43.3125 52.7812
Q43.3125 58.5938 39.2344 62.25
Q35.1562 65.9219 28.6094 65.9219
Q23.9688 65.9219 18.8125 64.3125
Q13.6719 62.7031 7.8125 59.4219
L7.8125 69.3906
Q13.7656 71.7812 18.9375 73
Q24.125 74.2188 28.4219 74.2188
Q39.75 74.2188 46.4844 68.5469
Q53.2188 62.8906 53.2188 53.4219
Q53.2188 48.9219 51.5312 44.8906
Q49.8594 40.875 45.4062 35.4062
Q44.1875 33.9844 37.6406 27.2188
Q31.1094 20.4531 19.1875 8.29688" id="BitstreamVeraSans-Roman-32"/>
      </defs>
      <g transform="translate(267.801820652 314.125)scale(0.12 -0.12)">
       <use xlink:href="#BitstreamVeraSans-Roman-32"/>
       <use x="63.623046875" xlink:href="#BitstreamVeraSans-Roman-30"/>
      </g>
     </g>
    </g>
    <g id="xtick_4">
     <g id="line2d_10">
      <g>
       <use style="stroke:#000000;stroke-width:0.5;" x="395.903043478" xlink:href="#mc7db9fdffb" y="301.006875"/>
      </g>
     </g>
     <g id="line2d_11">
      <g>
       <use style="stroke:#000000;stroke-width:0.5;" x="395.903043478" xlink:href="#m5a7d422ac3" y="13.006875"/>
      </g>
     </g>
     <g id="text_4">
      <!-- 30 -->
      <defs>
       <path d="
M40.5781 39.3125
Q47.6562 37.7969 51.625 33
Q55.6094 28.2188 55.6094 21.1875
Q55.6094 10.4062 48.1875 4.48438
Q40.7656 -1.42188 27.0938 -1.42188
Q22.5156 -1.42188 17.6562 -0.515625
Q12.7969 0.390625 7.625 2.20312
L7.625 11.7188
Q11.7188 9.32812 16.5938 8.10938
Q21.4844 6.89062 26.8125 6.89062
Q36.0781 6.89062 40.9375 10.5469
Q45.7969 14.2031 45.7969 21.1875
Q45.7969 27.6406 41.2812 31.2656
Q36.7656 34.9062 28.7188 34.9062
L20.2188 34.9062
L20.2188 43.0156
L29.1094 43.0156
Q36.375 43.0156 40.2344 45.9219
Q44.0938 48.8281 44.0938 54.2969
Q44.0938 59.9062 40.1094 62.9062
Q36.1406 65.9219 28.7188 65.9219
Q24.6562 65.9219 20.0156 65.0312
Q15.375 64.1562 9.8125 62.3125
L9.8125 71.0938
Q15.4375 72.6562 20.3438 73.4375
Q25.25 74.2188 29.5938 74.2188
Q40.8281 74.2188 47.3594 69.1094
Q53.9062 64.0156 53.9062 55.3281
Q53.9062 49.2656 50.4375 45.0938
Q46.9688 40.9219 40.5781 39.3125" id="BitstreamVeraSans-Roman-33"/>
      </defs>
      <g transform="translate(389.123980978 314.125)scale(0.12 -0.12)">
       <use xlink:href="#BitstreamVeraSans-Roman-33"/>
       <use x="63.623046875" xlink:href="#BitstreamVeraSans-Roman-30"/>
      </g>
     </g>
    </g>
    <g id="xtick_5">
     <g id="line2d_12">
      <g>
       <use style="stroke:#000000;stroke-width:0.5;" x="517.207391304" xlink:href="#mc7db9fdffb" y="301.006875"/>
      </g>
     </g>
     <g id="line2d_13">
      <g>
       <use style="stroke:#000000;stroke-width:0.5;" x="517.207391304" xlink:href="#m5a7d422ac3" y="13.006875"/>
      </g>
     </g>
     <g id="text_5">
      <!-- 40 -->
      <defs>
       <path d="
M37.7969 64.3125
L12.8906 25.3906
L37.7969 25.3906
z

M35.2031 72.9062
L47.6094 72.9062
L47.6094 25.3906
L58.0156 25.3906
L58.0156 17.1875
L47.6094 17.1875
L47.6094 0
L37.7969 0
L37.7969 17.1875
L4.89062 17.1875
L4.89062 26.7031
z
" id="BitstreamVeraSans-Roman-34"/>
      </defs>
      <g transform="translate(510.264266304 314.125)scale(0.12 -0.12)">
       <use xlink:href="#BitstreamVeraSans-Roman-34"/>
       <use x="63.623046875" xlink:href="#BitstreamVeraSans-Roman-30"/>
      </g>
     </g>
    </g>
    <g id="xtick_6">
     <g id="line2d_14">
      <g>
       <use style="stroke:#000000;stroke-width:0.5;" x="638.51173913" xlink:href="#mc7db9fdffb" y="301.006875"/>
      </g>
     </g>
     <g id="line2d_15">
      <g>
       <use style="stroke:#000000;stroke-width:0.5;" x="638.51173913" xlink:href="#m5a7d422ac3" y="13.006875"/>
      </g>
     </g>
     <g id="text_6">
      <!-- 50 -->
      <defs>
       <path d="
M10.7969 72.9062
L49.5156 72.9062
L49.5156 64.5938
L19.8281 64.5938
L19.8281 46.7344
Q21.9688 47.4688 24.1094 47.8281
Q26.2656 48.1875 28.4219 48.1875
Q40.625 48.1875 47.75 41.5
Q54.8906 34.8125 54.8906 23.3906
Q54.8906 11.625 47.5625 5.09375
Q40.2344 -1.42188 26.9062 -1.42188
Q22.3125 -1.42188 17.5469 -0.640625
Q12.7969 0.140625 7.71875 1.70312
L7.71875 11.625
Q12.1094 9.23438 16.7969 8.0625
Q21.4844 6.89062 26.7031 6.89062
Q35.1562 6.89062 40.0781 11.3281
Q45.0156 15.7656 45.0156 23.3906
Q45.0156 31 40.0781 35.4375
Q35.1562 39.8906 26.7031 39.8906
Q22.75 39.8906 18.8125 39.0156
Q14.8906 38.1406 10.7969 36.2812
z
" id="BitstreamVeraSans-Roman-35"/>
      </defs>
      <g transform="translate(631.73830163 314.125)scale(0.12 -0.12)">
       <use xlink:href="#BitstreamVeraSans-Roman-35"/>
       <use x="63.623046875" xlink:href="#BitstreamVeraSans-Roman-30"/>
      </g>
     </g>
    </g>
    <g id="xtick_7">
     <g id="line2d_16">
      <g>
       <use style="stroke:#000000;stroke-width:0.5;" x="759.816086957" xlink:href="#mc7db9fdffb" y="301.006875"/>
      </g>
     </g>
     <g id="line2d_17">
      <g>
       <use style="stroke:#000000;stroke-width:0.5;" x="759.816086957" xlink:href="#m5a7d422ac3" y="13.006875"/>
      </g>
     </g>
     <g id="text_7">
      <!-- 60 -->
      <defs>
       <path d="
M33.0156 40.375
Q26.375 40.375 22.4844 35.8281
Q18.6094 31.2969 18.6094 23.3906
Q18.6094 15.5312 22.4844 10.9531
Q26.375 6.39062 33.0156 6.39062
Q39.6562 6.39062 43.5312 10.9531
Q47.4062 15.5312 47.4062 23.3906
Q47.4062 31.2969 43.5312 35.8281
Q39.6562 40.375 33.0156 40.375
M52.5938 71.2969
L52.5938 62.3125
Q48.875 64.0625 45.0938 64.9844
Q41.3125 65.9219 37.5938 65.9219
Q27.8281 65.9219 22.6719 59.3281
Q17.5312 52.7344 16.7969 39.4062
Q19.6719 43.6562 24.0156 45.9219
Q28.375 48.1875 33.5938 48.1875
Q44.5781 48.1875 50.9531 41.5156
Q57.3281 34.8594 57.3281 23.3906
Q57.3281 12.1562 50.6875 5.35938
Q44.0469 -1.42188 33.0156 -1.42188
Q20.3594 -1.42188 13.6719 8.26562
Q6.98438 17.9688 6.98438 36.375
Q6.98438 53.6562 15.1875 63.9375
Q23.3906 74.2188 37.2031 74.2188
Q40.9219 74.2188 44.7031 73.4844
Q48.4844 72.75 52.5938 71.2969" id="BitstreamVeraSans-Roman-36"/>
      </defs>
      <g transform="translate(752.998586957 314.125)scale(0.12 -0.12)">
       <use xlink:href="#BitstreamVeraSans-Roman-36"/>
       <use x="63.623046875" xlink:href="#BitstreamVeraSans-Roman-30"/>
      </g>
     </g>
    </g>
   </g>
   <g id="matplotlib.axis_2">
    <g id="ytick_1">
     <g id="line2d_18">
      <defs>
       <path d="
M0 0
L4 0" id="md7965d1ba0" style="stroke:#000000;stroke-width:0.5;"/>
      </defs>
      <g>
       <use style="stroke:#000000;stroke-width:0.5;" x="31.99" xlink:href="#md7965d1ba0" y="301.006875"/>
      </g>
     </g>
     <g id="line2d_19">
      <defs>
       <path d="
M0 0
L-4 0" id="md9a1c1a7cd" style="stroke:#000000;stroke-width:0.5;"/>
      </defs>
      <g>
       <use style="stroke:#000000;stroke-width:0.5;" x="868.99" xlink:href="#md9a1c1a7cd" y="301.006875"/>
      </g>
     </g>
     <g id="text_8">
      <!-- 0 -->
      <g transform="translate(21.943125 304.318125)scale(0.12 -0.12)">
       <use xlink:href="#BitstreamVeraSans-Roman-30"/>
      </g>
     </g>
    </g>
    <g id="ytick_2">
     <g id="line2d_20">
      <g>
       <use style="stroke:#000000;stroke-width:0.5;" x="31.99" xlink:href="#md7965d1ba0" y="243.406875"/>
      </g>
     </g>
     <g id="line2d_21">
      <g>
       <use style="stroke:#000000;stroke-width:0.5;" x="868.99" xlink:href="#md9a1c1a7cd" y="243.406875"/>
      </g>
     </g>
     <g id="text_9">
      <!-- 20 -->
      <g transform="translate(14.39625 246.718125)scale(0.12 -0.12)">
       <use xlink:href="#BitstreamVeraSans-Roman-32"/>
       <use x="63.623046875" xlink:href="#BitstreamVeraSans-Roman-30"/>
      </g>
     </g>
    </g>
    <g id="ytick_3">
     <g id="line2d_22">
      <g>
       <use style="stroke:#000000;stroke-width:0.5;" x="31.99" xlink:href="#md7965d1ba0" y="185.806875"/>
      </g>
     </g>
     <g id="line2d_23">
      <g>
       <use style="stroke:#000000;stroke-width:0.5;" x="868.99" xlink:href="#md9a1c1a7cd" y="185.806875"/>
      </g>
     </g>
     <g id="text_10">
      <!-- 40 -->
      <g transform="translate(14.10375 189.118125)scale(0.12 -0.12)">
       <use xlink:href="#BitstreamVeraSans-Roman-34"/>
       <use x="63.623046875" xlink:href="#BitstreamVeraSans-Roman-30"/>
      </g>
     </g>
    </g>
    <g id="ytick_4">
     <g id="line2d_24">
      <g>
       <use style="stroke:#000000;stroke-width:0.5;" x="31.99" xlink:href="#md7965d1ba0" y="128.206875"/>
      </g>
     </g>
     <g id="line2d_25">
      <g>
       <use style="stroke:#000000;stroke-width:0.5;" x="868.99" xlink:href="#md9a1c1a7cd" y="128.206875"/>
      </g>
     </g>
     <g id="text_11">
      <!-- 60 -->
      <g transform="translate(14.355 131.518125)scale(0.12 -0.12)">
       <use xlink:href="#BitstreamVeraSans-Roman-36"/>
       <use x="63.623046875" xlink:href="#BitstreamVeraSans-Roman-30"/>
      </g>
     </g>
    </g>
    <g id="ytick_5">
     <g id="line2d_26">
      <g>
       <use style="stroke:#000000;stroke-width:0.5;" x="31.99" xlink:href="#md7965d1ba0" y="70.606875"/>
      </g>
     </g>
     <g id="line2d_27">
      <g>
       <use style="stroke:#000000;stroke-width:0.5;" x="868.99" xlink:href="#md9a1c1a7cd" y="70.606875"/>
      </g>
     </g>
     <g id="text_12">
      <!-- 80 -->
      <defs>
       <path d="
M31.7812 34.625
Q24.75 34.625 20.7188 30.8594
Q16.7031 27.0938 16.7031 20.5156
Q16.7031 13.9219 20.7188 10.1562
Q24.75 6.39062 31.7812 6.39062
Q38.8125 6.39062 42.8594 10.1719
Q46.9219 13.9688 46.9219 20.5156
Q46.9219 27.0938 42.8906 30.8594
Q38.875 34.625 31.7812 34.625
M21.9219 38.8125
Q15.5781 40.375 12.0312 44.7188
Q8.5 49.0781 8.5 55.3281
Q8.5 64.0625 14.7188 69.1406
Q20.9531 74.2188 31.7812 74.2188
Q42.6719 74.2188 48.875 69.1406
Q55.0781 64.0625 55.0781 55.3281
Q55.0781 49.0781 51.5312 44.7188
Q48 40.375 41.7031 38.8125
Q48.8281 37.1562 52.7969 32.3125
Q56.7812 27.4844 56.7812 20.5156
Q56.7812 9.90625 50.3125 4.23438
Q43.8438 -1.42188 31.7812 -1.42188
Q19.7344 -1.42188 13.25 4.23438
Q6.78125 9.90625 6.78125 20.5156
Q6.78125 27.4844 10.7812 32.3125
Q14.7969 37.1562 21.9219 38.8125
M18.3125 54.3906
Q18.3125 48.7344 21.8438 45.5625
Q25.3906 42.3906 31.7812 42.3906
Q38.1406 42.3906 41.7188 45.5625
Q45.3125 48.7344 45.3125 54.3906
Q45.3125 60.0625 41.7188 63.2344
Q38.1406 66.4062 31.7812 66.4062
Q25.3906 66.4062 21.8438 63.2344
Q18.3125 60.0625 18.3125 54.3906" id="BitstreamVeraSans-Roman-38"/>
      </defs>
      <g transform="translate(14.330625 73.918125)scale(0.12 -0.12)">
       <use xlink:href="#BitstreamVeraSans-Roman-38"/>
       <use x="63.623046875" xlink:href="#BitstreamVeraSans-Roman-30"/>
      </g>
     </g>
    </g>
    <g id="ytick_6">
     <g id="line2d_28">
      <g>
       <use style="stroke:#000000;stroke-width:0.5;" x="31.99" xlink:href="#md7965d1ba0" y="13.006875"/>
      </g>
     </g>
     <g id="line2d_29">
      <g>
       <use style="stroke:#000000;stroke-width:0.5;" x="868.99" xlink:href="#md9a1c1a7cd" y="13.006875"/>
      </g>
     </g>
     <g id="text_13">
      <!-- 100 -->
      <g transform="translate(7.2 16.318125)scale(0.12 -0.12)">
       <use xlink:href="#BitstreamVeraSans-Roman-31"/>
       <use x="63.623046875" xlink:href="#BitstreamVeraSans-Roman-30"/>
       <use x="127.24609375" xlink:href="#BitstreamVeraSans-Roman-30"/>
      </g>
     </g>
    </g>
   </g>
  </g>
 </g>
 <defs>
  <clipPath id="p3e29ac047c">
   <rect height="288.0" width="837.0" x="31.99" y="13.006875"/>
  </clipPath>
 </defs>
</svg>
