<?xml version="1.0" encoding="utf-8" standalone="no"?>
<!DOCTYPE svg PUBLIC "-//W3C//DTD SVG 1.1//EN"
  "http://www.w3.org/Graphics/SVG/1.1/DTD/svg11.dtd">
<!-- Created with matplotlib (https://matplotlib.org/) -->
<svg height="312.077344pt" version="1.1" viewBox="0 0 877.4875 312.077344" width="877.4875pt" xmlns="http://www.w3.org/2000/svg" xmlns:xlink="http://www.w3.org/1999/xlink">
 <defs>
  <style type="text/css">
*{stroke-linecap:butt;stroke-linejoin:round;}
  </style>
 </defs>
 <g id="figure_1">
  <g id="patch_1">
   <path d="M 0 312.077344 
L 877.4875 312.077344 
L 877.4875 0 
L 0 0 
z
" style="fill:#ffffff;"/>
  </g>
  <g id="axes_1">
   <g id="patch_2">
    <path d="M 33.2875 288.199219 
L 870.2875 288.199219 
L 870.2875 10.999219 
L 33.2875 10.999219 
z
" style="fill:#ffffff;"/>
   </g>
   <g id="PolyCollection_1">
    <path clip-path="url(#p8230eb417f)" d="M 33.2875 10.999219 
L 33.2875 288.199219 
L 33.2875 288.199219 
L 33.2875 10.999219 
L 33.2875 10.999219 
L 33.2875 10.999219 
z
" style="fill:#808080;fill-opacity:0.3;"/>
   </g>
   <g id="PolyCollection_2">
    <path clip-path="url(#p8230eb417f)" d="M 764.001786 10.999219 
L 764.001786 288.199219 
L 870.2875 288.199219 
L 870.2875 10.999219 
L 870.2875 10.999219 
L 764.001786 10.999219 
z
" style="fill:#808080;fill-opacity:0.3;"/>
   </g>
   <g id="matplotlib.axis_1">
    <g id="xtick_1">
     <g id="line2d_1">
      <defs>
       <path d="M 0 0 
L 0 3.5 
" id="m7cf28393b6" style="stroke:#000000;stroke-width:0.8;"/>
      </defs>
      <g>
       <use style="stroke:#000000;stroke-width:0.8;" x="33.2875" xlink:href="#m7cf28393b6" y="288.199219"/>
      </g>
     </g>
     <g id="text_1">
      <!-- 0 -->
      <defs>
       <path d="M 31.78125 66.40625 
Q 24.171875 66.40625 20.328125 58.90625 
Q 16.5 51.421875 16.5 36.375 
Q 16.5 21.390625 20.328125 13.890625 
Q 24.171875 6.390625 31.78125 6.390625 
Q 39.453125 6.390625 43.28125 13.890625 
Q 47.125 21.390625 47.125 36.375 
Q 47.125 51.421875 43.28125 58.90625 
Q 39.453125 66.40625 31.78125 66.40625 
z
M 31.78125 74.21875 
Q 44.046875 74.21875 50.515625 64.515625 
Q 56.984375 54.828125 56.984375 36.375 
Q 56.984375 17.96875 50.515625 8.265625 
Q 44.046875 -1.421875 31.78125 -1.421875 
Q 19.53125 -1.421875 13.0625 8.265625 
Q 6.59375 17.96875 6.59375 36.375 
Q 6.59375 54.828125 13.0625 64.515625 
Q 19.53125 74.21875 31.78125 74.21875 
z
" id="DejaVuSans-48"/>
      </defs>
      <g transform="translate(30.10625 302.797656)scale(0.1 -0.1)">
       <use xlink:href="#DejaVuSans-48"/>
      </g>
     </g>
    </g>
    <g id="xtick_2">
     <g id="line2d_2">
      <g>
       <use style="stroke:#000000;stroke-width:0.8;" x="166.144643" xlink:href="#m7cf28393b6" y="288.199219"/>
      </g>
     </g>
     <g id="text_2">
      <!-- 10 -->
      <defs>
       <path d="M 12.40625 8.296875 
L 28.515625 8.296875 
L 28.515625 63.921875 
L 10.984375 60.40625 
L 10.984375 69.390625 
L 28.421875 72.90625 
L 38.28125 72.90625 
L 38.28125 8.296875 
L 54.390625 8.296875 
L 54.390625 0 
L 12.40625 0 
z
" id="DejaVuSans-49"/>
      </defs>
      <g transform="translate(159.782143 302.797656)scale(0.1 -0.1)">
       <use xlink:href="#DejaVuSans-49"/>
       <use x="63.623047" xlink:href="#DejaVuSans-48"/>
      </g>
     </g>
    </g>
    <g id="xtick_3">
     <g id="line2d_3">
      <g>
       <use style="stroke:#000000;stroke-width:0.8;" x="299.001786" xlink:href="#m7cf28393b6" y="288.199219"/>
      </g>
     </g>
     <g id="text_3">
      <!-- 20 -->
      <defs>
       <path d="M 19.1875 8.296875 
L 53.609375 8.296875 
L 53.609375 0 
L 7.328125 0 
L 7.328125 8.296875 
Q 12.9375 14.109375 22.625 23.890625 
Q 32.328125 33.6875 34.8125 36.53125 
Q 39.546875 41.84375 41.421875 45.53125 
Q 43.3125 49.21875 43.3125 52.78125 
Q 43.3125 58.59375 39.234375 62.25 
Q 35.15625 65.921875 28.609375 65.921875 
Q 23.96875 65.921875 18.8125 64.3125 
Q 13.671875 62.703125 7.8125 59.421875 
L 7.8125 69.390625 
Q 13.765625 71.78125 18.9375 73 
Q 24.125 74.21875 28.421875 74.21875 
Q 39.75 74.21875 46.484375 68.546875 
Q 53.21875 62.890625 53.21875 53.421875 
Q 53.21875 48.921875 51.53125 44.890625 
Q 49.859375 40.875 45.40625 35.40625 
Q 44.1875 33.984375 37.640625 27.21875 
Q 31.109375 20.453125 19.1875 8.296875 
z
" id="DejaVuSans-50"/>
      </defs>
      <g transform="translate(292.639286 302.797656)scale(0.1 -0.1)">
       <use xlink:href="#DejaVuSans-50"/>
       <use x="63.623047" xlink:href="#DejaVuSans-48"/>
      </g>
     </g>
    </g>
    <g id="xtick_4">
     <g id="line2d_4">
      <g>
       <use style="stroke:#000000;stroke-width:0.8;" x="431.858929" xlink:href="#m7cf28393b6" y="288.199219"/>
      </g>
     </g>
     <g id="text_4">
      <!-- 30 -->
      <defs>
       <path d="M 40.578125 39.3125 
Q 47.65625 37.796875 51.625 33 
Q 55.609375 28.21875 55.609375 21.1875 
Q 55.609375 10.40625 48.1875 4.484375 
Q 40.765625 -1.421875 27.09375 -1.421875 
Q 22.515625 -1.421875 17.65625 -0.515625 
Q 12.796875 0.390625 7.625 2.203125 
L 7.625 11.71875 
Q 11.71875 9.328125 16.59375 8.109375 
Q 21.484375 6.890625 26.8125 6.890625 
Q 36.078125 6.890625 40.9375 10.546875 
Q 45.796875 14.203125 45.796875 21.1875 
Q 45.796875 27.640625 41.28125 31.265625 
Q 36.765625 34.90625 28.71875 34.90625 
L 20.21875 34.90625 
L 20.21875 43.015625 
L 29.109375 43.015625 
Q 36.375 43.015625 40.234375 45.921875 
Q 44.09375 48.828125 44.09375 54.296875 
Q 44.09375 59.90625 40.109375 62.90625 
Q 36.140625 65.921875 28.71875 65.921875 
Q 24.65625 65.921875 20.015625 65.03125 
Q 15.375 64.15625 9.8125 62.3125 
L 9.8125 71.09375 
Q 15.4375 72.65625 20.34375 73.4375 
Q 25.25 74.21875 29.59375 74.21875 
Q 40.828125 74.21875 47.359375 69.109375 
Q 53.90625 64.015625 53.90625 55.328125 
Q 53.90625 49.265625 50.4375 45.09375 
Q 46.96875 40.921875 40.578125 39.3125 
z
" id="DejaVuSans-51"/>
      </defs>
      <g transform="translate(425.496429 302.797656)scale(0.1 -0.1)">
       <use xlink:href="#DejaVuSans-51"/>
       <use x="63.623047" xlink:href="#DejaVuSans-48"/>
      </g>
     </g>
    </g>
    <g id="xtick_5">
     <g id="line2d_5">
      <g>
       <use style="stroke:#000000;stroke-width:0.8;" x="564.716071" xlink:href="#m7cf28393b6" y="288.199219"/>
      </g>
     </g>
     <g id="text_5">
      <!-- 40 -->
      <defs>
       <path d="M 37.796875 64.3125 
L 12.890625 25.390625 
L 37.796875 25.390625 
z
M 35.203125 72.90625 
L 47.609375 72.90625 
L 47.609375 25.390625 
L 58.015625 25.390625 
L 58.015625 17.1875 
L 47.609375 17.1875 
L 47.609375 0 
L 37.796875 0 
L 37.796875 17.1875 
L 4.890625 17.1875 
L 4.890625 26.703125 
z
" id="DejaVuSans-52"/>
      </defs>
      <g transform="translate(558.353571 302.797656)scale(0.1 -0.1)">
       <use xlink:href="#DejaVuSans-52"/>
       <use x="63.623047" xlink:href="#DejaVuSans-48"/>
      </g>
     </g>
    </g>
    <g id="xtick_6">
     <g id="line2d_6">
      <g>
       <use style="stroke:#000000;stroke-width:0.8;" x="697.573214" xlink:href="#m7cf28393b6" y="288.199219"/>
      </g>
     </g>
     <g id="text_6">
      <!-- 50 -->
      <defs>
       <path d="M 10.796875 72.90625 
L 49.515625 72.90625 
L 49.515625 64.59375 
L 19.828125 64.59375 
L 19.828125 46.734375 
Q 21.96875 47.46875 24.109375 47.828125 
Q 26.265625 48.1875 28.421875 48.1875 
Q 40.625 48.1875 47.75 41.5 
Q 54.890625 34.8125 54.890625 23.390625 
Q 54.890625 11.625 47.5625 5.09375 
Q 40.234375 -1.421875 26.90625 -1.421875 
Q 22.3125 -1.421875 17.546875 -0.640625 
Q 12.796875 0.140625 7.71875 1.703125 
L 7.71875 11.625 
Q 12.109375 9.234375 16.796875 8.0625 
Q 21.484375 6.890625 26.703125 6.890625 
Q 35.15625 6.890625 40.078125 11.328125 
Q 45.015625 15.765625 45.015625 23.390625 
Q 45.015625 31 40.078125 35.4375 
Q 35.15625 39.890625 26.703125 39.890625 
Q 22.75 39.890625 18.8125 39.015625 
Q 14.890625 38.140625 10.796875 36.28125 
z
" id="DejaVuSans-53"/>
      </defs>
      <g transform="translate(691.210714 302.797656)scale(0.1 -0.1)">
       <use xlink:href="#DejaVuSans-53"/>
       <use x="63.623047" xlink:href="#DejaVuSans-48"/>
      </g>
     </g>
    </g>
    <g id="xtick_7">
     <g id="line2d_7">
      <g>
       <use style="stroke:#000000;stroke-width:0.8;" x="830.430357" xlink:href="#m7cf28393b6" y="288.199219"/>
      </g>
     </g>
     <g id="text_7">
      <!-- 60 -->
      <defs>
       <path d="M 33.015625 40.375 
Q 26.375 40.375 22.484375 35.828125 
Q 18.609375 31.296875 18.609375 23.390625 
Q 18.609375 15.53125 22.484375 10.953125 
Q 26.375 6.390625 33.015625 6.390625 
Q 39.65625 6.390625 43.53125 10.953125 
Q 47.40625 15.53125 47.40625 23.390625 
Q 47.40625 31.296875 43.53125 35.828125 
Q 39.65625 40.375 33.015625 40.375 
z
M 52.59375 71.296875 
L 52.59375 62.3125 
Q 48.875 64.0625 45.09375 64.984375 
Q 41.3125 65.921875 37.59375 65.921875 
Q 27.828125 65.921875 22.671875 59.328125 
Q 17.53125 52.734375 16.796875 39.40625 
Q 19.671875 43.65625 24.015625 45.921875 
Q 28.375 48.1875 33.59375 48.1875 
Q 44.578125 48.1875 50.953125 41.515625 
Q 57.328125 34.859375 57.328125 23.390625 
Q 57.328125 12.15625 50.6875 5.359375 
Q 44.046875 -1.421875 33.015625 -1.421875 
Q 20.359375 -1.421875 13.671875 8.265625 
Q 6.984375 17.96875 6.984375 36.375 
Q 6.984375 53.65625 15.1875 63.9375 
Q 23.390625 74.21875 37.203125 74.21875 
Q 40.921875 74.21875 44.703125 73.484375 
Q 48.484375 72.75 52.59375 71.296875 
z
" id="DejaVuSans-54"/>
      </defs>
      <g transform="translate(824.067857 302.797656)scale(0.1 -0.1)">
       <use xlink:href="#DejaVuSans-54"/>
       <use x="63.623047" xlink:href="#DejaVuSans-48"/>
      </g>
     </g>
    </g>
   </g>
   <g id="matplotlib.axis_2">
    <g id="ytick_1">
     <g id="line2d_8">
      <defs>
       <path d="M 0 0 
L -3.5 0 
" id="m99e67db05c" style="stroke:#000000;stroke-width:0.8;"/>
      </defs>
      <g>
       <use style="stroke:#000000;stroke-width:0.8;" x="33.2875" xlink:href="#m99e67db05c" y="288.199219"/>
      </g>
     </g>
     <g id="text_8">
      <!-- 0 -->
      <g transform="translate(19.925 291.998438)scale(0.1 -0.1)">
       <use xlink:href="#DejaVuSans-48"/>
      </g>
     </g>
    </g>
    <g id="ytick_2">
     <g id="line2d_9">
      <g>
       <use style="stroke:#000000;stroke-width:0.8;" x="33.2875" xlink:href="#m99e67db05c" y="232.759219"/>
      </g>
     </g>
     <g id="text_9">
      <!-- 20 -->
      <g transform="translate(13.5625 236.558438)scale(0.1 -0.1)">
       <use xlink:href="#DejaVuSans-50"/>
       <use x="63.623047" xlink:href="#DejaVuSans-48"/>
      </g>
     </g>
    </g>
    <g id="ytick_3">
     <g id="line2d_10">
      <g>
       <use style="stroke:#000000;stroke-width:0.8;" x="33.2875" xlink:href="#m99e67db05c" y="177.319219"/>
      </g>
     </g>
     <g id="text_10">
      <!-- 40 -->
      <g transform="translate(13.5625 181.118438)scale(0.1 -0.1)">
       <use xlink:href="#DejaVuSans-52"/>
       <use x="63.623047" xlink:href="#DejaVuSans-48"/>
      </g>
     </g>
    </g>
    <g id="ytick_4">
     <g id="line2d_11">
      <g>
       <use style="stroke:#000000;stroke-width:0.8;" x="33.2875" xlink:href="#m99e67db05c" y="121.879219"/>
      </g>
     </g>
     <g id="text_11">
      <!-- 60 -->
      <g transform="translate(13.5625 125.678438)scale(0.1 -0.1)">
       <use xlink:href="#DejaVuSans-54"/>
       <use x="63.623047" xlink:href="#DejaVuSans-48"/>
      </g>
     </g>
    </g>
    <g id="ytick_5">
     <g id="line2d_12">
      <g>
       <use style="stroke:#000000;stroke-width:0.8;" x="33.2875" xlink:href="#m99e67db05c" y="66.439219"/>
      </g>
     </g>
     <g id="text_12">
      <!-- 80 -->
      <defs>
       <path d="M 31.78125 34.625 
Q 24.75 34.625 20.71875 30.859375 
Q 16.703125 27.09375 16.703125 20.515625 
Q 16.703125 13.921875 20.71875 10.15625 
Q 24.75 6.390625 31.78125 6.390625 
Q 38.8125 6.390625 42.859375 10.171875 
Q 46.921875 13.96875 46.921875 20.515625 
Q 46.921875 27.09375 42.890625 30.859375 
Q 38.875 34.625 31.78125 34.625 
z
M 21.921875 38.8125 
Q 15.578125 40.375 12.03125 44.71875 
Q 8.5 49.078125 8.5 55.328125 
Q 8.5 64.0625 14.71875 69.140625 
Q 20.953125 74.21875 31.78125 74.21875 
Q 42.671875 74.21875 48.875 69.140625 
Q 55.078125 64.0625 55.078125 55.328125 
Q 55.078125 49.078125 51.53125 44.71875 
Q 48 40.375 41.703125 38.8125 
Q 48.828125 37.15625 52.796875 32.3125 
Q 56.78125 27.484375 56.78125 20.515625 
Q 56.78125 9.90625 50.3125 4.234375 
Q 43.84375 -1.421875 31.78125 -1.421875 
Q 19.734375 -1.421875 13.25 4.234375 
Q 6.78125 9.90625 6.78125 20.515625 
Q 6.78125 27.484375 10.78125 32.3125 
Q 14.796875 37.15625 21.921875 38.8125 
z
M 18.3125 54.390625 
Q 18.3125 48.734375 21.84375 45.5625 
Q 25.390625 42.390625 31.78125 42.390625 
Q 38.140625 42.390625 41.71875 45.5625 
Q 45.3125 48.734375 45.3125 54.390625 
Q 45.3125 60.0625 41.71875 63.234375 
Q 38.140625 66.40625 31.78125 66.40625 
Q 25.390625 66.40625 21.84375 63.234375 
Q 18.3125 60.0625 18.3125 54.390625 
z
" id="DejaVuSans-56"/>
      </defs>
      <g transform="translate(13.5625 70.238438)scale(0.1 -0.1)">
       <use xlink:href="#DejaVuSans-56"/>
       <use x="63.623047" xlink:href="#DejaVuSans-48"/>
      </g>
     </g>
    </g>
    <g id="ytick_6">
     <g id="line2d_13">
      <g>
       <use style="stroke:#000000;stroke-width:0.8;" x="33.2875" xlink:href="#m99e67db05c" y="10.999219"/>
      </g>
     </g>
     <g id="text_13">
      <!-- 100 -->
      <g transform="translate(7.2 14.798438)scale(0.1 -0.1)">
       <use xlink:href="#DejaVuSans-49"/>
       <use x="63.623047" xlink:href="#DejaVuSans-48"/>
       <use x="127.246094" xlink:href="#DejaVuSans-48"/>
      </g>
     </g>
    </g>
   </g>
   <g id="line2d_14">
    <path clip-path="url(#p8230eb417f)" d="M 33.2875 280.499219 
L 46.573214 155.148311 
L 59.858929 58.437294 
L 73.144643 17.987454 
L 86.430357 15.372079 
L 99.716071 13.775307 
L 113.001786 13.234703 
L 126.2875 13.436292 
L 139.573214 13.810673 
L 152.858929 14.012262 
L 166.144643 13.231103 
L 179.430357 11.780378 
L 192.716071 10.999219 
L 206.001786 10.999219 
L 219.2875 10.999219 
L 232.573214 10.999219 
L 245.858929 11.450468 
L 259.144643 12.423752 
L 272.430357 13.348371 
L 285.716071 13.88769 
L 299.001786 14.386643 
L 312.2875 15.296893 
L 325.573214 27.817266 
L 338.858929 56.333854 
L 352.144643 91.079219 
L 365.430357 147.105713 
L 378.716071 216.673199 
L 392.001786 255.825496 
L 405.2875 263.903387 
L 418.573214 269.170033 
L 431.858929 271.052827 
L 445.144643 270.827632 
L 458.430357 270.188745 
L 471.716071 269.191219 
L 485.001786 261.905106 
L 498.2875 249.587418 
L 511.573214 243.073637 
L 524.858929 252.659137 
L 538.144643 270.460778 
L 551.430357 280.046278 
L 564.716071 278.099739 
L 578.001786 274.48474 
L 591.2875 272.538202 
L 604.573214 273.604021 
L 617.858929 275.5834 
L 631.144643 276.649219 
L 644.430357 275.347286 
L 657.716071 272.929412 
L 671.001786 271.62748 
L 684.2875 273.9136 
L 697.573214 278.159252 
L 710.858929 280.445373 
L 724.144643 264.818889 
L 737.430357 230.382149 
L 750.716071 195.799219 
L 764.001786 165.054258 
L 777.2875 134.160817 
L 790.573214 109.827045 
L 803.858929 90.568287 
L 817.144643 74.515998 
L 830.430357 67.802497 
L 843.716071 71.403614 
L 857.001786 82.741101 
L 870.2875 102.616168 
" style="fill:none;stroke:#ff0000;stroke-linecap:square;stroke-width:1.5;"/>
    <defs>
     <path d="M 0 3 
C 0.795609 3 1.55874 2.683901 2.12132 2.12132 
C 2.683901 1.55874 3 0.795609 3 0 
C 3 -0.795609 2.683901 -1.55874 2.12132 -2.12132 
C 1.55874 -2.683901 0.795609 -3 0 -3 
C -0.795609 -3 -1.55874 -2.683901 -2.12132 -2.12132 
C -2.683901 -1.55874 -3 -0.795609 -3 0 
C -3 0.795609 -2.683901 1.55874 -2.12132 2.12132 
C -1.55874 2.683901 -0.795609 3 0 3 
z
" id="mbdfcc14a81" style="stroke:#ff0000;"/>
    </defs>
    <g clip-path="url(#p8230eb417f)">
     <use style="fill:#ff0000;stroke:#ff0000;" x="33.2875" xlink:href="#mbdfcc14a81" y="280.499219"/>
     <use style="fill:#ff0000;stroke:#ff0000;" x="46.573214" xlink:href="#mbdfcc14a81" y="155.148311"/>
     <use style="fill:#ff0000;stroke:#ff0000;" x="59.858929" xlink:href="#mbdfcc14a81" y="58.437294"/>
     <use style="fill:#ff0000;stroke:#ff0000;" x="73.144643" xlink:href="#mbdfcc14a81" y="17.987454"/>
     <use style="fill:#ff0000;stroke:#ff0000;" x="86.430357" xlink:href="#mbdfcc14a81" y="15.372079"/>
     <use style="fill:#ff0000;stroke:#ff0000;" x="99.716071" xlink:href="#mbdfcc14a81" y="13.775307"/>
     <use style="fill:#ff0000;stroke:#ff0000;" x="113.001786" xlink:href="#mbdfcc14a81" y="13.234703"/>
     <use style="fill:#ff0000;stroke:#ff0000;" x="126.2875" xlink:href="#mbdfcc14a81" y="13.436292"/>
     <use style="fill:#ff0000;stroke:#ff0000;" x="139.573214" xlink:href="#mbdfcc14a81" y="13.810673"/>
     <use style="fill:#ff0000;stroke:#ff0000;" x="152.858929" xlink:href="#mbdfcc14a81" y="14.012262"/>
     <use style="fill:#ff0000;stroke:#ff0000;" x="166.144643" xlink:href="#mbdfcc14a81" y="13.231103"/>
     <use style="fill:#ff0000;stroke:#ff0000;" x="179.430357" xlink:href="#mbdfcc14a81" y="11.780378"/>
     <use style="fill:#ff0000;stroke:#ff0000;" x="192.716071" xlink:href="#mbdfcc14a81" y="10.999219"/>
     <use style="fill:#ff0000;stroke:#ff0000;" x="206.001786" xlink:href="#mbdfcc14a81" y="10.999219"/>
     <use style="fill:#ff0000;stroke:#ff0000;" x="219.2875" xlink:href="#mbdfcc14a81" y="10.999219"/>
     <use style="fill:#ff0000;stroke:#ff0000;" x="232.573214" xlink:href="#mbdfcc14a81" y="10.999219"/>
     <use style="fill:#ff0000;stroke:#ff0000;" x="245.858929" xlink:href="#mbdfcc14a81" y="11.450468"/>
     <use style="fill:#ff0000;stroke:#ff0000;" x="259.144643" xlink:href="#mbdfcc14a81" y="12.423752"/>
     <use style="fill:#ff0000;stroke:#ff0000;" x="272.430357" xlink:href="#mbdfcc14a81" y="13.348371"/>
     <use style="fill:#ff0000;stroke:#ff0000;" x="285.716071" xlink:href="#mbdfcc14a81" y="13.88769"/>
     <use style="fill:#ff0000;stroke:#ff0000;" x="299.001786" xlink:href="#mbdfcc14a81" y="14.386643"/>
     <use style="fill:#ff0000;stroke:#ff0000;" x="312.2875" xlink:href="#mbdfcc14a81" y="15.296893"/>
     <use style="fill:#ff0000;stroke:#ff0000;" x="325.573214" xlink:href="#mbdfcc14a81" y="27.817266"/>
     <use style="fill:#ff0000;stroke:#ff0000;" x="338.858929" xlink:href="#mbdfcc14a81" y="56.333854"/>
     <use style="fill:#ff0000;stroke:#ff0000;" x="352.144643" xlink:href="#mbdfcc14a81" y="91.079219"/>
     <use style="fill:#ff0000;stroke:#ff0000;" x="365.430357" xlink:href="#mbdfcc14a81" y="147.105713"/>
     <use style="fill:#ff0000;stroke:#ff0000;" x="378.716071" xlink:href="#mbdfcc14a81" y="216.673199"/>
     <use style="fill:#ff0000;stroke:#ff0000;" x="392.001786" xlink:href="#mbdfcc14a81" y="255.825496"/>
     <use style="fill:#ff0000;stroke:#ff0000;" x="405.2875" xlink:href="#mbdfcc14a81" y="263.903387"/>
     <use style="fill:#ff0000;stroke:#ff0000;" x="418.573214" xlink:href="#mbdfcc14a81" y="269.170033"/>
     <use style="fill:#ff0000;stroke:#ff0000;" x="431.858929" xlink:href="#mbdfcc14a81" y="271.052827"/>
     <use style="fill:#ff0000;stroke:#ff0000;" x="445.144643" xlink:href="#mbdfcc14a81" y="270.827632"/>
     <use style="fill:#ff0000;stroke:#ff0000;" x="458.430357" xlink:href="#mbdfcc14a81" y="270.188745"/>
     <use style="fill:#ff0000;stroke:#ff0000;" x="471.716071" xlink:href="#mbdfcc14a81" y="269.191219"/>
     <use style="fill:#ff0000;stroke:#ff0000;" x="485.001786" xlink:href="#mbdfcc14a81" y="261.905106"/>
     <use style="fill:#ff0000;stroke:#ff0000;" x="498.2875" xlink:href="#mbdfcc14a81" y="249.587418"/>
     <use style="fill:#ff0000;stroke:#ff0000;" x="511.573214" xlink:href="#mbdfcc14a81" y="243.073637"/>
     <use style="fill:#ff0000;stroke:#ff0000;" x="524.858929" xlink:href="#mbdfcc14a81" y="252.659137"/>
     <use style="fill:#ff0000;stroke:#ff0000;" x="538.144643" xlink:href="#mbdfcc14a81" y="270.460778"/>
     <use style="fill:#ff0000;stroke:#ff0000;" x="551.430357" xlink:href="#mbdfcc14a81" y="280.046278"/>
     <use style="fill:#ff0000;stroke:#ff0000;" x="564.716071" xlink:href="#mbdfcc14a81" y="278.099739"/>
     <use style="fill:#ff0000;stroke:#ff0000;" x="578.001786" xlink:href="#mbdfcc14a81" y="274.48474"/>
     <use style="fill:#ff0000;stroke:#ff0000;" x="591.2875" xlink:href="#mbdfcc14a81" y="272.538202"/>
     <use style="fill:#ff0000;stroke:#ff0000;" x="604.573214" xlink:href="#mbdfcc14a81" y="273.604021"/>
     <use style="fill:#ff0000;stroke:#ff0000;" x="617.858929" xlink:href="#mbdfcc14a81" y="275.5834"/>
     <use style="fill:#ff0000;stroke:#ff0000;" x="631.144643" xlink:href="#mbdfcc14a81" y="276.649219"/>
     <use style="fill:#ff0000;stroke:#ff0000;" x="644.430357" xlink:href="#mbdfcc14a81" y="275.347286"/>
     <use style="fill:#ff0000;stroke:#ff0000;" x="657.716071" xlink:href="#mbdfcc14a81" y="272.929412"/>
     <use style="fill:#ff0000;stroke:#ff0000;" x="671.001786" xlink:href="#mbdfcc14a81" y="271.62748"/>
     <use style="fill:#ff0000;stroke:#ff0000;" x="684.2875" xlink:href="#mbdfcc14a81" y="273.9136"/>
     <use style="fill:#ff0000;stroke:#ff0000;" x="697.573214" xlink:href="#mbdfcc14a81" y="278.159252"/>
     <use style="fill:#ff0000;stroke:#ff0000;" x="710.858929" xlink:href="#mbdfcc14a81" y="280.445373"/>
     <use style="fill:#ff0000;stroke:#ff0000;" x="724.144643" xlink:href="#mbdfcc14a81" y="264.818889"/>
     <use style="fill:#ff0000;stroke:#ff0000;" x="737.430357" xlink:href="#mbdfcc14a81" y="230.382149"/>
     <use style="fill:#ff0000;stroke:#ff0000;" x="750.716071" xlink:href="#mbdfcc14a81" y="195.799219"/>
     <use style="fill:#ff0000;stroke:#ff0000;" x="764.001786" xlink:href="#mbdfcc14a81" y="165.054258"/>
     <use style="fill:#ff0000;stroke:#ff0000;" x="777.2875" xlink:href="#mbdfcc14a81" y="134.160817"/>
     <use style="fill:#ff0000;stroke:#ff0000;" x="790.573214" xlink:href="#mbdfcc14a81" y="109.827045"/>
     <use style="fill:#ff0000;stroke:#ff0000;" x="803.858929" xlink:href="#mbdfcc14a81" y="90.568287"/>
     <use style="fill:#ff0000;stroke:#ff0000;" x="817.144643" xlink:href="#mbdfcc14a81" y="74.515998"/>
     <use style="fill:#ff0000;stroke:#ff0000;" x="830.430357" xlink:href="#mbdfcc14a81" y="67.802497"/>
     <use style="fill:#ff0000;stroke:#ff0000;" x="843.716071" xlink:href="#mbdfcc14a81" y="71.403614"/>
     <use style="fill:#ff0000;stroke:#ff0000;" x="857.001786" xlink:href="#mbdfcc14a81" y="82.741101"/>
     <use style="fill:#ff0000;stroke:#ff0000;" x="870.2875" xlink:href="#mbdfcc14a81" y="102.616168"/>
    </g>
   </g>
   <g id="line2d_15">
    <path clip-path="url(#p8230eb417f)" d="M 33.2875 288.199219 
L 46.573214 288.199219 
L 59.858929 288.199219 
L 73.144643 288.199219 
L 86.430357 288.199219 
L 99.716071 288.199219 
L 113.001786 288.199219 
L 126.2875 288.199219 
L 139.573214 288.199219 
L 152.858929 288.199219 
L 166.144643 288.199219 
L 179.430357 288.199219 
L 192.716071 288.199219 
L 206.001786 288.199219 
L 219.2875 288.199219 
L 232.573214 288.199219 
L 245.858929 287.747969 
L 259.144643 286.774686 
L 272.430357 285.850066 
L 285.716071 285.310748 
L 299.001786 284.811794 
L 312.2875 283.901544 
L 325.573214 271.381172 
L 338.858929 242.864584 
L 352.144643 208.119219 
L 365.430357 152.092724 
L 378.716071 82.525239 
L 392.001786 43.372941 
L 405.2875 35.295051 
L 418.573214 30.028405 
L 431.858929 28.145611 
L 445.144643 28.362005 
L 458.430357 28.992091 
L 471.716071 30.007219 
L 485.001786 38.986395 
L 498.2875 58.700977 
L 511.573214 81.910847 
L 524.858929 114.173784 
L 538.144643 152.971507 
L 551.430357 178.949807 
L 564.716071 188.432048 
L 578.001786 194.653924 
L 591.2875 203.629727 
L 604.573214 227.85418 
L 617.858929 260.387666 
L 631.144643 278.092969 
L 644.430357 280.296924 
L 657.716071 281.688379 
L 671.001786 282.173132 
L 684.2875 281.22263 
L 697.573214 279.457413 
L 710.858929 278.506911 
L 724.144643 279.984992 
L 737.430357 282.985124 
L 750.716071 285.356142 
L 764.001786 286.688527 
L 777.2875 287.75977 
L 790.573214 288.199219 
L 803.858929 288.199219 
L 817.144643 288.199219 
L 830.430357 288.199219 
L 843.716071 288.199219 
L 857.001786 288.199219 
L 870.2875 288.199219 
" style="fill:none;stroke:#008000;stroke-linecap:square;stroke-width:1.5;"/>
    <defs>
     <path d="M 0 3 
C 0.795609 3 1.55874 2.683901 2.12132 2.12132 
C 2.683901 1.55874 3 0.795609 3 0 
C 3 -0.795609 2.683901 -1.55874 2.12132 -2.12132 
C 1.55874 -2.683901 0.795609 -3 0 -3 
C -0.795609 -3 -1.55874 -2.683901 -2.12132 -2.12132 
C -2.683901 -1.55874 -3 -0.795609 -3 0 
C -3 0.795609 -2.683901 1.55874 -2.12132 2.12132 
C -1.55874 2.683901 -0.795609 3 0 3 
z
" id="m0fc004e31a" style="stroke:#008000;"/>
    </defs>
    <g clip-path="url(#p8230eb417f)">
     <use style="fill:#008000;stroke:#008000;" x="33.2875" xlink:href="#m0fc004e31a" y="288.199219"/>
     <use style="fill:#008000;stroke:#008000;" x="46.573214" xlink:href="#m0fc004e31a" y="288.199219"/>
     <use style="fill:#008000;stroke:#008000;" x="59.858929" xlink:href="#m0fc004e31a" y="288.199219"/>
     <use style="fill:#008000;stroke:#008000;" x="73.144643" xlink:href="#m0fc004e31a" y="288.199219"/>
     <use style="fill:#008000;stroke:#008000;" x="86.430357" xlink:href="#m0fc004e31a" y="288.199219"/>
     <use style="fill:#008000;stroke:#008000;" x="99.716071" xlink:href="#m0fc004e31a" y="288.199219"/>
     <use style="fill:#008000;stroke:#008000;" x="113.001786" xlink:href="#m0fc004e31a" y="288.199219"/>
     <use style="fill:#008000;stroke:#008000;" x="126.2875" xlink:href="#m0fc004e31a" y="288.199219"/>
     <use style="fill:#008000;stroke:#008000;" x="139.573214" xlink:href="#m0fc004e31a" y="288.199219"/>
     <use style="fill:#008000;stroke:#008000;" x="152.858929" xlink:href="#m0fc004e31a" y="288.199219"/>
     <use style="fill:#008000;stroke:#008000;" x="166.144643" xlink:href="#m0fc004e31a" y="288.199219"/>
     <use style="fill:#008000;stroke:#008000;" x="179.430357" xlink:href="#m0fc004e31a" y="288.199219"/>
     <use style="fill:#008000;stroke:#008000;" x="192.716071" xlink:href="#m0fc004e31a" y="288.199219"/>
     <use style="fill:#008000;stroke:#008000;" x="206.001786" xlink:href="#m0fc004e31a" y="288.199219"/>
     <use style="fill:#008000;stroke:#008000;" x="219.2875" xlink:href="#m0fc004e31a" y="288.199219"/>
     <use style="fill:#008000;stroke:#008000;" x="232.573214" xlink:href="#m0fc004e31a" y="288.199219"/>
     <use style="fill:#008000;stroke:#008000;" x="245.858929" xlink:href="#m0fc004e31a" y="287.747969"/>
     <use style="fill:#008000;stroke:#008000;" x="259.144643" xlink:href="#m0fc004e31a" y="286.774686"/>
     <use style="fill:#008000;stroke:#008000;" x="272.430357" xlink:href="#m0fc004e31a" y="285.850066"/>
     <use style="fill:#008000;stroke:#008000;" x="285.716071" xlink:href="#m0fc004e31a" y="285.310748"/>
     <use style="fill:#008000;stroke:#008000;" x="299.001786" xlink:href="#m0fc004e31a" y="284.811794"/>
     <use style="fill:#008000;stroke:#008000;" x="312.2875" xlink:href="#m0fc004e31a" y="283.901544"/>
     <use style="fill:#008000;stroke:#008000;" x="325.573214" xlink:href="#m0fc004e31a" y="271.381172"/>
     <use style="fill:#008000;stroke:#008000;" x="338.858929" xlink:href="#m0fc004e31a" y="242.864584"/>
     <use style="fill:#008000;stroke:#008000;" x="352.144643" xlink:href="#m0fc004e31a" y="208.119219"/>
     <use style="fill:#008000;stroke:#008000;" x="365.430357" xlink:href="#m0fc004e31a" y="152.092724"/>
     <use style="fill:#008000;stroke:#008000;" x="378.716071" xlink:href="#m0fc004e31a" y="82.525239"/>
     <use style="fill:#008000;stroke:#008000;" x="392.001786" xlink:href="#m0fc004e31a" y="43.372941"/>
     <use style="fill:#008000;stroke:#008000;" x="405.2875" xlink:href="#m0fc004e31a" y="35.295051"/>
     <use style="fill:#008000;stroke:#008000;" x="418.573214" xlink:href="#m0fc004e31a" y="30.028405"/>
     <use style="fill:#008000;stroke:#008000;" x="431.858929" xlink:href="#m0fc004e31a" y="28.145611"/>
     <use style="fill:#008000;stroke:#008000;" x="445.144643" xlink:href="#m0fc004e31a" y="28.362005"/>
     <use style="fill:#008000;stroke:#008000;" x="458.430357" xlink:href="#m0fc004e31a" y="28.992091"/>
     <use style="fill:#008000;stroke:#008000;" x="471.716071" xlink:href="#m0fc004e31a" y="30.007219"/>
     <use style="fill:#008000;stroke:#008000;" x="485.001786" xlink:href="#m0fc004e31a" y="38.986395"/>
     <use style="fill:#008000;stroke:#008000;" x="498.2875" xlink:href="#m0fc004e31a" y="58.700977"/>
     <use style="fill:#008000;stroke:#008000;" x="511.573214" xlink:href="#m0fc004e31a" y="81.910847"/>
     <use style="fill:#008000;stroke:#008000;" x="524.858929" xlink:href="#m0fc004e31a" y="114.173784"/>
     <use style="fill:#008000;stroke:#008000;" x="538.144643" xlink:href="#m0fc004e31a" y="152.971507"/>
     <use style="fill:#008000;stroke:#008000;" x="551.430357" xlink:href="#m0fc004e31a" y="178.949807"/>
     <use style="fill:#008000;stroke:#008000;" x="564.716071" xlink:href="#m0fc004e31a" y="188.432048"/>
     <use style="fill:#008000;stroke:#008000;" x="578.001786" xlink:href="#m0fc004e31a" y="194.653924"/>
     <use style="fill:#008000;stroke:#008000;" x="591.2875" xlink:href="#m0fc004e31a" y="203.629727"/>
     <use style="fill:#008000;stroke:#008000;" x="604.573214" xlink:href="#m0fc004e31a" y="227.85418"/>
     <use style="fill:#008000;stroke:#008000;" x="617.858929" xlink:href="#m0fc004e31a" y="260.387666"/>
     <use style="fill:#008000;stroke:#008000;" x="631.144643" xlink:href="#m0fc004e31a" y="278.092969"/>
     <use style="fill:#008000;stroke:#008000;" x="644.430357" xlink:href="#m0fc004e31a" y="280.296924"/>
     <use style="fill:#008000;stroke:#008000;" x="657.716071" xlink:href="#m0fc004e31a" y="281.688379"/>
     <use style="fill:#008000;stroke:#008000;" x="671.001786" xlink:href="#m0fc004e31a" y="282.173132"/>
     <use style="fill:#008000;stroke:#008000;" x="684.2875" xlink:href="#m0fc004e31a" y="281.22263"/>
     <use style="fill:#008000;stroke:#008000;" x="697.573214" xlink:href="#m0fc004e31a" y="279.457413"/>
     <use style="fill:#008000;stroke:#008000;" x="710.858929" xlink:href="#m0fc004e31a" y="278.506911"/>
     <use style="fill:#008000;stroke:#008000;" x="724.144643" xlink:href="#m0fc004e31a" y="279.984992"/>
     <use style="fill:#008000;stroke:#008000;" x="737.430357" xlink:href="#m0fc004e31a" y="282.985124"/>
     <use style="fill:#008000;stroke:#008000;" x="750.716071" xlink:href="#m0fc004e31a" y="285.356142"/>
     <use style="fill:#008000;stroke:#008000;" x="764.001786" xlink:href="#m0fc004e31a" y="286.688527"/>
     <use style="fill:#008000;stroke:#008000;" x="777.2875" xlink:href="#m0fc004e31a" y="287.75977"/>
     <use style="fill:#008000;stroke:#008000;" x="790.573214" xlink:href="#m0fc004e31a" y="288.199219"/>
     <use style="fill:#008000;stroke:#008000;" x="803.858929" xlink:href="#m0fc004e31a" y="288.199219"/>
     <use style="fill:#008000;stroke:#008000;" x="817.144643" xlink:href="#m0fc004e31a" y="288.199219"/>
     <use style="fill:#008000;stroke:#008000;" x="830.430357" xlink:href="#m0fc004e31a" y="288.199219"/>
     <use style="fill:#008000;stroke:#008000;" x="843.716071" xlink:href="#m0fc004e31a" y="288.199219"/>
     <use style="fill:#008000;stroke:#008000;" x="857.001786" xlink:href="#m0fc004e31a" y="288.199219"/>
     <use style="fill:#008000;stroke:#008000;" x="870.2875" xlink:href="#m0fc004e31a" y="288.199219"/>
    </g>
   </g>
   <g id="line2d_16">
    <path clip-path="url(#p8230eb417f)" d="M 33.2875 18.699219 
L 46.573214 144.050126 
L 59.858929 240.761144 
L 73.144643 281.210983 
L 86.430357 283.826359 
L 99.716071 285.42313 
L 113.001786 285.963735 
L 126.2875 285.762145 
L 139.573214 285.387765 
L 152.858929 285.186175 
L 166.144643 285.967335 
L 179.430357 287.418059 
L 192.716071 288.199219 
L 206.001786 288.199219 
L 219.2875 288.199219 
L 232.573214 288.199219 
L 245.858929 288.199219 
L 259.144643 288.199219 
L 272.430357 288.199219 
L 285.716071 288.199219 
L 299.001786 288.199219 
L 312.2875 288.199219 
L 325.573214 288.199219 
L 338.858929 288.199219 
L 352.144643 288.199219 
L 365.430357 288.199219 
L 378.716071 288.199219 
L 392.001786 288.199219 
L 405.2875 288.199219 
L 418.573214 288.199219 
L 431.858929 288.199219 
L 445.144643 288.199219 
L 458.430357 288.199219 
L 471.716071 288.199219 
L 485.001786 284.717656 
L 498.2875 275.505861 
L 511.573214 262.413172 
L 524.858929 223.517032 
L 538.144643 164.451661 
L 551.430357 128.401572 
L 564.716071 121.527283 
L 578.001786 117.602103 
L 591.2875 111.229727 
L 604.573214 86.683182 
L 617.858929 50.938852 
L 631.144643 32.655469 
L 644.430357 32.899581 
L 657.716071 33.352933 
L 671.001786 33.597045 
L 684.2875 32.261426 
L 697.573214 29.780991 
L 710.858929 28.445373 
L 724.144643 42.661266 
L 737.430357 74.165364 
L 750.716071 106.242296 
L 764.001786 135.566325 
L 777.2875 165.502449 
L 790.573214 189.371393 
L 803.858929 208.53728 
L 817.144643 224.636004 
L 830.430357 231.39594 
L 843.716071 227.794824 
L 857.001786 216.457337 
L 870.2875 196.58227 
" style="fill:none;stroke:#0000ff;stroke-linecap:square;stroke-width:1.5;"/>
    <defs>
     <path d="M 0 3 
C 0.795609 3 1.55874 2.683901 2.12132 2.12132 
C 2.683901 1.55874 3 0.795609 3 0 
C 3 -0.795609 2.683901 -1.55874 2.12132 -2.12132 
C 1.55874 -2.683901 0.795609 -3 0 -3 
C -0.795609 -3 -1.55874 -2.683901 -2.12132 -2.12132 
C -2.683901 -1.55874 -3 -0.795609 -3 0 
C -3 0.795609 -2.683901 1.55874 -2.12132 2.12132 
C -1.55874 2.683901 -0.795609 3 0 3 
z
" id="m2ef7fba2f0" style="stroke:#0000ff;"/>
    </defs>
    <g clip-path="url(#p8230eb417f)">
     <use style="fill:#0000ff;stroke:#0000ff;" x="33.2875" xlink:href="#m2ef7fba2f0" y="18.699219"/>
     <use style="fill:#0000ff;stroke:#0000ff;" x="46.573214" xlink:href="#m2ef7fba2f0" y="144.050126"/>
     <use style="fill:#0000ff;stroke:#0000ff;" x="59.858929" xlink:href="#m2ef7fba2f0" y="240.761144"/>
     <use style="fill:#0000ff;stroke:#0000ff;" x="73.144643" xlink:href="#m2ef7fba2f0" y="281.210983"/>
     <use style="fill:#0000ff;stroke:#0000ff;" x="86.430357" xlink:href="#m2ef7fba2f0" y="283.826359"/>
     <use style="fill:#0000ff;stroke:#0000ff;" x="99.716071" xlink:href="#m2ef7fba2f0" y="285.42313"/>
     <use style="fill:#0000ff;stroke:#0000ff;" x="113.001786" xlink:href="#m2ef7fba2f0" y="285.963735"/>
     <use style="fill:#0000ff;stroke:#0000ff;" x="126.2875" xlink:href="#m2ef7fba2f0" y="285.762145"/>
     <use style="fill:#0000ff;stroke:#0000ff;" x="139.573214" xlink:href="#m2ef7fba2f0" y="285.387765"/>
     <use style="fill:#0000ff;stroke:#0000ff;" x="152.858929" xlink:href="#m2ef7fba2f0" y="285.186175"/>
     <use style="fill:#0000ff;stroke:#0000ff;" x="166.144643" xlink:href="#m2ef7fba2f0" y="285.967335"/>
     <use style="fill:#0000ff;stroke:#0000ff;" x="179.430357" xlink:href="#m2ef7fba2f0" y="287.418059"/>
     <use style="fill:#0000ff;stroke:#0000ff;" x="192.716071" xlink:href="#m2ef7fba2f0" y="288.199219"/>
     <use style="fill:#0000ff;stroke:#0000ff;" x="206.001786" xlink:href="#m2ef7fba2f0" y="288.199219"/>
     <use style="fill:#0000ff;stroke:#0000ff;" x="219.2875" xlink:href="#m2ef7fba2f0" y="288.199219"/>
     <use style="fill:#0000ff;stroke:#0000ff;" x="232.573214" xlink:href="#m2ef7fba2f0" y="288.199219"/>
     <use style="fill:#0000ff;stroke:#0000ff;" x="245.858929" xlink:href="#m2ef7fba2f0" y="288.199219"/>
     <use style="fill:#0000ff;stroke:#0000ff;" x="259.144643" xlink:href="#m2ef7fba2f0" y="288.199219"/>
     <use style="fill:#0000ff;stroke:#0000ff;" x="272.430357" xlink:href="#m2ef7fba2f0" y="288.199219"/>
     <use style="fill:#0000ff;stroke:#0000ff;" x="285.716071" xlink:href="#m2ef7fba2f0" y="288.199219"/>
     <use style="fill:#0000ff;stroke:#0000ff;" x="299.001786" xlink:href="#m2ef7fba2f0" y="288.199219"/>
     <use style="fill:#0000ff;stroke:#0000ff;" x="312.2875" xlink:href="#m2ef7fba2f0" y="288.199219"/>
     <use style="fill:#0000ff;stroke:#0000ff;" x="325.573214" xlink:href="#m2ef7fba2f0" y="288.199219"/>
     <use style="fill:#0000ff;stroke:#0000ff;" x="338.858929" xlink:href="#m2ef7fba2f0" y="288.199219"/>
     <use style="fill:#0000ff;stroke:#0000ff;" x="352.144643" xlink:href="#m2ef7fba2f0" y="288.199219"/>
     <use style="fill:#0000ff;stroke:#0000ff;" x="365.430357" xlink:href="#m2ef7fba2f0" y="288.199219"/>
     <use style="fill:#0000ff;stroke:#0000ff;" x="378.716071" xlink:href="#m2ef7fba2f0" y="288.199219"/>
     <use style="fill:#0000ff;stroke:#0000ff;" x="392.001786" xlink:href="#m2ef7fba2f0" y="288.199219"/>
     <use style="fill:#0000ff;stroke:#0000ff;" x="405.2875" xlink:href="#m2ef7fba2f0" y="288.199219"/>
     <use style="fill:#0000ff;stroke:#0000ff;" x="418.573214" xlink:href="#m2ef7fba2f0" y="288.199219"/>
     <use style="fill:#0000ff;stroke:#0000ff;" x="431.858929" xlink:href="#m2ef7fba2f0" y="288.199219"/>
     <use style="fill:#0000ff;stroke:#0000ff;" x="445.144643" xlink:href="#m2ef7fba2f0" y="288.199219"/>
     <use style="fill:#0000ff;stroke:#0000ff;" x="458.430357" xlink:href="#m2ef7fba2f0" y="288.199219"/>
     <use style="fill:#0000ff;stroke:#0000ff;" x="471.716071" xlink:href="#m2ef7fba2f0" y="288.199219"/>
     <use style="fill:#0000ff;stroke:#0000ff;" x="485.001786" xlink:href="#m2ef7fba2f0" y="284.717656"/>
     <use style="fill:#0000ff;stroke:#0000ff;" x="498.2875" xlink:href="#m2ef7fba2f0" y="275.505861"/>
     <use style="fill:#0000ff;stroke:#0000ff;" x="511.573214" xlink:href="#m2ef7fba2f0" y="262.413172"/>
     <use style="fill:#0000ff;stroke:#0000ff;" x="524.858929" xlink:href="#m2ef7fba2f0" y="223.517032"/>
     <use style="fill:#0000ff;stroke:#0000ff;" x="538.144643" xlink:href="#m2ef7fba2f0" y="164.451661"/>
     <use style="fill:#0000ff;stroke:#0000ff;" x="551.430357" xlink:href="#m2ef7fba2f0" y="128.401572"/>
     <use style="fill:#0000ff;stroke:#0000ff;" x="564.716071" xlink:href="#m2ef7fba2f0" y="121.527283"/>
     <use style="fill:#0000ff;stroke:#0000ff;" x="578.001786" xlink:href="#m2ef7fba2f0" y="117.602103"/>
     <use style="fill:#0000ff;stroke:#0000ff;" x="591.2875" xlink:href="#m2ef7fba2f0" y="111.229727"/>
     <use style="fill:#0000ff;stroke:#0000ff;" x="604.573214" xlink:href="#m2ef7fba2f0" y="86.683182"/>
     <use style="fill:#0000ff;stroke:#0000ff;" x="617.858929" xlink:href="#m2ef7fba2f0" y="50.938852"/>
     <use style="fill:#0000ff;stroke:#0000ff;" x="631.144643" xlink:href="#m2ef7fba2f0" y="32.655469"/>
     <use style="fill:#0000ff;stroke:#0000ff;" x="644.430357" xlink:href="#m2ef7fba2f0" y="32.899581"/>
     <use style="fill:#0000ff;stroke:#0000ff;" x="657.716071" xlink:href="#m2ef7fba2f0" y="33.352933"/>
     <use style="fill:#0000ff;stroke:#0000ff;" x="671.001786" xlink:href="#m2ef7fba2f0" y="33.597045"/>
     <use style="fill:#0000ff;stroke:#0000ff;" x="684.2875" xlink:href="#m2ef7fba2f0" y="32.261426"/>
     <use style="fill:#0000ff;stroke:#0000ff;" x="697.573214" xlink:href="#m2ef7fba2f0" y="29.780991"/>
     <use style="fill:#0000ff;stroke:#0000ff;" x="710.858929" xlink:href="#m2ef7fba2f0" y="28.445373"/>
     <use style="fill:#0000ff;stroke:#0000ff;" x="724.144643" xlink:href="#m2ef7fba2f0" y="42.661266"/>
     <use style="fill:#0000ff;stroke:#0000ff;" x="737.430357" xlink:href="#m2ef7fba2f0" y="74.165364"/>
     <use style="fill:#0000ff;stroke:#0000ff;" x="750.716071" xlink:href="#m2ef7fba2f0" y="106.242296"/>
     <use style="fill:#0000ff;stroke:#0000ff;" x="764.001786" xlink:href="#m2ef7fba2f0" y="135.566325"/>
     <use style="fill:#0000ff;stroke:#0000ff;" x="777.2875" xlink:href="#m2ef7fba2f0" y="165.502449"/>
     <use style="fill:#0000ff;stroke:#0000ff;" x="790.573214" xlink:href="#m2ef7fba2f0" y="189.371393"/>
     <use style="fill:#0000ff;stroke:#0000ff;" x="803.858929" xlink:href="#m2ef7fba2f0" y="208.53728"/>
     <use style="fill:#0000ff;stroke:#0000ff;" x="817.144643" xlink:href="#m2ef7fba2f0" y="224.636004"/>
     <use style="fill:#0000ff;stroke:#0000ff;" x="830.430357" xlink:href="#m2ef7fba2f0" y="231.39594"/>
     <use style="fill:#0000ff;stroke:#0000ff;" x="843.716071" xlink:href="#m2ef7fba2f0" y="227.794824"/>
     <use style="fill:#0000ff;stroke:#0000ff;" x="857.001786" xlink:href="#m2ef7fba2f0" y="216.457337"/>
     <use style="fill:#0000ff;stroke:#0000ff;" x="870.2875" xlink:href="#m2ef7fba2f0" y="196.58227"/>
    </g>
   </g>
   <g id="patch_3">
    <path d="M 33.2875 288.199219 
L 33.2875 10.999219 
" style="fill:none;stroke:#000000;stroke-linecap:square;stroke-linejoin:miter;stroke-width:0.8;"/>
   </g>
   <g id="patch_4">
    <path d="M 870.2875 288.199219 
L 870.2875 10.999219 
" style="fill:none;stroke:#000000;stroke-linecap:square;stroke-linejoin:miter;stroke-width:0.8;"/>
   </g>
   <g id="patch_5">
    <path d="M 33.2875 288.199219 
L 870.2875 288.199219 
" style="fill:none;stroke:#000000;stroke-linecap:square;stroke-linejoin:miter;stroke-width:0.8;"/>
   </g>
   <g id="patch_6">
    <path d="M 33.2875 10.999219 
L 870.2875 10.999219 
" style="fill:none;stroke:#000000;stroke-linecap:square;stroke-linejoin:miter;stroke-width:0.8;"/>
   </g>
  </g>
 </g>
 <defs>
  <clipPath id="p8230eb417f">
   <rect height="277.2" width="837" x="33.2875" y="10.999219"/>
  </clipPath>
 </defs>
</svg>
