<?xml version="1.0" encoding="utf-8" standalone="no"?>
<!DOCTYPE svg PUBLIC "-//W3C//DTD SVG 1.1//EN"
  "http://www.w3.org/Graphics/SVG/1.1/DTD/svg11.dtd">
<!-- Created with matplotlib (http://matplotlib.org/) -->
<svg height="323pt" version="1.1" viewBox="0 0 876 323" width="876pt" xmlns="http://www.w3.org/2000/svg" xmlns:xlink="http://www.w3.org/1999/xlink">
 <defs>
  <style type="text/css">
*{stroke-linecap:butt;stroke-linejoin:round;}
  </style>
 </defs>
 <g id="figure_1">
  <g id="patch_1">
   <path d="
M0 323.821
L876.19 323.821
L876.19 0
L0 0
z
" style="fill:#ffffff;"/>
  </g>
  <g id="axes_1">
   <g id="patch_2">
    <path d="
M31.99 301.007
L868.99 301.007
L868.99 13.0069
L31.99 13.0069
z
" style="fill:#ffffff;"/>
   </g>
   <g id="line2d_1">
    <path clip-path="url(#p3e29ac047c)" d="
M31.99 233.035
L47.49 181.297
L62.99 103.703
L78.49 57.9717
L93.99 48.2742
L109.49 43.9572
L124.99 48.3651
L140.49 57.1774
L155.99 62.0606
L171.49 16.1373
L186.99 15.3257
L202.49 13.8185
L217.99 13.0069
L233.49 13.0069
L248.99 13.0069
L264.49 13.0069
L279.99 13.4757
L295.49 14.4869
L310.99 15.4476
L326.49 16.0079
L341.99 16.5263
L357.49 17.472
L372.99 30.4802
L388.49 60.1078
L403.99 96.2069
L419.49 154.416
L434.99 226.694
L450.49 267.372
L465.99 275.764
L481.49 281.236
L496.99 283.192
L512.49 282.958
L527.99 282.295
L543.49 281.258
L558.99 273.688
L574.49 260.891
L589.99 254.123
L605.49 264.082
L620.99 282.577
L636.49 292.536
L651.99 290.514
L667.49 286.758
L682.99 284.736
L698.49 285.843
L713.99 287.9
L729.49 289.007
L744.99 287.654
L760.49 285.142
L775.99 283.789
L791.49 286.165
L806.99 290.576
L822.49 292.951
L837.99 276.716
L853.49 240.937
L868.99 205.007" style="fill:none;stroke:#ff0000;stroke-linecap:square;"/>
    <defs>
     <path d="
M0 3
C0.795609 3 1.55874 2.6839 2.12132 2.12132
C2.6839 1.55874 3 0.795609 3 0
C3 -0.795609 2.6839 -1.55874 2.12132 -2.12132
C1.55874 -2.6839 0.795609 -3 0 -3
C-0.795609 -3 -1.55874 -2.6839 -2.12132 -2.12132
C-2.6839 -1.55874 -3 -0.795609 -3 0
C-3 0.795609 -2.6839 1.55874 -2.12132 2.12132
C-1.55874 2.6839 -0.795609 3 0 3
z
" id="m231f9b0f49" style="stroke:#000000;stroke-width:0.5;"/>
    </defs>
    <g clip-path="url(#p3e29ac047c)">
     <use style="fill:#ff0000;stroke:#000000;stroke-width:0.5;" x="31.99" xlink:href="#m231f9b0f49" y="233.035466795"/>
     <use style="fill:#ff0000;stroke:#000000;stroke-width:0.5;" x="47.49" xlink:href="#m231f9b0f49" y="181.297216021"/>
     <use style="fill:#ff0000;stroke:#000000;stroke-width:0.5;" x="62.99" xlink:href="#m231f9b0f49" y="103.702983795"/>
     <use style="fill:#ff0000;stroke:#000000;stroke-width:0.5;" x="78.49" xlink:href="#m231f9b0f49" y="57.9717078013"/>
     <use style="fill:#ff0000;stroke:#000000;stroke-width:0.5;" x="93.99" xlink:href="#m231f9b0f49" y="48.2742200917"/>
     <use style="fill:#ff0000;stroke:#000000;stroke-width:0.5;" x="109.49" xlink:href="#m231f9b0f49" y="43.9571956351"/>
     <use style="fill:#ff0000;stroke:#000000;stroke-width:0.5;" x="124.99" xlink:href="#m231f9b0f49" y="48.3650718688"/>
     <use style="fill:#ff0000;stroke:#000000;stroke-width:0.5;" x="140.49" xlink:href="#m231f9b0f49" y="57.1773976667"/>
     <use style="fill:#ff0000;stroke:#000000;stroke-width:0.5;" x="155.99" xlink:href="#m231f9b0f49" y="62.0605908981"/>
     <use style="fill:#ff0000;stroke:#000000;stroke-width:0.5;" x="171.49" xlink:href="#m231f9b0f49" y="16.1373097776"/>
     <use style="fill:#ff0000;stroke:#000000;stroke-width:0.5;" x="186.99" xlink:href="#m231f9b0f49" y="15.325715576"/>
     <use style="fill:#ff0000;stroke:#000000;stroke-width:0.5;" x="202.49" xlink:href="#m231f9b0f49" y="13.8184692016"/>
     <use style="fill:#ff0000;stroke:#000000;stroke-width:0.5;" x="217.99" xlink:href="#m231f9b0f49" y="13.006875"/>
     <use style="fill:#ff0000;stroke:#000000;stroke-width:0.5;" x="233.49" xlink:href="#m231f9b0f49" y="13.006875"/>
     <use style="fill:#ff0000;stroke:#000000;stroke-width:0.5;" x="248.99" xlink:href="#m231f9b0f49" y="13.006875"/>
     <use style="fill:#ff0000;stroke:#000000;stroke-width:0.5;" x="264.49" xlink:href="#m231f9b0f49" y="13.006875"/>
     <use style="fill:#ff0000;stroke:#000000;stroke-width:0.5;" x="279.99" xlink:href="#m231f9b0f49" y="13.4757057976"/>
     <use style="fill:#ff0000;stroke:#000000;stroke-width:0.5;" x="295.49" xlink:href="#m231f9b0f49" y="14.4869094784"/>
     <use style="fill:#ff0000;stroke:#000000;stroke-width:0.5;" x="310.99" xlink:href="#m231f9b0f49" y="15.4475529744"/>
     <use style="fill:#ff0000;stroke:#000000;stroke-width:0.5;" x="326.49" xlink:href="#m231f9b0f49" y="16.007883876"/>
     <use style="fill:#ff0000;stroke:#000000;stroke-width:0.5;" x="341.99" xlink:href="#m231f9b0f49" y="16.52627726"/>
     <use style="fill:#ff0000;stroke:#000000;stroke-width:0.5;" x="357.49" xlink:href="#m231f9b0f49" y="17.471991288"/>
     <use style="fill:#ff0000;stroke:#000000;stroke-width:0.5;" x="372.99" xlink:href="#m231f9b0f49" y="30.4801704702"/>
     <use style="fill:#ff0000;stroke:#000000;stroke-width:0.5;" x="388.49" xlink:href="#m231f9b0f49" y="60.1077946532"/>
     <use style="fill:#ff0000;stroke:#000000;stroke-width:0.5;" x="403.99" xlink:href="#m231f9b0f49" y="96.2068750032"/>
     <use style="fill:#ff0000;stroke:#000000;stroke-width:0.5;" x="419.49" xlink:href="#m231f9b0f49" y="154.416220124"/>
     <use style="fill:#ff0000;stroke:#000000;stroke-width:0.5;" x="434.99" xlink:href="#m231f9b0f49" y="226.694126807"/>
     <use style="fill:#ff0000;stroke:#000000;stroke-width:0.5;" x="450.49" xlink:href="#m231f9b0f49" y="267.371838494"/>
     <use style="fill:#ff0000;stroke:#000000;stroke-width:0.5;" x="465.99" xlink:href="#m231f9b0f49" y="275.764452149"/>
     <use style="fill:#ff0000;stroke:#000000;stroke-width:0.5;" x="481.49" xlink:href="#m231f9b0f49" y="281.236291915"/>
     <use style="fill:#ff0000;stroke:#000000;stroke-width:0.5;" x="496.99" xlink:href="#m231f9b0f49" y="283.192442011"/>
     <use style="fill:#ff0000;stroke:#000000;stroke-width:0.5;" x="512.49" xlink:href="#m231f9b0f49" y="282.958472734"/>
     <use style="fill:#ff0000;stroke:#000000;stroke-width:0.5;" x="527.99" xlink:href="#m231f9b0f49" y="282.294694915"/>
     <use style="fill:#ff0000;stroke:#000000;stroke-width:0.5;" x="543.49" xlink:href="#m231f9b0f49" y="281.258303572"/>
     <use style="fill:#ff0000;stroke:#000000;stroke-width:0.5;" x="558.99" xlink:href="#m231f9b0f49" y="273.688316766"/>
     <use style="fill:#ff0000;stroke:#000000;stroke-width:0.5;" x="574.49" xlink:href="#m231f9b0f49" y="260.890718802"/>
     <use style="fill:#ff0000;stroke:#000000;stroke-width:0.5;" x="589.99" xlink:href="#m231f9b0f49" y="254.123154062"/>
     <use style="fill:#ff0000;stroke:#000000;stroke-width:0.5;" x="605.49" xlink:href="#m231f9b0f49" y="264.082114392"/>
     <use style="fill:#ff0000;stroke:#000000;stroke-width:0.5;" x="620.99" xlink:href="#m231f9b0f49" y="282.577326434"/>
     <use style="fill:#ff0000;stroke:#000000;stroke-width:0.5;" x="636.49" xlink:href="#m231f9b0f49" y="292.536286764"/>
     <use style="fill:#ff0000;stroke:#000000;stroke-width:0.5;" x="651.99" xlink:href="#m231f9b0f49" y="290.513909451"/>
     <use style="fill:#ff0000;stroke:#000000;stroke-width:0.5;" x="667.49" xlink:href="#m231f9b0f49" y="286.758065872"/>
     <use style="fill:#ff0000;stroke:#000000;stroke-width:0.5;" x="682.99" xlink:href="#m231f9b0f49" y="284.73568856"/>
     <use style="fill:#ff0000;stroke:#000000;stroke-width:0.5;" x="698.49" xlink:href="#m231f9b0f49" y="285.843033192"/>
     <use style="fill:#ff0000;stroke:#000000;stroke-width:0.5;" x="713.99" xlink:href="#m231f9b0f49" y="287.899530367"/>
     <use style="fill:#ff0000;stroke:#000000;stroke-width:0.5;" x="729.49" xlink:href="#m231f9b0f49" y="289.006874999"/>
     <use style="fill:#ff0000;stroke:#000000;stroke-width:0.5;" x="744.99" xlink:href="#m231f9b0f49" y="287.654217994"/>
     <use style="fill:#ff0000;stroke:#000000;stroke-width:0.5;" x="760.49" xlink:href="#m231f9b0f49" y="285.142140699"/>
     <use style="fill:#ff0000;stroke:#000000;stroke-width:0.5;" x="775.99" xlink:href="#m231f9b0f49" y="283.789483694"/>
     <use style="fill:#ff0000;stroke:#000000;stroke-width:0.5;" x="791.49" xlink:href="#m231f9b0f49" y="286.164673722"/>
     <use style="fill:#ff0000;stroke:#000000;stroke-width:0.5;" x="806.99" xlink:href="#m231f9b0f49" y="290.575740917"/>
     <use style="fill:#ff0000;stroke:#000000;stroke-width:0.5;" x="822.49" xlink:href="#m231f9b0f49" y="292.950930945"/>
     <use style="fill:#ff0000;stroke:#000000;stroke-width:0.5;" x="837.99" xlink:href="#m231f9b0f49" y="276.715623404"/>
     <use style="fill:#ff0000;stroke:#000000;stroke-width:0.5;" x="853.49" xlink:href="#m231f9b0f49" y="240.937192321"/>
     <use style="fill:#ff0000;stroke:#000000;stroke-width:0.5;" x="868.99" xlink:href="#m231f9b0f49" y="205.00687501"/>
    </g>
   </g>
   <g id="line2d_2">
    <path clip-path="url(#p3e29ac047c)" d="
M31.99 300.222
L47.49 300.779
L62.99 301.007
L78.49 301.007
L93.99 301.007
L109.49 301.007
L124.99 301.007
L140.49 301.007
L155.99 301.007
L171.49 301.007
L186.99 301.007
L202.49 301.007
L217.99 301.007
L233.49 301.007
L248.99 301.007
L264.49 301.007
L279.99 300.538
L295.49 299.527
L310.99 298.566
L326.49 298.006
L341.99 297.487
L357.49 296.542
L372.99 283.534
L388.49 253.906
L403.99 217.807
L419.49 159.598
L434.99 87.3196
L450.49 46.6419
L465.99 38.2493
L481.49 32.7775
L496.99 30.8213
L512.49 31.0461
L527.99 31.7008
L543.49 32.7554
L558.99 42.0845
L574.49 62.5671
L589.99 86.6813
L605.49 120.201
L620.99 160.511
L636.49 187.501
L651.99 197.353
L667.49 203.817
L682.99 213.142
L698.49 238.311
L713.99 272.112
L729.49 290.507
L744.99 292.797
L760.49 294.242
L775.99 294.746
L791.49 293.758
L806.99 291.924
L822.49 290.937
L837.99 292.473
L853.49 295.59
L868.99 298.053" style="fill:none;stroke:#008000;stroke-linecap:square;"/>
    <defs>
     <path d="
M0 3
C0.795609 3 1.55874 2.6839 2.12132 2.12132
C2.6839 1.55874 3 0.795609 3 0
C3 -0.795609 2.6839 -1.55874 2.12132 -2.12132
C1.55874 -2.6839 0.795609 -3 0 -3
C-0.795609 -3 -1.55874 -2.6839 -2.12132 -2.12132
C-2.6839 -1.55874 -3 -0.795609 -3 0
C-3 0.795609 -2.6839 1.55874 -2.12132 2.12132
C-1.55874 2.6839 -0.795609 3 0 3
z
" id="m25f47eefb8" style="stroke:#000000;stroke-width:0.5;"/>
    </defs>
    <g clip-path="url(#p3e29ac047c)">
     <use style="fill:#008000;stroke:#000000;stroke-width:0.5;" x="31.99" xlink:href="#m25f47eefb8" y="300.222100071"/>
     <use style="fill:#008000;stroke:#000000;stroke-width:0.5;" x="47.49" xlink:href="#m25f47eefb8" y="300.7785901"/>
     <use style="fill:#008000;stroke:#000000;stroke-width:0.5;" x="62.99" xlink:href="#m25f47eefb8" y="301.006875"/>
     <use style="fill:#008000;stroke:#000000;stroke-width:0.5;" x="78.49" xlink:href="#m25f47eefb8" y="301.006875"/>
     <use style="fill:#008000;stroke:#000000;stroke-width:0.5;" x="93.99" xlink:href="#m25f47eefb8" y="301.006875"/>
     <use style="fill:#008000;stroke:#000000;stroke-width:0.5;" x="109.49" xlink:href="#m25f47eefb8" y="301.006875"/>
     <use style="fill:#008000;stroke:#000000;stroke-width:0.5;" x="124.99" xlink:href="#m25f47eefb8" y="301.006875"/>
     <use style="fill:#008000;stroke:#000000;stroke-width:0.5;" x="140.49" xlink:href="#m25f47eefb8" y="301.006875"/>
     <use style="fill:#008000;stroke:#000000;stroke-width:0.5;" x="155.99" xlink:href="#m25f47eefb8" y="301.006875"/>
     <use style="fill:#008000;stroke:#000000;stroke-width:0.5;" x="171.49" xlink:href="#m25f47eefb8" y="301.006875"/>
     <use style="fill:#008000;stroke:#000000;stroke-width:0.5;" x="186.99" xlink:href="#m25f47eefb8" y="301.006875"/>
     <use style="fill:#008000;stroke:#000000;stroke-width:0.5;" x="202.49" xlink:href="#m25f47eefb8" y="301.006875"/>
     <use style="fill:#008000;stroke:#000000;stroke-width:0.5;" x="217.99" xlink:href="#m25f47eefb8" y="301.006875"/>
     <use style="fill:#008000;stroke:#000000;stroke-width:0.5;" x="233.49" xlink:href="#m25f47eefb8" y="301.006875"/>
     <use style="fill:#008000;stroke:#000000;stroke-width:0.5;" x="248.99" xlink:href="#m25f47eefb8" y="301.006875"/>
     <use style="fill:#008000;stroke:#000000;stroke-width:0.5;" x="264.49" xlink:href="#m25f47eefb8" y="301.006875"/>
     <use style="fill:#008000;stroke:#000000;stroke-width:0.5;" x="279.99" xlink:href="#m25f47eefb8" y="300.538044204"/>
     <use style="fill:#008000;stroke:#000000;stroke-width:0.5;" x="295.49" xlink:href="#m25f47eefb8" y="299.526840527"/>
     <use style="fill:#008000;stroke:#000000;stroke-width:0.5;" x="310.99" xlink:href="#m25f47eefb8" y="298.566197034"/>
     <use style="fill:#008000;stroke:#000000;stroke-width:0.5;" x="326.49" xlink:href="#m25f47eefb8" y="298.005866133"/>
     <use style="fill:#008000;stroke:#000000;stroke-width:0.5;" x="341.99" xlink:href="#m25f47eefb8" y="297.487472749"/>
     <use style="fill:#008000;stroke:#000000;stroke-width:0.5;" x="357.49" xlink:href="#m25f47eefb8" y="296.541758721"/>
     <use style="fill:#008000;stroke:#000000;stroke-width:0.5;" x="372.99" xlink:href="#m25f47eefb8" y="283.533579537"/>
     <use style="fill:#008000;stroke:#000000;stroke-width:0.5;" x="388.49" xlink:href="#m25f47eefb8" y="253.90595535"/>
     <use style="fill:#008000;stroke:#000000;stroke-width:0.5;" x="403.99" xlink:href="#m25f47eefb8" y="217.806874997"/>
     <use style="fill:#008000;stroke:#000000;stroke-width:0.5;" x="419.49" xlink:href="#m25f47eefb8" y="159.597529874"/>
     <use style="fill:#008000;stroke:#000000;stroke-width:0.5;" x="434.99" xlink:href="#m25f47eefb8" y="87.3196231929"/>
     <use style="fill:#008000;stroke:#000000;stroke-width:0.5;" x="450.49" xlink:href="#m25f47eefb8" y="46.6419115056"/>
     <use style="fill:#008000;stroke:#000000;stroke-width:0.5;" x="465.99" xlink:href="#m25f47eefb8" y="38.2492978506"/>
     <use style="fill:#008000;stroke:#000000;stroke-width:0.5;" x="481.49" xlink:href="#m25f47eefb8" y="32.7774580845"/>
     <use style="fill:#008000;stroke:#000000;stroke-width:0.5;" x="496.99" xlink:href="#m25f47eefb8" y="30.8213079888"/>
     <use style="fill:#008000;stroke:#000000;stroke-width:0.5;" x="512.49" xlink:href="#m25f47eefb8" y="31.0461336052"/>
     <use style="fill:#008000;stroke:#000000;stroke-width:0.5;" x="527.99" xlink:href="#m25f47eefb8" y="31.7007677655"/>
     <use style="fill:#008000;stroke:#000000;stroke-width:0.5;" x="543.49" xlink:href="#m25f47eefb8" y="32.7554464368"/>
     <use style="fill:#008000;stroke:#000000;stroke-width:0.5;" x="558.99" xlink:href="#m25f47eefb8" y="42.0844604957"/>
     <use style="fill:#008000;stroke:#000000;stroke-width:0.5;" x="574.49" xlink:href="#m25f47eefb8" y="62.5671430933"/>
     <use style="fill:#008000;stroke:#000000;stroke-width:0.5;" x="589.99" xlink:href="#m25f47eefb8" y="86.681293608"/>
     <use style="fill:#008000;stroke:#000000;stroke-width:0.5;" x="605.49" xlink:href="#m25f47eefb8" y="120.201228163"/>
     <use style="fill:#008000;stroke:#000000;stroke-width:0.5;" x="620.99" xlink:href="#m25f47eefb8" y="160.510550769"/>
     <use style="fill:#008000;stroke:#000000;stroke-width:0.5;" x="636.49" xlink:href="#m25f47eefb8" y="187.500992635"/>
     <use style="fill:#008000;stroke:#000000;stroke-width:0.5;" x="651.99" xlink:href="#m25f47eefb8" y="197.352671151"/>
     <use style="fill:#008000;stroke:#000000;stroke-width:0.5;" x="667.49" xlink:href="#m25f47eefb8" y="203.816958527"/>
     <use style="fill:#008000;stroke:#000000;stroke-width:0.5;" x="682.99" xlink:href="#m25f47eefb8" y="213.14246821"/>
     <use style="fill:#008000;stroke:#000000;stroke-width:0.5;" x="698.49" xlink:href="#m25f47eefb8" y="238.310730613"/>
     <use style="fill:#008000;stroke:#000000;stroke-width:0.5;" x="713.99" xlink:href="#m25f47eefb8" y="272.111755426"/>
     <use style="fill:#008000;stroke:#000000;stroke-width:0.5;" x="729.49" xlink:href="#m25f47eefb8" y="290.506875001"/>
     <use style="fill:#008000;stroke:#000000;stroke-width:0.5;" x="744.99" xlink:href="#m25f47eefb8" y="292.796698925"/>
     <use style="fill:#008000;stroke:#000000;stroke-width:0.5;" x="760.49" xlink:href="#m25f47eefb8" y="294.242366673"/>
     <use style="fill:#008000;stroke:#000000;stroke-width:0.5;" x="775.99" xlink:href="#m25f47eefb8" y="294.746005436"/>
     <use style="fill:#008000;stroke:#000000;stroke-width:0.5;" x="791.49" xlink:href="#m25f47eefb8" y="293.758471231"/>
     <use style="fill:#008000;stroke:#000000;stroke-width:0.5;" x="806.99" xlink:href="#m25f47eefb8" y="291.924479134"/>
     <use style="fill:#008000;stroke:#000000;stroke-width:0.5;" x="822.49" xlink:href="#m25f47eefb8" y="290.936944929"/>
     <use style="fill:#008000;stroke:#000000;stroke-width:0.5;" x="837.99" xlink:href="#m25f47eefb8" y="292.472613408"/>
     <use style="fill:#008000;stroke:#000000;stroke-width:0.5;" x="853.49" xlink:href="#m25f47eefb8" y="295.589633869"/>
     <use style="fill:#008000;stroke:#000000;stroke-width:0.5;" x="868.99" xlink:href="#m25f47eefb8" y="298.053028845"/>
    </g>
   </g>
   <g id="line2d_3">
    <path clip-path="url(#p3e29ac047c)" d="
M31.99 81.7171
L47.49 132.958
L62.99 210.311
L78.49 255.994
L93.99 265.715
L109.49 270.057
L124.99 265.649
L140.49 256.836
L155.99 251.953
L171.49 297.876
L186.99 298.688
L202.49 300.195
L217.99 301.007
L233.49 301.007
L248.99 301.007
L264.49 301.007
L279.99 301.007
L295.49 301.007
L310.99 301.007
L326.49 301.007
L341.99 301.007
L357.49 301.007
L372.99 301.007
L388.49 301.007
L403.99 301.007
L419.49 301.007
L434.99 301.007
L450.49 301.007
L465.99 301.007
L481.49 301.007
L496.99 301.007
L512.49 301.007
L527.99 301.007
L543.49 301.007
L558.99 297.39
L574.49 287.819
L589.99 274.216
L605.49 233.805
L620.99 172.438
L636.49 134.983
L651.99 127.841
L667.49 123.763
L682.99 117.142
L698.49 91.6396
L713.99 54.5026
L729.49 35.5069
L744.99 35.7605
L760.49 36.2315
L775.99 36.4851
L791.49 35.0975
L806.99 32.5204
L822.49 31.1327
L837.99 45.9025
L853.49 78.634
L868.99 111.961" style="fill:none;stroke:#0000ff;stroke-linecap:square;"/>
    <defs>
     <path d="
M0 3
C0.795609 3 1.55874 2.6839 2.12132 2.12132
C2.6839 1.55874 3 0.795609 3 0
C3 -0.795609 2.6839 -1.55874 2.12132 -2.12132
C1.55874 -2.6839 0.795609 -3 0 -3
C-0.795609 -3 -1.55874 -2.6839 -2.12132 -2.12132
C-2.6839 -1.55874 -3 -0.795609 -3 0
C-3 0.795609 -2.6839 1.55874 -2.12132 2.12132
C-1.55874 2.6839 -0.795609 3 0 3
z
" id="mdb00ba95ec" style="stroke:#000000;stroke-width:0.5;"/>
    </defs>
    <g clip-path="url(#p3e29ac047c)">
     <use style="fill:#0000ff;stroke:#000000;stroke-width:0.5;" x="31.99" xlink:href="#mdb00ba95ec" y="81.7170601724"/>
     <use style="fill:#0000ff;stroke:#000000;stroke-width:0.5;" x="47.49" xlink:href="#mdb00ba95ec" y="132.958003275"/>
     <use style="fill:#0000ff;stroke:#000000;stroke-width:0.5;" x="62.99" xlink:href="#mdb00ba95ec" y="210.310766202"/>
     <use style="fill:#0000ff;stroke:#000000;stroke-width:0.5;" x="78.49" xlink:href="#mdb00ba95ec" y="255.99379769"/>
     <use style="fill:#0000ff;stroke:#000000;stroke-width:0.5;" x="93.99" xlink:href="#mdb00ba95ec" y="265.715407652"/>
     <use style="fill:#0000ff;stroke:#000000;stroke-width:0.5;" x="109.49" xlink:href="#mdb00ba95ec" y="270.056554361"/>
     <use style="fill:#0000ff;stroke:#000000;stroke-width:0.5;" x="124.99" xlink:href="#mdb00ba95ec" y="265.648678127"/>
     <use style="fill:#0000ff;stroke:#000000;stroke-width:0.5;" x="140.49" xlink:href="#mdb00ba95ec" y="256.836352329"/>
     <use style="fill:#0000ff;stroke:#000000;stroke-width:0.5;" x="155.99" xlink:href="#mdb00ba95ec" y="251.953159099"/>
     <use style="fill:#0000ff;stroke:#000000;stroke-width:0.5;" x="171.49" xlink:href="#mdb00ba95ec" y="297.876440217"/>
     <use style="fill:#0000ff;stroke:#000000;stroke-width:0.5;" x="186.99" xlink:href="#mdb00ba95ec" y="298.68803442"/>
     <use style="fill:#0000ff;stroke:#000000;stroke-width:0.5;" x="202.49" xlink:href="#mdb00ba95ec" y="300.195280797"/>
     <use style="fill:#0000ff;stroke:#000000;stroke-width:0.5;" x="217.99" xlink:href="#mdb00ba95ec" y="301.006875"/>
     <use style="fill:#0000ff;stroke:#000000;stroke-width:0.5;" x="233.49" xlink:href="#mdb00ba95ec" y="301.006875"/>
     <use style="fill:#0000ff;stroke:#000000;stroke-width:0.5;" x="248.99" xlink:href="#mdb00ba95ec" y="301.006875"/>
     <use style="fill:#0000ff;stroke:#000000;stroke-width:0.5;" x="264.49" xlink:href="#mdb00ba95ec" y="301.006875"/>
     <use style="fill:#0000ff;stroke:#000000;stroke-width:0.5;" x="279.99" xlink:href="#mdb00ba95ec" y="301.006875"/>
     <use style="fill:#0000ff;stroke:#000000;stroke-width:0.5;" x="295.49" xlink:href="#mdb00ba95ec" y="301.006875"/>
     <use style="fill:#0000ff;stroke:#000000;stroke-width:0.5;" x="310.99" xlink:href="#mdb00ba95ec" y="301.006875"/>
     <use style="fill:#0000ff;stroke:#000000;stroke-width:0.5;" x="326.49" xlink:href="#mdb00ba95ec" y="301.006875"/>
     <use style="fill:#0000ff;stroke:#000000;stroke-width:0.5;" x="341.99" xlink:href="#mdb00ba95ec" y="301.006875"/>
     <use style="fill:#0000ff;stroke:#000000;stroke-width:0.5;" x="357.49" xlink:href="#mdb00ba95ec" y="301.006875"/>
     <use style="fill:#0000ff;stroke:#000000;stroke-width:0.5;" x="372.99" xlink:href="#mdb00ba95ec" y="301.006875"/>
     <use style="fill:#0000ff;stroke:#000000;stroke-width:0.5;" x="388.49" xlink:href="#mdb00ba95ec" y="301.006875"/>
     <use style="fill:#0000ff;stroke:#000000;stroke-width:0.5;" x="403.99" xlink:href="#mdb00ba95ec" y="301.006875"/>
     <use style="fill:#0000ff;stroke:#000000;stroke-width:0.5;" x="419.49" xlink:href="#mdb00ba95ec" y="301.006875"/>
     <use style="fill:#0000ff;stroke:#000000;stroke-width:0.5;" x="434.99" xlink:href="#mdb00ba95ec" y="301.006875"/>
     <use style="fill:#0000ff;stroke:#000000;stroke-width:0.5;" x="450.49" xlink:href="#mdb00ba95ec" y="301.006875"/>
     <use style="fill:#0000ff;stroke:#000000;stroke-width:0.5;" x="465.99" xlink:href="#mdb00ba95ec" y="301.006875"/>
     <use style="fill:#0000ff;stroke:#000000;stroke-width:0.5;" x="481.49" xlink:href="#mdb00ba95ec" y="301.006875"/>
     <use style="fill:#0000ff;stroke:#000000;stroke-width:0.5;" x="496.99" xlink:href="#mdb00ba95ec" y="301.006875"/>
     <use style="fill:#0000ff;stroke:#000000;stroke-width:0.5;" x="512.49" xlink:href="#mdb00ba95ec" y="301.006875"/>
     <use style="fill:#0000ff;stroke:#000000;stroke-width:0.5;" x="527.99" xlink:href="#mdb00ba95ec" y="301.006875"/>
     <use style="fill:#0000ff;stroke:#000000;stroke-width:0.5;" x="543.49" xlink:href="#mdb00ba95ec" y="301.006875"/>
     <use style="fill:#0000ff;stroke:#000000;stroke-width:0.5;" x="558.99" xlink:href="#mdb00ba95ec" y="297.389666949"/>
     <use style="fill:#0000ff;stroke:#000000;stroke-width:0.5;" x="574.49" xlink:href="#mdb00ba95ec" y="287.818970526"/>
     <use style="fill:#0000ff;stroke:#000000;stroke-width:0.5;" x="589.99" xlink:href="#mdb00ba95ec" y="274.216177327"/>
     <use style="fill:#0000ff;stroke:#000000;stroke-width:0.5;" x="605.49" xlink:href="#mdb00ba95ec" y="233.804602695"/>
     <use style="fill:#0000ff;stroke:#000000;stroke-width:0.5;" x="620.99" xlink:href="#mdb00ba95ec" y="172.437983938"/>
     <use style="fill:#0000ff;stroke:#000000;stroke-width:0.5;" x="636.49" xlink:href="#mdb00ba95ec" y="134.983345598"/>
     <use style="fill:#0000ff;stroke:#000000;stroke-width:0.5;" x="651.99" xlink:href="#mdb00ba95ec" y="127.841227314"/>
     <use style="fill:#0000ff;stroke:#000000;stroke-width:0.5;" x="667.49" xlink:href="#mdb00ba95ec" y="123.763118468"/>
     <use style="fill:#0000ff;stroke:#000000;stroke-width:0.5;" x="682.99" xlink:href="#mdb00ba95ec" y="117.142468219"/>
     <use style="fill:#0000ff;stroke:#000000;stroke-width:0.5;" x="698.49" xlink:href="#mdb00ba95ec" y="91.6395642454"/>
     <use style="fill:#0000ff;stroke:#000000;stroke-width:0.5;" x="713.99" xlink:href="#mdb00ba95ec" y="54.5025981539"/>
     <use style="fill:#0000ff;stroke:#000000;stroke-width:0.5;" x="729.49" xlink:href="#mdb00ba95ec" y="35.506875"/>
     <use style="fill:#0000ff;stroke:#000000;stroke-width:0.5;" x="744.99" xlink:href="#mdb00ba95ec" y="35.7604981861"/>
     <use style="fill:#0000ff;stroke:#000000;stroke-width:0.5;" x="760.49" xlink:href="#mdb00ba95ec" y="36.2315126747"/>
     <use style="fill:#0000ff;stroke:#000000;stroke-width:0.5;" x="775.99" xlink:href="#mdb00ba95ec" y="36.4851358608"/>
     <use style="fill:#0000ff;stroke:#000000;stroke-width:0.5;" x="791.49" xlink:href="#mdb00ba95ec" y="35.0974800379"/>
     <use style="fill:#0000ff;stroke:#000000;stroke-width:0.5;" x="806.99" xlink:href="#mdb00ba95ec" y="32.5204049381"/>
     <use style="fill:#0000ff;stroke:#000000;stroke-width:0.5;" x="822.49" xlink:href="#mdb00ba95ec" y="31.1327491152"/>
     <use style="fill:#0000ff;stroke:#000000;stroke-width:0.5;" x="837.99" xlink:href="#mdb00ba95ec" y="45.9025084029"/>
     <use style="fill:#0000ff;stroke:#000000;stroke-width:0.5;" x="853.49" xlink:href="#mdb00ba95ec" y="78.6340392555"/>
     <use style="fill:#0000ff;stroke:#000000;stroke-width:0.5;" x="868.99" xlink:href="#mdb00ba95ec" y="111.960721157"/>
    </g>
   </g>
   <g id="patch_3">
    <path d="
M31.99 301.007
L31.99 13.0069" style="fill:none;stroke:#000000;stroke-linecap:square;stroke-linejoin:miter;"/>
   </g>
   <g id="patch_4">
    <path d="
M31.99 13.0069
L868.99 13.0069" style="fill:none;stroke:#000000;stroke-linecap:square;stroke-linejoin:miter;"/>
   </g>
   <g id="patch_5">
    <path d="
M868.99 301.007
L868.99 13.0069" style="fill:none;stroke:#000000;stroke-linecap:square;stroke-linejoin:miter;"/>
   </g>
   <g id="patch_6">
    <path d="
M31.99 301.007
L868.99 301.007" style="fill:none;stroke:#000000;stroke-linecap:square;stroke-linejoin:miter;"/>
   </g>
   <g id="matplotlib.axis_1">
    <g id="xtick_1">
     <g id="line2d_4">
      <defs>
       <path d="
M0 0
L0 -4" id="mc7db9fdffb" style="stroke:#000000;stroke-width:0.5;"/>
      </defs>
      <g>
       <use style="stroke:#000000;stroke-width:0.5;" x="31.99" xlink:href="#mc7db9fdffb" y="301.006875"/>
      </g>
     </g>
     <g id="line2d_5">
      <defs>
       <path d="
M0 0
L0 4" id="m5a7d422ac3" style="stroke:#000000;stroke-width:0.5;"/>
      </defs>
      <g>
       <use style="stroke:#000000;stroke-width:0.5;" x="31.99" xlink:href="#m5a7d422ac3" y="13.006875"/>
      </g>
     </g>
     <g id="text_1">
      <!-- 0 -->
      <defs>
       <path d="
M31.7812 66.4062
Q24.1719 66.4062 20.3281 58.9062
Q16.5 51.4219 16.5 36.375
Q16.5 21.3906 20.3281 13.8906
Q24.1719 6.39062 31.7812 6.39062
Q39.4531 6.39062 43.2812 13.8906
Q47.125 21.3906 47.125 36.375
Q47.125 51.4219 43.2812 58.9062
Q39.4531 66.4062 31.7812 66.4062
M31.7812 74.2188
Q44.0469 74.2188 50.5156 64.5156
Q56.9844 54.8281 56.9844 36.375
Q56.9844 17.9688 50.5156 8.26562
Q44.0469 -1.42188 31.7812 -1.42188
Q19.5312 -1.42188 13.0625 8.26562
Q6.59375 17.9688 6.59375 36.375
Q6.59375 54.8281 13.0625 64.5156
Q19.5312 74.2188 31.7812 74.2188" id="BitstreamVeraSans-Roman-30"/>
      </defs>
      <g transform="translate(28.9665625 314.125)scale(0.12 -0.12)">
       <use xlink:href="#BitstreamVeraSans-Roman-30"/>
      </g>
     </g>
    </g>
    <g id="xtick_2">
     <g id="line2d_6">
      <g>
       <use style="stroke:#000000;stroke-width:0.5;" x="186.99" xlink:href="#mc7db9fdffb" y="301.006875"/>
      </g>
     </g>
     <g id="line2d_7">
      <g>
       <use style="stroke:#000000;stroke-width:0.5;" x="186.99" xlink:href="#m5a7d422ac3" y="13.006875"/>
      </g>
     </g>
     <g id="text_2">
      <!-- 10 -->
      <defs>
       <path d="
M12.4062 8.29688
L28.5156 8.29688
L28.5156 63.9219
L10.9844 60.4062
L10.9844 69.3906
L28.4219 72.9062
L38.2812 72.9062
L38.2812 8.29688
L54.3906 8.29688
L54.3906 0
L12.4062 0
z
" id="BitstreamVeraSans-Roman-31"/>
      </defs>
      <g transform="translate(180.4125 314.125)scale(0.12 -0.12)">
       <use xlink:href="#BitstreamVeraSans-Roman-31"/>
       <use x="63.623046875" xlink:href="#BitstreamVeraSans-Roman-30"/>
      </g>
     </g>
    </g>
    <g id="xtick_3">
     <g id="line2d_8">
      <g>
       <use style="stroke:#000000;stroke-width:0.5;" x="341.99" xlink:href="#mc7db9fdffb" y="301.006875"/>
      </g>
     </g>
     <g id="line2d_9">
      <g>
       <use style="stroke:#000000;stroke-width:0.5;" x="341.99" xlink:href="#m5a7d422ac3" y="13.006875"/>
      </g>
     </g>
     <g id="text_3">
      <!-- 20 -->
      <defs>
       <path d="
M19.1875 8.29688
L53.6094 8.29688
L53.6094 0
L7.32812 0
L7.32812 8.29688
Q12.9375 14.1094 22.625 23.8906
Q32.3281 33.6875 34.8125 36.5312
Q39.5469 41.8438 41.4219 45.5312
Q43.3125 49.2188 43.3125 52.7812
Q43.3125 58.5938 39.2344 62.25
Q35.1562 65.9219 28.6094 65.9219
Q23.9688 65.9219 18.8125 64.3125
Q13.6719 62.7031 7.8125 59.4219
L7.8125 69.3906
Q13.7656 71.7812 18.9375 73
Q24.125 74.2188 28.4219 74.2188
Q39.75 74.2188 46.4844 68.5469
Q53.2188 62.8906 53.2188 53.4219
Q53.2188 48.9219 51.5312 44.8906
Q49.8594 40.875 45.4062 35.4062
Q44.1875 33.9844 37.6406 27.2188
Q31.1094 20.4531 19.1875 8.29688" id="BitstreamVeraSans-Roman-32"/>
      </defs>
      <g transform="translate(335.193125 314.125)scale(0.12 -0.12)">
       <use xlink:href="#BitstreamVeraSans-Roman-32"/>
       <use x="63.623046875" xlink:href="#BitstreamVeraSans-Roman-30"/>
      </g>
     </g>
    </g>
    <g id="xtick_4">
     <g id="line2d_10">
      <g>
       <use style="stroke:#000000;stroke-width:0.5;" x="496.99" xlink:href="#mc7db9fdffb" y="301.006875"/>
      </g>
     </g>
     <g id="line2d_11">
      <g>
       <use style="stroke:#000000;stroke-width:0.5;" x="496.99" xlink:href="#m5a7d422ac3" y="13.006875"/>
      </g>
     </g>
     <g id="text_4">
      <!-- 30 -->
      <defs>
       <path d="
M40.5781 39.3125
Q47.6562 37.7969 51.625 33
Q55.6094 28.2188 55.6094 21.1875
Q55.6094 10.4062 48.1875 4.48438
Q40.7656 -1.42188 27.0938 -1.42188
Q22.5156 -1.42188 17.6562 -0.515625
Q12.7969 0.390625 7.625 2.20312
L7.625 11.7188
Q11.7188 9.32812 16.5938 8.10938
Q21.4844 6.89062 26.8125 6.89062
Q36.0781 6.89062 40.9375 10.5469
Q45.7969 14.2031 45.7969 21.1875
Q45.7969 27.6406 41.2812 31.2656
Q36.7656 34.9062 28.7188 34.9062
L20.2188 34.9062
L20.2188 43.0156
L29.1094 43.0156
Q36.375 43.0156 40.2344 45.9219
Q44.0938 48.8281 44.0938 54.2969
Q44.0938 59.9062 40.1094 62.9062
Q36.1406 65.9219 28.7188 65.9219
Q24.6562 65.9219 20.0156 65.0312
Q15.375 64.1562 9.8125 62.3125
L9.8125 71.0938
Q15.4375 72.6562 20.3438 73.4375
Q25.25 74.2188 29.5938 74.2188
Q40.8281 74.2188 47.3594 69.1094
Q53.9062 64.0156 53.9062 55.3281
Q53.9062 49.2656 50.4375 45.0938
Q46.9688 40.9219 40.5781 39.3125" id="BitstreamVeraSans-Roman-33"/>
      </defs>
      <g transform="translate(490.2109375 314.125)scale(0.12 -0.12)">
       <use xlink:href="#BitstreamVeraSans-Roman-33"/>
       <use x="63.623046875" xlink:href="#BitstreamVeraSans-Roman-30"/>
      </g>
     </g>
    </g>
    <g id="xtick_5">
     <g id="line2d_12">
      <g>
       <use style="stroke:#000000;stroke-width:0.5;" x="651.99" xlink:href="#mc7db9fdffb" y="301.006875"/>
      </g>
     </g>
     <g id="line2d_13">
      <g>
       <use style="stroke:#000000;stroke-width:0.5;" x="651.99" xlink:href="#m5a7d422ac3" y="13.006875"/>
      </g>
     </g>
     <g id="text_5">
      <!-- 40 -->
      <defs>
       <path d="
M37.7969 64.3125
L12.8906 25.3906
L37.7969 25.3906
z

M35.2031 72.9062
L47.6094 72.9062
L47.6094 25.3906
L58.0156 25.3906
L58.0156 17.1875
L47.6094 17.1875
L47.6094 0
L37.7969 0
L37.7969 17.1875
L4.89062 17.1875
L4.89062 26.7031
z
" id="BitstreamVeraSans-Roman-34"/>
      </defs>
      <g transform="translate(645.046875 314.125)scale(0.12 -0.12)">
       <use xlink:href="#BitstreamVeraSans-Roman-34"/>
       <use x="63.623046875" xlink:href="#BitstreamVeraSans-Roman-30"/>
      </g>
     </g>
    </g>
    <g id="xtick_6">
     <g id="line2d_14">
      <g>
       <use style="stroke:#000000;stroke-width:0.5;" x="806.99" xlink:href="#mc7db9fdffb" y="301.006875"/>
      </g>
     </g>
     <g id="line2d_15">
      <g>
       <use style="stroke:#000000;stroke-width:0.5;" x="806.99" xlink:href="#m5a7d422ac3" y="13.006875"/>
      </g>
     </g>
     <g id="text_6">
      <!-- 50 -->
      <defs>
       <path d="
M10.7969 72.9062
L49.5156 72.9062
L49.5156 64.5938
L19.8281 64.5938
L19.8281 46.7344
Q21.9688 47.4688 24.1094 47.8281
Q26.2656 48.1875 28.4219 48.1875
Q40.625 48.1875 47.75 41.5
Q54.8906 34.8125 54.8906 23.3906
Q54.8906 11.625 47.5625 5.09375
Q40.2344 -1.42188 26.9062 -1.42188
Q22.3125 -1.42188 17.5469 -0.640625
Q12.7969 0.140625 7.71875 1.70312
L7.71875 11.625
Q12.1094 9.23438 16.7969 8.0625
Q21.4844 6.89062 26.7031 6.89062
Q35.1562 6.89062 40.0781 11.3281
Q45.0156 15.7656 45.0156 23.3906
Q45.0156 31 40.0781 35.4375
Q35.1562 39.8906 26.7031 39.8906
Q22.75 39.8906 18.8125 39.0156
Q14.8906 38.1406 10.7969 36.2812
z
" id="BitstreamVeraSans-Roman-35"/>
      </defs>
      <g transform="translate(800.2165625 314.125)scale(0.12 -0.12)">
       <use xlink:href="#BitstreamVeraSans-Roman-35"/>
       <use x="63.623046875" xlink:href="#BitstreamVeraSans-Roman-30"/>
      </g>
     </g>
    </g>
   </g>
   <g id="matplotlib.axis_2">
    <g id="ytick_1">
     <g id="line2d_16">
      <defs>
       <path d="
M0 0
L4 0" id="md7965d1ba0" style="stroke:#000000;stroke-width:0.5;"/>
      </defs>
      <g>
       <use style="stroke:#000000;stroke-width:0.5;" x="31.99" xlink:href="#md7965d1ba0" y="301.006875"/>
      </g>
     </g>
     <g id="line2d_17">
      <defs>
       <path d="
M0 0
L-4 0" id="md9a1c1a7cd" style="stroke:#000000;stroke-width:0.5;"/>
      </defs>
      <g>
       <use style="stroke:#000000;stroke-width:0.5;" x="868.99" xlink:href="#md9a1c1a7cd" y="301.006875"/>
      </g>
     </g>
     <g id="text_7">
      <!-- 0 -->
      <g transform="translate(21.943125 304.318125)scale(0.12 -0.12)">
       <use xlink:href="#BitstreamVeraSans-Roman-30"/>
      </g>
     </g>
    </g>
    <g id="ytick_2">
     <g id="line2d_18">
      <g>
       <use style="stroke:#000000;stroke-width:0.5;" x="31.99" xlink:href="#md7965d1ba0" y="243.406875"/>
      </g>
     </g>
     <g id="line2d_19">
      <g>
       <use style="stroke:#000000;stroke-width:0.5;" x="868.99" xlink:href="#md9a1c1a7cd" y="243.406875"/>
      </g>
     </g>
     <g id="text_8">
      <!-- 20 -->
      <g transform="translate(14.39625 246.718125)scale(0.12 -0.12)">
       <use xlink:href="#BitstreamVeraSans-Roman-32"/>
       <use x="63.623046875" xlink:href="#BitstreamVeraSans-Roman-30"/>
      </g>
     </g>
    </g>
    <g id="ytick_3">
     <g id="line2d_20">
      <g>
       <use style="stroke:#000000;stroke-width:0.5;" x="31.99" xlink:href="#md7965d1ba0" y="185.806875"/>
      </g>
     </g>
     <g id="line2d_21">
      <g>
       <use style="stroke:#000000;stroke-width:0.5;" x="868.99" xlink:href="#md9a1c1a7cd" y="185.806875"/>
      </g>
     </g>
     <g id="text_9">
      <!-- 40 -->
      <g transform="translate(14.10375 189.118125)scale(0.12 -0.12)">
       <use xlink:href="#BitstreamVeraSans-Roman-34"/>
       <use x="63.623046875" xlink:href="#BitstreamVeraSans-Roman-30"/>
      </g>
     </g>
    </g>
    <g id="ytick_4">
     <g id="line2d_22">
      <g>
       <use style="stroke:#000000;stroke-width:0.5;" x="31.99" xlink:href="#md7965d1ba0" y="128.206875"/>
      </g>
     </g>
     <g id="line2d_23">
      <g>
       <use style="stroke:#000000;stroke-width:0.5;" x="868.99" xlink:href="#md9a1c1a7cd" y="128.206875"/>
      </g>
     </g>
     <g id="text_10">
      <!-- 60 -->
      <defs>
       <path d="
M33.0156 40.375
Q26.375 40.375 22.4844 35.8281
Q18.6094 31.2969 18.6094 23.3906
Q18.6094 15.5312 22.4844 10.9531
Q26.375 6.39062 33.0156 6.39062
Q39.6562 6.39062 43.5312 10.9531
Q47.4062 15.5312 47.4062 23.3906
Q47.4062 31.2969 43.5312 35.8281
Q39.6562 40.375 33.0156 40.375
M52.5938 71.2969
L52.5938 62.3125
Q48.875 64.0625 45.0938 64.9844
Q41.3125 65.9219 37.5938 65.9219
Q27.8281 65.9219 22.6719 59.3281
Q17.5312 52.7344 16.7969 39.4062
Q19.6719 43.6562 24.0156 45.9219
Q28.375 48.1875 33.5938 48.1875
Q44.5781 48.1875 50.9531 41.5156
Q57.3281 34.8594 57.3281 23.3906
Q57.3281 12.1562 50.6875 5.35938
Q44.0469 -1.42188 33.0156 -1.42188
Q20.3594 -1.42188 13.6719 8.26562
Q6.98438 17.9688 6.98438 36.375
Q6.98438 53.6562 15.1875 63.9375
Q23.3906 74.2188 37.2031 74.2188
Q40.9219 74.2188 44.7031 73.4844
Q48.4844 72.75 52.5938 71.2969" id="BitstreamVeraSans-Roman-36"/>
      </defs>
      <g transform="translate(14.355 131.518125)scale(0.12 -0.12)">
       <use xlink:href="#BitstreamVeraSans-Roman-36"/>
       <use x="63.623046875" xlink:href="#BitstreamVeraSans-Roman-30"/>
      </g>
     </g>
    </g>
    <g id="ytick_5">
     <g id="line2d_24">
      <g>
       <use style="stroke:#000000;stroke-width:0.5;" x="31.99" xlink:href="#md7965d1ba0" y="70.606875"/>
      </g>
     </g>
     <g id="line2d_25">
      <g>
       <use style="stroke:#000000;stroke-width:0.5;" x="868.99" xlink:href="#md9a1c1a7cd" y="70.606875"/>
      </g>
     </g>
     <g id="text_11">
      <!-- 80 -->
      <defs>
       <path d="
M31.7812 34.625
Q24.75 34.625 20.7188 30.8594
Q16.7031 27.0938 16.7031 20.5156
Q16.7031 13.9219 20.7188 10.1562
Q24.75 6.39062 31.7812 6.39062
Q38.8125 6.39062 42.8594 10.1719
Q46.9219 13.9688 46.9219 20.5156
Q46.9219 27.0938 42.8906 30.8594
Q38.875 34.625 31.7812 34.625
M21.9219 38.8125
Q15.5781 40.375 12.0312 44.7188
Q8.5 49.0781 8.5 55.3281
Q8.5 64.0625 14.7188 69.1406
Q20.9531 74.2188 31.7812 74.2188
Q42.6719 74.2188 48.875 69.1406
Q55.0781 64.0625 55.0781 55.3281
Q55.0781 49.0781 51.5312 44.7188
Q48 40.375 41.7031 38.8125
Q48.8281 37.1562 52.7969 32.3125
Q56.7812 27.4844 56.7812 20.5156
Q56.7812 9.90625 50.3125 4.23438
Q43.8438 -1.42188 31.7812 -1.42188
Q19.7344 -1.42188 13.25 4.23438
Q6.78125 9.90625 6.78125 20.5156
Q6.78125 27.4844 10.7812 32.3125
Q14.7969 37.1562 21.9219 38.8125
M18.3125 54.3906
Q18.3125 48.7344 21.8438 45.5625
Q25.3906 42.3906 31.7812 42.3906
Q38.1406 42.3906 41.7188 45.5625
Q45.3125 48.7344 45.3125 54.3906
Q45.3125 60.0625 41.7188 63.2344
Q38.1406 66.4062 31.7812 66.4062
Q25.3906 66.4062 21.8438 63.2344
Q18.3125 60.0625 18.3125 54.3906" id="BitstreamVeraSans-Roman-38"/>
      </defs>
      <g transform="translate(14.330625 73.918125)scale(0.12 -0.12)">
       <use xlink:href="#BitstreamVeraSans-Roman-38"/>
       <use x="63.623046875" xlink:href="#BitstreamVeraSans-Roman-30"/>
      </g>
     </g>
    </g>
    <g id="ytick_6">
     <g id="line2d_26">
      <g>
       <use style="stroke:#000000;stroke-width:0.5;" x="31.99" xlink:href="#md7965d1ba0" y="13.006875"/>
      </g>
     </g>
     <g id="line2d_27">
      <g>
       <use style="stroke:#000000;stroke-width:0.5;" x="868.99" xlink:href="#md9a1c1a7cd" y="13.006875"/>
      </g>
     </g>
     <g id="text_12">
      <!-- 100 -->
      <g transform="translate(7.2 16.318125)scale(0.12 -0.12)">
       <use xlink:href="#BitstreamVeraSans-Roman-31"/>
       <use x="63.623046875" xlink:href="#BitstreamVeraSans-Roman-30"/>
       <use x="127.24609375" xlink:href="#BitstreamVeraSans-Roman-30"/>
      </g>
     </g>
    </g>
   </g>
  </g>
 </g>
 <defs>
  <clipPath id="p3e29ac047c">
   <rect height="288.0" width="837.0" x="31.99" y="13.006875"/>
  </clipPath>
 </defs>
</svg>
