<?xml version="1.0" encoding="utf-8" standalone="no"?>
<!DOCTYPE svg PUBLIC "-//W3C//DTD SVG 1.1//EN"
  "http://www.w3.org/Graphics/SVG/1.1/DTD/svg11.dtd">
<!-- Created with matplotlib (https://matplotlib.org/) -->
<svg height="312.077344pt" version="1.1" viewBox="0 0 880.665625 312.077344" width="880.665625pt" xmlns="http://www.w3.org/2000/svg" xmlns:xlink="http://www.w3.org/1999/xlink">
 <defs>
  <style type="text/css">
*{stroke-linecap:butt;stroke-linejoin:round;}
  </style>
 </defs>
 <g id="figure_1">
  <g id="patch_1">
   <path d="M 0 312.077344 
L 880.665625 312.077344 
L 880.665625 0 
L 0 0 
z
" style="fill:#ffffff;"/>
  </g>
  <g id="axes_1">
   <g id="patch_2">
    <path d="M 30.103125 288.199219 
L 867.103125 288.199219 
L 867.103125 10.999219 
L 30.103125 10.999219 
z
" style="fill:#ffffff;"/>
   </g>
   <g id="PolyCollection_1">
    <path clip-path="url(#p7b5f3ff5f8)" d="M 30.103125 10.999219 
L 30.103125 288.199219 
L 30.103125 288.199219 
L 30.103125 10.999219 
L 30.103125 10.999219 
L 30.103125 10.999219 
z
" style="fill:#808080;fill-opacity:0.3;"/>
   </g>
   <g id="PolyCollection_2">
    <path clip-path="url(#p7b5f3ff5f8)" d="M 574.153125 10.999219 
L 574.153125 288.199219 
L 867.103125 288.199219 
L 867.103125 10.999219 
L 867.103125 10.999219 
L 574.153125 10.999219 
z
" style="fill:#808080;fill-opacity:0.3;"/>
   </g>
   <g id="matplotlib.axis_1">
    <g id="xtick_1">
     <g id="line2d_1">
      <defs>
       <path d="M 0 0 
L 0 3.5 
" id="md3565b6965" style="stroke:#000000;stroke-width:0.8;"/>
      </defs>
      <g>
       <use style="stroke:#000000;stroke-width:0.8;" x="30.103125" xlink:href="#md3565b6965" y="288.199219"/>
      </g>
     </g>
     <g id="text_1">
      <!-- 0 -->
      <defs>
       <path d="M 31.78125 66.40625 
Q 24.171875 66.40625 20.328125 58.90625 
Q 16.5 51.421875 16.5 36.375 
Q 16.5 21.390625 20.328125 13.890625 
Q 24.171875 6.390625 31.78125 6.390625 
Q 39.453125 6.390625 43.28125 13.890625 
Q 47.125 21.390625 47.125 36.375 
Q 47.125 51.421875 43.28125 58.90625 
Q 39.453125 66.40625 31.78125 66.40625 
z
M 31.78125 74.21875 
Q 44.046875 74.21875 50.515625 64.515625 
Q 56.984375 54.828125 56.984375 36.375 
Q 56.984375 17.96875 50.515625 8.265625 
Q 44.046875 -1.421875 31.78125 -1.421875 
Q 19.53125 -1.421875 13.0625 8.265625 
Q 6.59375 17.96875 6.59375 36.375 
Q 6.59375 54.828125 13.0625 64.515625 
Q 19.53125 74.21875 31.78125 74.21875 
z
" id="DejaVuSans-48"/>
      </defs>
      <g transform="translate(26.921875 302.797656)scale(0.1 -0.1)">
       <use xlink:href="#DejaVuSans-48"/>
      </g>
     </g>
    </g>
    <g id="xtick_2">
     <g id="line2d_2">
      <g>
       <use style="stroke:#000000;stroke-width:0.8;" x="169.603125" xlink:href="#md3565b6965" y="288.199219"/>
      </g>
     </g>
     <g id="text_2">
      <!-- 10 -->
      <defs>
       <path d="M 12.40625 8.296875 
L 28.515625 8.296875 
L 28.515625 63.921875 
L 10.984375 60.40625 
L 10.984375 69.390625 
L 28.421875 72.90625 
L 38.28125 72.90625 
L 38.28125 8.296875 
L 54.390625 8.296875 
L 54.390625 0 
L 12.40625 0 
z
" id="DejaVuSans-49"/>
      </defs>
      <g transform="translate(163.240625 302.797656)scale(0.1 -0.1)">
       <use xlink:href="#DejaVuSans-49"/>
       <use x="63.623047" xlink:href="#DejaVuSans-48"/>
      </g>
     </g>
    </g>
    <g id="xtick_3">
     <g id="line2d_3">
      <g>
       <use style="stroke:#000000;stroke-width:0.8;" x="309.103125" xlink:href="#md3565b6965" y="288.199219"/>
      </g>
     </g>
     <g id="text_3">
      <!-- 20 -->
      <defs>
       <path d="M 19.1875 8.296875 
L 53.609375 8.296875 
L 53.609375 0 
L 7.328125 0 
L 7.328125 8.296875 
Q 12.9375 14.109375 22.625 23.890625 
Q 32.328125 33.6875 34.8125 36.53125 
Q 39.546875 41.84375 41.421875 45.53125 
Q 43.3125 49.21875 43.3125 52.78125 
Q 43.3125 58.59375 39.234375 62.25 
Q 35.15625 65.921875 28.609375 65.921875 
Q 23.96875 65.921875 18.8125 64.3125 
Q 13.671875 62.703125 7.8125 59.421875 
L 7.8125 69.390625 
Q 13.765625 71.78125 18.9375 73 
Q 24.125 74.21875 28.421875 74.21875 
Q 39.75 74.21875 46.484375 68.546875 
Q 53.21875 62.890625 53.21875 53.421875 
Q 53.21875 48.921875 51.53125 44.890625 
Q 49.859375 40.875 45.40625 35.40625 
Q 44.1875 33.984375 37.640625 27.21875 
Q 31.109375 20.453125 19.1875 8.296875 
z
" id="DejaVuSans-50"/>
      </defs>
      <g transform="translate(302.740625 302.797656)scale(0.1 -0.1)">
       <use xlink:href="#DejaVuSans-50"/>
       <use x="63.623047" xlink:href="#DejaVuSans-48"/>
      </g>
     </g>
    </g>
    <g id="xtick_4">
     <g id="line2d_4">
      <g>
       <use style="stroke:#000000;stroke-width:0.8;" x="448.603125" xlink:href="#md3565b6965" y="288.199219"/>
      </g>
     </g>
     <g id="text_4">
      <!-- 30 -->
      <defs>
       <path d="M 40.578125 39.3125 
Q 47.65625 37.796875 51.625 33 
Q 55.609375 28.21875 55.609375 21.1875 
Q 55.609375 10.40625 48.1875 4.484375 
Q 40.765625 -1.421875 27.09375 -1.421875 
Q 22.515625 -1.421875 17.65625 -0.515625 
Q 12.796875 0.390625 7.625 2.203125 
L 7.625 11.71875 
Q 11.71875 9.328125 16.59375 8.109375 
Q 21.484375 6.890625 26.8125 6.890625 
Q 36.078125 6.890625 40.9375 10.546875 
Q 45.796875 14.203125 45.796875 21.1875 
Q 45.796875 27.640625 41.28125 31.265625 
Q 36.765625 34.90625 28.71875 34.90625 
L 20.21875 34.90625 
L 20.21875 43.015625 
L 29.109375 43.015625 
Q 36.375 43.015625 40.234375 45.921875 
Q 44.09375 48.828125 44.09375 54.296875 
Q 44.09375 59.90625 40.109375 62.90625 
Q 36.140625 65.921875 28.71875 65.921875 
Q 24.65625 65.921875 20.015625 65.03125 
Q 15.375 64.15625 9.8125 62.3125 
L 9.8125 71.09375 
Q 15.4375 72.65625 20.34375 73.4375 
Q 25.25 74.21875 29.59375 74.21875 
Q 40.828125 74.21875 47.359375 69.109375 
Q 53.90625 64.015625 53.90625 55.328125 
Q 53.90625 49.265625 50.4375 45.09375 
Q 46.96875 40.921875 40.578125 39.3125 
z
" id="DejaVuSans-51"/>
      </defs>
      <g transform="translate(442.240625 302.797656)scale(0.1 -0.1)">
       <use xlink:href="#DejaVuSans-51"/>
       <use x="63.623047" xlink:href="#DejaVuSans-48"/>
      </g>
     </g>
    </g>
    <g id="xtick_5">
     <g id="line2d_5">
      <g>
       <use style="stroke:#000000;stroke-width:0.8;" x="588.103125" xlink:href="#md3565b6965" y="288.199219"/>
      </g>
     </g>
     <g id="text_5">
      <!-- 40 -->
      <defs>
       <path d="M 37.796875 64.3125 
L 12.890625 25.390625 
L 37.796875 25.390625 
z
M 35.203125 72.90625 
L 47.609375 72.90625 
L 47.609375 25.390625 
L 58.015625 25.390625 
L 58.015625 17.1875 
L 47.609375 17.1875 
L 47.609375 0 
L 37.796875 0 
L 37.796875 17.1875 
L 4.890625 17.1875 
L 4.890625 26.703125 
z
" id="DejaVuSans-52"/>
      </defs>
      <g transform="translate(581.740625 302.797656)scale(0.1 -0.1)">
       <use xlink:href="#DejaVuSans-52"/>
       <use x="63.623047" xlink:href="#DejaVuSans-48"/>
      </g>
     </g>
    </g>
    <g id="xtick_6">
     <g id="line2d_6">
      <g>
       <use style="stroke:#000000;stroke-width:0.8;" x="727.603125" xlink:href="#md3565b6965" y="288.199219"/>
      </g>
     </g>
     <g id="text_6">
      <!-- 50 -->
      <defs>
       <path d="M 10.796875 72.90625 
L 49.515625 72.90625 
L 49.515625 64.59375 
L 19.828125 64.59375 
L 19.828125 46.734375 
Q 21.96875 47.46875 24.109375 47.828125 
Q 26.265625 48.1875 28.421875 48.1875 
Q 40.625 48.1875 47.75 41.5 
Q 54.890625 34.8125 54.890625 23.390625 
Q 54.890625 11.625 47.5625 5.09375 
Q 40.234375 -1.421875 26.90625 -1.421875 
Q 22.3125 -1.421875 17.546875 -0.640625 
Q 12.796875 0.140625 7.71875 1.703125 
L 7.71875 11.625 
Q 12.109375 9.234375 16.796875 8.0625 
Q 21.484375 6.890625 26.703125 6.890625 
Q 35.15625 6.890625 40.078125 11.328125 
Q 45.015625 15.765625 45.015625 23.390625 
Q 45.015625 31 40.078125 35.4375 
Q 35.15625 39.890625 26.703125 39.890625 
Q 22.75 39.890625 18.8125 39.015625 
Q 14.890625 38.140625 10.796875 36.28125 
z
" id="DejaVuSans-53"/>
      </defs>
      <g transform="translate(721.240625 302.797656)scale(0.1 -0.1)">
       <use xlink:href="#DejaVuSans-53"/>
       <use x="63.623047" xlink:href="#DejaVuSans-48"/>
      </g>
     </g>
    </g>
    <g id="xtick_7">
     <g id="line2d_7">
      <g>
       <use style="stroke:#000000;stroke-width:0.8;" x="867.103125" xlink:href="#md3565b6965" y="288.199219"/>
      </g>
     </g>
     <g id="text_7">
      <!-- 60 -->
      <defs>
       <path d="M 33.015625 40.375 
Q 26.375 40.375 22.484375 35.828125 
Q 18.609375 31.296875 18.609375 23.390625 
Q 18.609375 15.53125 22.484375 10.953125 
Q 26.375 6.390625 33.015625 6.390625 
Q 39.65625 6.390625 43.53125 10.953125 
Q 47.40625 15.53125 47.40625 23.390625 
Q 47.40625 31.296875 43.53125 35.828125 
Q 39.65625 40.375 33.015625 40.375 
z
M 52.59375 71.296875 
L 52.59375 62.3125 
Q 48.875 64.0625 45.09375 64.984375 
Q 41.3125 65.921875 37.59375 65.921875 
Q 27.828125 65.921875 22.671875 59.328125 
Q 17.53125 52.734375 16.796875 39.40625 
Q 19.671875 43.65625 24.015625 45.921875 
Q 28.375 48.1875 33.59375 48.1875 
Q 44.578125 48.1875 50.953125 41.515625 
Q 57.328125 34.859375 57.328125 23.390625 
Q 57.328125 12.15625 50.6875 5.359375 
Q 44.046875 -1.421875 33.015625 -1.421875 
Q 20.359375 -1.421875 13.671875 8.265625 
Q 6.984375 17.96875 6.984375 36.375 
Q 6.984375 53.65625 15.1875 63.9375 
Q 23.390625 74.21875 37.203125 74.21875 
Q 40.921875 74.21875 44.703125 73.484375 
Q 48.484375 72.75 52.59375 71.296875 
z
" id="DejaVuSans-54"/>
      </defs>
      <g transform="translate(860.740625 302.797656)scale(0.1 -0.1)">
       <use xlink:href="#DejaVuSans-54"/>
       <use x="63.623047" xlink:href="#DejaVuSans-48"/>
      </g>
     </g>
    </g>
   </g>
   <g id="matplotlib.axis_2">
    <g id="ytick_1">
     <g id="line2d_8">
      <defs>
       <path d="M 0 0 
L -3.5 0 
" id="ma27e160785" style="stroke:#000000;stroke-width:0.8;"/>
      </defs>
      <g>
       <use style="stroke:#000000;stroke-width:0.8;" x="30.103125" xlink:href="#ma27e160785" y="288.199219"/>
      </g>
     </g>
     <g id="text_8">
      <!-- 0.0 -->
      <defs>
       <path d="M 10.6875 12.40625 
L 21 12.40625 
L 21 0 
L 10.6875 0 
z
" id="DejaVuSans-46"/>
      </defs>
      <g transform="translate(7.2 291.998438)scale(0.1 -0.1)">
       <use xlink:href="#DejaVuSans-48"/>
       <use x="63.623047" xlink:href="#DejaVuSans-46"/>
       <use x="95.410156" xlink:href="#DejaVuSans-48"/>
      </g>
     </g>
    </g>
    <g id="ytick_2">
     <g id="line2d_9">
      <g>
       <use style="stroke:#000000;stroke-width:0.8;" x="30.103125" xlink:href="#ma27e160785" y="232.759219"/>
      </g>
     </g>
     <g id="text_9">
      <!-- 0.2 -->
      <g transform="translate(7.2 236.558438)scale(0.1 -0.1)">
       <use xlink:href="#DejaVuSans-48"/>
       <use x="63.623047" xlink:href="#DejaVuSans-46"/>
       <use x="95.410156" xlink:href="#DejaVuSans-50"/>
      </g>
     </g>
    </g>
    <g id="ytick_3">
     <g id="line2d_10">
      <g>
       <use style="stroke:#000000;stroke-width:0.8;" x="30.103125" xlink:href="#ma27e160785" y="177.319219"/>
      </g>
     </g>
     <g id="text_10">
      <!-- 0.4 -->
      <g transform="translate(7.2 181.118438)scale(0.1 -0.1)">
       <use xlink:href="#DejaVuSans-48"/>
       <use x="63.623047" xlink:href="#DejaVuSans-46"/>
       <use x="95.410156" xlink:href="#DejaVuSans-52"/>
      </g>
     </g>
    </g>
    <g id="ytick_4">
     <g id="line2d_11">
      <g>
       <use style="stroke:#000000;stroke-width:0.8;" x="30.103125" xlink:href="#ma27e160785" y="121.879219"/>
      </g>
     </g>
     <g id="text_11">
      <!-- 0.6 -->
      <g transform="translate(7.2 125.678438)scale(0.1 -0.1)">
       <use xlink:href="#DejaVuSans-48"/>
       <use x="63.623047" xlink:href="#DejaVuSans-46"/>
       <use x="95.410156" xlink:href="#DejaVuSans-54"/>
      </g>
     </g>
    </g>
    <g id="ytick_5">
     <g id="line2d_12">
      <g>
       <use style="stroke:#000000;stroke-width:0.8;" x="30.103125" xlink:href="#ma27e160785" y="66.439219"/>
      </g>
     </g>
     <g id="text_12">
      <!-- 0.8 -->
      <defs>
       <path d="M 31.78125 34.625 
Q 24.75 34.625 20.71875 30.859375 
Q 16.703125 27.09375 16.703125 20.515625 
Q 16.703125 13.921875 20.71875 10.15625 
Q 24.75 6.390625 31.78125 6.390625 
Q 38.8125 6.390625 42.859375 10.171875 
Q 46.921875 13.96875 46.921875 20.515625 
Q 46.921875 27.09375 42.890625 30.859375 
Q 38.875 34.625 31.78125 34.625 
z
M 21.921875 38.8125 
Q 15.578125 40.375 12.03125 44.71875 
Q 8.5 49.078125 8.5 55.328125 
Q 8.5 64.0625 14.71875 69.140625 
Q 20.953125 74.21875 31.78125 74.21875 
Q 42.671875 74.21875 48.875 69.140625 
Q 55.078125 64.0625 55.078125 55.328125 
Q 55.078125 49.078125 51.53125 44.71875 
Q 48 40.375 41.703125 38.8125 
Q 48.828125 37.15625 52.796875 32.3125 
Q 56.78125 27.484375 56.78125 20.515625 
Q 56.78125 9.90625 50.3125 4.234375 
Q 43.84375 -1.421875 31.78125 -1.421875 
Q 19.734375 -1.421875 13.25 4.234375 
Q 6.78125 9.90625 6.78125 20.515625 
Q 6.78125 27.484375 10.78125 32.3125 
Q 14.796875 37.15625 21.921875 38.8125 
z
M 18.3125 54.390625 
Q 18.3125 48.734375 21.84375 45.5625 
Q 25.390625 42.390625 31.78125 42.390625 
Q 38.140625 42.390625 41.71875 45.5625 
Q 45.3125 48.734375 45.3125 54.390625 
Q 45.3125 60.0625 41.71875 63.234375 
Q 38.140625 66.40625 31.78125 66.40625 
Q 25.390625 66.40625 21.84375 63.234375 
Q 18.3125 60.0625 18.3125 54.390625 
z
" id="DejaVuSans-56"/>
      </defs>
      <g transform="translate(7.2 70.238438)scale(0.1 -0.1)">
       <use xlink:href="#DejaVuSans-48"/>
       <use x="63.623047" xlink:href="#DejaVuSans-46"/>
       <use x="95.410156" xlink:href="#DejaVuSans-56"/>
      </g>
     </g>
    </g>
    <g id="ytick_6">
     <g id="line2d_13">
      <g>
       <use style="stroke:#000000;stroke-width:0.8;" x="30.103125" xlink:href="#ma27e160785" y="10.999219"/>
      </g>
     </g>
     <g id="text_13">
      <!-- 1.0 -->
      <g transform="translate(7.2 14.798438)scale(0.1 -0.1)">
       <use xlink:href="#DejaVuSans-49"/>
       <use x="63.623047" xlink:href="#DejaVuSans-46"/>
       <use x="95.410156" xlink:href="#DejaVuSans-48"/>
      </g>
     </g>
    </g>
   </g>
   <g id="line2d_14">
    <path clip-path="url(#p7b5f3ff5f8)" d="M 30.103125 10.999219 
L 44.053125 10.999219 
L 58.003125 10.999219 
L 71.953125 10.999219 
L 85.903125 11.854774 
L 99.853125 13.443663 
L 113.803125 14.299219 
L 127.753125 13.443663 
L 141.703125 11.854774 
L 155.653125 10.999219 
L 169.603125 17.746175 
L 183.553125 35.273131 
L 197.503125 59.509219 
L 211.453125 122.461733 
L 225.403125 214.237799 
L 239.353125 267.916292 
L 253.303125 278.651569 
L 267.253125 285.679052 
L 281.203125 288.199219 
L 295.153125 288.199219 
L 309.103125 288.199219 
L 323.053125 288.199219 
L 337.003125 288.199219 
L 350.953125 288.199219 
L 364.903125 288.199219 
L 378.853125 288.199219 
L 392.803125 288.199219 
L 406.753125 288.199219 
L 420.703125 288.199219 
L 434.653125 288.199219 
L 448.603125 288.199219 
L 462.553125 288.199219 
L 476.503125 288.199219 
L 490.453125 288.199219 
L 504.403125 288.199219 
L 518.353125 288.199219 
L 532.303125 288.199219 
L 546.253125 288.199219 
L 560.203125 288.199219 
L 574.153125 288.199219 
L 588.103125 216.332552 
L 602.053125 82.865885 
L 616.003125 10.999219 
L 629.953125 10.999219 
L 643.903125 10.999219 
L 657.853125 10.999219 
L 671.803125 10.999219 
L 685.753125 10.999219 
L 699.703125 10.999219 
L 713.653125 82.865885 
L 727.603125 216.332552 
L 741.553125 288.199219 
L 755.503125 284.776997 
L 769.453125 278.421441 
L 783.403125 274.999219 
L 797.353125 278.421441 
L 811.303125 284.776997 
L 825.253125 288.199219 
L 839.203125 288.199219 
L 853.153125 288.199219 
L 867.103125 288.199219 
" style="fill:none;stroke:#ff0000;stroke-linecap:square;stroke-width:1.5;"/>
    <defs>
     <path d="M 0 3 
C 0.795609 3 1.55874 2.683901 2.12132 2.12132 
C 2.683901 1.55874 3 0.795609 3 0 
C 3 -0.795609 2.683901 -1.55874 2.12132 -2.12132 
C 1.55874 -2.683901 0.795609 -3 0 -3 
C -0.795609 -3 -1.55874 -2.683901 -2.12132 -2.12132 
C -2.683901 -1.55874 -3 -0.795609 -3 0 
C -3 0.795609 -2.683901 1.55874 -2.12132 2.12132 
C -1.55874 2.683901 -0.795609 3 0 3 
z
" id="m526a2796ee" style="stroke:#ff0000;"/>
    </defs>
    <g clip-path="url(#p7b5f3ff5f8)">
     <use style="fill:#ff0000;stroke:#ff0000;" x="30.103125" xlink:href="#m526a2796ee" y="10.999219"/>
     <use style="fill:#ff0000;stroke:#ff0000;" x="44.053125" xlink:href="#m526a2796ee" y="10.999219"/>
     <use style="fill:#ff0000;stroke:#ff0000;" x="58.003125" xlink:href="#m526a2796ee" y="10.999219"/>
     <use style="fill:#ff0000;stroke:#ff0000;" x="71.953125" xlink:href="#m526a2796ee" y="10.999219"/>
     <use style="fill:#ff0000;stroke:#ff0000;" x="85.903125" xlink:href="#m526a2796ee" y="11.854774"/>
     <use style="fill:#ff0000;stroke:#ff0000;" x="99.853125" xlink:href="#m526a2796ee" y="13.443663"/>
     <use style="fill:#ff0000;stroke:#ff0000;" x="113.803125" xlink:href="#m526a2796ee" y="14.299219"/>
     <use style="fill:#ff0000;stroke:#ff0000;" x="127.753125" xlink:href="#m526a2796ee" y="13.443663"/>
     <use style="fill:#ff0000;stroke:#ff0000;" x="141.703125" xlink:href="#m526a2796ee" y="11.854774"/>
     <use style="fill:#ff0000;stroke:#ff0000;" x="155.653125" xlink:href="#m526a2796ee" y="10.999219"/>
     <use style="fill:#ff0000;stroke:#ff0000;" x="169.603125" xlink:href="#m526a2796ee" y="17.746175"/>
     <use style="fill:#ff0000;stroke:#ff0000;" x="183.553125" xlink:href="#m526a2796ee" y="35.273131"/>
     <use style="fill:#ff0000;stroke:#ff0000;" x="197.503125" xlink:href="#m526a2796ee" y="59.509219"/>
     <use style="fill:#ff0000;stroke:#ff0000;" x="211.453125" xlink:href="#m526a2796ee" y="122.461733"/>
     <use style="fill:#ff0000;stroke:#ff0000;" x="225.403125" xlink:href="#m526a2796ee" y="214.237799"/>
     <use style="fill:#ff0000;stroke:#ff0000;" x="239.353125" xlink:href="#m526a2796ee" y="267.916292"/>
     <use style="fill:#ff0000;stroke:#ff0000;" x="253.303125" xlink:href="#m526a2796ee" y="278.651569"/>
     <use style="fill:#ff0000;stroke:#ff0000;" x="267.253125" xlink:href="#m526a2796ee" y="285.679052"/>
     <use style="fill:#ff0000;stroke:#ff0000;" x="281.203125" xlink:href="#m526a2796ee" y="288.199219"/>
     <use style="fill:#ff0000;stroke:#ff0000;" x="295.153125" xlink:href="#m526a2796ee" y="288.199219"/>
     <use style="fill:#ff0000;stroke:#ff0000;" x="309.103125" xlink:href="#m526a2796ee" y="288.199219"/>
     <use style="fill:#ff0000;stroke:#ff0000;" x="323.053125" xlink:href="#m526a2796ee" y="288.199219"/>
     <use style="fill:#ff0000;stroke:#ff0000;" x="337.003125" xlink:href="#m526a2796ee" y="288.199219"/>
     <use style="fill:#ff0000;stroke:#ff0000;" x="350.953125" xlink:href="#m526a2796ee" y="288.199219"/>
     <use style="fill:#ff0000;stroke:#ff0000;" x="364.903125" xlink:href="#m526a2796ee" y="288.199219"/>
     <use style="fill:#ff0000;stroke:#ff0000;" x="378.853125" xlink:href="#m526a2796ee" y="288.199219"/>
     <use style="fill:#ff0000;stroke:#ff0000;" x="392.803125" xlink:href="#m526a2796ee" y="288.199219"/>
     <use style="fill:#ff0000;stroke:#ff0000;" x="406.753125" xlink:href="#m526a2796ee" y="288.199219"/>
     <use style="fill:#ff0000;stroke:#ff0000;" x="420.703125" xlink:href="#m526a2796ee" y="288.199219"/>
     <use style="fill:#ff0000;stroke:#ff0000;" x="434.653125" xlink:href="#m526a2796ee" y="288.199219"/>
     <use style="fill:#ff0000;stroke:#ff0000;" x="448.603125" xlink:href="#m526a2796ee" y="288.199219"/>
     <use style="fill:#ff0000;stroke:#ff0000;" x="462.553125" xlink:href="#m526a2796ee" y="288.199219"/>
     <use style="fill:#ff0000;stroke:#ff0000;" x="476.503125" xlink:href="#m526a2796ee" y="288.199219"/>
     <use style="fill:#ff0000;stroke:#ff0000;" x="490.453125" xlink:href="#m526a2796ee" y="288.199219"/>
     <use style="fill:#ff0000;stroke:#ff0000;" x="504.403125" xlink:href="#m526a2796ee" y="288.199219"/>
     <use style="fill:#ff0000;stroke:#ff0000;" x="518.353125" xlink:href="#m526a2796ee" y="288.199219"/>
     <use style="fill:#ff0000;stroke:#ff0000;" x="532.303125" xlink:href="#m526a2796ee" y="288.199219"/>
     <use style="fill:#ff0000;stroke:#ff0000;" x="546.253125" xlink:href="#m526a2796ee" y="288.199219"/>
     <use style="fill:#ff0000;stroke:#ff0000;" x="560.203125" xlink:href="#m526a2796ee" y="288.199219"/>
     <use style="fill:#ff0000;stroke:#ff0000;" x="574.153125" xlink:href="#m526a2796ee" y="288.199219"/>
     <use style="fill:#ff0000;stroke:#ff0000;" x="588.103125" xlink:href="#m526a2796ee" y="216.332552"/>
     <use style="fill:#ff0000;stroke:#ff0000;" x="602.053125" xlink:href="#m526a2796ee" y="82.865885"/>
     <use style="fill:#ff0000;stroke:#ff0000;" x="616.003125" xlink:href="#m526a2796ee" y="10.999219"/>
     <use style="fill:#ff0000;stroke:#ff0000;" x="629.953125" xlink:href="#m526a2796ee" y="10.999219"/>
     <use style="fill:#ff0000;stroke:#ff0000;" x="643.903125" xlink:href="#m526a2796ee" y="10.999219"/>
     <use style="fill:#ff0000;stroke:#ff0000;" x="657.853125" xlink:href="#m526a2796ee" y="10.999219"/>
     <use style="fill:#ff0000;stroke:#ff0000;" x="671.803125" xlink:href="#m526a2796ee" y="10.999219"/>
     <use style="fill:#ff0000;stroke:#ff0000;" x="685.753125" xlink:href="#m526a2796ee" y="10.999219"/>
     <use style="fill:#ff0000;stroke:#ff0000;" x="699.703125" xlink:href="#m526a2796ee" y="10.999219"/>
     <use style="fill:#ff0000;stroke:#ff0000;" x="713.653125" xlink:href="#m526a2796ee" y="82.865885"/>
     <use style="fill:#ff0000;stroke:#ff0000;" x="727.603125" xlink:href="#m526a2796ee" y="216.332552"/>
     <use style="fill:#ff0000;stroke:#ff0000;" x="741.553125" xlink:href="#m526a2796ee" y="288.199219"/>
     <use style="fill:#ff0000;stroke:#ff0000;" x="755.503125" xlink:href="#m526a2796ee" y="284.776997"/>
     <use style="fill:#ff0000;stroke:#ff0000;" x="769.453125" xlink:href="#m526a2796ee" y="278.421441"/>
     <use style="fill:#ff0000;stroke:#ff0000;" x="783.403125" xlink:href="#m526a2796ee" y="274.999219"/>
     <use style="fill:#ff0000;stroke:#ff0000;" x="797.353125" xlink:href="#m526a2796ee" y="278.421441"/>
     <use style="fill:#ff0000;stroke:#ff0000;" x="811.303125" xlink:href="#m526a2796ee" y="284.776997"/>
     <use style="fill:#ff0000;stroke:#ff0000;" x="825.253125" xlink:href="#m526a2796ee" y="288.199219"/>
     <use style="fill:#ff0000;stroke:#ff0000;" x="839.203125" xlink:href="#m526a2796ee" y="288.199219"/>
     <use style="fill:#ff0000;stroke:#ff0000;" x="853.153125" xlink:href="#m526a2796ee" y="288.199219"/>
     <use style="fill:#ff0000;stroke:#ff0000;" x="867.103125" xlink:href="#m526a2796ee" y="288.199219"/>
    </g>
   </g>
   <g id="line2d_15">
    <path clip-path="url(#p7b5f3ff5f8)" d="M 30.103125 288.199219 
L 44.053125 288.199219 
L 58.003125 288.199219 
L 71.953125 288.199219 
L 85.903125 288.199219 
L 99.853125 288.199219 
L 113.803125 288.199219 
L 127.753125 288.199219 
L 141.703125 288.199219 
L 155.653125 288.199219 
L 169.603125 281.452263 
L 183.553125 263.925306 
L 197.503125 239.689219 
L 211.453125 176.736704 
L 225.403125 84.960639 
L 239.353125 31.282146 
L 253.303125 20.546869 
L 267.253125 13.519385 
L 281.203125 10.999219 
L 295.153125 10.999219 
L 309.103125 10.999219 
L 323.053125 10.999219 
L 337.003125 64.215366 
L 350.953125 168.160926 
L 364.903125 239.281572 
L 378.853125 263.900257 
L 392.803125 281.485032 
L 406.753125 288.199219 
L 420.703125 288.199219 
L 434.653125 288.199219 
L 448.603125 288.199219 
L 462.553125 288.199219 
L 476.503125 288.199219 
L 490.453125 288.199219 
L 504.403125 288.199219 
L 518.353125 288.199219 
L 532.303125 288.199219 
L 546.253125 288.199219 
L 560.203125 288.199219 
L 574.153125 288.199219 
L 588.103125 288.199219 
L 602.053125 288.199219 
L 616.003125 288.199219 
L 629.953125 288.199219 
L 643.903125 288.199219 
L 657.853125 288.199219 
L 671.803125 288.199219 
L 685.753125 288.199219 
L 699.703125 288.199219 
L 713.653125 216.332552 
L 727.603125 82.865885 
L 741.553125 10.999219 
L 755.503125 14.421441 
L 769.453125 20.776997 
L 783.403125 24.199219 
L 797.353125 20.776997 
L 811.303125 14.421441 
L 825.253125 10.999219 
L 839.203125 12.376997 
L 853.153125 16.554774 
L 867.103125 23.599219 
" style="fill:none;stroke:#008000;stroke-linecap:square;stroke-width:1.5;"/>
    <defs>
     <path d="M 0 3 
C 0.795609 3 1.55874 2.683901 2.12132 2.12132 
C 2.683901 1.55874 3 0.795609 3 0 
C 3 -0.795609 2.683901 -1.55874 2.12132 -2.12132 
C 1.55874 -2.683901 0.795609 -3 0 -3 
C -0.795609 -3 -1.55874 -2.683901 -2.12132 -2.12132 
C -2.683901 -1.55874 -3 -0.795609 -3 0 
C -3 0.795609 -2.683901 1.55874 -2.12132 2.12132 
C -1.55874 2.683901 -0.795609 3 0 3 
z
" id="m203fcad4e4" style="stroke:#008000;"/>
    </defs>
    <g clip-path="url(#p7b5f3ff5f8)">
     <use style="fill:#008000;stroke:#008000;" x="30.103125" xlink:href="#m203fcad4e4" y="288.199219"/>
     <use style="fill:#008000;stroke:#008000;" x="44.053125" xlink:href="#m203fcad4e4" y="288.199219"/>
     <use style="fill:#008000;stroke:#008000;" x="58.003125" xlink:href="#m203fcad4e4" y="288.199219"/>
     <use style="fill:#008000;stroke:#008000;" x="71.953125" xlink:href="#m203fcad4e4" y="288.199219"/>
     <use style="fill:#008000;stroke:#008000;" x="85.903125" xlink:href="#m203fcad4e4" y="288.199219"/>
     <use style="fill:#008000;stroke:#008000;" x="99.853125" xlink:href="#m203fcad4e4" y="288.199219"/>
     <use style="fill:#008000;stroke:#008000;" x="113.803125" xlink:href="#m203fcad4e4" y="288.199219"/>
     <use style="fill:#008000;stroke:#008000;" x="127.753125" xlink:href="#m203fcad4e4" y="288.199219"/>
     <use style="fill:#008000;stroke:#008000;" x="141.703125" xlink:href="#m203fcad4e4" y="288.199219"/>
     <use style="fill:#008000;stroke:#008000;" x="155.653125" xlink:href="#m203fcad4e4" y="288.199219"/>
     <use style="fill:#008000;stroke:#008000;" x="169.603125" xlink:href="#m203fcad4e4" y="281.452263"/>
     <use style="fill:#008000;stroke:#008000;" x="183.553125" xlink:href="#m203fcad4e4" y="263.925306"/>
     <use style="fill:#008000;stroke:#008000;" x="197.503125" xlink:href="#m203fcad4e4" y="239.689219"/>
     <use style="fill:#008000;stroke:#008000;" x="211.453125" xlink:href="#m203fcad4e4" y="176.736704"/>
     <use style="fill:#008000;stroke:#008000;" x="225.403125" xlink:href="#m203fcad4e4" y="84.960639"/>
     <use style="fill:#008000;stroke:#008000;" x="239.353125" xlink:href="#m203fcad4e4" y="31.282146"/>
     <use style="fill:#008000;stroke:#008000;" x="253.303125" xlink:href="#m203fcad4e4" y="20.546869"/>
     <use style="fill:#008000;stroke:#008000;" x="267.253125" xlink:href="#m203fcad4e4" y="13.519385"/>
     <use style="fill:#008000;stroke:#008000;" x="281.203125" xlink:href="#m203fcad4e4" y="10.999219"/>
     <use style="fill:#008000;stroke:#008000;" x="295.153125" xlink:href="#m203fcad4e4" y="10.999219"/>
     <use style="fill:#008000;stroke:#008000;" x="309.103125" xlink:href="#m203fcad4e4" y="10.999219"/>
     <use style="fill:#008000;stroke:#008000;" x="323.053125" xlink:href="#m203fcad4e4" y="10.999219"/>
     <use style="fill:#008000;stroke:#008000;" x="337.003125" xlink:href="#m203fcad4e4" y="64.215366"/>
     <use style="fill:#008000;stroke:#008000;" x="350.953125" xlink:href="#m203fcad4e4" y="168.160926"/>
     <use style="fill:#008000;stroke:#008000;" x="364.903125" xlink:href="#m203fcad4e4" y="239.281572"/>
     <use style="fill:#008000;stroke:#008000;" x="378.853125" xlink:href="#m203fcad4e4" y="263.900257"/>
     <use style="fill:#008000;stroke:#008000;" x="392.803125" xlink:href="#m203fcad4e4" y="281.485032"/>
     <use style="fill:#008000;stroke:#008000;" x="406.753125" xlink:href="#m203fcad4e4" y="288.199219"/>
     <use style="fill:#008000;stroke:#008000;" x="420.703125" xlink:href="#m203fcad4e4" y="288.199219"/>
     <use style="fill:#008000;stroke:#008000;" x="434.653125" xlink:href="#m203fcad4e4" y="288.199219"/>
     <use style="fill:#008000;stroke:#008000;" x="448.603125" xlink:href="#m203fcad4e4" y="288.199219"/>
     <use style="fill:#008000;stroke:#008000;" x="462.553125" xlink:href="#m203fcad4e4" y="288.199219"/>
     <use style="fill:#008000;stroke:#008000;" x="476.503125" xlink:href="#m203fcad4e4" y="288.199219"/>
     <use style="fill:#008000;stroke:#008000;" x="490.453125" xlink:href="#m203fcad4e4" y="288.199219"/>
     <use style="fill:#008000;stroke:#008000;" x="504.403125" xlink:href="#m203fcad4e4" y="288.199219"/>
     <use style="fill:#008000;stroke:#008000;" x="518.353125" xlink:href="#m203fcad4e4" y="288.199219"/>
     <use style="fill:#008000;stroke:#008000;" x="532.303125" xlink:href="#m203fcad4e4" y="288.199219"/>
     <use style="fill:#008000;stroke:#008000;" x="546.253125" xlink:href="#m203fcad4e4" y="288.199219"/>
     <use style="fill:#008000;stroke:#008000;" x="560.203125" xlink:href="#m203fcad4e4" y="288.199219"/>
     <use style="fill:#008000;stroke:#008000;" x="574.153125" xlink:href="#m203fcad4e4" y="288.199219"/>
     <use style="fill:#008000;stroke:#008000;" x="588.103125" xlink:href="#m203fcad4e4" y="288.199219"/>
     <use style="fill:#008000;stroke:#008000;" x="602.053125" xlink:href="#m203fcad4e4" y="288.199219"/>
     <use style="fill:#008000;stroke:#008000;" x="616.003125" xlink:href="#m203fcad4e4" y="288.199219"/>
     <use style="fill:#008000;stroke:#008000;" x="629.953125" xlink:href="#m203fcad4e4" y="288.199219"/>
     <use style="fill:#008000;stroke:#008000;" x="643.903125" xlink:href="#m203fcad4e4" y="288.199219"/>
     <use style="fill:#008000;stroke:#008000;" x="657.853125" xlink:href="#m203fcad4e4" y="288.199219"/>
     <use style="fill:#008000;stroke:#008000;" x="671.803125" xlink:href="#m203fcad4e4" y="288.199219"/>
     <use style="fill:#008000;stroke:#008000;" x="685.753125" xlink:href="#m203fcad4e4" y="288.199219"/>
     <use style="fill:#008000;stroke:#008000;" x="699.703125" xlink:href="#m203fcad4e4" y="288.199219"/>
     <use style="fill:#008000;stroke:#008000;" x="713.653125" xlink:href="#m203fcad4e4" y="216.332552"/>
     <use style="fill:#008000;stroke:#008000;" x="727.603125" xlink:href="#m203fcad4e4" y="82.865885"/>
     <use style="fill:#008000;stroke:#008000;" x="741.553125" xlink:href="#m203fcad4e4" y="10.999219"/>
     <use style="fill:#008000;stroke:#008000;" x="755.503125" xlink:href="#m203fcad4e4" y="14.421441"/>
     <use style="fill:#008000;stroke:#008000;" x="769.453125" xlink:href="#m203fcad4e4" y="20.776997"/>
     <use style="fill:#008000;stroke:#008000;" x="783.403125" xlink:href="#m203fcad4e4" y="24.199219"/>
     <use style="fill:#008000;stroke:#008000;" x="797.353125" xlink:href="#m203fcad4e4" y="20.776997"/>
     <use style="fill:#008000;stroke:#008000;" x="811.303125" xlink:href="#m203fcad4e4" y="14.421441"/>
     <use style="fill:#008000;stroke:#008000;" x="825.253125" xlink:href="#m203fcad4e4" y="10.999219"/>
     <use style="fill:#008000;stroke:#008000;" x="839.203125" xlink:href="#m203fcad4e4" y="12.376997"/>
     <use style="fill:#008000;stroke:#008000;" x="853.153125" xlink:href="#m203fcad4e4" y="16.554774"/>
     <use style="fill:#008000;stroke:#008000;" x="867.103125" xlink:href="#m203fcad4e4" y="23.599219"/>
    </g>
   </g>
   <g id="line2d_16">
    <path clip-path="url(#p7b5f3ff5f8)" d="M 30.103125 288.199219 
L 44.053125 288.199219 
L 58.003125 288.199219 
L 71.953125 288.199219 
L 85.903125 287.343663 
L 99.853125 285.754774 
L 113.803125 284.899219 
L 127.753125 285.754774 
L 141.703125 287.343663 
L 155.653125 288.199219 
L 169.603125 288.199219 
L 183.553125 288.199219 
L 197.503125 288.199219 
L 211.453125 288.199219 
L 225.403125 288.199219 
L 239.353125 288.199219 
L 253.303125 288.199219 
L 267.253125 288.199219 
L 281.203125 288.199219 
L 295.153125 288.199219 
L 309.103125 288.199219 
L 323.053125 288.199219 
L 337.003125 234.983071 
L 350.953125 131.037512 
L 364.903125 59.916866 
L 378.853125 35.298181 
L 392.803125 17.713406 
L 406.753125 10.999219 
L 420.703125 10.999219 
L 434.653125 10.999219 
L 448.603125 10.999219 
L 462.553125 10.999219 
L 476.503125 10.999219 
L 490.453125 10.999219 
L 504.403125 10.999219 
L 518.353125 10.999219 
L 532.303125 10.999219 
L 546.253125 10.999219 
L 560.203125 10.999219 
L 574.153125 10.999219 
L 588.103125 82.865885 
L 602.053125 216.332552 
L 616.003125 288.199219 
L 629.953125 288.199219 
L 643.903125 288.199219 
L 657.853125 288.199219 
L 671.803125 288.199219 
L 685.753125 288.199219 
L 699.703125 288.199219 
L 713.653125 288.199219 
L 727.603125 288.199219 
L 741.553125 288.199219 
L 755.503125 288.199219 
L 769.453125 288.199219 
L 783.403125 288.199219 
L 797.353125 288.199219 
L 811.303125 288.199219 
L 825.253125 288.199219 
L 839.203125 286.332552 
L 853.153125 281.665885 
L 867.103125 275.599219 
" style="fill:none;stroke:#0000ff;stroke-linecap:square;stroke-width:1.5;"/>
    <defs>
     <path d="M 0 3 
C 0.795609 3 1.55874 2.683901 2.12132 2.12132 
C 2.683901 1.55874 3 0.795609 3 0 
C 3 -0.795609 2.683901 -1.55874 2.12132 -2.12132 
C 1.55874 -2.683901 0.795609 -3 0 -3 
C -0.795609 -3 -1.55874 -2.683901 -2.12132 -2.12132 
C -2.683901 -1.55874 -3 -0.795609 -3 0 
C -3 0.795609 -2.683901 1.55874 -2.12132 2.12132 
C -1.55874 2.683901 -0.795609 3 0 3 
z
" id="m390ded78b6" style="stroke:#0000ff;"/>
    </defs>
    <g clip-path="url(#p7b5f3ff5f8)">
     <use style="fill:#0000ff;stroke:#0000ff;" x="30.103125" xlink:href="#m390ded78b6" y="288.199219"/>
     <use style="fill:#0000ff;stroke:#0000ff;" x="44.053125" xlink:href="#m390ded78b6" y="288.199219"/>
     <use style="fill:#0000ff;stroke:#0000ff;" x="58.003125" xlink:href="#m390ded78b6" y="288.199219"/>
     <use style="fill:#0000ff;stroke:#0000ff;" x="71.953125" xlink:href="#m390ded78b6" y="288.199219"/>
     <use style="fill:#0000ff;stroke:#0000ff;" x="85.903125" xlink:href="#m390ded78b6" y="287.343663"/>
     <use style="fill:#0000ff;stroke:#0000ff;" x="99.853125" xlink:href="#m390ded78b6" y="285.754774"/>
     <use style="fill:#0000ff;stroke:#0000ff;" x="113.803125" xlink:href="#m390ded78b6" y="284.899219"/>
     <use style="fill:#0000ff;stroke:#0000ff;" x="127.753125" xlink:href="#m390ded78b6" y="285.754774"/>
     <use style="fill:#0000ff;stroke:#0000ff;" x="141.703125" xlink:href="#m390ded78b6" y="287.343663"/>
     <use style="fill:#0000ff;stroke:#0000ff;" x="155.653125" xlink:href="#m390ded78b6" y="288.199219"/>
     <use style="fill:#0000ff;stroke:#0000ff;" x="169.603125" xlink:href="#m390ded78b6" y="288.199219"/>
     <use style="fill:#0000ff;stroke:#0000ff;" x="183.553125" xlink:href="#m390ded78b6" y="288.199219"/>
     <use style="fill:#0000ff;stroke:#0000ff;" x="197.503125" xlink:href="#m390ded78b6" y="288.199219"/>
     <use style="fill:#0000ff;stroke:#0000ff;" x="211.453125" xlink:href="#m390ded78b6" y="288.199219"/>
     <use style="fill:#0000ff;stroke:#0000ff;" x="225.403125" xlink:href="#m390ded78b6" y="288.199219"/>
     <use style="fill:#0000ff;stroke:#0000ff;" x="239.353125" xlink:href="#m390ded78b6" y="288.199219"/>
     <use style="fill:#0000ff;stroke:#0000ff;" x="253.303125" xlink:href="#m390ded78b6" y="288.199219"/>
     <use style="fill:#0000ff;stroke:#0000ff;" x="267.253125" xlink:href="#m390ded78b6" y="288.199219"/>
     <use style="fill:#0000ff;stroke:#0000ff;" x="281.203125" xlink:href="#m390ded78b6" y="288.199219"/>
     <use style="fill:#0000ff;stroke:#0000ff;" x="295.153125" xlink:href="#m390ded78b6" y="288.199219"/>
     <use style="fill:#0000ff;stroke:#0000ff;" x="309.103125" xlink:href="#m390ded78b6" y="288.199219"/>
     <use style="fill:#0000ff;stroke:#0000ff;" x="323.053125" xlink:href="#m390ded78b6" y="288.199219"/>
     <use style="fill:#0000ff;stroke:#0000ff;" x="337.003125" xlink:href="#m390ded78b6" y="234.983071"/>
     <use style="fill:#0000ff;stroke:#0000ff;" x="350.953125" xlink:href="#m390ded78b6" y="131.037512"/>
     <use style="fill:#0000ff;stroke:#0000ff;" x="364.903125" xlink:href="#m390ded78b6" y="59.916866"/>
     <use style="fill:#0000ff;stroke:#0000ff;" x="378.853125" xlink:href="#m390ded78b6" y="35.298181"/>
     <use style="fill:#0000ff;stroke:#0000ff;" x="392.803125" xlink:href="#m390ded78b6" y="17.713406"/>
     <use style="fill:#0000ff;stroke:#0000ff;" x="406.753125" xlink:href="#m390ded78b6" y="10.999219"/>
     <use style="fill:#0000ff;stroke:#0000ff;" x="420.703125" xlink:href="#m390ded78b6" y="10.999219"/>
     <use style="fill:#0000ff;stroke:#0000ff;" x="434.653125" xlink:href="#m390ded78b6" y="10.999219"/>
     <use style="fill:#0000ff;stroke:#0000ff;" x="448.603125" xlink:href="#m390ded78b6" y="10.999219"/>
     <use style="fill:#0000ff;stroke:#0000ff;" x="462.553125" xlink:href="#m390ded78b6" y="10.999219"/>
     <use style="fill:#0000ff;stroke:#0000ff;" x="476.503125" xlink:href="#m390ded78b6" y="10.999219"/>
     <use style="fill:#0000ff;stroke:#0000ff;" x="490.453125" xlink:href="#m390ded78b6" y="10.999219"/>
     <use style="fill:#0000ff;stroke:#0000ff;" x="504.403125" xlink:href="#m390ded78b6" y="10.999219"/>
     <use style="fill:#0000ff;stroke:#0000ff;" x="518.353125" xlink:href="#m390ded78b6" y="10.999219"/>
     <use style="fill:#0000ff;stroke:#0000ff;" x="532.303125" xlink:href="#m390ded78b6" y="10.999219"/>
     <use style="fill:#0000ff;stroke:#0000ff;" x="546.253125" xlink:href="#m390ded78b6" y="10.999219"/>
     <use style="fill:#0000ff;stroke:#0000ff;" x="560.203125" xlink:href="#m390ded78b6" y="10.999219"/>
     <use style="fill:#0000ff;stroke:#0000ff;" x="574.153125" xlink:href="#m390ded78b6" y="10.999219"/>
     <use style="fill:#0000ff;stroke:#0000ff;" x="588.103125" xlink:href="#m390ded78b6" y="82.865885"/>
     <use style="fill:#0000ff;stroke:#0000ff;" x="602.053125" xlink:href="#m390ded78b6" y="216.332552"/>
     <use style="fill:#0000ff;stroke:#0000ff;" x="616.003125" xlink:href="#m390ded78b6" y="288.199219"/>
     <use style="fill:#0000ff;stroke:#0000ff;" x="629.953125" xlink:href="#m390ded78b6" y="288.199219"/>
     <use style="fill:#0000ff;stroke:#0000ff;" x="643.903125" xlink:href="#m390ded78b6" y="288.199219"/>
     <use style="fill:#0000ff;stroke:#0000ff;" x="657.853125" xlink:href="#m390ded78b6" y="288.199219"/>
     <use style="fill:#0000ff;stroke:#0000ff;" x="671.803125" xlink:href="#m390ded78b6" y="288.199219"/>
     <use style="fill:#0000ff;stroke:#0000ff;" x="685.753125" xlink:href="#m390ded78b6" y="288.199219"/>
     <use style="fill:#0000ff;stroke:#0000ff;" x="699.703125" xlink:href="#m390ded78b6" y="288.199219"/>
     <use style="fill:#0000ff;stroke:#0000ff;" x="713.653125" xlink:href="#m390ded78b6" y="288.199219"/>
     <use style="fill:#0000ff;stroke:#0000ff;" x="727.603125" xlink:href="#m390ded78b6" y="288.199219"/>
     <use style="fill:#0000ff;stroke:#0000ff;" x="741.553125" xlink:href="#m390ded78b6" y="288.199219"/>
     <use style="fill:#0000ff;stroke:#0000ff;" x="755.503125" xlink:href="#m390ded78b6" y="288.199219"/>
     <use style="fill:#0000ff;stroke:#0000ff;" x="769.453125" xlink:href="#m390ded78b6" y="288.199219"/>
     <use style="fill:#0000ff;stroke:#0000ff;" x="783.403125" xlink:href="#m390ded78b6" y="288.199219"/>
     <use style="fill:#0000ff;stroke:#0000ff;" x="797.353125" xlink:href="#m390ded78b6" y="288.199219"/>
     <use style="fill:#0000ff;stroke:#0000ff;" x="811.303125" xlink:href="#m390ded78b6" y="288.199219"/>
     <use style="fill:#0000ff;stroke:#0000ff;" x="825.253125" xlink:href="#m390ded78b6" y="288.199219"/>
     <use style="fill:#0000ff;stroke:#0000ff;" x="839.203125" xlink:href="#m390ded78b6" y="286.332552"/>
     <use style="fill:#0000ff;stroke:#0000ff;" x="853.153125" xlink:href="#m390ded78b6" y="281.665885"/>
     <use style="fill:#0000ff;stroke:#0000ff;" x="867.103125" xlink:href="#m390ded78b6" y="275.599219"/>
    </g>
   </g>
   <g id="patch_3">
    <path d="M 30.103125 288.199219 
L 30.103125 10.999219 
" style="fill:none;stroke:#000000;stroke-linecap:square;stroke-linejoin:miter;stroke-width:0.8;"/>
   </g>
   <g id="patch_4">
    <path d="M 867.103125 288.199219 
L 867.103125 10.999219 
" style="fill:none;stroke:#000000;stroke-linecap:square;stroke-linejoin:miter;stroke-width:0.8;"/>
   </g>
   <g id="patch_5">
    <path d="M 30.103125 288.199219 
L 867.103125 288.199219 
" style="fill:none;stroke:#000000;stroke-linecap:square;stroke-linejoin:miter;stroke-width:0.8;"/>
   </g>
   <g id="patch_6">
    <path d="M 30.103125 10.999219 
L 867.103125 10.999219 
" style="fill:none;stroke:#000000;stroke-linecap:square;stroke-linejoin:miter;stroke-width:0.8;"/>
   </g>
  </g>
 </g>
 <defs>
  <clipPath id="p7b5f3ff5f8">
   <rect height="277.2" width="837" x="30.103125" y="10.999219"/>
  </clipPath>
 </defs>
</svg>
