<?xml version="1.0" encoding="utf-8" standalone="no"?>
<!DOCTYPE svg PUBLIC "-//W3C//DTD SVG 1.1//EN"
  "http://www.w3.org/Graphics/SVG/1.1/DTD/svg11.dtd">
<!-- Created with matplotlib (http://matplotlib.org/) -->
<svg height="323pt" version="1.1" viewBox="0 0 882 323" width="882pt" xmlns="http://www.w3.org/2000/svg" xmlns:xlink="http://www.w3.org/1999/xlink">
 <defs>
  <style type="text/css">
*{stroke-linecap:butt;stroke-linejoin:round;}
  </style>
 </defs>
 <g id="figure_1">
  <g id="patch_1">
   <path d="
M0 323.821
L882.843 323.821
L882.843 0
L0 0
z
" style="fill:#ffffff;"/>
  </g>
  <g id="axes_1">
   <g id="patch_2">
    <path d="
M31.99 301.007
L868.99 301.007
L868.99 13.0069
L31.99 13.0069
z
" style="fill:#ffffff;"/>
   </g>
   <g id="line2d_1">
    <path clip-path="url(#p3e29ac047c)" d="
M31.99 48.5641
L55.9043 38.0808
L79.8186 26.3223
L103.733 20.7457
L127.647 21.4676
L151.561 23.0264
L175.476 24.5116
L199.39 26.3867
L223.304 29.432
L247.219 33.2128
L271.133 41.536
L295.047 55.8969
L318.961 72.3924
L342.876 91.5404
L366.79 114.309
L390.704 137.473
L414.619 166.197
L438.533 200.043
L462.447 227.37
L486.361 247.796
L510.276 266.104
L534.19 278.401
L558.104 286.285
L582.019 292.551
L605.933 295.105
L629.847 294.535
L653.761 293.477
L677.676 292.907
L701.59 294.107
L725.504 296.336
L749.419 297.537
L773.333 287.048
L797.247 263.869
L821.161 240.436
L845.076 149.879
L868.99 84.171" style="fill:none;stroke:#ff0000;stroke-linecap:square;"/>
    <defs>
     <path d="
M0 3
C0.795609 3 1.55874 2.6839 2.12132 2.12132
C2.6839 1.55874 3 0.795609 3 0
C3 -0.795609 2.6839 -1.55874 2.12132 -2.12132
C1.55874 -2.6839 0.795609 -3 0 -3
C-0.795609 -3 -1.55874 -2.6839 -2.12132 -2.12132
C-2.6839 -1.55874 -3 -0.795609 -3 0
C-3 0.795609 -2.6839 1.55874 -2.12132 2.12132
C-1.55874 2.6839 -0.795609 3 0 3
z
" id="m231f9b0f49" style="stroke:#000000;stroke-width:0.5;"/>
    </defs>
    <g clip-path="url(#p3e29ac047c)">
     <use style="fill:#ff0000;stroke:#000000;stroke-width:0.5;" x="31.99" xlink:href="#m231f9b0f49" y="48.5640543936"/>
     <use style="fill:#ff0000;stroke:#000000;stroke-width:0.5;" x="55.9042857143" xlink:href="#m231f9b0f49" y="38.0807717783"/>
     <use style="fill:#ff0000;stroke:#000000;stroke-width:0.5;" x="79.8185714286" xlink:href="#m231f9b0f49" y="26.3222773796"/>
     <use style="fill:#ff0000;stroke:#000000;stroke-width:0.5;" x="103.732857143" xlink:href="#m231f9b0f49" y="20.7456505104"/>
     <use style="fill:#ff0000;stroke:#000000;stroke-width:0.5;" x="127.647142857" xlink:href="#m231f9b0f49" y="21.4675909251"/>
     <use style="fill:#ff0000;stroke:#000000;stroke-width:0.5;" x="151.561428571" xlink:href="#m231f9b0f49" y="23.0264172054"/>
     <use style="fill:#ff0000;stroke:#000000;stroke-width:0.5;" x="175.475714286" xlink:href="#m231f9b0f49" y="24.5116369056"/>
     <use style="fill:#ff0000;stroke:#000000;stroke-width:0.5;" x="199.39" xlink:href="#m231f9b0f49" y="26.3866727922"/>
     <use style="fill:#ff0000;stroke:#000000;stroke-width:0.5;" x="223.304285714" xlink:href="#m231f9b0f49" y="29.4320139628"/>
     <use style="fill:#ff0000;stroke:#000000;stroke-width:0.5;" x="247.218571429" xlink:href="#m231f9b0f49" y="33.2127674688"/>
     <use style="fill:#ff0000;stroke:#000000;stroke-width:0.5;" x="271.132857143" xlink:href="#m231f9b0f49" y="41.53604651"/>
     <use style="fill:#ff0000;stroke:#000000;stroke-width:0.5;" x="295.047142857" xlink:href="#m231f9b0f49" y="55.8969097086"/>
     <use style="fill:#ff0000;stroke:#000000;stroke-width:0.5;" x="318.961428571" xlink:href="#m231f9b0f49" y="72.3923822496"/>
     <use style="fill:#ff0000;stroke:#000000;stroke-width:0.5;" x="342.875714286" xlink:href="#m231f9b0f49" y="91.5403930422"/>
     <use style="fill:#ff0000;stroke:#000000;stroke-width:0.5;" x="366.79" xlink:href="#m231f9b0f49" y="114.309470291"/>
     <use style="fill:#ff0000;stroke:#000000;stroke-width:0.5;" x="390.704285714" xlink:href="#m231f9b0f49" y="137.472538123"/>
     <use style="fill:#ff0000;stroke:#000000;stroke-width:0.5;" x="414.618571429" xlink:href="#m231f9b0f49" y="166.19744388"/>
     <use style="fill:#ff0000;stroke:#000000;stroke-width:0.5;" x="438.532857143" xlink:href="#m231f9b0f49" y="200.043337216"/>
     <use style="fill:#ff0000;stroke:#000000;stroke-width:0.5;" x="462.447142857" xlink:href="#m231f9b0f49" y="227.370095731"/>
     <use style="fill:#ff0000;stroke:#000000;stroke-width:0.5;" x="486.361428571" xlink:href="#m231f9b0f49" y="247.795921014"/>
     <use style="fill:#ff0000;stroke:#000000;stroke-width:0.5;" x="510.275714286" xlink:href="#m231f9b0f49" y="266.103929356"/>
     <use style="fill:#ff0000;stroke:#000000;stroke-width:0.5;" x="534.19" xlink:href="#m231f9b0f49" y="278.401370415"/>
     <use style="fill:#ff0000;stroke:#000000;stroke-width:0.5;" x="558.104285714" xlink:href="#m231f9b0f49" y="286.285146131"/>
     <use style="fill:#ff0000;stroke:#000000;stroke-width:0.5;" x="582.018571429" xlink:href="#m231f9b0f49" y="292.551175921"/>
     <use style="fill:#ff0000;stroke:#000000;stroke-width:0.5;" x="605.932857143" xlink:href="#m231f9b0f49" y="295.105235657"/>
     <use style="fill:#ff0000;stroke:#000000;stroke-width:0.5;" x="629.847142857" xlink:href="#m231f9b0f49" y="294.535228968"/>
     <use style="fill:#ff0000;stroke:#000000;stroke-width:0.5;" x="653.761428571" xlink:href="#m231f9b0f49" y="293.476645116"/>
     <use style="fill:#ff0000;stroke:#000000;stroke-width:0.5;" x="677.675714286" xlink:href="#m231f9b0f49" y="292.906638427"/>
     <use style="fill:#ff0000;stroke:#000000;stroke-width:0.5;" x="701.59" xlink:href="#m231f9b0f49" y="294.10706995"/>
     <use style="fill:#ff0000;stroke:#000000;stroke-width:0.5;" x="725.504285714" xlink:href="#m231f9b0f49" y="296.336442779"/>
     <use style="fill:#ff0000;stroke:#000000;stroke-width:0.5;" x="749.418571429" xlink:href="#m231f9b0f49" y="297.536874302"/>
     <use style="fill:#ff0000;stroke:#000000;stroke-width:0.5;" x="773.332857143" xlink:href="#m231f9b0f49" y="287.047517251"/>
     <use style="fill:#ff0000;stroke:#000000;stroke-width:0.5;" x="797.247142857" xlink:href="#m231f9b0f49" y="263.869005229"/>
     <use style="fill:#ff0000;stroke:#000000;stroke-width:0.5;" x="821.161428571" xlink:href="#m231f9b0f49" y="240.435676933"/>
     <use style="fill:#ff0000;stroke:#000000;stroke-width:0.5;" x="845.075714286" xlink:href="#m231f9b0f49" y="149.87891595"/>
     <use style="fill:#ff0000;stroke:#000000;stroke-width:0.5;" x="868.99" xlink:href="#m231f9b0f49" y="84.1710365763"/>
    </g>
   </g>
   <g id="line2d_2">
    <path clip-path="url(#p3e29ac047c)" d="
M31.99 297.876
L55.9043 297.628
L79.8186 297.122
L103.733 296.427
L127.647 295.014
L151.561 292.812
L175.476 290.569
L199.39 288.413
L223.304 285.692
L247.219 281.981
L271.133 273.259
L295.047 258.466
L318.961 241.621
L342.876 222.354
L366.79 199.645
L390.704 176.541
L414.619 143.33
L438.533 104.998
L462.447 86.6437
L486.361 117.678
L510.276 177.801
L534.19 217.545
L558.104 228.51
L582.019 235.935
L605.933 240.81
L629.847 248.21
L653.761 258.784
L677.676 266.877
L701.59 273.104
L725.504 280.138
L749.419 285.417
L773.333 289.643
L797.247 293.774
L821.161 295.634
L845.076 301.007
L868.99 301.007" style="fill:none;stroke:#008000;stroke-linecap:square;"/>
    <defs>
     <path d="
M0 3
C0.795609 3 1.55874 2.6839 2.12132 2.12132
C2.6839 1.55874 3 0.795609 3 0
C3 -0.795609 2.6839 -1.55874 2.12132 -2.12132
C1.55874 -2.6839 0.795609 -3 0 -3
C-0.795609 -3 -1.55874 -2.6839 -2.12132 -2.12132
C-2.6839 -1.55874 -3 -0.795609 -3 0
C-3 0.795609 -2.6839 1.55874 -2.12132 2.12132
C-1.55874 2.6839 -0.795609 3 0 3
z
" id="m25f47eefb8" style="stroke:#000000;stroke-width:0.5;"/>
    </defs>
    <g clip-path="url(#p3e29ac047c)">
     <use style="fill:#008000;stroke:#000000;stroke-width:0.5;" x="31.99" xlink:href="#m25f47eefb8" y="297.876440218"/>
     <use style="fill:#008000;stroke:#000000;stroke-width:0.5;" x="55.9042857143" xlink:href="#m25f47eefb8" y="297.627645782"/>
     <use style="fill:#008000;stroke:#000000;stroke-width:0.5;" x="79.8185714286" xlink:href="#m25f47eefb8" y="297.122390216"/>
     <use style="fill:#008000;stroke:#000000;stroke-width:0.5;" x="103.732857143" xlink:href="#m25f47eefb8" y="296.427283163"/>
     <use style="fill:#008000;stroke:#000000;stroke-width:0.5;" x="127.647142857" xlink:href="#m25f47eefb8" y="295.014486801"/>
     <use style="fill:#008000;stroke:#000000;stroke-width:0.5;" x="151.561428571" xlink:href="#m25f47eefb8" y="292.811687182"/>
     <use style="fill:#008000;stroke:#000000;stroke-width:0.5;" x="175.475714286" xlink:href="#m25f47eefb8" y="290.568779761"/>
     <use style="fill:#008000;stroke:#000000;stroke-width:0.5;" x="199.39" xlink:href="#m25f47eefb8" y="288.413438854"/>
     <use style="fill:#008000;stroke:#000000;stroke-width:0.5;" x="223.304285714" xlink:href="#m25f47eefb8" y="285.691768867"/>
     <use style="fill:#008000;stroke:#000000;stroke-width:0.5;" x="247.218571429" xlink:href="#m25f47eefb8" y="281.9813104"/>
     <use style="fill:#008000;stroke:#000000;stroke-width:0.5;" x="271.132857143" xlink:href="#m25f47eefb8" y="273.259466261"/>
     <use style="fill:#008000;stroke:#000000;stroke-width:0.5;" x="295.047142857" xlink:href="#m25f47eefb8" y="258.465860984"/>
     <use style="fill:#008000;stroke:#000000;stroke-width:0.5;" x="318.961428571" xlink:href="#m25f47eefb8" y="241.62136775"/>
     <use style="fill:#008000;stroke:#000000;stroke-width:0.5;" x="342.875714286" xlink:href="#m25f47eefb8" y="222.354307828"/>
     <use style="fill:#008000;stroke:#000000;stroke-width:0.5;" x="366.79" xlink:href="#m25f47eefb8" y="199.644755144"/>
     <use style="fill:#008000;stroke:#000000;stroke-width:0.5;" x="390.704285714" xlink:href="#m25f47eefb8" y="176.541211877"/>
     <use style="fill:#008000;stroke:#000000;stroke-width:0.5;" x="414.618571429" xlink:href="#m25f47eefb8" y="143.330272719"/>
     <use style="fill:#008000;stroke:#000000;stroke-width:0.5;" x="438.532857143" xlink:href="#m25f47eefb8" y="104.998345982"/>
     <use style="fill:#008000;stroke:#000000;stroke-width:0.5;" x="462.447142857" xlink:href="#m25f47eefb8" y="86.6436542688"/>
     <use style="fill:#008000;stroke:#000000;stroke-width:0.5;" x="486.361428571" xlink:href="#m25f47eefb8" y="117.677604088"/>
     <use style="fill:#008000;stroke:#000000;stroke-width:0.5;" x="510.275714286" xlink:href="#m25f47eefb8" y="177.800764359"/>
     <use style="fill:#008000;stroke:#000000;stroke-width:0.5;" x="534.19" xlink:href="#m25f47eefb8" y="217.545101299"/>
     <use style="fill:#008000;stroke:#000000;stroke-width:0.5;" x="558.104285714" xlink:href="#m25f47eefb8" y="228.51047977"/>
     <use style="fill:#008000;stroke:#000000;stroke-width:0.5;" x="582.018571429" xlink:href="#m25f47eefb8" y="235.935482762"/>
     <use style="fill:#008000;stroke:#000000;stroke-width:0.5;" x="605.932857143" xlink:href="#m25f47eefb8" y="240.810153688"/>
     <use style="fill:#008000;stroke:#000000;stroke-width:0.5;" x="629.847142857" xlink:href="#m25f47eefb8" y="248.210397024"/>
     <use style="fill:#008000;stroke:#000000;stroke-width:0.5;" x="653.761428571" xlink:href="#m25f47eefb8" y="258.78367631"/>
     <use style="fill:#008000;stroke:#000000;stroke-width:0.5;" x="677.675714286" xlink:href="#m25f47eefb8" y="266.877373552"/>
     <use style="fill:#008000;stroke:#000000;stroke-width:0.5;" x="701.59" xlink:href="#m25f47eefb8" y="273.104043948"/>
     <use style="fill:#008000;stroke:#000000;stroke-width:0.5;" x="725.504285714" xlink:href="#m25f47eefb8" y="280.13750158"/>
     <use style="fill:#008000;stroke:#000000;stroke-width:0.5;" x="749.418571429" xlink:href="#m25f47eefb8" y="285.417016789"/>
     <use style="fill:#008000;stroke:#000000;stroke-width:0.5;" x="773.332857143" xlink:href="#m25f47eefb8" y="289.64311592"/>
     <use style="fill:#008000;stroke:#000000;stroke-width:0.5;" x="797.247142857" xlink:href="#m25f47eefb8" y="293.773619838"/>
     <use style="fill:#008000;stroke:#000000;stroke-width:0.5;" x="821.161428571" xlink:href="#m25f47eefb8" y="295.633740671"/>
     <use style="fill:#008000;stroke:#000000;stroke-width:0.5;" x="845.075714286" xlink:href="#m25f47eefb8" y="301.006875"/>
     <use style="fill:#008000;stroke:#000000;stroke-width:0.5;" x="868.99" xlink:href="#m25f47eefb8" y="301.006875"/>
    </g>
   </g>
   <g id="line2d_3">
    <path clip-path="url(#p3e29ac047c)" d="
M31.99 268.58
L55.9043 279.652
L79.8186 291.568
L103.733 297.848
L127.647 298.897
L151.561 299.543
L175.476 299.94
L199.39 300.055
L223.304 299.928
L247.219 299.827
L271.133 300.133
L295.047 300.701
L318.961 301.007
L342.876 301.007
L366.79 301.007
L390.704 301.007
L414.619 301.007
L438.533 301.007
L462.447 301.007
L486.361 258.603
L510.276 175.77
L534.19 119.074
L558.104 100.317
L582.019 86.97
L605.933 79.1052
L629.847 71.9175
L653.761 62.8256
L677.676 55.2366
L701.59 46.6955
L725.504 36.8067
L749.419 32.0667
L773.333 40.6642
L797.247 59.6805
L821.161 78.9512
L845.076 160.893
L868.99 227.901" style="fill:none;stroke:#0000ff;stroke-linecap:square;"/>
    <defs>
     <path d="
M0 3
C0.795609 3 1.55874 2.6839 2.12132 2.12132
C2.6839 1.55874 3 0.795609 3 0
C3 -0.795609 2.6839 -1.55874 2.12132 -2.12132
C1.55874 -2.6839 0.795609 -3 0 -3
C-0.795609 -3 -1.55874 -2.6839 -2.12132 -2.12132
C-2.6839 -1.55874 -3 -0.795609 -3 0
C-3 0.795609 -2.6839 1.55874 -2.12132 2.12132
C-1.55874 2.6839 -0.795609 3 0 3
z
" id="mdb00ba95ec" style="stroke:#000000;stroke-width:0.5;"/>
    </defs>
    <g clip-path="url(#p3e29ac047c)">
     <use style="fill:#0000ff;stroke:#000000;stroke-width:0.5;" x="31.99" xlink:href="#mdb00ba95ec" y="268.580130384"/>
     <use style="fill:#0000ff;stroke:#000000;stroke-width:0.5;" x="55.9042857143" xlink:href="#mdb00ba95ec" y="279.652400535"/>
     <use style="fill:#0000ff;stroke:#000000;stroke-width:0.5;" x="79.8185714286" xlink:href="#mdb00ba95ec" y="291.568231372"/>
     <use style="fill:#0000ff;stroke:#000000;stroke-width:0.5;" x="103.732857143" xlink:href="#mdb00ba95ec" y="297.847691327"/>
     <use style="fill:#0000ff;stroke:#000000;stroke-width:0.5;" x="127.647142857" xlink:href="#mdb00ba95ec" y="298.896561075"/>
     <use style="fill:#0000ff;stroke:#000000;stroke-width:0.5;" x="151.561428571" xlink:href="#mdb00ba95ec" y="299.542903054"/>
     <use style="fill:#0000ff;stroke:#000000;stroke-width:0.5;" x="175.475714286" xlink:href="#mdb00ba95ec" y="299.940208333"/>
     <use style="fill:#0000ff;stroke:#000000;stroke-width:0.5;" x="199.39" xlink:href="#mdb00ba95ec" y="300.054718666"/>
     <use style="fill:#0000ff;stroke:#000000;stroke-width:0.5;" x="223.304285714" xlink:href="#mdb00ba95ec" y="299.928003876"/>
     <use style="fill:#0000ff;stroke:#000000;stroke-width:0.5;" x="247.218571429" xlink:href="#mdb00ba95ec" y="299.826547131"/>
     <use style="fill:#0000ff;stroke:#000000;stroke-width:0.5;" x="271.132857143" xlink:href="#mdb00ba95ec" y="300.13255806"/>
     <use style="fill:#0000ff;stroke:#000000;stroke-width:0.5;" x="295.047142857" xlink:href="#mdb00ba95ec" y="300.700864071"/>
     <use style="fill:#0000ff;stroke:#000000;stroke-width:0.5;" x="318.961428571" xlink:href="#mdb00ba95ec" y="301.006875"/>
     <use style="fill:#0000ff;stroke:#000000;stroke-width:0.5;" x="342.875714286" xlink:href="#mdb00ba95ec" y="301.006875"/>
     <use style="fill:#0000ff;stroke:#000000;stroke-width:0.5;" x="366.79" xlink:href="#mdb00ba95ec" y="301.006875"/>
     <use style="fill:#0000ff;stroke:#000000;stroke-width:0.5;" x="390.704285714" xlink:href="#mdb00ba95ec" y="301.006875"/>
     <use style="fill:#0000ff;stroke:#000000;stroke-width:0.5;" x="414.618571429" xlink:href="#mdb00ba95ec" y="301.006875"/>
     <use style="fill:#0000ff;stroke:#000000;stroke-width:0.5;" x="438.532857143" xlink:href="#mdb00ba95ec" y="301.006875"/>
     <use style="fill:#0000ff;stroke:#000000;stroke-width:0.5;" x="462.447142857" xlink:href="#mdb00ba95ec" y="301.006875"/>
     <use style="fill:#0000ff;stroke:#000000;stroke-width:0.5;" x="486.361428571" xlink:href="#mdb00ba95ec" y="258.603242839"/>
     <use style="fill:#0000ff;stroke:#000000;stroke-width:0.5;" x="510.275714286" xlink:href="#mdb00ba95ec" y="175.770116962"/>
     <use style="fill:#0000ff;stroke:#000000;stroke-width:0.5;" x="534.19" xlink:href="#mdb00ba95ec" y="119.074153282"/>
     <use style="fill:#0000ff;stroke:#000000;stroke-width:0.5;" x="558.104285714" xlink:href="#mdb00ba95ec" y="100.316925678"/>
     <use style="fill:#0000ff;stroke:#000000;stroke-width:0.5;" x="582.018571429" xlink:href="#mdb00ba95ec" y="86.9700478985"/>
     <use style="fill:#0000ff;stroke:#000000;stroke-width:0.5;" x="605.932857143" xlink:href="#mdb00ba95ec" y="79.1052356496"/>
     <use style="fill:#0000ff;stroke:#000000;stroke-width:0.5;" x="629.847142857" xlink:href="#mdb00ba95ec" y="71.9175300759"/>
     <use style="fill:#0000ff;stroke:#000000;stroke-width:0.5;" x="653.761428571" xlink:href="#mdb00ba95ec" y="62.8256023057"/>
     <use style="fill:#0000ff;stroke:#000000;stroke-width:0.5;" x="677.675714286" xlink:href="#mdb00ba95ec" y="55.2366130224"/>
     <use style="fill:#0000ff;stroke:#000000;stroke-width:0.5;" x="701.59" xlink:href="#mdb00ba95ec" y="46.6954740798"/>
     <use style="fill:#0000ff;stroke:#000000;stroke-width:0.5;" x="725.504285714" xlink:href="#mdb00ba95ec" y="36.8066729895"/>
     <use style="fill:#0000ff;stroke:#000000;stroke-width:0.5;" x="749.418571429" xlink:href="#mdb00ba95ec" y="32.0667339216"/>
     <use style="fill:#0000ff;stroke:#000000;stroke-width:0.5;" x="773.332857143" xlink:href="#mdb00ba95ec" y="40.6642099969"/>
     <use style="fill:#0000ff;stroke:#000000;stroke-width:0.5;" x="797.247142857" xlink:href="#mdb00ba95ec" y="59.6804579538"/>
     <use style="fill:#0000ff;stroke:#000000;stroke-width:0.5;" x="821.161428571" xlink:href="#mdb00ba95ec" y="78.9512073888"/>
     <use style="fill:#0000ff;stroke:#000000;stroke-width:0.5;" x="845.075714286" xlink:href="#mdb00ba95ec" y="160.893304127"/>
     <use style="fill:#0000ff;stroke:#000000;stroke-width:0.5;" x="868.99" xlink:href="#mdb00ba95ec" y="227.901049348"/>
    </g>
   </g>
   <g id="patch_3">
    <path d="
M31.99 301.007
L868.99 301.007" style="fill:none;stroke:#000000;stroke-linecap:square;stroke-linejoin:miter;"/>
   </g>
   <g id="patch_4">
    <path d="
M31.99 13.0069
L868.99 13.0069" style="fill:none;stroke:#000000;stroke-linecap:square;stroke-linejoin:miter;"/>
   </g>
   <g id="patch_5">
    <path d="
M868.99 301.007
L868.99 13.0069" style="fill:none;stroke:#000000;stroke-linecap:square;stroke-linejoin:miter;"/>
   </g>
   <g id="patch_6">
    <path d="
M31.99 301.007
L31.99 13.0069" style="fill:none;stroke:#000000;stroke-linecap:square;stroke-linejoin:miter;"/>
   </g>
   <g id="matplotlib.axis_1">
    <g id="xtick_1">
     <g id="line2d_4">
      <defs>
       <path d="
M0 0
L0 -4" id="mc7db9fdffb" style="stroke:#000000;stroke-width:0.5;"/>
      </defs>
      <g>
       <use style="stroke:#000000;stroke-width:0.5;" x="31.99" xlink:href="#mc7db9fdffb" y="301.006875"/>
      </g>
     </g>
     <g id="line2d_5">
      <defs>
       <path d="
M0 0
L0 4" id="m5a7d422ac3" style="stroke:#000000;stroke-width:0.5;"/>
      </defs>
      <g>
       <use style="stroke:#000000;stroke-width:0.5;" x="31.99" xlink:href="#m5a7d422ac3" y="13.006875"/>
      </g>
     </g>
     <g id="text_1">
      <!-- 0 -->
      <defs>
       <path d="
M31.7812 66.4062
Q24.1719 66.4062 20.3281 58.9062
Q16.5 51.4219 16.5 36.375
Q16.5 21.3906 20.3281 13.8906
Q24.1719 6.39062 31.7812 6.39062
Q39.4531 6.39062 43.2812 13.8906
Q47.125 21.3906 47.125 36.375
Q47.125 51.4219 43.2812 58.9062
Q39.4531 66.4062 31.7812 66.4062
M31.7812 74.2188
Q44.0469 74.2188 50.5156 64.5156
Q56.9844 54.8281 56.9844 36.375
Q56.9844 17.9688 50.5156 8.26562
Q44.0469 -1.42188 31.7812 -1.42188
Q19.5312 -1.42188 13.0625 8.26562
Q6.59375 17.9688 6.59375 36.375
Q6.59375 54.8281 13.0625 64.5156
Q19.5312 74.2188 31.7812 74.2188" id="BitstreamVeraSans-Roman-30"/>
      </defs>
      <g transform="translate(28.9665625 314.125)scale(0.12 -0.12)">
       <use xlink:href="#BitstreamVeraSans-Roman-30"/>
      </g>
     </g>
    </g>
    <g id="xtick_2">
     <g id="line2d_6">
      <g>
       <use style="stroke:#000000;stroke-width:0.5;" x="151.561428571" xlink:href="#mc7db9fdffb" y="301.006875"/>
      </g>
     </g>
     <g id="line2d_7">
      <g>
       <use style="stroke:#000000;stroke-width:0.5;" x="151.561428571" xlink:href="#m5a7d422ac3" y="13.006875"/>
      </g>
     </g>
     <g id="text_2">
      <!-- 5 -->
      <defs>
       <path d="
M10.7969 72.9062
L49.5156 72.9062
L49.5156 64.5938
L19.8281 64.5938
L19.8281 46.7344
Q21.9688 47.4688 24.1094 47.8281
Q26.2656 48.1875 28.4219 48.1875
Q40.625 48.1875 47.75 41.5
Q54.8906 34.8125 54.8906 23.3906
Q54.8906 11.625 47.5625 5.09375
Q40.2344 -1.42188 26.9062 -1.42188
Q22.3125 -1.42188 17.5469 -0.640625
Q12.7969 0.140625 7.71875 1.70312
L7.71875 11.625
Q12.1094 9.23438 16.7969 8.0625
Q21.4844 6.89062 26.7031 6.89062
Q35.1562 6.89062 40.0781 11.3281
Q45.0156 15.7656 45.0156 23.3906
Q45.0156 31 40.0781 35.4375
Q35.1562 39.8906 26.7031 39.8906
Q22.75 39.8906 18.8125 39.0156
Q14.8906 38.1406 10.7969 36.2812
z
" id="BitstreamVeraSans-Roman-35"/>
      </defs>
      <g transform="translate(148.731116071 314.125)scale(0.12 -0.12)">
       <use xlink:href="#BitstreamVeraSans-Roman-35"/>
      </g>
     </g>
    </g>
    <g id="xtick_3">
     <g id="line2d_8">
      <g>
       <use style="stroke:#000000;stroke-width:0.5;" x="271.132857143" xlink:href="#mc7db9fdffb" y="301.006875"/>
      </g>
     </g>
     <g id="line2d_9">
      <g>
       <use style="stroke:#000000;stroke-width:0.5;" x="271.132857143" xlink:href="#m5a7d422ac3" y="13.006875"/>
      </g>
     </g>
     <g id="text_3">
      <!-- 10 -->
      <defs>
       <path d="
M12.4062 8.29688
L28.5156 8.29688
L28.5156 63.9219
L10.9844 60.4062
L10.9844 69.3906
L28.4219 72.9062
L38.2812 72.9062
L38.2812 8.29688
L54.3906 8.29688
L54.3906 0
L12.4062 0
z
" id="BitstreamVeraSans-Roman-31"/>
      </defs>
      <g transform="translate(264.555357143 314.125)scale(0.12 -0.12)">
       <use xlink:href="#BitstreamVeraSans-Roman-31"/>
       <use x="63.623046875" xlink:href="#BitstreamVeraSans-Roman-30"/>
      </g>
     </g>
    </g>
    <g id="xtick_4">
     <g id="line2d_10">
      <g>
       <use style="stroke:#000000;stroke-width:0.5;" x="390.704285714" xlink:href="#mc7db9fdffb" y="301.006875"/>
      </g>
     </g>
     <g id="line2d_11">
      <g>
       <use style="stroke:#000000;stroke-width:0.5;" x="390.704285714" xlink:href="#m5a7d422ac3" y="13.006875"/>
      </g>
     </g>
     <g id="text_4">
      <!-- 15 -->
      <g transform="translate(384.252410714 314.125)scale(0.12 -0.12)">
       <use xlink:href="#BitstreamVeraSans-Roman-31"/>
       <use x="63.623046875" xlink:href="#BitstreamVeraSans-Roman-35"/>
      </g>
     </g>
    </g>
    <g id="xtick_5">
     <g id="line2d_12">
      <g>
       <use style="stroke:#000000;stroke-width:0.5;" x="510.275714286" xlink:href="#mc7db9fdffb" y="301.006875"/>
      </g>
     </g>
     <g id="line2d_13">
      <g>
       <use style="stroke:#000000;stroke-width:0.5;" x="510.275714286" xlink:href="#m5a7d422ac3" y="13.006875"/>
      </g>
     </g>
     <g id="text_5">
      <!-- 20 -->
      <defs>
       <path d="
M19.1875 8.29688
L53.6094 8.29688
L53.6094 0
L7.32812 0
L7.32812 8.29688
Q12.9375 14.1094 22.625 23.8906
Q32.3281 33.6875 34.8125 36.5312
Q39.5469 41.8438 41.4219 45.5312
Q43.3125 49.2188 43.3125 52.7812
Q43.3125 58.5938 39.2344 62.25
Q35.1562 65.9219 28.6094 65.9219
Q23.9688 65.9219 18.8125 64.3125
Q13.6719 62.7031 7.8125 59.4219
L7.8125 69.3906
Q13.7656 71.7812 18.9375 73
Q24.125 74.2188 28.4219 74.2188
Q39.75 74.2188 46.4844 68.5469
Q53.2188 62.8906 53.2188 53.4219
Q53.2188 48.9219 51.5312 44.8906
Q49.8594 40.875 45.4062 35.4062
Q44.1875 33.9844 37.6406 27.2188
Q31.1094 20.4531 19.1875 8.29688" id="BitstreamVeraSans-Roman-32"/>
      </defs>
      <g transform="translate(503.478839286 314.125)scale(0.12 -0.12)">
       <use xlink:href="#BitstreamVeraSans-Roman-32"/>
       <use x="63.623046875" xlink:href="#BitstreamVeraSans-Roman-30"/>
      </g>
     </g>
    </g>
    <g id="xtick_6">
     <g id="line2d_14">
      <g>
       <use style="stroke:#000000;stroke-width:0.5;" x="629.847142857" xlink:href="#mc7db9fdffb" y="301.006875"/>
      </g>
     </g>
     <g id="line2d_15">
      <g>
       <use style="stroke:#000000;stroke-width:0.5;" x="629.847142857" xlink:href="#m5a7d422ac3" y="13.006875"/>
      </g>
     </g>
     <g id="text_6">
      <!-- 25 -->
      <g transform="translate(623.175892857 314.125)scale(0.12 -0.12)">
       <use xlink:href="#BitstreamVeraSans-Roman-32"/>
       <use x="63.623046875" xlink:href="#BitstreamVeraSans-Roman-35"/>
      </g>
     </g>
    </g>
    <g id="xtick_7">
     <g id="line2d_16">
      <g>
       <use style="stroke:#000000;stroke-width:0.5;" x="749.418571429" xlink:href="#mc7db9fdffb" y="301.006875"/>
      </g>
     </g>
     <g id="line2d_17">
      <g>
       <use style="stroke:#000000;stroke-width:0.5;" x="749.418571429" xlink:href="#m5a7d422ac3" y="13.006875"/>
      </g>
     </g>
     <g id="text_7">
      <!-- 30 -->
      <defs>
       <path d="
M40.5781 39.3125
Q47.6562 37.7969 51.625 33
Q55.6094 28.2188 55.6094 21.1875
Q55.6094 10.4062 48.1875 4.48438
Q40.7656 -1.42188 27.0938 -1.42188
Q22.5156 -1.42188 17.6562 -0.515625
Q12.7969 0.390625 7.625 2.20312
L7.625 11.7188
Q11.7188 9.32812 16.5938 8.10938
Q21.4844 6.89062 26.8125 6.89062
Q36.0781 6.89062 40.9375 10.5469
Q45.7969 14.2031 45.7969 21.1875
Q45.7969 27.6406 41.2812 31.2656
Q36.7656 34.9062 28.7188 34.9062
L20.2188 34.9062
L20.2188 43.0156
L29.1094 43.0156
Q36.375 43.0156 40.2344 45.9219
Q44.0938 48.8281 44.0938 54.2969
Q44.0938 59.9062 40.1094 62.9062
Q36.1406 65.9219 28.7188 65.9219
Q24.6562 65.9219 20.0156 65.0312
Q15.375 64.1562 9.8125 62.3125
L9.8125 71.0938
Q15.4375 72.6562 20.3438 73.4375
Q25.25 74.2188 29.5938 74.2188
Q40.8281 74.2188 47.3594 69.1094
Q53.9062 64.0156 53.9062 55.3281
Q53.9062 49.2656 50.4375 45.0938
Q46.9688 40.9219 40.5781 39.3125" id="BitstreamVeraSans-Roman-33"/>
      </defs>
      <g transform="translate(742.639508929 314.125)scale(0.12 -0.12)">
       <use xlink:href="#BitstreamVeraSans-Roman-33"/>
       <use x="63.623046875" xlink:href="#BitstreamVeraSans-Roman-30"/>
      </g>
     </g>
    </g>
    <g id="xtick_8">
     <g id="line2d_18">
      <g>
       <use style="stroke:#000000;stroke-width:0.5;" x="868.99" xlink:href="#mc7db9fdffb" y="301.006875"/>
      </g>
     </g>
     <g id="line2d_19">
      <g>
       <use style="stroke:#000000;stroke-width:0.5;" x="868.99" xlink:href="#m5a7d422ac3" y="13.006875"/>
      </g>
     </g>
     <g id="text_8">
      <!-- 35 -->
      <g transform="translate(862.3365625 314.125)scale(0.12 -0.12)">
       <use xlink:href="#BitstreamVeraSans-Roman-33"/>
       <use x="63.623046875" xlink:href="#BitstreamVeraSans-Roman-35"/>
      </g>
     </g>
    </g>
   </g>
   <g id="matplotlib.axis_2">
    <g id="ytick_1">
     <g id="line2d_20">
      <defs>
       <path d="
M0 0
L4 0" id="md7965d1ba0" style="stroke:#000000;stroke-width:0.5;"/>
      </defs>
      <g>
       <use style="stroke:#000000;stroke-width:0.5;" x="31.99" xlink:href="#md7965d1ba0" y="301.006875"/>
      </g>
     </g>
     <g id="line2d_21">
      <defs>
       <path d="
M0 0
L-4 0" id="md9a1c1a7cd" style="stroke:#000000;stroke-width:0.5;"/>
      </defs>
      <g>
       <use style="stroke:#000000;stroke-width:0.5;" x="868.99" xlink:href="#md9a1c1a7cd" y="301.006875"/>
      </g>
     </g>
     <g id="text_9">
      <!-- 0 -->
      <g transform="translate(21.943125 304.318125)scale(0.12 -0.12)">
       <use xlink:href="#BitstreamVeraSans-Roman-30"/>
      </g>
     </g>
    </g>
    <g id="ytick_2">
     <g id="line2d_22">
      <g>
       <use style="stroke:#000000;stroke-width:0.5;" x="31.99" xlink:href="#md7965d1ba0" y="243.406875"/>
      </g>
     </g>
     <g id="line2d_23">
      <g>
       <use style="stroke:#000000;stroke-width:0.5;" x="868.99" xlink:href="#md9a1c1a7cd" y="243.406875"/>
      </g>
     </g>
     <g id="text_10">
      <!-- 20 -->
      <g transform="translate(14.39625 246.718125)scale(0.12 -0.12)">
       <use xlink:href="#BitstreamVeraSans-Roman-32"/>
       <use x="63.623046875" xlink:href="#BitstreamVeraSans-Roman-30"/>
      </g>
     </g>
    </g>
    <g id="ytick_3">
     <g id="line2d_24">
      <g>
       <use style="stroke:#000000;stroke-width:0.5;" x="31.99" xlink:href="#md7965d1ba0" y="185.806875"/>
      </g>
     </g>
     <g id="line2d_25">
      <g>
       <use style="stroke:#000000;stroke-width:0.5;" x="868.99" xlink:href="#md9a1c1a7cd" y="185.806875"/>
      </g>
     </g>
     <g id="text_11">
      <!-- 40 -->
      <defs>
       <path d="
M37.7969 64.3125
L12.8906 25.3906
L37.7969 25.3906
z

M35.2031 72.9062
L47.6094 72.9062
L47.6094 25.3906
L58.0156 25.3906
L58.0156 17.1875
L47.6094 17.1875
L47.6094 0
L37.7969 0
L37.7969 17.1875
L4.89062 17.1875
L4.89062 26.7031
z
" id="BitstreamVeraSans-Roman-34"/>
      </defs>
      <g transform="translate(14.10375 189.118125)scale(0.12 -0.12)">
       <use xlink:href="#BitstreamVeraSans-Roman-34"/>
       <use x="63.623046875" xlink:href="#BitstreamVeraSans-Roman-30"/>
      </g>
     </g>
    </g>
    <g id="ytick_4">
     <g id="line2d_26">
      <g>
       <use style="stroke:#000000;stroke-width:0.5;" x="31.99" xlink:href="#md7965d1ba0" y="128.206875"/>
      </g>
     </g>
     <g id="line2d_27">
      <g>
       <use style="stroke:#000000;stroke-width:0.5;" x="868.99" xlink:href="#md9a1c1a7cd" y="128.206875"/>
      </g>
     </g>
     <g id="text_12">
      <!-- 60 -->
      <defs>
       <path d="
M33.0156 40.375
Q26.375 40.375 22.4844 35.8281
Q18.6094 31.2969 18.6094 23.3906
Q18.6094 15.5312 22.4844 10.9531
Q26.375 6.39062 33.0156 6.39062
Q39.6562 6.39062 43.5312 10.9531
Q47.4062 15.5312 47.4062 23.3906
Q47.4062 31.2969 43.5312 35.8281
Q39.6562 40.375 33.0156 40.375
M52.5938 71.2969
L52.5938 62.3125
Q48.875 64.0625 45.0938 64.9844
Q41.3125 65.9219 37.5938 65.9219
Q27.8281 65.9219 22.6719 59.3281
Q17.5312 52.7344 16.7969 39.4062
Q19.6719 43.6562 24.0156 45.9219
Q28.375 48.1875 33.5938 48.1875
Q44.5781 48.1875 50.9531 41.5156
Q57.3281 34.8594 57.3281 23.3906
Q57.3281 12.1562 50.6875 5.35938
Q44.0469 -1.42188 33.0156 -1.42188
Q20.3594 -1.42188 13.6719 8.26562
Q6.98438 17.9688 6.98438 36.375
Q6.98438 53.6562 15.1875 63.9375
Q23.3906 74.2188 37.2031 74.2188
Q40.9219 74.2188 44.7031 73.4844
Q48.4844 72.75 52.5938 71.2969" id="BitstreamVeraSans-Roman-36"/>
      </defs>
      <g transform="translate(14.355 131.518125)scale(0.12 -0.12)">
       <use xlink:href="#BitstreamVeraSans-Roman-36"/>
       <use x="63.623046875" xlink:href="#BitstreamVeraSans-Roman-30"/>
      </g>
     </g>
    </g>
    <g id="ytick_5">
     <g id="line2d_28">
      <g>
       <use style="stroke:#000000;stroke-width:0.5;" x="31.99" xlink:href="#md7965d1ba0" y="70.606875"/>
      </g>
     </g>
     <g id="line2d_29">
      <g>
       <use style="stroke:#000000;stroke-width:0.5;" x="868.99" xlink:href="#md9a1c1a7cd" y="70.606875"/>
      </g>
     </g>
     <g id="text_13">
      <!-- 80 -->
      <defs>
       <path d="
M31.7812 34.625
Q24.75 34.625 20.7188 30.8594
Q16.7031 27.0938 16.7031 20.5156
Q16.7031 13.9219 20.7188 10.1562
Q24.75 6.39062 31.7812 6.39062
Q38.8125 6.39062 42.8594 10.1719
Q46.9219 13.9688 46.9219 20.5156
Q46.9219 27.0938 42.8906 30.8594
Q38.875 34.625 31.7812 34.625
M21.9219 38.8125
Q15.5781 40.375 12.0312 44.7188
Q8.5 49.0781 8.5 55.3281
Q8.5 64.0625 14.7188 69.1406
Q20.9531 74.2188 31.7812 74.2188
Q42.6719 74.2188 48.875 69.1406
Q55.0781 64.0625 55.0781 55.3281
Q55.0781 49.0781 51.5312 44.7188
Q48 40.375 41.7031 38.8125
Q48.8281 37.1562 52.7969 32.3125
Q56.7812 27.4844 56.7812 20.5156
Q56.7812 9.90625 50.3125 4.23438
Q43.8438 -1.42188 31.7812 -1.42188
Q19.7344 -1.42188 13.25 4.23438
Q6.78125 9.90625 6.78125 20.5156
Q6.78125 27.4844 10.7812 32.3125
Q14.7969 37.1562 21.9219 38.8125
M18.3125 54.3906
Q18.3125 48.7344 21.8438 45.5625
Q25.3906 42.3906 31.7812 42.3906
Q38.1406 42.3906 41.7188 45.5625
Q45.3125 48.7344 45.3125 54.3906
Q45.3125 60.0625 41.7188 63.2344
Q38.1406 66.4062 31.7812 66.4062
Q25.3906 66.4062 21.8438 63.2344
Q18.3125 60.0625 18.3125 54.3906" id="BitstreamVeraSans-Roman-38"/>
      </defs>
      <g transform="translate(14.330625 73.918125)scale(0.12 -0.12)">
       <use xlink:href="#BitstreamVeraSans-Roman-38"/>
       <use x="63.623046875" xlink:href="#BitstreamVeraSans-Roman-30"/>
      </g>
     </g>
    </g>
    <g id="ytick_6">
     <g id="line2d_30">
      <g>
       <use style="stroke:#000000;stroke-width:0.5;" x="31.99" xlink:href="#md7965d1ba0" y="13.006875"/>
      </g>
     </g>
     <g id="line2d_31">
      <g>
       <use style="stroke:#000000;stroke-width:0.5;" x="868.99" xlink:href="#md9a1c1a7cd" y="13.006875"/>
      </g>
     </g>
     <g id="text_14">
      <!-- 100 -->
      <g transform="translate(7.2 16.318125)scale(0.12 -0.12)">
       <use xlink:href="#BitstreamVeraSans-Roman-31"/>
       <use x="63.623046875" xlink:href="#BitstreamVeraSans-Roman-30"/>
       <use x="127.24609375" xlink:href="#BitstreamVeraSans-Roman-30"/>
      </g>
     </g>
    </g>
   </g>
  </g>
 </g>
 <defs>
  <clipPath id="p3e29ac047c">
   <rect height="288.0" width="837.0" x="31.99" y="13.006875"/>
  </clipPath>
 </defs>
</svg>
