<?xml version="1.0" encoding="utf-8" standalone="no"?>
<!DOCTYPE svg PUBLIC "-//W3C//DTD SVG 1.1//EN"
  "http://www.w3.org/Graphics/SVG/1.1/DTD/svg11.dtd">
<!-- Created with matplotlib (https://matplotlib.org/) -->
<svg height="312.077344pt" version="1.1" viewBox="0 0 877.4875 312.077344" width="877.4875pt" xmlns="http://www.w3.org/2000/svg" xmlns:xlink="http://www.w3.org/1999/xlink">
 <defs>
  <style type="text/css">
*{stroke-linecap:butt;stroke-linejoin:round;}
  </style>
 </defs>
 <g id="figure_1">
  <g id="patch_1">
   <path d="M 0 312.077344 
L 877.4875 312.077344 
L 877.4875 0 
L 0 0 
z
" style="fill:#ffffff;"/>
  </g>
  <g id="axes_1">
   <g id="patch_2">
    <path d="M 33.2875 288.199219 
L 870.2875 288.199219 
L 870.2875 10.999219 
L 33.2875 10.999219 
z
" style="fill:#ffffff;"/>
   </g>
   <g id="matplotlib.axis_1">
    <g id="xtick_1">
     <g id="line2d_1">
      <defs>
       <path d="M 0 0 
L 0 3.5 
" id="m01c1e6c3d2" style="stroke:#000000;stroke-width:0.8;"/>
      </defs>
      <g>
       <use style="stroke:#000000;stroke-width:0.8;" x="33.2875" xlink:href="#m01c1e6c3d2" y="288.199219"/>
      </g>
     </g>
     <g id="text_1">
      <!-- 0 -->
      <defs>
       <path d="M 31.78125 66.40625 
Q 24.171875 66.40625 20.328125 58.90625 
Q 16.5 51.421875 16.5 36.375 
Q 16.5 21.390625 20.328125 13.890625 
Q 24.171875 6.390625 31.78125 6.390625 
Q 39.453125 6.390625 43.28125 13.890625 
Q 47.125 21.390625 47.125 36.375 
Q 47.125 51.421875 43.28125 58.90625 
Q 39.453125 66.40625 31.78125 66.40625 
z
M 31.78125 74.21875 
Q 44.046875 74.21875 50.515625 64.515625 
Q 56.984375 54.828125 56.984375 36.375 
Q 56.984375 17.96875 50.515625 8.265625 
Q 44.046875 -1.421875 31.78125 -1.421875 
Q 19.53125 -1.421875 13.0625 8.265625 
Q 6.59375 17.96875 6.59375 36.375 
Q 6.59375 54.828125 13.0625 64.515625 
Q 19.53125 74.21875 31.78125 74.21875 
z
" id="DejaVuSans-48"/>
      </defs>
      <g transform="translate(30.10625 302.797656)scale(0.1 -0.1)">
       <use xlink:href="#DejaVuSans-48"/>
      </g>
     </g>
    </g>
    <g id="xtick_2">
     <g id="line2d_2">
      <g>
       <use style="stroke:#000000;stroke-width:0.8;" x="128.401136" xlink:href="#m01c1e6c3d2" y="288.199219"/>
      </g>
     </g>
     <g id="text_2">
      <!-- 5 -->
      <defs>
       <path d="M 10.796875 72.90625 
L 49.515625 72.90625 
L 49.515625 64.59375 
L 19.828125 64.59375 
L 19.828125 46.734375 
Q 21.96875 47.46875 24.109375 47.828125 
Q 26.265625 48.1875 28.421875 48.1875 
Q 40.625 48.1875 47.75 41.5 
Q 54.890625 34.8125 54.890625 23.390625 
Q 54.890625 11.625 47.5625 5.09375 
Q 40.234375 -1.421875 26.90625 -1.421875 
Q 22.3125 -1.421875 17.546875 -0.640625 
Q 12.796875 0.140625 7.71875 1.703125 
L 7.71875 11.625 
Q 12.109375 9.234375 16.796875 8.0625 
Q 21.484375 6.890625 26.703125 6.890625 
Q 35.15625 6.890625 40.078125 11.328125 
Q 45.015625 15.765625 45.015625 23.390625 
Q 45.015625 31 40.078125 35.4375 
Q 35.15625 39.890625 26.703125 39.890625 
Q 22.75 39.890625 18.8125 39.015625 
Q 14.890625 38.140625 10.796875 36.28125 
z
" id="DejaVuSans-53"/>
      </defs>
      <g transform="translate(125.219886 302.797656)scale(0.1 -0.1)">
       <use xlink:href="#DejaVuSans-53"/>
      </g>
     </g>
    </g>
    <g id="xtick_3">
     <g id="line2d_3">
      <g>
       <use style="stroke:#000000;stroke-width:0.8;" x="223.514773" xlink:href="#m01c1e6c3d2" y="288.199219"/>
      </g>
     </g>
     <g id="text_3">
      <!-- 10 -->
      <defs>
       <path d="M 12.40625 8.296875 
L 28.515625 8.296875 
L 28.515625 63.921875 
L 10.984375 60.40625 
L 10.984375 69.390625 
L 28.421875 72.90625 
L 38.28125 72.90625 
L 38.28125 8.296875 
L 54.390625 8.296875 
L 54.390625 0 
L 12.40625 0 
z
" id="DejaVuSans-49"/>
      </defs>
      <g transform="translate(217.152273 302.797656)scale(0.1 -0.1)">
       <use xlink:href="#DejaVuSans-49"/>
       <use x="63.623047" xlink:href="#DejaVuSans-48"/>
      </g>
     </g>
    </g>
    <g id="xtick_4">
     <g id="line2d_4">
      <g>
       <use style="stroke:#000000;stroke-width:0.8;" x="318.628409" xlink:href="#m01c1e6c3d2" y="288.199219"/>
      </g>
     </g>
     <g id="text_4">
      <!-- 15 -->
      <g transform="translate(312.265909 302.797656)scale(0.1 -0.1)">
       <use xlink:href="#DejaVuSans-49"/>
       <use x="63.623047" xlink:href="#DejaVuSans-53"/>
      </g>
     </g>
    </g>
    <g id="xtick_5">
     <g id="line2d_5">
      <g>
       <use style="stroke:#000000;stroke-width:0.8;" x="413.742045" xlink:href="#m01c1e6c3d2" y="288.199219"/>
      </g>
     </g>
     <g id="text_5">
      <!-- 20 -->
      <defs>
       <path d="M 19.1875 8.296875 
L 53.609375 8.296875 
L 53.609375 0 
L 7.328125 0 
L 7.328125 8.296875 
Q 12.9375 14.109375 22.625 23.890625 
Q 32.328125 33.6875 34.8125 36.53125 
Q 39.546875 41.84375 41.421875 45.53125 
Q 43.3125 49.21875 43.3125 52.78125 
Q 43.3125 58.59375 39.234375 62.25 
Q 35.15625 65.921875 28.609375 65.921875 
Q 23.96875 65.921875 18.8125 64.3125 
Q 13.671875 62.703125 7.8125 59.421875 
L 7.8125 69.390625 
Q 13.765625 71.78125 18.9375 73 
Q 24.125 74.21875 28.421875 74.21875 
Q 39.75 74.21875 46.484375 68.546875 
Q 53.21875 62.890625 53.21875 53.421875 
Q 53.21875 48.921875 51.53125 44.890625 
Q 49.859375 40.875 45.40625 35.40625 
Q 44.1875 33.984375 37.640625 27.21875 
Q 31.109375 20.453125 19.1875 8.296875 
z
" id="DejaVuSans-50"/>
      </defs>
      <g transform="translate(407.379545 302.797656)scale(0.1 -0.1)">
       <use xlink:href="#DejaVuSans-50"/>
       <use x="63.623047" xlink:href="#DejaVuSans-48"/>
      </g>
     </g>
    </g>
    <g id="xtick_6">
     <g id="line2d_6">
      <g>
       <use style="stroke:#000000;stroke-width:0.8;" x="508.855682" xlink:href="#m01c1e6c3d2" y="288.199219"/>
      </g>
     </g>
     <g id="text_6">
      <!-- 25 -->
      <g transform="translate(502.493182 302.797656)scale(0.1 -0.1)">
       <use xlink:href="#DejaVuSans-50"/>
       <use x="63.623047" xlink:href="#DejaVuSans-53"/>
      </g>
     </g>
    </g>
    <g id="xtick_7">
     <g id="line2d_7">
      <g>
       <use style="stroke:#000000;stroke-width:0.8;" x="603.969318" xlink:href="#m01c1e6c3d2" y="288.199219"/>
      </g>
     </g>
     <g id="text_7">
      <!-- 30 -->
      <defs>
       <path d="M 40.578125 39.3125 
Q 47.65625 37.796875 51.625 33 
Q 55.609375 28.21875 55.609375 21.1875 
Q 55.609375 10.40625 48.1875 4.484375 
Q 40.765625 -1.421875 27.09375 -1.421875 
Q 22.515625 -1.421875 17.65625 -0.515625 
Q 12.796875 0.390625 7.625 2.203125 
L 7.625 11.71875 
Q 11.71875 9.328125 16.59375 8.109375 
Q 21.484375 6.890625 26.8125 6.890625 
Q 36.078125 6.890625 40.9375 10.546875 
Q 45.796875 14.203125 45.796875 21.1875 
Q 45.796875 27.640625 41.28125 31.265625 
Q 36.765625 34.90625 28.71875 34.90625 
L 20.21875 34.90625 
L 20.21875 43.015625 
L 29.109375 43.015625 
Q 36.375 43.015625 40.234375 45.921875 
Q 44.09375 48.828125 44.09375 54.296875 
Q 44.09375 59.90625 40.109375 62.90625 
Q 36.140625 65.921875 28.71875 65.921875 
Q 24.65625 65.921875 20.015625 65.03125 
Q 15.375 64.15625 9.8125 62.3125 
L 9.8125 71.09375 
Q 15.4375 72.65625 20.34375 73.4375 
Q 25.25 74.21875 29.59375 74.21875 
Q 40.828125 74.21875 47.359375 69.109375 
Q 53.90625 64.015625 53.90625 55.328125 
Q 53.90625 49.265625 50.4375 45.09375 
Q 46.96875 40.921875 40.578125 39.3125 
z
" id="DejaVuSans-51"/>
      </defs>
      <g transform="translate(597.606818 302.797656)scale(0.1 -0.1)">
       <use xlink:href="#DejaVuSans-51"/>
       <use x="63.623047" xlink:href="#DejaVuSans-48"/>
      </g>
     </g>
    </g>
    <g id="xtick_8">
     <g id="line2d_8">
      <g>
       <use style="stroke:#000000;stroke-width:0.8;" x="699.082955" xlink:href="#m01c1e6c3d2" y="288.199219"/>
      </g>
     </g>
     <g id="text_8">
      <!-- 35 -->
      <g transform="translate(692.720455 302.797656)scale(0.1 -0.1)">
       <use xlink:href="#DejaVuSans-51"/>
       <use x="63.623047" xlink:href="#DejaVuSans-53"/>
      </g>
     </g>
    </g>
    <g id="xtick_9">
     <g id="line2d_9">
      <g>
       <use style="stroke:#000000;stroke-width:0.8;" x="794.196591" xlink:href="#m01c1e6c3d2" y="288.199219"/>
      </g>
     </g>
     <g id="text_9">
      <!-- 40 -->
      <defs>
       <path d="M 37.796875 64.3125 
L 12.890625 25.390625 
L 37.796875 25.390625 
z
M 35.203125 72.90625 
L 47.609375 72.90625 
L 47.609375 25.390625 
L 58.015625 25.390625 
L 58.015625 17.1875 
L 47.609375 17.1875 
L 47.609375 0 
L 37.796875 0 
L 37.796875 17.1875 
L 4.890625 17.1875 
L 4.890625 26.703125 
z
" id="DejaVuSans-52"/>
      </defs>
      <g transform="translate(787.834091 302.797656)scale(0.1 -0.1)">
       <use xlink:href="#DejaVuSans-52"/>
       <use x="63.623047" xlink:href="#DejaVuSans-48"/>
      </g>
     </g>
    </g>
   </g>
   <g id="matplotlib.axis_2">
    <g id="ytick_1">
     <g id="line2d_10">
      <defs>
       <path d="M 0 0 
L -3.5 0 
" id="m52c7daafd7" style="stroke:#000000;stroke-width:0.8;"/>
      </defs>
      <g>
       <use style="stroke:#000000;stroke-width:0.8;" x="33.2875" xlink:href="#m52c7daafd7" y="288.199219"/>
      </g>
     </g>
     <g id="text_10">
      <!-- 0 -->
      <g transform="translate(19.925 291.998438)scale(0.1 -0.1)">
       <use xlink:href="#DejaVuSans-48"/>
      </g>
     </g>
    </g>
    <g id="ytick_2">
     <g id="line2d_11">
      <g>
       <use style="stroke:#000000;stroke-width:0.8;" x="33.2875" xlink:href="#m52c7daafd7" y="232.759219"/>
      </g>
     </g>
     <g id="text_11">
      <!-- 20 -->
      <g transform="translate(13.5625 236.558438)scale(0.1 -0.1)">
       <use xlink:href="#DejaVuSans-50"/>
       <use x="63.623047" xlink:href="#DejaVuSans-48"/>
      </g>
     </g>
    </g>
    <g id="ytick_3">
     <g id="line2d_12">
      <g>
       <use style="stroke:#000000;stroke-width:0.8;" x="33.2875" xlink:href="#m52c7daafd7" y="177.319219"/>
      </g>
     </g>
     <g id="text_12">
      <!-- 40 -->
      <g transform="translate(13.5625 181.118438)scale(0.1 -0.1)">
       <use xlink:href="#DejaVuSans-52"/>
       <use x="63.623047" xlink:href="#DejaVuSans-48"/>
      </g>
     </g>
    </g>
    <g id="ytick_4">
     <g id="line2d_13">
      <g>
       <use style="stroke:#000000;stroke-width:0.8;" x="33.2875" xlink:href="#m52c7daafd7" y="121.879219"/>
      </g>
     </g>
     <g id="text_13">
      <!-- 60 -->
      <defs>
       <path d="M 33.015625 40.375 
Q 26.375 40.375 22.484375 35.828125 
Q 18.609375 31.296875 18.609375 23.390625 
Q 18.609375 15.53125 22.484375 10.953125 
Q 26.375 6.390625 33.015625 6.390625 
Q 39.65625 6.390625 43.53125 10.953125 
Q 47.40625 15.53125 47.40625 23.390625 
Q 47.40625 31.296875 43.53125 35.828125 
Q 39.65625 40.375 33.015625 40.375 
z
M 52.59375 71.296875 
L 52.59375 62.3125 
Q 48.875 64.0625 45.09375 64.984375 
Q 41.3125 65.921875 37.59375 65.921875 
Q 27.828125 65.921875 22.671875 59.328125 
Q 17.53125 52.734375 16.796875 39.40625 
Q 19.671875 43.65625 24.015625 45.921875 
Q 28.375 48.1875 33.59375 48.1875 
Q 44.578125 48.1875 50.953125 41.515625 
Q 57.328125 34.859375 57.328125 23.390625 
Q 57.328125 12.15625 50.6875 5.359375 
Q 44.046875 -1.421875 33.015625 -1.421875 
Q 20.359375 -1.421875 13.671875 8.265625 
Q 6.984375 17.96875 6.984375 36.375 
Q 6.984375 53.65625 15.1875 63.9375 
Q 23.390625 74.21875 37.203125 74.21875 
Q 40.921875 74.21875 44.703125 73.484375 
Q 48.484375 72.75 52.59375 71.296875 
z
" id="DejaVuSans-54"/>
      </defs>
      <g transform="translate(13.5625 125.678438)scale(0.1 -0.1)">
       <use xlink:href="#DejaVuSans-54"/>
       <use x="63.623047" xlink:href="#DejaVuSans-48"/>
      </g>
     </g>
    </g>
    <g id="ytick_5">
     <g id="line2d_14">
      <g>
       <use style="stroke:#000000;stroke-width:0.8;" x="33.2875" xlink:href="#m52c7daafd7" y="66.439219"/>
      </g>
     </g>
     <g id="text_14">
      <!-- 80 -->
      <defs>
       <path d="M 31.78125 34.625 
Q 24.75 34.625 20.71875 30.859375 
Q 16.703125 27.09375 16.703125 20.515625 
Q 16.703125 13.921875 20.71875 10.15625 
Q 24.75 6.390625 31.78125 6.390625 
Q 38.8125 6.390625 42.859375 10.171875 
Q 46.921875 13.96875 46.921875 20.515625 
Q 46.921875 27.09375 42.890625 30.859375 
Q 38.875 34.625 31.78125 34.625 
z
M 21.921875 38.8125 
Q 15.578125 40.375 12.03125 44.71875 
Q 8.5 49.078125 8.5 55.328125 
Q 8.5 64.0625 14.71875 69.140625 
Q 20.953125 74.21875 31.78125 74.21875 
Q 42.671875 74.21875 48.875 69.140625 
Q 55.078125 64.0625 55.078125 55.328125 
Q 55.078125 49.078125 51.53125 44.71875 
Q 48 40.375 41.703125 38.8125 
Q 48.828125 37.15625 52.796875 32.3125 
Q 56.78125 27.484375 56.78125 20.515625 
Q 56.78125 9.90625 50.3125 4.234375 
Q 43.84375 -1.421875 31.78125 -1.421875 
Q 19.734375 -1.421875 13.25 4.234375 
Q 6.78125 9.90625 6.78125 20.515625 
Q 6.78125 27.484375 10.78125 32.3125 
Q 14.796875 37.15625 21.921875 38.8125 
z
M 18.3125 54.390625 
Q 18.3125 48.734375 21.84375 45.5625 
Q 25.390625 42.390625 31.78125 42.390625 
Q 38.140625 42.390625 41.71875 45.5625 
Q 45.3125 48.734375 45.3125 54.390625 
Q 45.3125 60.0625 41.71875 63.234375 
Q 38.140625 66.40625 31.78125 66.40625 
Q 25.390625 66.40625 21.84375 63.234375 
Q 18.3125 60.0625 18.3125 54.390625 
z
" id="DejaVuSans-56"/>
      </defs>
      <g transform="translate(13.5625 70.238438)scale(0.1 -0.1)">
       <use xlink:href="#DejaVuSans-56"/>
       <use x="63.623047" xlink:href="#DejaVuSans-48"/>
      </g>
     </g>
    </g>
    <g id="ytick_6">
     <g id="line2d_15">
      <g>
       <use style="stroke:#000000;stroke-width:0.8;" x="33.2875" xlink:href="#m52c7daafd7" y="10.999219"/>
      </g>
     </g>
     <g id="text_15">
      <!-- 100 -->
      <g transform="translate(7.2 14.798438)scale(0.1 -0.1)">
       <use xlink:href="#DejaVuSans-49"/>
       <use x="63.623047" xlink:href="#DejaVuSans-48"/>
       <use x="127.246094" xlink:href="#DejaVuSans-48"/>
      </g>
     </g>
    </g>
   </g>
   <g id="line2d_16">
    <path clip-path="url(#p4fe8304568)" d="M 33.2875 209.751619 
L 52.310227 130.733717 
L 71.332955 64.833676 
L 90.355682 32.620819 
L 109.378409 28.443611 
L 128.401136 29.387218 
L 147.423864 30.126019 
L 166.446591 26.781148 
L 185.469318 21.762283 
L 204.492045 19.176619 
L 223.514773 19.385073 
L 242.5375 19.963128 
L 261.560227 20.839819 
L 280.582955 25.228788 
L 299.605682 32.429921 
L 318.628409 36.501619 
L 337.651136 36.839195 
L 356.673864 37.010607 
L 375.696591 37.333219 
L 394.719318 40.305199 
L 413.742045 45.774778 
L 432.764773 50.084419 
L 451.7875 55.011692 
L 470.810227 63.809306 
L 489.832955 75.032419 
L 508.855682 107.568162 
L 527.878409 157.767705 
L 546.901136 197.277619 
L 565.923864 223.990133 
L 584.946591 245.869076 
L 603.969318 254.935219 
L 622.992045 254.791485 
L 642.014773 254.524552 
L 661.0375 254.380819 
L 680.060227 261.711219 
L 699.082955 275.324819 
L 718.105682 282.655219 
L 737.128409 282.343112 
L 756.151136 281.538205 
L 775.173864 280.437619 
L 794.196591 278.846721 
L 813.219318 276.073103 
L 832.242045 271.567219 
L 851.264773 242.608281 
L 870.2875 186.79921 
" style="fill:none;stroke:#ff0000;stroke-linecap:square;stroke-width:1.5;"/>
    <defs>
     <path d="M 0 3 
C 0.795609 3 1.55874 2.683901 2.12132 2.12132 
C 2.683901 1.55874 3 0.795609 3 0 
C 3 -0.795609 2.683901 -1.55874 2.12132 -2.12132 
C 1.55874 -2.683901 0.795609 -3 0 -3 
C -0.795609 -3 -1.55874 -2.683901 -2.12132 -2.12132 
C -2.683901 -1.55874 -3 -0.795609 -3 0 
C -3 0.795609 -2.683901 1.55874 -2.12132 2.12132 
C -1.55874 2.683901 -0.795609 3 0 3 
z
" id="m15750b5099" style="stroke:#ff0000;"/>
    </defs>
    <g clip-path="url(#p4fe8304568)">
     <use style="fill:#ff0000;stroke:#ff0000;" x="33.2875" xlink:href="#m15750b5099" y="209.751619"/>
     <use style="fill:#ff0000;stroke:#ff0000;" x="52.310227" xlink:href="#m15750b5099" y="130.733717"/>
     <use style="fill:#ff0000;stroke:#ff0000;" x="71.332955" xlink:href="#m15750b5099" y="64.833676"/>
     <use style="fill:#ff0000;stroke:#ff0000;" x="90.355682" xlink:href="#m15750b5099" y="32.620819"/>
     <use style="fill:#ff0000;stroke:#ff0000;" x="109.378409" xlink:href="#m15750b5099" y="28.443611"/>
     <use style="fill:#ff0000;stroke:#ff0000;" x="128.401136" xlink:href="#m15750b5099" y="29.387218"/>
     <use style="fill:#ff0000;stroke:#ff0000;" x="147.423864" xlink:href="#m15750b5099" y="30.126019"/>
     <use style="fill:#ff0000;stroke:#ff0000;" x="166.446591" xlink:href="#m15750b5099" y="26.781148"/>
     <use style="fill:#ff0000;stroke:#ff0000;" x="185.469318" xlink:href="#m15750b5099" y="21.762283"/>
     <use style="fill:#ff0000;stroke:#ff0000;" x="204.492045" xlink:href="#m15750b5099" y="19.176619"/>
     <use style="fill:#ff0000;stroke:#ff0000;" x="223.514773" xlink:href="#m15750b5099" y="19.385073"/>
     <use style="fill:#ff0000;stroke:#ff0000;" x="242.5375" xlink:href="#m15750b5099" y="19.963128"/>
     <use style="fill:#ff0000;stroke:#ff0000;" x="261.560227" xlink:href="#m15750b5099" y="20.839819"/>
     <use style="fill:#ff0000;stroke:#ff0000;" x="280.582955" xlink:href="#m15750b5099" y="25.228788"/>
     <use style="fill:#ff0000;stroke:#ff0000;" x="299.605682" xlink:href="#m15750b5099" y="32.429921"/>
     <use style="fill:#ff0000;stroke:#ff0000;" x="318.628409" xlink:href="#m15750b5099" y="36.501619"/>
     <use style="fill:#ff0000;stroke:#ff0000;" x="337.651136" xlink:href="#m15750b5099" y="36.839195"/>
     <use style="fill:#ff0000;stroke:#ff0000;" x="356.673864" xlink:href="#m15750b5099" y="37.010607"/>
     <use style="fill:#ff0000;stroke:#ff0000;" x="375.696591" xlink:href="#m15750b5099" y="37.333219"/>
     <use style="fill:#ff0000;stroke:#ff0000;" x="394.719318" xlink:href="#m15750b5099" y="40.305199"/>
     <use style="fill:#ff0000;stroke:#ff0000;" x="413.742045" xlink:href="#m15750b5099" y="45.774778"/>
     <use style="fill:#ff0000;stroke:#ff0000;" x="432.764773" xlink:href="#m15750b5099" y="50.084419"/>
     <use style="fill:#ff0000;stroke:#ff0000;" x="451.7875" xlink:href="#m15750b5099" y="55.011692"/>
     <use style="fill:#ff0000;stroke:#ff0000;" x="470.810227" xlink:href="#m15750b5099" y="63.809306"/>
     <use style="fill:#ff0000;stroke:#ff0000;" x="489.832955" xlink:href="#m15750b5099" y="75.032419"/>
     <use style="fill:#ff0000;stroke:#ff0000;" x="508.855682" xlink:href="#m15750b5099" y="107.568162"/>
     <use style="fill:#ff0000;stroke:#ff0000;" x="527.878409" xlink:href="#m15750b5099" y="157.767705"/>
     <use style="fill:#ff0000;stroke:#ff0000;" x="546.901136" xlink:href="#m15750b5099" y="197.277619"/>
     <use style="fill:#ff0000;stroke:#ff0000;" x="565.923864" xlink:href="#m15750b5099" y="223.990133"/>
     <use style="fill:#ff0000;stroke:#ff0000;" x="584.946591" xlink:href="#m15750b5099" y="245.869076"/>
     <use style="fill:#ff0000;stroke:#ff0000;" x="603.969318" xlink:href="#m15750b5099" y="254.935219"/>
     <use style="fill:#ff0000;stroke:#ff0000;" x="622.992045" xlink:href="#m15750b5099" y="254.791485"/>
     <use style="fill:#ff0000;stroke:#ff0000;" x="642.014773" xlink:href="#m15750b5099" y="254.524552"/>
     <use style="fill:#ff0000;stroke:#ff0000;" x="661.0375" xlink:href="#m15750b5099" y="254.380819"/>
     <use style="fill:#ff0000;stroke:#ff0000;" x="680.060227" xlink:href="#m15750b5099" y="261.711219"/>
     <use style="fill:#ff0000;stroke:#ff0000;" x="699.082955" xlink:href="#m15750b5099" y="275.324819"/>
     <use style="fill:#ff0000;stroke:#ff0000;" x="718.105682" xlink:href="#m15750b5099" y="282.655219"/>
     <use style="fill:#ff0000;stroke:#ff0000;" x="737.128409" xlink:href="#m15750b5099" y="282.343112"/>
     <use style="fill:#ff0000;stroke:#ff0000;" x="756.151136" xlink:href="#m15750b5099" y="281.538205"/>
     <use style="fill:#ff0000;stroke:#ff0000;" x="775.173864" xlink:href="#m15750b5099" y="280.437619"/>
     <use style="fill:#ff0000;stroke:#ff0000;" x="794.196591" xlink:href="#m15750b5099" y="278.846721"/>
     <use style="fill:#ff0000;stroke:#ff0000;" x="813.219318" xlink:href="#m15750b5099" y="276.073103"/>
     <use style="fill:#ff0000;stroke:#ff0000;" x="832.242045" xlink:href="#m15750b5099" y="271.567219"/>
     <use style="fill:#ff0000;stroke:#ff0000;" x="851.264773" xlink:href="#m15750b5099" y="242.608281"/>
     <use style="fill:#ff0000;stroke:#ff0000;" x="870.2875" xlink:href="#m15750b5099" y="186.79921"/>
    </g>
   </g>
   <g id="line2d_17">
    <path clip-path="url(#p4fe8304568)" d="M 33.2875 288.199219 
L 52.310227 288.199219 
L 71.332955 288.199219 
L 90.355682 288.199219 
L 109.378409 288.199219 
L 128.401136 288.199219 
L 147.423864 288.199219 
L 166.446591 288.199219 
L 185.469318 288.199219 
L 204.492045 288.199219 
L 223.514773 286.546313 
L 242.5375 282.706608 
L 261.560227 278.358619 
L 280.582955 272.465497 
L 299.605682 265.756258 
L 318.628409 262.558219 
L 337.651136 262.737885 
L 356.673864 263.071552 
L 375.696591 263.251219 
L 394.719318 260.143906 
L 413.742045 253.894992 
L 432.764773 249.114019 
L 451.7875 244.186745 
L 470.810227 235.389132 
L 489.832955 224.166019 
L 508.855682 191.630276 
L 527.878409 141.430733 
L 546.901136 101.920819 
L 565.923864 75.208305 
L 584.946591 53.329362 
L 603.969318 44.263219 
L 622.992045 44.32524 
L 642.014773 44.510461 
L 661.0375 44.817619 
L 680.060227 64.991861 
L 699.082955 108.821766 
L 718.105682 152.371219 
L 737.128409 195.355584 
L 756.151136 238.066001 
L 775.173864 257.430019 
L 794.196591 253.908552 
L 813.219318 247.368685 
L 832.242045 243.847219 
L 851.264773 255.345885 
L 870.2875 276.700552 
" style="fill:none;stroke:#008000;stroke-linecap:square;stroke-width:1.5;"/>
    <defs>
     <path d="M 0 3 
C 0.795609 3 1.55874 2.683901 2.12132 2.12132 
C 2.683901 1.55874 3 0.795609 3 0 
C 3 -0.795609 2.683901 -1.55874 2.12132 -2.12132 
C 1.55874 -2.683901 0.795609 -3 0 -3 
C -0.795609 -3 -1.55874 -2.683901 -2.12132 -2.12132 
C -2.683901 -1.55874 -3 -0.795609 -3 0 
C -3 0.795609 -2.683901 1.55874 -2.12132 2.12132 
C -1.55874 2.683901 -0.795609 3 0 3 
z
" id="m0cf2a49397" style="stroke:#008000;"/>
    </defs>
    <g clip-path="url(#p4fe8304568)">
     <use style="fill:#008000;stroke:#008000;" x="33.2875" xlink:href="#m0cf2a49397" y="288.199219"/>
     <use style="fill:#008000;stroke:#008000;" x="52.310227" xlink:href="#m0cf2a49397" y="288.199219"/>
     <use style="fill:#008000;stroke:#008000;" x="71.332955" xlink:href="#m0cf2a49397" y="288.199219"/>
     <use style="fill:#008000;stroke:#008000;" x="90.355682" xlink:href="#m0cf2a49397" y="288.199219"/>
     <use style="fill:#008000;stroke:#008000;" x="109.378409" xlink:href="#m0cf2a49397" y="288.199219"/>
     <use style="fill:#008000;stroke:#008000;" x="128.401136" xlink:href="#m0cf2a49397" y="288.199219"/>
     <use style="fill:#008000;stroke:#008000;" x="147.423864" xlink:href="#m0cf2a49397" y="288.199219"/>
     <use style="fill:#008000;stroke:#008000;" x="166.446591" xlink:href="#m0cf2a49397" y="288.199219"/>
     <use style="fill:#008000;stroke:#008000;" x="185.469318" xlink:href="#m0cf2a49397" y="288.199219"/>
     <use style="fill:#008000;stroke:#008000;" x="204.492045" xlink:href="#m0cf2a49397" y="288.199219"/>
     <use style="fill:#008000;stroke:#008000;" x="223.514773" xlink:href="#m0cf2a49397" y="286.546313"/>
     <use style="fill:#008000;stroke:#008000;" x="242.5375" xlink:href="#m0cf2a49397" y="282.706608"/>
     <use style="fill:#008000;stroke:#008000;" x="261.560227" xlink:href="#m0cf2a49397" y="278.358619"/>
     <use style="fill:#008000;stroke:#008000;" x="280.582955" xlink:href="#m0cf2a49397" y="272.465497"/>
     <use style="fill:#008000;stroke:#008000;" x="299.605682" xlink:href="#m0cf2a49397" y="265.756258"/>
     <use style="fill:#008000;stroke:#008000;" x="318.628409" xlink:href="#m0cf2a49397" y="262.558219"/>
     <use style="fill:#008000;stroke:#008000;" x="337.651136" xlink:href="#m0cf2a49397" y="262.737885"/>
     <use style="fill:#008000;stroke:#008000;" x="356.673864" xlink:href="#m0cf2a49397" y="263.071552"/>
     <use style="fill:#008000;stroke:#008000;" x="375.696591" xlink:href="#m0cf2a49397" y="263.251219"/>
     <use style="fill:#008000;stroke:#008000;" x="394.719318" xlink:href="#m0cf2a49397" y="260.143906"/>
     <use style="fill:#008000;stroke:#008000;" x="413.742045" xlink:href="#m0cf2a49397" y="253.894992"/>
     <use style="fill:#008000;stroke:#008000;" x="432.764773" xlink:href="#m0cf2a49397" y="249.114019"/>
     <use style="fill:#008000;stroke:#008000;" x="451.7875" xlink:href="#m0cf2a49397" y="244.186745"/>
     <use style="fill:#008000;stroke:#008000;" x="470.810227" xlink:href="#m0cf2a49397" y="235.389132"/>
     <use style="fill:#008000;stroke:#008000;" x="489.832955" xlink:href="#m0cf2a49397" y="224.166019"/>
     <use style="fill:#008000;stroke:#008000;" x="508.855682" xlink:href="#m0cf2a49397" y="191.630276"/>
     <use style="fill:#008000;stroke:#008000;" x="527.878409" xlink:href="#m0cf2a49397" y="141.430733"/>
     <use style="fill:#008000;stroke:#008000;" x="546.901136" xlink:href="#m0cf2a49397" y="101.920819"/>
     <use style="fill:#008000;stroke:#008000;" x="565.923864" xlink:href="#m0cf2a49397" y="75.208305"/>
     <use style="fill:#008000;stroke:#008000;" x="584.946591" xlink:href="#m0cf2a49397" y="53.329362"/>
     <use style="fill:#008000;stroke:#008000;" x="603.969318" xlink:href="#m0cf2a49397" y="44.263219"/>
     <use style="fill:#008000;stroke:#008000;" x="622.992045" xlink:href="#m0cf2a49397" y="44.32524"/>
     <use style="fill:#008000;stroke:#008000;" x="642.014773" xlink:href="#m0cf2a49397" y="44.510461"/>
     <use style="fill:#008000;stroke:#008000;" x="661.0375" xlink:href="#m0cf2a49397" y="44.817619"/>
     <use style="fill:#008000;stroke:#008000;" x="680.060227" xlink:href="#m0cf2a49397" y="64.991861"/>
     <use style="fill:#008000;stroke:#008000;" x="699.082955" xlink:href="#m0cf2a49397" y="108.821766"/>
     <use style="fill:#008000;stroke:#008000;" x="718.105682" xlink:href="#m0cf2a49397" y="152.371219"/>
     <use style="fill:#008000;stroke:#008000;" x="737.128409" xlink:href="#m0cf2a49397" y="195.355584"/>
     <use style="fill:#008000;stroke:#008000;" x="756.151136" xlink:href="#m0cf2a49397" y="238.066001"/>
     <use style="fill:#008000;stroke:#008000;" x="775.173864" xlink:href="#m0cf2a49397" y="257.430019"/>
     <use style="fill:#008000;stroke:#008000;" x="794.196591" xlink:href="#m0cf2a49397" y="253.908552"/>
     <use style="fill:#008000;stroke:#008000;" x="813.219318" xlink:href="#m0cf2a49397" y="247.368685"/>
     <use style="fill:#008000;stroke:#008000;" x="832.242045" xlink:href="#m0cf2a49397" y="243.847219"/>
     <use style="fill:#008000;stroke:#008000;" x="851.264773" xlink:href="#m0cf2a49397" y="255.345885"/>
     <use style="fill:#008000;stroke:#008000;" x="870.2875" xlink:href="#m0cf2a49397" y="276.700552"/>
    </g>
   </g>
   <g id="line2d_18">
    <path clip-path="url(#p4fe8304568)" d="M 33.2875 89.446819 
L 52.310227 166.988035 
L 71.332955 233.82015 
L 90.355682 266.854819 
L 109.378409 270.928016 
L 128.401136 269.867459 
L 147.423864 269.072419 
L 166.446591 271.781654 
L 185.469318 276.165772 
L 204.492045 280.021819 
L 223.514773 283.411971 
L 242.5375 286.714195 
L 261.560227 288.199219 
L 280.582955 288.199219 
L 299.605682 288.199219 
L 318.628409 288.199219 
L 337.651136 288.199219 
L 356.673864 288.199219 
L 375.696591 288.199219 
L 394.719318 288.199219 
L 413.742045 288.199219 
L 432.764773 288.199219 
L 451.7875 288.199219 
L 470.810227 288.199219 
L 489.832955 288.199219 
L 508.855682 288.199219 
L 527.878409 288.199219 
L 546.901136 288.199219 
L 565.923864 288.199219 
L 584.946591 288.199219 
L 603.969318 288.199219 
L 622.992045 288.199219 
L 642.014773 288.199219 
L 661.0375 288.199219 
L 680.060227 261.655295 
L 699.082955 204.927371 
L 718.105682 152.371219 
L 737.128409 108.3672 
L 756.151136 67.52181 
L 775.173864 49.530019 
L 794.196591 52.670954 
L 813.219318 60.801489 
L 832.242045 71.983219 
L 851.264773 93.94088 
L 870.2875 128.555348 
" style="fill:none;stroke:#0000ff;stroke-linecap:square;stroke-width:1.5;"/>
    <defs>
     <path d="M 0 3 
C 0.795609 3 1.55874 2.683901 2.12132 2.12132 
C 2.683901 1.55874 3 0.795609 3 0 
C 3 -0.795609 2.683901 -1.55874 2.12132 -2.12132 
C 1.55874 -2.683901 0.795609 -3 0 -3 
C -0.795609 -3 -1.55874 -2.683901 -2.12132 -2.12132 
C -2.683901 -1.55874 -3 -0.795609 -3 0 
C -3 0.795609 -2.683901 1.55874 -2.12132 2.12132 
C -1.55874 2.683901 -0.795609 3 0 3 
z
" id="mcf6ffeb273" style="stroke:#0000ff;"/>
    </defs>
    <g clip-path="url(#p4fe8304568)">
     <use style="fill:#0000ff;stroke:#0000ff;" x="33.2875" xlink:href="#mcf6ffeb273" y="89.446819"/>
     <use style="fill:#0000ff;stroke:#0000ff;" x="52.310227" xlink:href="#mcf6ffeb273" y="166.988035"/>
     <use style="fill:#0000ff;stroke:#0000ff;" x="71.332955" xlink:href="#mcf6ffeb273" y="233.82015"/>
     <use style="fill:#0000ff;stroke:#0000ff;" x="90.355682" xlink:href="#mcf6ffeb273" y="266.854819"/>
     <use style="fill:#0000ff;stroke:#0000ff;" x="109.378409" xlink:href="#mcf6ffeb273" y="270.928016"/>
     <use style="fill:#0000ff;stroke:#0000ff;" x="128.401136" xlink:href="#mcf6ffeb273" y="269.867459"/>
     <use style="fill:#0000ff;stroke:#0000ff;" x="147.423864" xlink:href="#mcf6ffeb273" y="269.072419"/>
     <use style="fill:#0000ff;stroke:#0000ff;" x="166.446591" xlink:href="#mcf6ffeb273" y="271.781654"/>
     <use style="fill:#0000ff;stroke:#0000ff;" x="185.469318" xlink:href="#mcf6ffeb273" y="276.165772"/>
     <use style="fill:#0000ff;stroke:#0000ff;" x="204.492045" xlink:href="#mcf6ffeb273" y="280.021819"/>
     <use style="fill:#0000ff;stroke:#0000ff;" x="223.514773" xlink:href="#mcf6ffeb273" y="283.411971"/>
     <use style="fill:#0000ff;stroke:#0000ff;" x="242.5375" xlink:href="#mcf6ffeb273" y="286.714195"/>
     <use style="fill:#0000ff;stroke:#0000ff;" x="261.560227" xlink:href="#mcf6ffeb273" y="288.199219"/>
     <use style="fill:#0000ff;stroke:#0000ff;" x="280.582955" xlink:href="#mcf6ffeb273" y="288.199219"/>
     <use style="fill:#0000ff;stroke:#0000ff;" x="299.605682" xlink:href="#mcf6ffeb273" y="288.199219"/>
     <use style="fill:#0000ff;stroke:#0000ff;" x="318.628409" xlink:href="#mcf6ffeb273" y="288.199219"/>
     <use style="fill:#0000ff;stroke:#0000ff;" x="337.651136" xlink:href="#mcf6ffeb273" y="288.199219"/>
     <use style="fill:#0000ff;stroke:#0000ff;" x="356.673864" xlink:href="#mcf6ffeb273" y="288.199219"/>
     <use style="fill:#0000ff;stroke:#0000ff;" x="375.696591" xlink:href="#mcf6ffeb273" y="288.199219"/>
     <use style="fill:#0000ff;stroke:#0000ff;" x="394.719318" xlink:href="#mcf6ffeb273" y="288.199219"/>
     <use style="fill:#0000ff;stroke:#0000ff;" x="413.742045" xlink:href="#mcf6ffeb273" y="288.199219"/>
     <use style="fill:#0000ff;stroke:#0000ff;" x="432.764773" xlink:href="#mcf6ffeb273" y="288.199219"/>
     <use style="fill:#0000ff;stroke:#0000ff;" x="451.7875" xlink:href="#mcf6ffeb273" y="288.199219"/>
     <use style="fill:#0000ff;stroke:#0000ff;" x="470.810227" xlink:href="#mcf6ffeb273" y="288.199219"/>
     <use style="fill:#0000ff;stroke:#0000ff;" x="489.832955" xlink:href="#mcf6ffeb273" y="288.199219"/>
     <use style="fill:#0000ff;stroke:#0000ff;" x="508.855682" xlink:href="#mcf6ffeb273" y="288.199219"/>
     <use style="fill:#0000ff;stroke:#0000ff;" x="527.878409" xlink:href="#mcf6ffeb273" y="288.199219"/>
     <use style="fill:#0000ff;stroke:#0000ff;" x="546.901136" xlink:href="#mcf6ffeb273" y="288.199219"/>
     <use style="fill:#0000ff;stroke:#0000ff;" x="565.923864" xlink:href="#mcf6ffeb273" y="288.199219"/>
     <use style="fill:#0000ff;stroke:#0000ff;" x="584.946591" xlink:href="#mcf6ffeb273" y="288.199219"/>
     <use style="fill:#0000ff;stroke:#0000ff;" x="603.969318" xlink:href="#mcf6ffeb273" y="288.199219"/>
     <use style="fill:#0000ff;stroke:#0000ff;" x="622.992045" xlink:href="#mcf6ffeb273" y="288.199219"/>
     <use style="fill:#0000ff;stroke:#0000ff;" x="642.014773" xlink:href="#mcf6ffeb273" y="288.199219"/>
     <use style="fill:#0000ff;stroke:#0000ff;" x="661.0375" xlink:href="#mcf6ffeb273" y="288.199219"/>
     <use style="fill:#0000ff;stroke:#0000ff;" x="680.060227" xlink:href="#mcf6ffeb273" y="261.655295"/>
     <use style="fill:#0000ff;stroke:#0000ff;" x="699.082955" xlink:href="#mcf6ffeb273" y="204.927371"/>
     <use style="fill:#0000ff;stroke:#0000ff;" x="718.105682" xlink:href="#mcf6ffeb273" y="152.371219"/>
     <use style="fill:#0000ff;stroke:#0000ff;" x="737.128409" xlink:href="#mcf6ffeb273" y="108.3672"/>
     <use style="fill:#0000ff;stroke:#0000ff;" x="756.151136" xlink:href="#mcf6ffeb273" y="67.52181"/>
     <use style="fill:#0000ff;stroke:#0000ff;" x="775.173864" xlink:href="#mcf6ffeb273" y="49.530019"/>
     <use style="fill:#0000ff;stroke:#0000ff;" x="794.196591" xlink:href="#mcf6ffeb273" y="52.670954"/>
     <use style="fill:#0000ff;stroke:#0000ff;" x="813.219318" xlink:href="#mcf6ffeb273" y="60.801489"/>
     <use style="fill:#0000ff;stroke:#0000ff;" x="832.242045" xlink:href="#mcf6ffeb273" y="71.983219"/>
     <use style="fill:#0000ff;stroke:#0000ff;" x="851.264773" xlink:href="#mcf6ffeb273" y="93.94088"/>
     <use style="fill:#0000ff;stroke:#0000ff;" x="870.2875" xlink:href="#mcf6ffeb273" y="128.555348"/>
    </g>
   </g>
   <g id="patch_3">
    <path d="M 33.2875 288.199219 
L 33.2875 10.999219 
" style="fill:none;stroke:#000000;stroke-linecap:square;stroke-linejoin:miter;stroke-width:0.8;"/>
   </g>
   <g id="patch_4">
    <path d="M 870.2875 288.199219 
L 870.2875 10.999219 
" style="fill:none;stroke:#000000;stroke-linecap:square;stroke-linejoin:miter;stroke-width:0.8;"/>
   </g>
   <g id="patch_5">
    <path d="M 33.2875 288.199219 
L 870.2875 288.199219 
" style="fill:none;stroke:#000000;stroke-linecap:square;stroke-linejoin:miter;stroke-width:0.8;"/>
   </g>
   <g id="patch_6">
    <path d="M 33.2875 10.999219 
L 870.2875 10.999219 
" style="fill:none;stroke:#000000;stroke-linecap:square;stroke-linejoin:miter;stroke-width:0.8;"/>
   </g>
  </g>
 </g>
 <defs>
  <clipPath id="p4fe8304568">
   <rect height="277.2" width="837" x="33.2875" y="10.999219"/>
  </clipPath>
 </defs>
</svg>
