<?xml version="1.0" encoding="utf-8" standalone="no"?>
<!DOCTYPE svg PUBLIC "-//W3C//DTD SVG 1.1//EN"
  "http://www.w3.org/Graphics/SVG/1.1/DTD/svg11.dtd">
<!-- Created with matplotlib (http://matplotlib.org/) -->
<svg height="323pt" version="1.1" viewBox="0 0 876 323" width="876pt" xmlns="http://www.w3.org/2000/svg" xmlns:xlink="http://www.w3.org/1999/xlink">
 <defs>
  <style type="text/css">
*{stroke-linecap:butt;stroke-linejoin:round;}
  </style>
 </defs>
 <g id="figure_1">
  <g id="patch_1">
   <path d="
M0 323.821
L876.19 323.821
L876.19 0
L0 0
z
" style="fill:#ffffff;"/>
  </g>
  <g id="axes_1">
   <g id="patch_2">
    <path d="
M31.99 301.007
L868.99 301.007
L868.99 13.0069
L31.99 13.0069
z
" style="fill:#ffffff;"/>
   </g>
   <g id="line2d_1">
    <path clip-path="url(#p3e29ac047c)" d="
M31.99 219.503
L51.0127 160.998
L70.0355 80.7345
L89.0582 35.4709
L108.081 31.1309
L127.104 32.1113
L146.126 32.8789
L165.149 29.4037
L184.172 24.1893
L203.195 21.5029
L222.217 21.7195
L241.24 22.32
L260.263 23.2309
L279.285 27.7908
L298.308 35.2725
L317.331 39.5029
L336.354 39.8536
L355.376 40.0317
L374.399 40.3669
L393.422 43.4546
L412.445 49.1373
L431.467 53.6149
L450.49 58.7341
L469.513 67.8745
L488.535 79.5349
L507.558 113.338
L526.581 165.494
L545.604 206.543
L564.626 234.296
L583.649 257.028
L602.672 266.447
L621.695 266.298
L640.717 266.02
L659.74 265.871
L678.763 273.487
L697.785 287.631
L716.808 295.247
L735.831 294.923
L754.854 294.086
L773.876 292.943
L792.899 291.29
L811.922 288.408
L830.945 283.727
L849.967 253.64
L868.99 195.656" style="fill:none;stroke:#ff0000;stroke-linecap:square;"/>
    <defs>
     <path d="
M0 3
C0.795609 3 1.55874 2.6839 2.12132 2.12132
C2.6839 1.55874 3 0.795609 3 0
C3 -0.795609 2.6839 -1.55874 2.12132 -2.12132
C1.55874 -2.6839 0.795609 -3 0 -3
C-0.795609 -3 -1.55874 -2.6839 -2.12132 -2.12132
C-2.6839 -1.55874 -3 -0.795609 -3 0
C-3 0.795609 -2.6839 1.55874 -2.12132 2.12132
C-1.55874 2.6839 -0.795609 3 0 3
z
" id="m231f9b0f49" style="stroke:#000000;stroke-width:0.5;"/>
    </defs>
    <g clip-path="url(#p3e29ac047c)">
     <use style="fill:#ff0000;stroke:#000000;stroke-width:0.5;" x="31.99" xlink:href="#m231f9b0f49" y="219.502875"/>
     <use style="fill:#ff0000;stroke:#000000;stroke-width:0.5;" x="51.0127272727" xlink:href="#m231f9b0f49" y="160.997880106"/>
     <use style="fill:#ff0000;stroke:#000000;stroke-width:0.5;" x="70.0354545455" xlink:href="#m231f9b0f49" y="80.7345414873"/>
     <use style="fill:#ff0000;stroke:#000000;stroke-width:0.5;" x="89.0581818182" xlink:href="#m231f9b0f49" y="35.470875"/>
     <use style="fill:#ff0000;stroke:#000000;stroke-width:0.5;" x="108.080909091" xlink:href="#m231f9b0f49" y="31.130918529"/>
     <use style="fill:#ff0000;stroke:#000000;stroke-width:0.5;" x="127.103636364" xlink:href="#m231f9b0f49" y="32.1112899269"/>
     <use style="fill:#ff0000;stroke:#000000;stroke-width:0.5;" x="146.126363636" xlink:href="#m231f9b0f49" y="32.878875"/>
     <use style="fill:#ff0000;stroke:#000000;stroke-width:0.5;" x="165.149090909" xlink:href="#m231f9b0f49" y="29.4036841168"/>
     <use style="fill:#ff0000;stroke:#000000;stroke-width:0.5;" x="184.171818182" xlink:href="#m231f9b0f49" y="24.1892795584"/>
     <use style="fill:#ff0000;stroke:#000000;stroke-width:0.5;" x="203.194545455" xlink:href="#m231f9b0f49" y="21.502875"/>
     <use style="fill:#ff0000;stroke:#000000;stroke-width:0.5;" x="222.217272727" xlink:href="#m231f9b0f49" y="21.719451"/>
     <use style="fill:#ff0000;stroke:#000000;stroke-width:0.5;" x="241.24" xlink:href="#m231f9b0f49" y="22.320027"/>
     <use style="fill:#ff0000;stroke:#000000;stroke-width:0.5;" x="260.262727273" xlink:href="#m231f9b0f49" y="23.230875"/>
     <use style="fill:#ff0000;stroke:#000000;stroke-width:0.5;" x="279.285454545" xlink:href="#m231f9b0f49" y="27.7908434482"/>
     <use style="fill:#ff0000;stroke:#000000;stroke-width:0.5;" x="298.308181818" xlink:href="#m231f9b0f49" y="35.2725398964"/>
     <use style="fill:#ff0000;stroke:#000000;stroke-width:0.5;" x="317.330909091" xlink:href="#m231f9b0f49" y="39.502875"/>
     <use style="fill:#ff0000;stroke:#000000;stroke-width:0.5;" x="336.353636364" xlink:href="#m231f9b0f49" y="39.8536038006"/>
     <use style="fill:#ff0000;stroke:#000000;stroke-width:0.5;" x="355.376363636" xlink:href="#m231f9b0f49" y="40.0316939458"/>
     <use style="fill:#ff0000;stroke:#000000;stroke-width:0.5;" x="374.399090909" xlink:href="#m231f9b0f49" y="40.366875"/>
     <use style="fill:#ff0000;stroke:#000000;stroke-width:0.5;" x="393.421818182" xlink:href="#m231f9b0f49" y="43.4546462979"/>
     <use style="fill:#ff0000;stroke:#000000;stroke-width:0.5;" x="412.444545455" xlink:href="#m231f9b0f49" y="49.1373266867"/>
     <use style="fill:#ff0000;stroke:#000000;stroke-width:0.5;" x="431.467272727" xlink:href="#m231f9b0f49" y="53.614875"/>
     <use style="fill:#ff0000;stroke:#000000;stroke-width:0.5;" x="450.49" xlink:href="#m231f9b0f49" y="58.734120283"/>
     <use style="fill:#ff0000;stroke:#000000;stroke-width:0.5;" x="469.512727273" xlink:href="#m231f9b0f49" y="67.8744976415"/>
     <use style="fill:#ff0000;stroke:#000000;stroke-width:0.5;" x="488.535454545" xlink:href="#m231f9b0f49" y="79.534875"/>
     <use style="fill:#ff0000;stroke:#000000;stroke-width:0.5;" x="507.558181818" xlink:href="#m231f9b0f49" y="113.338244261"/>
     <use style="fill:#ff0000;stroke:#000000;stroke-width:0.5;" x="526.580909091" xlink:href="#m231f9b0f49" y="165.493613523"/>
     <use style="fill:#ff0000;stroke:#000000;stroke-width:0.5;" x="545.603636364" xlink:href="#m231f9b0f49" y="206.542875"/>
     <use style="fill:#ff0000;stroke:#000000;stroke-width:0.5;" x="564.626363636" xlink:href="#m231f9b0f49" y="234.296136477"/>
     <use style="fill:#ff0000;stroke:#000000;stroke-width:0.5;" x="583.649090909" xlink:href="#m231f9b0f49" y="257.027505739"/>
     <use style="fill:#ff0000;stroke:#000000;stroke-width:0.5;" x="602.671818182" xlink:href="#m231f9b0f49" y="266.446875"/>
     <use style="fill:#ff0000;stroke:#000000;stroke-width:0.5;" x="621.694545455" xlink:href="#m231f9b0f49" y="266.297541667"/>
     <use style="fill:#ff0000;stroke:#000000;stroke-width:0.5;" x="640.717272727" xlink:href="#m231f9b0f49" y="266.020208333"/>
     <use style="fill:#ff0000;stroke:#000000;stroke-width:0.5;" x="659.74" xlink:href="#m231f9b0f49" y="265.870875"/>
     <use style="fill:#ff0000;stroke:#000000;stroke-width:0.5;" x="678.762727273" xlink:href="#m231f9b0f49" y="273.486875"/>
     <use style="fill:#ff0000;stroke:#000000;stroke-width:0.5;" x="697.785454545" xlink:href="#m231f9b0f49" y="287.630875"/>
     <use style="fill:#ff0000;stroke:#000000;stroke-width:0.5;" x="716.808181818" xlink:href="#m231f9b0f49" y="295.246875"/>
     <use style="fill:#ff0000;stroke:#000000;stroke-width:0.5;" x="735.830909091" xlink:href="#m231f9b0f49" y="294.922608333"/>
     <use style="fill:#ff0000;stroke:#000000;stroke-width:0.5;" x="754.853636364" xlink:href="#m231f9b0f49" y="294.086341667"/>
     <use style="fill:#ff0000;stroke:#000000;stroke-width:0.5;" x="773.876363636" xlink:href="#m231f9b0f49" y="292.942875"/>
     <use style="fill:#ff0000;stroke:#000000;stroke-width:0.5;" x="792.899090909" xlink:href="#m231f9b0f49" y="291.289994192"/>
     <use style="fill:#ff0000;stroke:#000000;stroke-width:0.5;" x="811.921818182" xlink:href="#m231f9b0f49" y="288.408313384"/>
     <use style="fill:#ff0000;stroke:#000000;stroke-width:0.5;" x="830.944545455" xlink:href="#m231f9b0f49" y="283.726875"/>
     <use style="fill:#ff0000;stroke:#000000;stroke-width:0.5;" x="849.967272727" xlink:href="#m231f9b0f49" y="253.639667027"/>
     <use style="fill:#ff0000;stroke:#000000;stroke-width:0.5;" x="868.99" xlink:href="#m231f9b0f49" y="195.656216629"/>
    </g>
   </g>
   <g id="line2d_2">
    <path clip-path="url(#p3e29ac047c)" d="
M31.99 301.007
L51.0127 301.007
L70.0355 301.007
L89.0582 301.007
L108.081 301.007
L127.104 301.007
L146.126 301.007
L165.149 301.007
L184.172 301.007
L203.195 301.007
L222.217 299.29
L241.24 295.3
L260.263 290.783
L279.285 284.66
L298.308 277.69
L317.331 274.367
L336.354 274.554
L355.376 274.9
L374.399 275.087
L393.422 271.858
L412.445 265.366
L431.467 260.399
L450.49 255.28
L469.513 246.139
L488.535 234.479
L507.558 200.676
L526.581 148.52
L545.604 107.471
L564.626 79.7176
L583.649 56.9862
L602.672 47.5669
L621.695 47.6313
L640.717 47.8238
L659.74 48.1429
L678.763 69.1031
L697.785 114.641
L716.808 159.887
L735.831 204.546
L754.854 248.92
L773.876 269.039
L792.899 265.38
L811.922 258.586
L830.945 254.927
L849.967 266.874
L868.99 289.06" style="fill:none;stroke:#008000;stroke-linecap:square;"/>
    <defs>
     <path d="
M0 3
C0.795609 3 1.55874 2.6839 2.12132 2.12132
C2.6839 1.55874 3 0.795609 3 0
C3 -0.795609 2.6839 -1.55874 2.12132 -2.12132
C1.55874 -2.6839 0.795609 -3 0 -3
C-0.795609 -3 -1.55874 -2.6839 -2.12132 -2.12132
C-2.6839 -1.55874 -3 -0.795609 -3 0
C-3 0.795609 -2.6839 1.55874 -2.12132 2.12132
C-1.55874 2.6839 -0.795609 3 0 3
z
" id="m25f47eefb8" style="stroke:#000000;stroke-width:0.5;"/>
    </defs>
    <g clip-path="url(#p3e29ac047c)">
     <use style="fill:#008000;stroke:#000000;stroke-width:0.5;" x="31.99" xlink:href="#m25f47eefb8" y="301.006875"/>
     <use style="fill:#008000;stroke:#000000;stroke-width:0.5;" x="51.0127272727" xlink:href="#m25f47eefb8" y="301.006875"/>
     <use style="fill:#008000;stroke:#000000;stroke-width:0.5;" x="70.0354545455" xlink:href="#m25f47eefb8" y="301.006875"/>
     <use style="fill:#008000;stroke:#000000;stroke-width:0.5;" x="89.0581818182" xlink:href="#m25f47eefb8" y="301.006875"/>
     <use style="fill:#008000;stroke:#000000;stroke-width:0.5;" x="108.080909091" xlink:href="#m25f47eefb8" y="301.006875"/>
     <use style="fill:#008000;stroke:#000000;stroke-width:0.5;" x="127.103636364" xlink:href="#m25f47eefb8" y="301.006875"/>
     <use style="fill:#008000;stroke:#000000;stroke-width:0.5;" x="146.126363636" xlink:href="#m25f47eefb8" y="301.006875"/>
     <use style="fill:#008000;stroke:#000000;stroke-width:0.5;" x="165.149090909" xlink:href="#m25f47eefb8" y="301.006875"/>
     <use style="fill:#008000;stroke:#000000;stroke-width:0.5;" x="184.171818182" xlink:href="#m25f47eefb8" y="301.006875"/>
     <use style="fill:#008000;stroke:#000000;stroke-width:0.5;" x="203.194545455" xlink:href="#m25f47eefb8" y="301.006875"/>
     <use style="fill:#008000;stroke:#000000;stroke-width:0.5;" x="222.217272727" xlink:href="#m25f47eefb8" y="299.289570495"/>
     <use style="fill:#008000;stroke:#000000;stroke-width:0.5;" x="241.24" xlink:href="#m25f47eefb8" y="295.300265991"/>
     <use style="fill:#008000;stroke:#000000;stroke-width:0.5;" x="260.262727273" xlink:href="#m25f47eefb8" y="290.782875"/>
     <use style="fill:#008000;stroke:#000000;stroke-width:0.5;" x="279.285454545" xlink:href="#m25f47eefb8" y="284.660150676"/>
     <use style="fill:#008000;stroke:#000000;stroke-width:0.5;" x="298.308181818" xlink:href="#m25f47eefb8" y="277.689512838"/>
     <use style="fill:#008000;stroke:#000000;stroke-width:0.5;" x="317.330909091" xlink:href="#m25f47eefb8" y="274.366875"/>
     <use style="fill:#008000;stroke:#000000;stroke-width:0.5;" x="336.353636364" xlink:href="#m25f47eefb8" y="274.553541667"/>
     <use style="fill:#008000;stroke:#000000;stroke-width:0.5;" x="355.376363636" xlink:href="#m25f47eefb8" y="274.900208333"/>
     <use style="fill:#008000;stroke:#000000;stroke-width:0.5;" x="374.399090909" xlink:href="#m25f47eefb8" y="275.086875"/>
     <use style="fill:#008000;stroke:#000000;stroke-width:0.5;" x="393.421818182" xlink:href="#m25f47eefb8" y="271.858497642"/>
     <use style="fill:#008000;stroke:#000000;stroke-width:0.5;" x="412.444545455" xlink:href="#m25f47eefb8" y="265.366120283"/>
     <use style="fill:#008000;stroke:#000000;stroke-width:0.5;" x="431.467272727" xlink:href="#m25f47eefb8" y="260.398875"/>
     <use style="fill:#008000;stroke:#000000;stroke-width:0.5;" x="450.49" xlink:href="#m25f47eefb8" y="255.279629717"/>
     <use style="fill:#008000;stroke:#000000;stroke-width:0.5;" x="469.512727273" xlink:href="#m25f47eefb8" y="246.139252358"/>
     <use style="fill:#008000;stroke:#000000;stroke-width:0.5;" x="488.535454545" xlink:href="#m25f47eefb8" y="234.478875"/>
     <use style="fill:#008000;stroke:#000000;stroke-width:0.5;" x="507.558181818" xlink:href="#m25f47eefb8" y="200.675505739"/>
     <use style="fill:#008000;stroke:#000000;stroke-width:0.5;" x="526.580909091" xlink:href="#m25f47eefb8" y="148.520136477"/>
     <use style="fill:#008000;stroke:#000000;stroke-width:0.5;" x="545.603636364" xlink:href="#m25f47eefb8" y="107.470875"/>
     <use style="fill:#008000;stroke:#000000;stroke-width:0.5;" x="564.626363636" xlink:href="#m25f47eefb8" y="79.717613523"/>
     <use style="fill:#008000;stroke:#000000;stroke-width:0.5;" x="583.649090909" xlink:href="#m25f47eefb8" y="56.9862442615"/>
     <use style="fill:#008000;stroke:#000000;stroke-width:0.5;" x="602.671818182" xlink:href="#m25f47eefb8" y="47.566875"/>
     <use style="fill:#008000;stroke:#000000;stroke-width:0.5;" x="621.694545455" xlink:href="#m25f47eefb8" y="47.6313126068"/>
     <use style="fill:#008000;stroke:#000000;stroke-width:0.5;" x="640.717272727" xlink:href="#m25f47eefb8" y="47.8237502137"/>
     <use style="fill:#008000;stroke:#000000;stroke-width:0.5;" x="659.74" xlink:href="#m25f47eefb8" y="48.142875"/>
     <use style="fill:#008000;stroke:#000000;stroke-width:0.5;" x="678.762727273" xlink:href="#m25f47eefb8" y="69.1031262531"/>
     <use style="fill:#008000;stroke:#000000;stroke-width:0.5;" x="697.785454545" xlink:href="#m25f47eefb8" y="114.640690327"/>
     <use style="fill:#008000;stroke:#000000;stroke-width:0.5;" x="716.808181818" xlink:href="#m25f47eefb8" y="159.886875"/>
     <use style="fill:#008000;stroke:#000000;stroke-width:0.5;" x="735.830909091" xlink:href="#m25f47eefb8" y="204.5459554"/>
     <use style="fill:#008000;stroke:#000000;stroke-width:0.5;" x="754.853636364" xlink:href="#m25f47eefb8" y="248.9204152"/>
     <use style="fill:#008000;stroke:#000000;stroke-width:0.5;" x="773.876363636" xlink:href="#m25f47eefb8" y="269.038875"/>
     <use style="fill:#008000;stroke:#000000;stroke-width:0.5;" x="792.899090909" xlink:href="#m25f47eefb8" y="265.380208333"/>
     <use style="fill:#008000;stroke:#000000;stroke-width:0.5;" x="811.921818182" xlink:href="#m25f47eefb8" y="258.585541667"/>
     <use style="fill:#008000;stroke:#000000;stroke-width:0.5;" x="830.944545455" xlink:href="#m25f47eefb8" y="254.926875"/>
     <use style="fill:#008000;stroke:#000000;stroke-width:0.5;" x="849.967272727" xlink:href="#m25f47eefb8" y="266.873541667"/>
     <use style="fill:#008000;stroke:#000000;stroke-width:0.5;" x="868.99" xlink:href="#m25f47eefb8" y="289.060208333"/>
    </g>
   </g>
   <g id="line2d_3">
    <path clip-path="url(#p3e29ac047c)" d="
M31.99 94.5109
L51.0127 151.417
L70.0355 232.681
L89.0582 278.831
L108.081 283.063
L127.104 281.961
L146.126 281.135
L165.149 283.95
L184.172 288.505
L203.195 292.511
L222.217 296.033
L241.24 299.464
L260.263 301.007
L279.285 301.007
L298.308 301.007
L317.331 301.007
L336.354 301.007
L355.376 301.007
L374.399 301.007
L393.422 301.007
L412.445 301.007
L431.467 301.007
L450.49 301.007
L469.513 301.007
L488.535 301.007
L507.558 301.007
L526.581 301.007
L545.604 301.007
L564.626 301.007
L583.649 301.007
L602.672 301.007
L621.695 301.007
L640.717 301.007
L659.74 301.007
L678.763 273.429
L697.785 214.491
L716.808 159.887
L735.831 114.168
L754.854 71.7316
L773.876 53.0389
L792.899 56.3022
L811.922 64.7495
L830.945 76.3669
L849.967 99.18
L868.99 135.143" style="fill:none;stroke:#0000ff;stroke-linecap:square;"/>
    <defs>
     <path d="
M0 3
C0.795609 3 1.55874 2.6839 2.12132 2.12132
C2.6839 1.55874 3 0.795609 3 0
C3 -0.795609 2.6839 -1.55874 2.12132 -2.12132
C1.55874 -2.6839 0.795609 -3 0 -3
C-0.795609 -3 -1.55874 -2.6839 -2.12132 -2.12132
C-2.6839 -1.55874 -3 -0.795609 -3 0
C-3 0.795609 -2.6839 1.55874 -2.12132 2.12132
C-1.55874 2.6839 -0.795609 3 0 3
z
" id="mdb00ba95ec" style="stroke:#000000;stroke-width:0.5;"/>
    </defs>
    <g clip-path="url(#p3e29ac047c)">
     <use style="fill:#0000ff;stroke:#000000;stroke-width:0.5;" x="31.99" xlink:href="#mdb00ba95ec" y="94.510875"/>
     <use style="fill:#0000ff;stroke:#000000;stroke-width:0.5;" x="51.0127272727" xlink:href="#mdb00ba95ec" y="151.416608426"/>
     <use style="fill:#0000ff;stroke:#000000;stroke-width:0.5;" x="70.0354545455" xlink:href="#mdb00ba95ec" y="232.680856467"/>
     <use style="fill:#0000ff;stroke:#000000;stroke-width:0.5;" x="89.0581818182" xlink:href="#mdb00ba95ec" y="278.830875"/>
     <use style="fill:#0000ff;stroke:#000000;stroke-width:0.5;" x="108.080909091" xlink:href="#mdb00ba95ec" y="283.062767972"/>
     <use style="fill:#0000ff;stroke:#000000;stroke-width:0.5;" x="127.103636364" xlink:href="#mdb00ba95ec" y="281.960890451"/>
     <use style="fill:#0000ff;stroke:#000000;stroke-width:0.5;" x="146.126363636" xlink:href="#mdb00ba95ec" y="281.134875"/>
     <use style="fill:#0000ff;stroke:#000000;stroke-width:0.5;" x="165.149090909" xlink:href="#mdb00ba95ec" y="283.949664766"/>
     <use style="fill:#0000ff;stroke:#000000;stroke-width:0.5;" x="184.171818182" xlink:href="#mdb00ba95ec" y="288.504592464"/>
     <use style="fill:#0000ff;stroke:#000000;stroke-width:0.5;" x="203.194545455" xlink:href="#mdb00ba95ec" y="292.510875"/>
     <use style="fill:#0000ff;stroke:#000000;stroke-width:0.5;" x="222.217272727" xlink:href="#mdb00ba95ec" y="296.033111559"/>
     <use style="fill:#0000ff;stroke:#000000;stroke-width:0.5;" x="241.24" xlink:href="#mdb00ba95ec" y="299.46399328"/>
     <use style="fill:#0000ff;stroke:#000000;stroke-width:0.5;" x="260.262727273" xlink:href="#mdb00ba95ec" y="301.006875"/>
     <use style="fill:#0000ff;stroke:#000000;stroke-width:0.5;" x="279.285454545" xlink:href="#mdb00ba95ec" y="301.006875"/>
     <use style="fill:#0000ff;stroke:#000000;stroke-width:0.5;" x="298.308181818" xlink:href="#mdb00ba95ec" y="301.006875"/>
     <use style="fill:#0000ff;stroke:#000000;stroke-width:0.5;" x="317.330909091" xlink:href="#mdb00ba95ec" y="301.006875"/>
     <use style="fill:#0000ff;stroke:#000000;stroke-width:0.5;" x="336.353636364" xlink:href="#mdb00ba95ec" y="301.006875"/>
     <use style="fill:#0000ff;stroke:#000000;stroke-width:0.5;" x="355.376363636" xlink:href="#mdb00ba95ec" y="301.006875"/>
     <use style="fill:#0000ff;stroke:#000000;stroke-width:0.5;" x="374.399090909" xlink:href="#mdb00ba95ec" y="301.006875"/>
     <use style="fill:#0000ff;stroke:#000000;stroke-width:0.5;" x="393.421818182" xlink:href="#mdb00ba95ec" y="301.006875"/>
     <use style="fill:#0000ff;stroke:#000000;stroke-width:0.5;" x="412.444545455" xlink:href="#mdb00ba95ec" y="301.006875"/>
     <use style="fill:#0000ff;stroke:#000000;stroke-width:0.5;" x="431.467272727" xlink:href="#mdb00ba95ec" y="301.006875"/>
     <use style="fill:#0000ff;stroke:#000000;stroke-width:0.5;" x="450.49" xlink:href="#mdb00ba95ec" y="301.006875"/>
     <use style="fill:#0000ff;stroke:#000000;stroke-width:0.5;" x="469.512727273" xlink:href="#mdb00ba95ec" y="301.006875"/>
     <use style="fill:#0000ff;stroke:#000000;stroke-width:0.5;" x="488.535454545" xlink:href="#mdb00ba95ec" y="301.006875"/>
     <use style="fill:#0000ff;stroke:#000000;stroke-width:0.5;" x="507.558181818" xlink:href="#mdb00ba95ec" y="301.006875"/>
     <use style="fill:#0000ff;stroke:#000000;stroke-width:0.5;" x="526.580909091" xlink:href="#mdb00ba95ec" y="301.006875"/>
     <use style="fill:#0000ff;stroke:#000000;stroke-width:0.5;" x="545.603636364" xlink:href="#mdb00ba95ec" y="301.006875"/>
     <use style="fill:#0000ff;stroke:#000000;stroke-width:0.5;" x="564.626363636" xlink:href="#mdb00ba95ec" y="301.006875"/>
     <use style="fill:#0000ff;stroke:#000000;stroke-width:0.5;" x="583.649090909" xlink:href="#mdb00ba95ec" y="301.006875"/>
     <use style="fill:#0000ff;stroke:#000000;stroke-width:0.5;" x="602.671818182" xlink:href="#mdb00ba95ec" y="301.006875"/>
     <use style="fill:#0000ff;stroke:#000000;stroke-width:0.5;" x="621.694545455" xlink:href="#mdb00ba95ec" y="301.006875"/>
     <use style="fill:#0000ff;stroke:#000000;stroke-width:0.5;" x="640.717272727" xlink:href="#mdb00ba95ec" y="301.006875"/>
     <use style="fill:#0000ff;stroke:#000000;stroke-width:0.5;" x="659.74" xlink:href="#mdb00ba95ec" y="301.006875"/>
     <use style="fill:#0000ff;stroke:#000000;stroke-width:0.5;" x="678.762727273" xlink:href="#mdb00ba95ec" y="273.428772019"/>
     <use style="fill:#0000ff;stroke:#000000;stroke-width:0.5;" x="697.785454545" xlink:href="#mdb00ba95ec" y="214.490669038"/>
     <use style="fill:#0000ff;stroke:#000000;stroke-width:0.5;" x="716.808181818" xlink:href="#mdb00ba95ec" y="159.886875"/>
     <use style="fill:#0000ff;stroke:#000000;stroke-width:0.5;" x="735.830909091" xlink:href="#mdb00ba95ec" y="114.168414295"/>
     <use style="fill:#0000ff;stroke:#000000;stroke-width:0.5;" x="754.853636364" xlink:href="#mdb00ba95ec" y="71.7316446477"/>
     <use style="fill:#0000ff;stroke:#000000;stroke-width:0.5;" x="773.876363636" xlink:href="#mdb00ba95ec" y="53.038875"/>
     <use style="fill:#0000ff;stroke:#000000;stroke-width:0.5;" x="792.899090909" xlink:href="#mdb00ba95ec" y="56.3021843525"/>
     <use style="fill:#0000ff;stroke:#000000;stroke-width:0.5;" x="811.921818182" xlink:href="#mdb00ba95ec" y="64.749493705"/>
     <use style="fill:#0000ff;stroke:#000000;stroke-width:0.5;" x="830.944545455" xlink:href="#mdb00ba95ec" y="76.366875"/>
     <use style="fill:#0000ff;stroke:#000000;stroke-width:0.5;" x="849.967272727" xlink:href="#mdb00ba95ec" y="99.1800298799"/>
     <use style="fill:#0000ff;stroke:#000000;stroke-width:0.5;" x="868.99" xlink:href="#mdb00ba95ec" y="135.143112817"/>
    </g>
   </g>
   <g id="patch_3">
    <path d="
M31.99 301.007
L868.99 301.007" style="fill:none;stroke:#000000;stroke-linecap:square;stroke-linejoin:miter;"/>
   </g>
   <g id="patch_4">
    <path d="
M31.99 13.0069
L868.99 13.0069" style="fill:none;stroke:#000000;stroke-linecap:square;stroke-linejoin:miter;"/>
   </g>
   <g id="patch_5">
    <path d="
M868.99 301.007
L868.99 13.0069" style="fill:none;stroke:#000000;stroke-linecap:square;stroke-linejoin:miter;"/>
   </g>
   <g id="patch_6">
    <path d="
M31.99 301.007
L31.99 13.0069" style="fill:none;stroke:#000000;stroke-linecap:square;stroke-linejoin:miter;"/>
   </g>
   <g id="matplotlib.axis_1">
    <g id="xtick_1">
     <g id="line2d_4">
      <defs>
       <path d="
M0 0
L0 -4" id="mc7db9fdffb" style="stroke:#000000;stroke-width:0.5;"/>
      </defs>
      <g>
       <use style="stroke:#000000;stroke-width:0.5;" x="31.99" xlink:href="#mc7db9fdffb" y="301.006875"/>
      </g>
     </g>
     <g id="line2d_5">
      <defs>
       <path d="
M0 0
L0 4" id="m5a7d422ac3" style="stroke:#000000;stroke-width:0.5;"/>
      </defs>
      <g>
       <use style="stroke:#000000;stroke-width:0.5;" x="31.99" xlink:href="#m5a7d422ac3" y="13.006875"/>
      </g>
     </g>
     <g id="text_1">
      <!-- 0 -->
      <defs>
       <path d="
M31.7812 66.4062
Q24.1719 66.4062 20.3281 58.9062
Q16.5 51.4219 16.5 36.375
Q16.5 21.3906 20.3281 13.8906
Q24.1719 6.39062 31.7812 6.39062
Q39.4531 6.39062 43.2812 13.8906
Q47.125 21.3906 47.125 36.375
Q47.125 51.4219 43.2812 58.9062
Q39.4531 66.4062 31.7812 66.4062
M31.7812 74.2188
Q44.0469 74.2188 50.5156 64.5156
Q56.9844 54.8281 56.9844 36.375
Q56.9844 17.9688 50.5156 8.26562
Q44.0469 -1.42188 31.7812 -1.42188
Q19.5312 -1.42188 13.0625 8.26562
Q6.59375 17.9688 6.59375 36.375
Q6.59375 54.8281 13.0625 64.5156
Q19.5312 74.2188 31.7812 74.2188" id="BitstreamVeraSans-Roman-30"/>
      </defs>
      <g transform="translate(28.9665625 314.125)scale(0.12 -0.12)">
       <use xlink:href="#BitstreamVeraSans-Roman-30"/>
      </g>
     </g>
    </g>
    <g id="xtick_2">
     <g id="line2d_6">
      <g>
       <use style="stroke:#000000;stroke-width:0.5;" x="127.103636364" xlink:href="#mc7db9fdffb" y="301.006875"/>
      </g>
     </g>
     <g id="line2d_7">
      <g>
       <use style="stroke:#000000;stroke-width:0.5;" x="127.103636364" xlink:href="#m5a7d422ac3" y="13.006875"/>
      </g>
     </g>
     <g id="text_2">
      <!-- 5 -->
      <defs>
       <path d="
M10.7969 72.9062
L49.5156 72.9062
L49.5156 64.5938
L19.8281 64.5938
L19.8281 46.7344
Q21.9688 47.4688 24.1094 47.8281
Q26.2656 48.1875 28.4219 48.1875
Q40.625 48.1875 47.75 41.5
Q54.8906 34.8125 54.8906 23.3906
Q54.8906 11.625 47.5625 5.09375
Q40.2344 -1.42188 26.9062 -1.42188
Q22.3125 -1.42188 17.5469 -0.640625
Q12.7969 0.140625 7.71875 1.70312
L7.71875 11.625
Q12.1094 9.23438 16.7969 8.0625
Q21.4844 6.89062 26.7031 6.89062
Q35.1562 6.89062 40.0781 11.3281
Q45.0156 15.7656 45.0156 23.3906
Q45.0156 31 40.0781 35.4375
Q35.1562 39.8906 26.7031 39.8906
Q22.75 39.8906 18.8125 39.0156
Q14.8906 38.1406 10.7969 36.2812
z
" id="BitstreamVeraSans-Roman-35"/>
      </defs>
      <g transform="translate(124.273323864 314.125)scale(0.12 -0.12)">
       <use xlink:href="#BitstreamVeraSans-Roman-35"/>
      </g>
     </g>
    </g>
    <g id="xtick_3">
     <g id="line2d_8">
      <g>
       <use style="stroke:#000000;stroke-width:0.5;" x="222.217272727" xlink:href="#mc7db9fdffb" y="301.006875"/>
      </g>
     </g>
     <g id="line2d_9">
      <g>
       <use style="stroke:#000000;stroke-width:0.5;" x="222.217272727" xlink:href="#m5a7d422ac3" y="13.006875"/>
      </g>
     </g>
     <g id="text_3">
      <!-- 10 -->
      <defs>
       <path d="
M12.4062 8.29688
L28.5156 8.29688
L28.5156 63.9219
L10.9844 60.4062
L10.9844 69.3906
L28.4219 72.9062
L38.2812 72.9062
L38.2812 8.29688
L54.3906 8.29688
L54.3906 0
L12.4062 0
z
" id="BitstreamVeraSans-Roman-31"/>
      </defs>
      <g transform="translate(215.639772727 314.125)scale(0.12 -0.12)">
       <use xlink:href="#BitstreamVeraSans-Roman-31"/>
       <use x="63.623046875" xlink:href="#BitstreamVeraSans-Roman-30"/>
      </g>
     </g>
    </g>
    <g id="xtick_4">
     <g id="line2d_10">
      <g>
       <use style="stroke:#000000;stroke-width:0.5;" x="317.330909091" xlink:href="#mc7db9fdffb" y="301.006875"/>
      </g>
     </g>
     <g id="line2d_11">
      <g>
       <use style="stroke:#000000;stroke-width:0.5;" x="317.330909091" xlink:href="#m5a7d422ac3" y="13.006875"/>
      </g>
     </g>
     <g id="text_4">
      <!-- 15 -->
      <g transform="translate(310.879034091 314.125)scale(0.12 -0.12)">
       <use xlink:href="#BitstreamVeraSans-Roman-31"/>
       <use x="63.623046875" xlink:href="#BitstreamVeraSans-Roman-35"/>
      </g>
     </g>
    </g>
    <g id="xtick_5">
     <g id="line2d_12">
      <g>
       <use style="stroke:#000000;stroke-width:0.5;" x="412.444545455" xlink:href="#mc7db9fdffb" y="301.006875"/>
      </g>
     </g>
     <g id="line2d_13">
      <g>
       <use style="stroke:#000000;stroke-width:0.5;" x="412.444545455" xlink:href="#m5a7d422ac3" y="13.006875"/>
      </g>
     </g>
     <g id="text_5">
      <!-- 20 -->
      <defs>
       <path d="
M19.1875 8.29688
L53.6094 8.29688
L53.6094 0
L7.32812 0
L7.32812 8.29688
Q12.9375 14.1094 22.625 23.8906
Q32.3281 33.6875 34.8125 36.5312
Q39.5469 41.8438 41.4219 45.5312
Q43.3125 49.2188 43.3125 52.7812
Q43.3125 58.5938 39.2344 62.25
Q35.1562 65.9219 28.6094 65.9219
Q23.9688 65.9219 18.8125 64.3125
Q13.6719 62.7031 7.8125 59.4219
L7.8125 69.3906
Q13.7656 71.7812 18.9375 73
Q24.125 74.2188 28.4219 74.2188
Q39.75 74.2188 46.4844 68.5469
Q53.2188 62.8906 53.2188 53.4219
Q53.2188 48.9219 51.5312 44.8906
Q49.8594 40.875 45.4062 35.4062
Q44.1875 33.9844 37.6406 27.2188
Q31.1094 20.4531 19.1875 8.29688" id="BitstreamVeraSans-Roman-32"/>
      </defs>
      <g transform="translate(405.647670455 314.125)scale(0.12 -0.12)">
       <use xlink:href="#BitstreamVeraSans-Roman-32"/>
       <use x="63.623046875" xlink:href="#BitstreamVeraSans-Roman-30"/>
      </g>
     </g>
    </g>
    <g id="xtick_6">
     <g id="line2d_14">
      <g>
       <use style="stroke:#000000;stroke-width:0.5;" x="507.558181818" xlink:href="#mc7db9fdffb" y="301.006875"/>
      </g>
     </g>
     <g id="line2d_15">
      <g>
       <use style="stroke:#000000;stroke-width:0.5;" x="507.558181818" xlink:href="#m5a7d422ac3" y="13.006875"/>
      </g>
     </g>
     <g id="text_6">
      <!-- 25 -->
      <g transform="translate(500.886931818 314.125)scale(0.12 -0.12)">
       <use xlink:href="#BitstreamVeraSans-Roman-32"/>
       <use x="63.623046875" xlink:href="#BitstreamVeraSans-Roman-35"/>
      </g>
     </g>
    </g>
    <g id="xtick_7">
     <g id="line2d_16">
      <g>
       <use style="stroke:#000000;stroke-width:0.5;" x="602.671818182" xlink:href="#mc7db9fdffb" y="301.006875"/>
      </g>
     </g>
     <g id="line2d_17">
      <g>
       <use style="stroke:#000000;stroke-width:0.5;" x="602.671818182" xlink:href="#m5a7d422ac3" y="13.006875"/>
      </g>
     </g>
     <g id="text_7">
      <!-- 30 -->
      <defs>
       <path d="
M40.5781 39.3125
Q47.6562 37.7969 51.625 33
Q55.6094 28.2188 55.6094 21.1875
Q55.6094 10.4062 48.1875 4.48438
Q40.7656 -1.42188 27.0938 -1.42188
Q22.5156 -1.42188 17.6562 -0.515625
Q12.7969 0.390625 7.625 2.20312
L7.625 11.7188
Q11.7188 9.32812 16.5938 8.10938
Q21.4844 6.89062 26.8125 6.89062
Q36.0781 6.89062 40.9375 10.5469
Q45.7969 14.2031 45.7969 21.1875
Q45.7969 27.6406 41.2812 31.2656
Q36.7656 34.9062 28.7188 34.9062
L20.2188 34.9062
L20.2188 43.0156
L29.1094 43.0156
Q36.375 43.0156 40.2344 45.9219
Q44.0938 48.8281 44.0938 54.2969
Q44.0938 59.9062 40.1094 62.9062
Q36.1406 65.9219 28.7188 65.9219
Q24.6562 65.9219 20.0156 65.0312
Q15.375 64.1562 9.8125 62.3125
L9.8125 71.0938
Q15.4375 72.6562 20.3438 73.4375
Q25.25 74.2188 29.5938 74.2188
Q40.8281 74.2188 47.3594 69.1094
Q53.9062 64.0156 53.9062 55.3281
Q53.9062 49.2656 50.4375 45.0938
Q46.9688 40.9219 40.5781 39.3125" id="BitstreamVeraSans-Roman-33"/>
      </defs>
      <g transform="translate(595.892755682 314.125)scale(0.12 -0.12)">
       <use xlink:href="#BitstreamVeraSans-Roman-33"/>
       <use x="63.623046875" xlink:href="#BitstreamVeraSans-Roman-30"/>
      </g>
     </g>
    </g>
    <g id="xtick_8">
     <g id="line2d_18">
      <g>
       <use style="stroke:#000000;stroke-width:0.5;" x="697.785454545" xlink:href="#mc7db9fdffb" y="301.006875"/>
      </g>
     </g>
     <g id="line2d_19">
      <g>
       <use style="stroke:#000000;stroke-width:0.5;" x="697.785454545" xlink:href="#m5a7d422ac3" y="13.006875"/>
      </g>
     </g>
     <g id="text_8">
      <!-- 35 -->
      <g transform="translate(691.132017045 314.125)scale(0.12 -0.12)">
       <use xlink:href="#BitstreamVeraSans-Roman-33"/>
       <use x="63.623046875" xlink:href="#BitstreamVeraSans-Roman-35"/>
      </g>
     </g>
    </g>
    <g id="xtick_9">
     <g id="line2d_20">
      <g>
       <use style="stroke:#000000;stroke-width:0.5;" x="792.899090909" xlink:href="#mc7db9fdffb" y="301.006875"/>
      </g>
     </g>
     <g id="line2d_21">
      <g>
       <use style="stroke:#000000;stroke-width:0.5;" x="792.899090909" xlink:href="#m5a7d422ac3" y="13.006875"/>
      </g>
     </g>
     <g id="text_9">
      <!-- 40 -->
      <defs>
       <path d="
M37.7969 64.3125
L12.8906 25.3906
L37.7969 25.3906
z

M35.2031 72.9062
L47.6094 72.9062
L47.6094 25.3906
L58.0156 25.3906
L58.0156 17.1875
L47.6094 17.1875
L47.6094 0
L37.7969 0
L37.7969 17.1875
L4.89062 17.1875
L4.89062 26.7031
z
" id="BitstreamVeraSans-Roman-34"/>
      </defs>
      <g transform="translate(785.955965909 314.125)scale(0.12 -0.12)">
       <use xlink:href="#BitstreamVeraSans-Roman-34"/>
       <use x="63.623046875" xlink:href="#BitstreamVeraSans-Roman-30"/>
      </g>
     </g>
    </g>
   </g>
   <g id="matplotlib.axis_2">
    <g id="ytick_1">
     <g id="line2d_22">
      <defs>
       <path d="
M0 0
L4 0" id="md7965d1ba0" style="stroke:#000000;stroke-width:0.5;"/>
      </defs>
      <g>
       <use style="stroke:#000000;stroke-width:0.5;" x="31.99" xlink:href="#md7965d1ba0" y="301.006875"/>
      </g>
     </g>
     <g id="line2d_23">
      <defs>
       <path d="
M0 0
L-4 0" id="md9a1c1a7cd" style="stroke:#000000;stroke-width:0.5;"/>
      </defs>
      <g>
       <use style="stroke:#000000;stroke-width:0.5;" x="868.99" xlink:href="#md9a1c1a7cd" y="301.006875"/>
      </g>
     </g>
     <g id="text_10">
      <!-- 0 -->
      <g transform="translate(21.943125 304.318125)scale(0.12 -0.12)">
       <use xlink:href="#BitstreamVeraSans-Roman-30"/>
      </g>
     </g>
    </g>
    <g id="ytick_2">
     <g id="line2d_24">
      <g>
       <use style="stroke:#000000;stroke-width:0.5;" x="31.99" xlink:href="#md7965d1ba0" y="243.406875"/>
      </g>
     </g>
     <g id="line2d_25">
      <g>
       <use style="stroke:#000000;stroke-width:0.5;" x="868.99" xlink:href="#md9a1c1a7cd" y="243.406875"/>
      </g>
     </g>
     <g id="text_11">
      <!-- 20 -->
      <g transform="translate(14.39625 246.718125)scale(0.12 -0.12)">
       <use xlink:href="#BitstreamVeraSans-Roman-32"/>
       <use x="63.623046875" xlink:href="#BitstreamVeraSans-Roman-30"/>
      </g>
     </g>
    </g>
    <g id="ytick_3">
     <g id="line2d_26">
      <g>
       <use style="stroke:#000000;stroke-width:0.5;" x="31.99" xlink:href="#md7965d1ba0" y="185.806875"/>
      </g>
     </g>
     <g id="line2d_27">
      <g>
       <use style="stroke:#000000;stroke-width:0.5;" x="868.99" xlink:href="#md9a1c1a7cd" y="185.806875"/>
      </g>
     </g>
     <g id="text_12">
      <!-- 40 -->
      <g transform="translate(14.10375 189.118125)scale(0.12 -0.12)">
       <use xlink:href="#BitstreamVeraSans-Roman-34"/>
       <use x="63.623046875" xlink:href="#BitstreamVeraSans-Roman-30"/>
      </g>
     </g>
    </g>
    <g id="ytick_4">
     <g id="line2d_28">
      <g>
       <use style="stroke:#000000;stroke-width:0.5;" x="31.99" xlink:href="#md7965d1ba0" y="128.206875"/>
      </g>
     </g>
     <g id="line2d_29">
      <g>
       <use style="stroke:#000000;stroke-width:0.5;" x="868.99" xlink:href="#md9a1c1a7cd" y="128.206875"/>
      </g>
     </g>
     <g id="text_13">
      <!-- 60 -->
      <defs>
       <path d="
M33.0156 40.375
Q26.375 40.375 22.4844 35.8281
Q18.6094 31.2969 18.6094 23.3906
Q18.6094 15.5312 22.4844 10.9531
Q26.375 6.39062 33.0156 6.39062
Q39.6562 6.39062 43.5312 10.9531
Q47.4062 15.5312 47.4062 23.3906
Q47.4062 31.2969 43.5312 35.8281
Q39.6562 40.375 33.0156 40.375
M52.5938 71.2969
L52.5938 62.3125
Q48.875 64.0625 45.0938 64.9844
Q41.3125 65.9219 37.5938 65.9219
Q27.8281 65.9219 22.6719 59.3281
Q17.5312 52.7344 16.7969 39.4062
Q19.6719 43.6562 24.0156 45.9219
Q28.375 48.1875 33.5938 48.1875
Q44.5781 48.1875 50.9531 41.5156
Q57.3281 34.8594 57.3281 23.3906
Q57.3281 12.1562 50.6875 5.35938
Q44.0469 -1.42188 33.0156 -1.42188
Q20.3594 -1.42188 13.6719 8.26562
Q6.98438 17.9688 6.98438 36.375
Q6.98438 53.6562 15.1875 63.9375
Q23.3906 74.2188 37.2031 74.2188
Q40.9219 74.2188 44.7031 73.4844
Q48.4844 72.75 52.5938 71.2969" id="BitstreamVeraSans-Roman-36"/>
      </defs>
      <g transform="translate(14.355 131.518125)scale(0.12 -0.12)">
       <use xlink:href="#BitstreamVeraSans-Roman-36"/>
       <use x="63.623046875" xlink:href="#BitstreamVeraSans-Roman-30"/>
      </g>
     </g>
    </g>
    <g id="ytick_5">
     <g id="line2d_30">
      <g>
       <use style="stroke:#000000;stroke-width:0.5;" x="31.99" xlink:href="#md7965d1ba0" y="70.606875"/>
      </g>
     </g>
     <g id="line2d_31">
      <g>
       <use style="stroke:#000000;stroke-width:0.5;" x="868.99" xlink:href="#md9a1c1a7cd" y="70.606875"/>
      </g>
     </g>
     <g id="text_14">
      <!-- 80 -->
      <defs>
       <path d="
M31.7812 34.625
Q24.75 34.625 20.7188 30.8594
Q16.7031 27.0938 16.7031 20.5156
Q16.7031 13.9219 20.7188 10.1562
Q24.75 6.39062 31.7812 6.39062
Q38.8125 6.39062 42.8594 10.1719
Q46.9219 13.9688 46.9219 20.5156
Q46.9219 27.0938 42.8906 30.8594
Q38.875 34.625 31.7812 34.625
M21.9219 38.8125
Q15.5781 40.375 12.0312 44.7188
Q8.5 49.0781 8.5 55.3281
Q8.5 64.0625 14.7188 69.1406
Q20.9531 74.2188 31.7812 74.2188
Q42.6719 74.2188 48.875 69.1406
Q55.0781 64.0625 55.0781 55.3281
Q55.0781 49.0781 51.5312 44.7188
Q48 40.375 41.7031 38.8125
Q48.8281 37.1562 52.7969 32.3125
Q56.7812 27.4844 56.7812 20.5156
Q56.7812 9.90625 50.3125 4.23438
Q43.8438 -1.42188 31.7812 -1.42188
Q19.7344 -1.42188 13.25 4.23438
Q6.78125 9.90625 6.78125 20.5156
Q6.78125 27.4844 10.7812 32.3125
Q14.7969 37.1562 21.9219 38.8125
M18.3125 54.3906
Q18.3125 48.7344 21.8438 45.5625
Q25.3906 42.3906 31.7812 42.3906
Q38.1406 42.3906 41.7188 45.5625
Q45.3125 48.7344 45.3125 54.3906
Q45.3125 60.0625 41.7188 63.2344
Q38.1406 66.4062 31.7812 66.4062
Q25.3906 66.4062 21.8438 63.2344
Q18.3125 60.0625 18.3125 54.3906" id="BitstreamVeraSans-Roman-38"/>
      </defs>
      <g transform="translate(14.330625 73.918125)scale(0.12 -0.12)">
       <use xlink:href="#BitstreamVeraSans-Roman-38"/>
       <use x="63.623046875" xlink:href="#BitstreamVeraSans-Roman-30"/>
      </g>
     </g>
    </g>
    <g id="ytick_6">
     <g id="line2d_32">
      <g>
       <use style="stroke:#000000;stroke-width:0.5;" x="31.99" xlink:href="#md7965d1ba0" y="13.006875"/>
      </g>
     </g>
     <g id="line2d_33">
      <g>
       <use style="stroke:#000000;stroke-width:0.5;" x="868.99" xlink:href="#md9a1c1a7cd" y="13.006875"/>
      </g>
     </g>
     <g id="text_15">
      <!-- 100 -->
      <g transform="translate(7.2 16.318125)scale(0.12 -0.12)">
       <use xlink:href="#BitstreamVeraSans-Roman-31"/>
       <use x="63.623046875" xlink:href="#BitstreamVeraSans-Roman-30"/>
       <use x="127.24609375" xlink:href="#BitstreamVeraSans-Roman-30"/>
      </g>
     </g>
    </g>
   </g>
  </g>
 </g>
 <defs>
  <clipPath id="p3e29ac047c">
   <rect height="288.0" width="837.0" x="31.99" y="13.006875"/>
  </clipPath>
 </defs>
</svg>
