<?xml version="1.0" encoding="utf-8" standalone="no"?>
<!DOCTYPE svg PUBLIC "-//W3C//DTD SVG 1.1//EN"
  "http://www.w3.org/Graphics/SVG/1.1/DTD/svg11.dtd">
<!-- Created with matplotlib (http://matplotlib.org/) -->
<svg height="323pt" version="1.1" viewBox="0 0 876 323" width="876pt" xmlns="http://www.w3.org/2000/svg" xmlns:xlink="http://www.w3.org/1999/xlink">
 <defs>
  <style type="text/css">
*{stroke-linecap:butt;stroke-linejoin:round;}
  </style>
 </defs>
 <g id="figure_1">
  <g id="patch_1">
   <path d="
M0 323.821
L876.19 323.821
L876.19 0
L0 0
z
" style="fill:#ffffff;"/>
  </g>
  <g id="axes_1">
   <g id="patch_2">
    <path d="
M31.99 301.007
L868.99 301.007
L868.99 13.0069
L31.99 13.0069
z
" style="fill:#ffffff;"/>
   </g>
   <g id="line2d_1">
    <path clip-path="url(#p3e29ac047c)" d="
M31.99 293.007
L47.7825 221.627
L63.5749 91.7208
L79.3674 20.2674
L95.1598 17.5501
L110.952 15.8911
L126.745 15.3295
L142.537 15.5389
L158.33 15.9279
L174.122 16.1373
L189.915 15.3257
L205.707 13.8185
L221.499 13.0069
L237.292 13.0069
L253.084 13.0069
L268.877 13.0069
L284.669 13.4757
L300.462 14.4869
L316.254 15.4476
L332.047 16.0079
L347.839 16.5263
L363.632 17.472
L379.424 30.4802
L395.216 60.1078
L411.009 96.2069
L426.801 154.416
L442.594 226.694
L458.386 267.372
L474.179 275.764
L489.971 281.236
L505.764 283.192
L521.556 282.958
L537.348 282.295
L553.141 281.258
L568.933 273.688
L584.726 260.891
L600.518 254.123
L616.311 264.082
L632.103 282.577
L647.896 292.536
L663.688 290.514
L679.481 286.758
L695.273 284.736
L711.065 285.843
L726.858 287.9
L742.65 289.007
L758.443 287.654
L774.235 285.142
L790.028 283.789
L805.82 286.165
L821.613 290.576
L837.405 292.951
L853.198 276.716
L868.99 240.937" style="fill:none;opacity:0.25;stroke:#ff0000;stroke-linecap:square;"/>
    <defs>
     <path d="
M0 3
C0.795609 3 1.55874 2.6839 2.12132 2.12132
C2.6839 1.55874 3 0.795609 3 0
C3 -0.795609 2.6839 -1.55874 2.12132 -2.12132
C1.55874 -2.6839 0.795609 -3 0 -3
C-0.795609 -3 -1.55874 -2.6839 -2.12132 -2.12132
C-2.6839 -1.55874 -3 -0.795609 -3 0
C-3 0.795609 -2.6839 1.55874 -2.12132 2.12132
C-1.55874 2.6839 -0.795609 3 0 3
z
" id="m23230efec5" style="stroke:#000000;stroke-width:0.5;"/>
    </defs>
    <g clip-path="url(#p3e29ac047c)">
     <use style="fill:#ff0000;opacity:0.25;stroke:#000000;stroke-width:0.5;" x="31.99" xlink:href="#m23230efec5" y="293.006874999"/>
     <use style="fill:#ff0000;opacity:0.25;stroke:#000000;stroke-width:0.5;" x="47.7824528302" xlink:href="#m23230efec5" y="221.627455465"/>
     <use style="fill:#ff0000;opacity:0.25;stroke:#000000;stroke-width:0.5;" x="63.5749056604" xlink:href="#m23230efec5" y="91.7208317296"/>
     <use style="fill:#ff0000;opacity:0.25;stroke:#000000;stroke-width:0.5;" x="79.3673584906" xlink:href="#m23230efec5" y="20.267379192"/>
     <use style="fill:#ff0000;opacity:0.25;stroke:#000000;stroke-width:0.5;" x="95.1598113208" xlink:href="#m23230efec5" y="17.5501063564"/>
     <use style="fill:#ff0000;opacity:0.25;stroke:#000000;stroke-width:0.5;" x="110.952264151" xlink:href="#m23230efec5" y="15.8911228238"/>
     <use style="fill:#ff0000;opacity:0.25;stroke:#000000;stroke-width:0.5;" x="126.744716981" xlink:href="#m23230efec5" y="15.3294556368"/>
     <use style="fill:#ff0000;opacity:0.25;stroke:#000000;stroke-width:0.5;" x="142.537169811" xlink:href="#m23230efec5" y="15.5388993029"/>
     <use style="fill:#ff0000;opacity:0.25;stroke:#000000;stroke-width:0.5;" x="158.329622642" xlink:href="#m23230efec5" y="15.9278661115"/>
     <use style="fill:#ff0000;opacity:0.25;stroke:#000000;stroke-width:0.5;" x="174.122075472" xlink:href="#m23230efec5" y="16.1373097776"/>
     <use style="fill:#ff0000;opacity:0.25;stroke:#000000;stroke-width:0.5;" x="189.914528302" xlink:href="#m23230efec5" y="15.325715576"/>
     <use style="fill:#ff0000;opacity:0.25;stroke:#000000;stroke-width:0.5;" x="205.706981132" xlink:href="#m23230efec5" y="13.8184692016"/>
     <use style="fill:#ff0000;opacity:0.25;stroke:#000000;stroke-width:0.5;" x="221.499433962" xlink:href="#m23230efec5" y="13.006875"/>
     <use style="fill:#ff0000;opacity:0.25;stroke:#000000;stroke-width:0.5;" x="237.291886792" xlink:href="#m23230efec5" y="13.006875"/>
     <use style="fill:#ff0000;opacity:0.25;stroke:#000000;stroke-width:0.5;" x="253.084339623" xlink:href="#m23230efec5" y="13.006875"/>
     <use style="fill:#ff0000;opacity:0.25;stroke:#000000;stroke-width:0.5;" x="268.876792453" xlink:href="#m23230efec5" y="13.006875"/>
     <use style="fill:#ff0000;opacity:0.25;stroke:#000000;stroke-width:0.5;" x="284.669245283" xlink:href="#m23230efec5" y="13.4757057976"/>
     <use style="fill:#ff0000;opacity:0.25;stroke:#000000;stroke-width:0.5;" x="300.461698113" xlink:href="#m23230efec5" y="14.4869094784"/>
     <use style="fill:#ff0000;opacity:0.25;stroke:#000000;stroke-width:0.5;" x="316.254150943" xlink:href="#m23230efec5" y="15.4475529744"/>
     <use style="fill:#ff0000;opacity:0.25;stroke:#000000;stroke-width:0.5;" x="332.046603774" xlink:href="#m23230efec5" y="16.007883876"/>
     <use style="fill:#ff0000;opacity:0.25;stroke:#000000;stroke-width:0.5;" x="347.839056604" xlink:href="#m23230efec5" y="16.52627726"/>
     <use style="fill:#ff0000;opacity:0.25;stroke:#000000;stroke-width:0.5;" x="363.631509434" xlink:href="#m23230efec5" y="17.471991288"/>
     <use style="fill:#ff0000;opacity:0.25;stroke:#000000;stroke-width:0.5;" x="379.423962264" xlink:href="#m23230efec5" y="30.4801704702"/>
     <use style="fill:#ff0000;opacity:0.25;stroke:#000000;stroke-width:0.5;" x="395.216415094" xlink:href="#m23230efec5" y="60.1077946532"/>
     <use style="fill:#ff0000;opacity:0.25;stroke:#000000;stroke-width:0.5;" x="411.008867925" xlink:href="#m23230efec5" y="96.2068750032"/>
     <use style="fill:#ff0000;opacity:0.25;stroke:#000000;stroke-width:0.5;" x="426.801320755" xlink:href="#m23230efec5" y="154.416220124"/>
     <use style="fill:#ff0000;opacity:0.25;stroke:#000000;stroke-width:0.5;" x="442.593773585" xlink:href="#m23230efec5" y="226.694126807"/>
     <use style="fill:#ff0000;opacity:0.25;stroke:#000000;stroke-width:0.5;" x="458.386226415" xlink:href="#m23230efec5" y="267.371838494"/>
     <use style="fill:#ff0000;opacity:0.25;stroke:#000000;stroke-width:0.5;" x="474.178679245" xlink:href="#m23230efec5" y="275.764452149"/>
     <use style="fill:#ff0000;opacity:0.25;stroke:#000000;stroke-width:0.5;" x="489.971132075" xlink:href="#m23230efec5" y="281.236291915"/>
     <use style="fill:#ff0000;opacity:0.25;stroke:#000000;stroke-width:0.5;" x="505.763584906" xlink:href="#m23230efec5" y="283.192442011"/>
     <use style="fill:#ff0000;opacity:0.25;stroke:#000000;stroke-width:0.5;" x="521.556037736" xlink:href="#m23230efec5" y="282.958472734"/>
     <use style="fill:#ff0000;opacity:0.25;stroke:#000000;stroke-width:0.5;" x="537.348490566" xlink:href="#m23230efec5" y="282.294694915"/>
     <use style="fill:#ff0000;opacity:0.25;stroke:#000000;stroke-width:0.5;" x="553.140943396" xlink:href="#m23230efec5" y="281.258303572"/>
     <use style="fill:#ff0000;opacity:0.25;stroke:#000000;stroke-width:0.5;" x="568.933396226" xlink:href="#m23230efec5" y="273.688316766"/>
     <use style="fill:#ff0000;opacity:0.25;stroke:#000000;stroke-width:0.5;" x="584.725849057" xlink:href="#m23230efec5" y="260.890718802"/>
     <use style="fill:#ff0000;opacity:0.25;stroke:#000000;stroke-width:0.5;" x="600.518301887" xlink:href="#m23230efec5" y="254.123154062"/>
     <use style="fill:#ff0000;opacity:0.25;stroke:#000000;stroke-width:0.5;" x="616.310754717" xlink:href="#m23230efec5" y="264.082114392"/>
     <use style="fill:#ff0000;opacity:0.25;stroke:#000000;stroke-width:0.5;" x="632.103207547" xlink:href="#m23230efec5" y="282.577326434"/>
     <use style="fill:#ff0000;opacity:0.25;stroke:#000000;stroke-width:0.5;" x="647.895660377" xlink:href="#m23230efec5" y="292.536286764"/>
     <use style="fill:#ff0000;opacity:0.25;stroke:#000000;stroke-width:0.5;" x="663.688113208" xlink:href="#m23230efec5" y="290.513909451"/>
     <use style="fill:#ff0000;opacity:0.25;stroke:#000000;stroke-width:0.5;" x="679.480566038" xlink:href="#m23230efec5" y="286.758065872"/>
     <use style="fill:#ff0000;opacity:0.25;stroke:#000000;stroke-width:0.5;" x="695.273018868" xlink:href="#m23230efec5" y="284.73568856"/>
     <use style="fill:#ff0000;opacity:0.25;stroke:#000000;stroke-width:0.5;" x="711.065471698" xlink:href="#m23230efec5" y="285.843033192"/>
     <use style="fill:#ff0000;opacity:0.25;stroke:#000000;stroke-width:0.5;" x="726.857924528" xlink:href="#m23230efec5" y="287.899530367"/>
     <use style="fill:#ff0000;opacity:0.25;stroke:#000000;stroke-width:0.5;" x="742.650377358" xlink:href="#m23230efec5" y="289.006874999"/>
     <use style="fill:#ff0000;opacity:0.25;stroke:#000000;stroke-width:0.5;" x="758.442830189" xlink:href="#m23230efec5" y="287.654217994"/>
     <use style="fill:#ff0000;opacity:0.25;stroke:#000000;stroke-width:0.5;" x="774.235283019" xlink:href="#m23230efec5" y="285.142140699"/>
     <use style="fill:#ff0000;opacity:0.25;stroke:#000000;stroke-width:0.5;" x="790.027735849" xlink:href="#m23230efec5" y="283.789483694"/>
     <use style="fill:#ff0000;opacity:0.25;stroke:#000000;stroke-width:0.5;" x="805.820188679" xlink:href="#m23230efec5" y="286.164673722"/>
     <use style="fill:#ff0000;opacity:0.25;stroke:#000000;stroke-width:0.5;" x="821.612641509" xlink:href="#m23230efec5" y="290.575740917"/>
     <use style="fill:#ff0000;opacity:0.25;stroke:#000000;stroke-width:0.5;" x="837.40509434" xlink:href="#m23230efec5" y="292.950930945"/>
     <use style="fill:#ff0000;opacity:0.25;stroke:#000000;stroke-width:0.5;" x="853.19754717" xlink:href="#m23230efec5" y="276.715623404"/>
     <use style="fill:#ff0000;opacity:0.25;stroke:#000000;stroke-width:0.5;" x="868.99" xlink:href="#m23230efec5" y="240.937192321"/>
    </g>
   </g>
   <g id="line2d_2">
    <path clip-path="url(#p3e29ac047c)" d="
M31.99 205.007
L47.7825 173.064
L63.5749 140.967
L79.3674 115.685
L95.1598 95.676
L110.952 78.9983
L126.745 72.0233
L142.537 81.4007
L158.33 98.8159
L174.122 108.193" style="fill:none;stroke:#ff0000;stroke-linecap:square;"/>
    <defs>
     <path d="
M0 3
C0.795609 3 1.55874 2.6839 2.12132 2.12132
C2.6839 1.55874 3 0.795609 3 0
C3 -0.795609 2.6839 -1.55874 2.12132 -2.12132
C1.55874 -2.6839 0.795609 -3 0 -3
C-0.795609 -3 -1.55874 -2.6839 -2.12132 -2.12132
C-2.6839 -1.55874 -3 -0.795609 -3 0
C-3 0.795609 -2.6839 1.55874 -2.12132 2.12132
C-1.55874 2.6839 -0.795609 3 0 3
z
" id="m231f9b0f49" style="stroke:#000000;stroke-width:0.5;"/>
    </defs>
    <g clip-path="url(#p3e29ac047c)">
     <use style="fill:#ff0000;stroke:#000000;stroke-width:0.5;" x="31.99" xlink:href="#m231f9b0f49" y="205.00687501"/>
     <use style="fill:#ff0000;stroke:#000000;stroke-width:0.5;" x="47.7824528302" xlink:href="#m231f9b0f49" y="173.064058592"/>
     <use style="fill:#ff0000;stroke:#000000;stroke-width:0.5;" x="63.5749056604" xlink:href="#m231f9b0f49" y="140.966976578"/>
     <use style="fill:#ff0000;stroke:#000000;stroke-width:0.5;" x="79.3673584906" xlink:href="#m231f9b0f49" y="115.685135861"/>
     <use style="fill:#ff0000;stroke:#000000;stroke-width:0.5;" x="95.1598113208" xlink:href="#m231f9b0f49" y="95.6760364107"/>
     <use style="fill:#ff0000;stroke:#000000;stroke-width:0.5;" x="110.952264151" xlink:href="#m231f9b0f49" y="78.9983338269"/>
     <use style="fill:#ff0000;stroke:#000000;stroke-width:0.5;" x="126.744716981" xlink:href="#m231f9b0f49" y="72.0232684464"/>
     <use style="fill:#ff0000;stroke:#000000;stroke-width:0.5;" x="142.537169811" xlink:href="#m231f9b0f49" y="81.4006881008"/>
     <use style="fill:#ff0000;stroke:#000000;stroke-width:0.5;" x="158.329622642" xlink:href="#m231f9b0f49" y="98.8158960304"/>
     <use style="fill:#ff0000;stroke:#000000;stroke-width:0.5;" x="174.122075472" xlink:href="#m231f9b0f49" y="108.193315685"/>
    </g>
   </g>
   <g id="line2d_3"/>
   <g id="line2d_4">
    <path clip-path="url(#p3e29ac047c)" d="
M31.99 301.007
L47.7825 301.007
L63.5749 301.007
L79.3674 301.007
L95.1598 301.007
L110.952 301.007
L126.745 301.007
L142.537 301.007
L158.33 301.007
L174.122 301.007
L189.915 301.007
L205.707 301.007
L221.499 301.007
L237.292 301.007
L253.084 301.007
L268.877 301.007
L284.669 300.538
L300.462 299.527
L316.254 298.566
L332.047 298.006
L347.839 297.487
L363.632 296.542
L379.424 283.534
L395.216 253.906
L411.009 217.807
L426.801 159.598
L442.594 87.3196
L458.386 46.6419
L474.179 38.2493
L489.971 32.7775
L505.764 30.8213
L521.556 31.0461
L537.348 31.7008
L553.141 32.7554
L568.933 42.0845
L584.726 62.5671
L600.518 86.6813
L616.311 120.201
L632.103 160.511
L647.896 187.501
L663.688 197.353
L679.481 203.817
L695.273 213.142
L711.065 238.311
L726.858 272.112
L742.65 290.507
L758.443 292.797
L774.235 294.242
L790.028 294.746
L805.82 293.758
L821.613 291.924
L837.405 290.937
L853.198 292.473
L868.99 295.59" style="fill:none;opacity:0.25;stroke:#008000;stroke-linecap:square;"/>
    <defs>
     <path d="
M0 3
C0.795609 3 1.55874 2.6839 2.12132 2.12132
C2.6839 1.55874 3 0.795609 3 0
C3 -0.795609 2.6839 -1.55874 2.12132 -2.12132
C1.55874 -2.6839 0.795609 -3 0 -3
C-0.795609 -3 -1.55874 -2.6839 -2.12132 -2.12132
C-2.6839 -1.55874 -3 -0.795609 -3 0
C-3 0.795609 -2.6839 1.55874 -2.12132 2.12132
C-1.55874 2.6839 -0.795609 3 0 3
z
" id="m8d7e0c9f4d" style="stroke:#000000;stroke-width:0.5;"/>
    </defs>
    <g clip-path="url(#p3e29ac047c)">
     <use style="fill:#008000;opacity:0.25;stroke:#000000;stroke-width:0.5;" x="31.99" xlink:href="#m8d7e0c9f4d" y="301.006875"/>
     <use style="fill:#008000;opacity:0.25;stroke:#000000;stroke-width:0.5;" x="47.7824528302" xlink:href="#m8d7e0c9f4d" y="301.006875"/>
     <use style="fill:#008000;opacity:0.25;stroke:#000000;stroke-width:0.5;" x="63.5749056604" xlink:href="#m8d7e0c9f4d" y="301.006875"/>
     <use style="fill:#008000;opacity:0.25;stroke:#000000;stroke-width:0.5;" x="79.3673584906" xlink:href="#m8d7e0c9f4d" y="301.006875"/>
     <use style="fill:#008000;opacity:0.25;stroke:#000000;stroke-width:0.5;" x="95.1598113208" xlink:href="#m8d7e0c9f4d" y="301.006875"/>
     <use style="fill:#008000;opacity:0.25;stroke:#000000;stroke-width:0.5;" x="110.952264151" xlink:href="#m8d7e0c9f4d" y="301.006875"/>
     <use style="fill:#008000;opacity:0.25;stroke:#000000;stroke-width:0.5;" x="126.744716981" xlink:href="#m8d7e0c9f4d" y="301.006875"/>
     <use style="fill:#008000;opacity:0.25;stroke:#000000;stroke-width:0.5;" x="142.537169811" xlink:href="#m8d7e0c9f4d" y="301.006875"/>
     <use style="fill:#008000;opacity:0.25;stroke:#000000;stroke-width:0.5;" x="158.329622642" xlink:href="#m8d7e0c9f4d" y="301.006875"/>
     <use style="fill:#008000;opacity:0.25;stroke:#000000;stroke-width:0.5;" x="174.122075472" xlink:href="#m8d7e0c9f4d" y="301.006875"/>
     <use style="fill:#008000;opacity:0.25;stroke:#000000;stroke-width:0.5;" x="189.914528302" xlink:href="#m8d7e0c9f4d" y="301.006875"/>
     <use style="fill:#008000;opacity:0.25;stroke:#000000;stroke-width:0.5;" x="205.706981132" xlink:href="#m8d7e0c9f4d" y="301.006875"/>
     <use style="fill:#008000;opacity:0.25;stroke:#000000;stroke-width:0.5;" x="221.499433962" xlink:href="#m8d7e0c9f4d" y="301.006875"/>
     <use style="fill:#008000;opacity:0.25;stroke:#000000;stroke-width:0.5;" x="237.291886792" xlink:href="#m8d7e0c9f4d" y="301.006875"/>
     <use style="fill:#008000;opacity:0.25;stroke:#000000;stroke-width:0.5;" x="253.084339623" xlink:href="#m8d7e0c9f4d" y="301.006875"/>
     <use style="fill:#008000;opacity:0.25;stroke:#000000;stroke-width:0.5;" x="268.876792453" xlink:href="#m8d7e0c9f4d" y="301.006875"/>
     <use style="fill:#008000;opacity:0.25;stroke:#000000;stroke-width:0.5;" x="284.669245283" xlink:href="#m8d7e0c9f4d" y="300.538044204"/>
     <use style="fill:#008000;opacity:0.25;stroke:#000000;stroke-width:0.5;" x="300.461698113" xlink:href="#m8d7e0c9f4d" y="299.526840527"/>
     <use style="fill:#008000;opacity:0.25;stroke:#000000;stroke-width:0.5;" x="316.254150943" xlink:href="#m8d7e0c9f4d" y="298.566197034"/>
     <use style="fill:#008000;opacity:0.25;stroke:#000000;stroke-width:0.5;" x="332.046603774" xlink:href="#m8d7e0c9f4d" y="298.005866133"/>
     <use style="fill:#008000;opacity:0.25;stroke:#000000;stroke-width:0.5;" x="347.839056604" xlink:href="#m8d7e0c9f4d" y="297.487472749"/>
     <use style="fill:#008000;opacity:0.25;stroke:#000000;stroke-width:0.5;" x="363.631509434" xlink:href="#m8d7e0c9f4d" y="296.541758721"/>
     <use style="fill:#008000;opacity:0.25;stroke:#000000;stroke-width:0.5;" x="379.423962264" xlink:href="#m8d7e0c9f4d" y="283.533579537"/>
     <use style="fill:#008000;opacity:0.25;stroke:#000000;stroke-width:0.5;" x="395.216415094" xlink:href="#m8d7e0c9f4d" y="253.90595535"/>
     <use style="fill:#008000;opacity:0.25;stroke:#000000;stroke-width:0.5;" x="411.008867925" xlink:href="#m8d7e0c9f4d" y="217.806874997"/>
     <use style="fill:#008000;opacity:0.25;stroke:#000000;stroke-width:0.5;" x="426.801320755" xlink:href="#m8d7e0c9f4d" y="159.597529874"/>
     <use style="fill:#008000;opacity:0.25;stroke:#000000;stroke-width:0.5;" x="442.593773585" xlink:href="#m8d7e0c9f4d" y="87.3196231929"/>
     <use style="fill:#008000;opacity:0.25;stroke:#000000;stroke-width:0.5;" x="458.386226415" xlink:href="#m8d7e0c9f4d" y="46.6419115056"/>
     <use style="fill:#008000;opacity:0.25;stroke:#000000;stroke-width:0.5;" x="474.178679245" xlink:href="#m8d7e0c9f4d" y="38.2492978506"/>
     <use style="fill:#008000;opacity:0.25;stroke:#000000;stroke-width:0.5;" x="489.971132075" xlink:href="#m8d7e0c9f4d" y="32.7774580845"/>
     <use style="fill:#008000;opacity:0.25;stroke:#000000;stroke-width:0.5;" x="505.763584906" xlink:href="#m8d7e0c9f4d" y="30.8213079888"/>
     <use style="fill:#008000;opacity:0.25;stroke:#000000;stroke-width:0.5;" x="521.556037736" xlink:href="#m8d7e0c9f4d" y="31.0461336052"/>
     <use style="fill:#008000;opacity:0.25;stroke:#000000;stroke-width:0.5;" x="537.348490566" xlink:href="#m8d7e0c9f4d" y="31.7007677655"/>
     <use style="fill:#008000;opacity:0.25;stroke:#000000;stroke-width:0.5;" x="553.140943396" xlink:href="#m8d7e0c9f4d" y="32.7554464368"/>
     <use style="fill:#008000;opacity:0.25;stroke:#000000;stroke-width:0.5;" x="568.933396226" xlink:href="#m8d7e0c9f4d" y="42.0844604957"/>
     <use style="fill:#008000;opacity:0.25;stroke:#000000;stroke-width:0.5;" x="584.725849057" xlink:href="#m8d7e0c9f4d" y="62.5671430933"/>
     <use style="fill:#008000;opacity:0.25;stroke:#000000;stroke-width:0.5;" x="600.518301887" xlink:href="#m8d7e0c9f4d" y="86.681293608"/>
     <use style="fill:#008000;opacity:0.25;stroke:#000000;stroke-width:0.5;" x="616.310754717" xlink:href="#m8d7e0c9f4d" y="120.201228163"/>
     <use style="fill:#008000;opacity:0.25;stroke:#000000;stroke-width:0.5;" x="632.103207547" xlink:href="#m8d7e0c9f4d" y="160.510550769"/>
     <use style="fill:#008000;opacity:0.25;stroke:#000000;stroke-width:0.5;" x="647.895660377" xlink:href="#m8d7e0c9f4d" y="187.500992635"/>
     <use style="fill:#008000;opacity:0.25;stroke:#000000;stroke-width:0.5;" x="663.688113208" xlink:href="#m8d7e0c9f4d" y="197.352671151"/>
     <use style="fill:#008000;opacity:0.25;stroke:#000000;stroke-width:0.5;" x="679.480566038" xlink:href="#m8d7e0c9f4d" y="203.816958527"/>
     <use style="fill:#008000;opacity:0.25;stroke:#000000;stroke-width:0.5;" x="695.273018868" xlink:href="#m8d7e0c9f4d" y="213.14246821"/>
     <use style="fill:#008000;opacity:0.25;stroke:#000000;stroke-width:0.5;" x="711.065471698" xlink:href="#m8d7e0c9f4d" y="238.310730613"/>
     <use style="fill:#008000;opacity:0.25;stroke:#000000;stroke-width:0.5;" x="726.857924528" xlink:href="#m8d7e0c9f4d" y="272.111755426"/>
     <use style="fill:#008000;opacity:0.25;stroke:#000000;stroke-width:0.5;" x="742.650377358" xlink:href="#m8d7e0c9f4d" y="290.506875001"/>
     <use style="fill:#008000;opacity:0.25;stroke:#000000;stroke-width:0.5;" x="758.442830189" xlink:href="#m8d7e0c9f4d" y="292.796698925"/>
     <use style="fill:#008000;opacity:0.25;stroke:#000000;stroke-width:0.5;" x="774.235283019" xlink:href="#m8d7e0c9f4d" y="294.242366673"/>
     <use style="fill:#008000;opacity:0.25;stroke:#000000;stroke-width:0.5;" x="790.027735849" xlink:href="#m8d7e0c9f4d" y="294.746005436"/>
     <use style="fill:#008000;opacity:0.25;stroke:#000000;stroke-width:0.5;" x="805.820188679" xlink:href="#m8d7e0c9f4d" y="293.758471231"/>
     <use style="fill:#008000;opacity:0.25;stroke:#000000;stroke-width:0.5;" x="821.612641509" xlink:href="#m8d7e0c9f4d" y="291.924479134"/>
     <use style="fill:#008000;opacity:0.25;stroke:#000000;stroke-width:0.5;" x="837.40509434" xlink:href="#m8d7e0c9f4d" y="290.936944929"/>
     <use style="fill:#008000;opacity:0.25;stroke:#000000;stroke-width:0.5;" x="853.19754717" xlink:href="#m8d7e0c9f4d" y="292.472613408"/>
     <use style="fill:#008000;opacity:0.25;stroke:#000000;stroke-width:0.5;" x="868.99" xlink:href="#m8d7e0c9f4d" y="295.589633869"/>
    </g>
   </g>
   <g id="line2d_5">
    <path clip-path="url(#p3e29ac047c)" d="
M31.99 298.053
L47.7825 299.437
L63.5749 300.55
L79.3674 301.007
L95.1598 301.007
L110.952 301.007
L126.745 301.007
L142.537 301.007
L158.33 301.007
L174.122 301.007" style="fill:none;stroke:#008000;stroke-linecap:square;"/>
    <defs>
     <path d="
M0 3
C0.795609 3 1.55874 2.6839 2.12132 2.12132
C2.6839 1.55874 3 0.795609 3 0
C3 -0.795609 2.6839 -1.55874 2.12132 -2.12132
C1.55874 -2.6839 0.795609 -3 0 -3
C-0.795609 -3 -1.55874 -2.6839 -2.12132 -2.12132
C-2.6839 -1.55874 -3 -0.795609 -3 0
C-3 0.795609 -2.6839 1.55874 -2.12132 2.12132
C-1.55874 2.6839 -0.795609 3 0 3
z
" id="m25f47eefb8" style="stroke:#000000;stroke-width:0.5;"/>
    </defs>
    <g clip-path="url(#p3e29ac047c)">
     <use style="fill:#008000;stroke:#000000;stroke-width:0.5;" x="31.99" xlink:href="#m25f47eefb8" y="298.053028845"/>
     <use style="fill:#008000;stroke:#000000;stroke-width:0.5;" x="47.7824528302" xlink:href="#m25f47eefb8" y="299.437325142"/>
     <use style="fill:#008000;stroke:#000000;stroke-width:0.5;" x="63.5749056604" xlink:href="#m25f47eefb8" y="300.550305199"/>
     <use style="fill:#008000;stroke:#000000;stroke-width:0.5;" x="79.3673584906" xlink:href="#m25f47eefb8" y="301.006875"/>
     <use style="fill:#008000;stroke:#000000;stroke-width:0.5;" x="95.1598113208" xlink:href="#m25f47eefb8" y="301.006875"/>
     <use style="fill:#008000;stroke:#000000;stroke-width:0.5;" x="110.952264151" xlink:href="#m25f47eefb8" y="301.006875"/>
     <use style="fill:#008000;stroke:#000000;stroke-width:0.5;" x="126.744716981" xlink:href="#m25f47eefb8" y="301.006875"/>
     <use style="fill:#008000;stroke:#000000;stroke-width:0.5;" x="142.537169811" xlink:href="#m25f47eefb8" y="301.006875"/>
     <use style="fill:#008000;stroke:#000000;stroke-width:0.5;" x="158.329622642" xlink:href="#m25f47eefb8" y="301.006875"/>
     <use style="fill:#008000;stroke:#000000;stroke-width:0.5;" x="174.122075472" xlink:href="#m25f47eefb8" y="301.006875"/>
    </g>
   </g>
   <g id="line2d_6"/>
   <g id="line2d_7">
    <path clip-path="url(#p3e29ac047c)" d="
M31.99 21.0069
L47.7825 92.3863
L63.5749 222.293
L79.3674 293.746
L95.1598 296.464
L110.952 298.123
L126.745 298.684
L142.537 298.475
L158.33 298.086
L174.122 297.876
L189.915 298.688
L205.707 300.195
L221.499 301.007
L237.292 301.007
L253.084 301.007
L268.877 301.007
L284.669 301.007
L300.462 301.007
L316.254 301.007
L332.047 301.007
L347.839 301.007
L363.632 301.007
L379.424 301.007
L395.216 301.007
L411.009 301.007
L426.801 301.007
L442.594 301.007
L458.386 301.007
L474.179 301.007
L489.971 301.007
L505.764 301.007
L521.556 301.007
L537.348 301.007
L553.141 301.007
L568.933 297.39
L584.726 287.819
L600.518 274.216
L616.311 233.805
L632.103 172.438
L647.896 134.983
L663.688 127.841
L679.481 123.763
L695.273 117.142
L711.065 91.6396
L726.858 54.5026
L742.65 35.5069
L758.443 35.7605
L774.235 36.2315
L790.028 36.4851
L805.82 35.0975
L821.613 32.5204
L837.405 31.1327
L853.198 45.9025
L868.99 78.634" style="fill:none;opacity:0.25;stroke:#0000ff;stroke-linecap:square;"/>
    <defs>
     <path d="
M0 3
C0.795609 3 1.55874 2.6839 2.12132 2.12132
C2.6839 1.55874 3 0.795609 3 0
C3 -0.795609 2.6839 -1.55874 2.12132 -2.12132
C1.55874 -2.6839 0.795609 -3 0 -3
C-0.795609 -3 -1.55874 -2.6839 -2.12132 -2.12132
C-2.6839 -1.55874 -3 -0.795609 -3 0
C-3 0.795609 -2.6839 1.55874 -2.12132 2.12132
C-1.55874 2.6839 -0.795609 3 0 3
z
" id="m5f9c0e513d" style="stroke:#000000;stroke-width:0.5;"/>
    </defs>
    <g clip-path="url(#p3e29ac047c)">
     <use style="fill:#0000ff;opacity:0.25;stroke:#000000;stroke-width:0.5;" x="31.99" xlink:href="#m5f9c0e513d" y="21.0068750064"/>
     <use style="fill:#0000ff;opacity:0.25;stroke:#000000;stroke-width:0.5;" x="47.7824528302" xlink:href="#m5f9c0e513d" y="92.3862945374"/>
     <use style="fill:#0000ff;opacity:0.25;stroke:#000000;stroke-width:0.5;" x="63.5749056604" xlink:href="#m5f9c0e513d" y="222.292918265"/>
     <use style="fill:#0000ff;opacity:0.25;stroke:#000000;stroke-width:0.5;" x="79.3673584906" xlink:href="#m5f9c0e513d" y="293.746370799"/>
     <use style="fill:#0000ff;opacity:0.25;stroke:#000000;stroke-width:0.5;" x="95.1598113208" xlink:href="#m5f9c0e513d" y="296.463643635"/>
     <use style="fill:#0000ff;opacity:0.25;stroke:#000000;stroke-width:0.5;" x="110.952264151" xlink:href="#m5f9c0e513d" y="298.122627168"/>
     <use style="fill:#0000ff;opacity:0.25;stroke:#000000;stroke-width:0.5;" x="126.744716981" xlink:href="#m5f9c0e513d" y="298.684294355"/>
     <use style="fill:#0000ff;opacity:0.25;stroke:#000000;stroke-width:0.5;" x="142.537169811" xlink:href="#m5f9c0e513d" y="298.474850689"/>
     <use style="fill:#0000ff;opacity:0.25;stroke:#000000;stroke-width:0.5;" x="158.329622642" xlink:href="#m5f9c0e513d" y="298.085883882"/>
     <use style="fill:#0000ff;opacity:0.25;stroke:#000000;stroke-width:0.5;" x="174.122075472" xlink:href="#m5f9c0e513d" y="297.876440217"/>
     <use style="fill:#0000ff;opacity:0.25;stroke:#000000;stroke-width:0.5;" x="189.914528302" xlink:href="#m5f9c0e513d" y="298.68803442"/>
     <use style="fill:#0000ff;opacity:0.25;stroke:#000000;stroke-width:0.5;" x="205.706981132" xlink:href="#m5f9c0e513d" y="300.195280797"/>
     <use style="fill:#0000ff;opacity:0.25;stroke:#000000;stroke-width:0.5;" x="221.499433962" xlink:href="#m5f9c0e513d" y="301.006875"/>
     <use style="fill:#0000ff;opacity:0.25;stroke:#000000;stroke-width:0.5;" x="237.291886792" xlink:href="#m5f9c0e513d" y="301.006875"/>
     <use style="fill:#0000ff;opacity:0.25;stroke:#000000;stroke-width:0.5;" x="253.084339623" xlink:href="#m5f9c0e513d" y="301.006875"/>
     <use style="fill:#0000ff;opacity:0.25;stroke:#000000;stroke-width:0.5;" x="268.876792453" xlink:href="#m5f9c0e513d" y="301.006875"/>
     <use style="fill:#0000ff;opacity:0.25;stroke:#000000;stroke-width:0.5;" x="284.669245283" xlink:href="#m5f9c0e513d" y="301.006875"/>
     <use style="fill:#0000ff;opacity:0.25;stroke:#000000;stroke-width:0.5;" x="300.461698113" xlink:href="#m5f9c0e513d" y="301.006875"/>
     <use style="fill:#0000ff;opacity:0.25;stroke:#000000;stroke-width:0.5;" x="316.254150943" xlink:href="#m5f9c0e513d" y="301.006875"/>
     <use style="fill:#0000ff;opacity:0.25;stroke:#000000;stroke-width:0.5;" x="332.046603774" xlink:href="#m5f9c0e513d" y="301.006875"/>
     <use style="fill:#0000ff;opacity:0.25;stroke:#000000;stroke-width:0.5;" x="347.839056604" xlink:href="#m5f9c0e513d" y="301.006875"/>
     <use style="fill:#0000ff;opacity:0.25;stroke:#000000;stroke-width:0.5;" x="363.631509434" xlink:href="#m5f9c0e513d" y="301.006875"/>
     <use style="fill:#0000ff;opacity:0.25;stroke:#000000;stroke-width:0.5;" x="379.423962264" xlink:href="#m5f9c0e513d" y="301.006875"/>
     <use style="fill:#0000ff;opacity:0.25;stroke:#000000;stroke-width:0.5;" x="395.216415094" xlink:href="#m5f9c0e513d" y="301.006875"/>
     <use style="fill:#0000ff;opacity:0.25;stroke:#000000;stroke-width:0.5;" x="411.008867925" xlink:href="#m5f9c0e513d" y="301.006875"/>
     <use style="fill:#0000ff;opacity:0.25;stroke:#000000;stroke-width:0.5;" x="426.801320755" xlink:href="#m5f9c0e513d" y="301.006875"/>
     <use style="fill:#0000ff;opacity:0.25;stroke:#000000;stroke-width:0.5;" x="442.593773585" xlink:href="#m5f9c0e513d" y="301.006875"/>
     <use style="fill:#0000ff;opacity:0.25;stroke:#000000;stroke-width:0.5;" x="458.386226415" xlink:href="#m5f9c0e513d" y="301.006875"/>
     <use style="fill:#0000ff;opacity:0.25;stroke:#000000;stroke-width:0.5;" x="474.178679245" xlink:href="#m5f9c0e513d" y="301.006875"/>
     <use style="fill:#0000ff;opacity:0.25;stroke:#000000;stroke-width:0.5;" x="489.971132075" xlink:href="#m5f9c0e513d" y="301.006875"/>
     <use style="fill:#0000ff;opacity:0.25;stroke:#000000;stroke-width:0.5;" x="505.763584906" xlink:href="#m5f9c0e513d" y="301.006875"/>
     <use style="fill:#0000ff;opacity:0.25;stroke:#000000;stroke-width:0.5;" x="521.556037736" xlink:href="#m5f9c0e513d" y="301.006875"/>
     <use style="fill:#0000ff;opacity:0.25;stroke:#000000;stroke-width:0.5;" x="537.348490566" xlink:href="#m5f9c0e513d" y="301.006875"/>
     <use style="fill:#0000ff;opacity:0.25;stroke:#000000;stroke-width:0.5;" x="553.140943396" xlink:href="#m5f9c0e513d" y="301.006875"/>
     <use style="fill:#0000ff;opacity:0.25;stroke:#000000;stroke-width:0.5;" x="568.933396226" xlink:href="#m5f9c0e513d" y="297.389666949"/>
     <use style="fill:#0000ff;opacity:0.25;stroke:#000000;stroke-width:0.5;" x="584.725849057" xlink:href="#m5f9c0e513d" y="287.818970526"/>
     <use style="fill:#0000ff;opacity:0.25;stroke:#000000;stroke-width:0.5;" x="600.518301887" xlink:href="#m5f9c0e513d" y="274.216177327"/>
     <use style="fill:#0000ff;opacity:0.25;stroke:#000000;stroke-width:0.5;" x="616.310754717" xlink:href="#m5f9c0e513d" y="233.804602695"/>
     <use style="fill:#0000ff;opacity:0.25;stroke:#000000;stroke-width:0.5;" x="632.103207547" xlink:href="#m5f9c0e513d" y="172.437983938"/>
     <use style="fill:#0000ff;opacity:0.25;stroke:#000000;stroke-width:0.5;" x="647.895660377" xlink:href="#m5f9c0e513d" y="134.983345598"/>
     <use style="fill:#0000ff;opacity:0.25;stroke:#000000;stroke-width:0.5;" x="663.688113208" xlink:href="#m5f9c0e513d" y="127.841227314"/>
     <use style="fill:#0000ff;opacity:0.25;stroke:#000000;stroke-width:0.5;" x="679.480566038" xlink:href="#m5f9c0e513d" y="123.763118468"/>
     <use style="fill:#0000ff;opacity:0.25;stroke:#000000;stroke-width:0.5;" x="695.273018868" xlink:href="#m5f9c0e513d" y="117.142468219"/>
     <use style="fill:#0000ff;opacity:0.25;stroke:#000000;stroke-width:0.5;" x="711.065471698" xlink:href="#m5f9c0e513d" y="91.6395642454"/>
     <use style="fill:#0000ff;opacity:0.25;stroke:#000000;stroke-width:0.5;" x="726.857924528" xlink:href="#m5f9c0e513d" y="54.5025981539"/>
     <use style="fill:#0000ff;opacity:0.25;stroke:#000000;stroke-width:0.5;" x="742.650377358" xlink:href="#m5f9c0e513d" y="35.506875"/>
     <use style="fill:#0000ff;opacity:0.25;stroke:#000000;stroke-width:0.5;" x="758.442830189" xlink:href="#m5f9c0e513d" y="35.7604981861"/>
     <use style="fill:#0000ff;opacity:0.25;stroke:#000000;stroke-width:0.5;" x="774.235283019" xlink:href="#m5f9c0e513d" y="36.2315126747"/>
     <use style="fill:#0000ff;opacity:0.25;stroke:#000000;stroke-width:0.5;" x="790.027735849" xlink:href="#m5f9c0e513d" y="36.4851358608"/>
     <use style="fill:#0000ff;opacity:0.25;stroke:#000000;stroke-width:0.5;" x="805.820188679" xlink:href="#m5f9c0e513d" y="35.0974800379"/>
     <use style="fill:#0000ff;opacity:0.25;stroke:#000000;stroke-width:0.5;" x="821.612641509" xlink:href="#m5f9c0e513d" y="32.5204049381"/>
     <use style="fill:#0000ff;opacity:0.25;stroke:#000000;stroke-width:0.5;" x="837.40509434" xlink:href="#m5f9c0e513d" y="31.1327491152"/>
     <use style="fill:#0000ff;opacity:0.25;stroke:#000000;stroke-width:0.5;" x="853.19754717" xlink:href="#m5f9c0e513d" y="45.9025084029"/>
     <use style="fill:#0000ff;opacity:0.25;stroke:#000000;stroke-width:0.5;" x="868.99" xlink:href="#m5f9c0e513d" y="78.6340392555"/>
    </g>
   </g>
   <g id="line2d_8">
    <path clip-path="url(#p3e29ac047c)" d="
M31.99 111.961
L47.7825 142.427
L63.5749 173.53
L79.3674 198.329
L95.1598 218.241
L110.952 234.967
L126.745 241.99
L142.537 232.613
L158.33 215.198
L174.122 205.82" style="fill:none;stroke:#0000ff;stroke-linecap:square;"/>
    <defs>
     <path d="
M0 3
C0.795609 3 1.55874 2.6839 2.12132 2.12132
C2.6839 1.55874 3 0.795609 3 0
C3 -0.795609 2.6839 -1.55874 2.12132 -2.12132
C1.55874 -2.6839 0.795609 -3 0 -3
C-0.795609 -3 -1.55874 -2.6839 -2.12132 -2.12132
C-2.6839 -1.55874 -3 -0.795609 -3 0
C-3 0.795609 -2.6839 1.55874 -2.12132 2.12132
C-1.55874 2.6839 -0.795609 3 0 3
z
" id="mdb00ba95ec" style="stroke:#000000;stroke-width:0.5;"/>
    </defs>
    <g clip-path="url(#p3e29ac047c)">
     <use style="fill:#0000ff;stroke:#000000;stroke-width:0.5;" x="31.99" xlink:href="#mdb00ba95ec" y="111.960721157"/>
     <use style="fill:#0000ff;stroke:#000000;stroke-width:0.5;" x="47.7824528302" xlink:href="#mdb00ba95ec" y="142.427245338"/>
     <use style="fill:#0000ff;stroke:#000000;stroke-width:0.5;" x="63.5749056604" xlink:href="#mdb00ba95ec" y="173.529712013"/>
     <use style="fill:#0000ff;stroke:#000000;stroke-width:0.5;" x="79.3673584906" xlink:href="#mdb00ba95ec" y="198.328614139"/>
     <use style="fill:#0000ff;stroke:#000000;stroke-width:0.5;" x="95.1598113208" xlink:href="#mdb00ba95ec" y="218.241224582"/>
     <use style="fill:#0000ff;stroke:#000000;stroke-width:0.5;" x="110.952264151" xlink:href="#mdb00ba95ec" y="234.967171669"/>
     <use style="fill:#0000ff;stroke:#000000;stroke-width:0.5;" x="126.744716981" xlink:href="#mdb00ba95ec" y="241.990481554"/>
     <use style="fill:#0000ff;stroke:#000000;stroke-width:0.5;" x="142.537169811" xlink:href="#mdb00ba95ec" y="232.613061899"/>
     <use style="fill:#0000ff;stroke:#000000;stroke-width:0.5;" x="158.329622642" xlink:href="#mdb00ba95ec" y="215.19785397"/>
     <use style="fill:#0000ff;stroke:#000000;stroke-width:0.5;" x="174.122075472" xlink:href="#mdb00ba95ec" y="205.820434315"/>
    </g>
   </g>
   <g id="line2d_9"/>
   <g id="patch_3">
    <path d="
M31.99 301.007
L31.99 13.0069" style="fill:none;stroke:#000000;stroke-linecap:square;stroke-linejoin:miter;"/>
   </g>
   <g id="patch_4">
    <path d="
M31.99 13.0069
L868.99 13.0069" style="fill:none;stroke:#000000;stroke-linecap:square;stroke-linejoin:miter;"/>
   </g>
   <g id="patch_5">
    <path d="
M868.99 301.007
L868.99 13.0069" style="fill:none;stroke:#000000;stroke-linecap:square;stroke-linejoin:miter;"/>
   </g>
   <g id="patch_6">
    <path d="
M31.99 301.007
L868.99 301.007" style="fill:none;stroke:#000000;stroke-linecap:square;stroke-linejoin:miter;"/>
   </g>
   <g id="matplotlib.axis_1">
    <g id="xtick_1">
     <g id="line2d_10">
      <defs>
       <path d="
M0 0
L0 -4" id="mc7db9fdffb" style="stroke:#000000;stroke-width:0.5;"/>
      </defs>
      <g>
       <use style="stroke:#000000;stroke-width:0.5;" x="31.99" xlink:href="#mc7db9fdffb" y="301.006875"/>
      </g>
     </g>
     <g id="line2d_11">
      <defs>
       <path d="
M0 0
L0 4" id="m5a7d422ac3" style="stroke:#000000;stroke-width:0.5;"/>
      </defs>
      <g>
       <use style="stroke:#000000;stroke-width:0.5;" x="31.99" xlink:href="#m5a7d422ac3" y="13.006875"/>
      </g>
     </g>
     <g id="text_1">
      <!-- 0 -->
      <defs>
       <path d="
M31.7812 66.4062
Q24.1719 66.4062 20.3281 58.9062
Q16.5 51.4219 16.5 36.375
Q16.5 21.3906 20.3281 13.8906
Q24.1719 6.39062 31.7812 6.39062
Q39.4531 6.39062 43.2812 13.8906
Q47.125 21.3906 47.125 36.375
Q47.125 51.4219 43.2812 58.9062
Q39.4531 66.4062 31.7812 66.4062
M31.7812 74.2188
Q44.0469 74.2188 50.5156 64.5156
Q56.9844 54.8281 56.9844 36.375
Q56.9844 17.9688 50.5156 8.26562
Q44.0469 -1.42188 31.7812 -1.42188
Q19.5312 -1.42188 13.0625 8.26562
Q6.59375 17.9688 6.59375 36.375
Q6.59375 54.8281 13.0625 64.5156
Q19.5312 74.2188 31.7812 74.2188" id="BitstreamVeraSans-Roman-30"/>
      </defs>
      <g transform="translate(28.9665625 314.125)scale(0.12 -0.12)">
       <use xlink:href="#BitstreamVeraSans-Roman-30"/>
      </g>
     </g>
    </g>
    <g id="xtick_2">
     <g id="line2d_12">
      <g>
       <use style="stroke:#000000;stroke-width:0.5;" x="189.914528302" xlink:href="#mc7db9fdffb" y="301.006875"/>
      </g>
     </g>
     <g id="line2d_13">
      <g>
       <use style="stroke:#000000;stroke-width:0.5;" x="189.914528302" xlink:href="#m5a7d422ac3" y="13.006875"/>
      </g>
     </g>
     <g id="text_2">
      <!-- 10 -->
      <defs>
       <path d="
M12.4062 8.29688
L28.5156 8.29688
L28.5156 63.9219
L10.9844 60.4062
L10.9844 69.3906
L28.4219 72.9062
L38.2812 72.9062
L38.2812 8.29688
L54.3906 8.29688
L54.3906 0
L12.4062 0
z
" id="BitstreamVeraSans-Roman-31"/>
      </defs>
      <g transform="translate(183.337028302 314.125)scale(0.12 -0.12)">
       <use xlink:href="#BitstreamVeraSans-Roman-31"/>
       <use x="63.623046875" xlink:href="#BitstreamVeraSans-Roman-30"/>
      </g>
     </g>
    </g>
    <g id="xtick_3">
     <g id="line2d_14">
      <g>
       <use style="stroke:#000000;stroke-width:0.5;" x="347.839056604" xlink:href="#mc7db9fdffb" y="301.006875"/>
      </g>
     </g>
     <g id="line2d_15">
      <g>
       <use style="stroke:#000000;stroke-width:0.5;" x="347.839056604" xlink:href="#m5a7d422ac3" y="13.006875"/>
      </g>
     </g>
     <g id="text_3">
      <!-- 20 -->
      <defs>
       <path d="
M19.1875 8.29688
L53.6094 8.29688
L53.6094 0
L7.32812 0
L7.32812 8.29688
Q12.9375 14.1094 22.625 23.8906
Q32.3281 33.6875 34.8125 36.5312
Q39.5469 41.8438 41.4219 45.5312
Q43.3125 49.2188 43.3125 52.7812
Q43.3125 58.5938 39.2344 62.25
Q35.1562 65.9219 28.6094 65.9219
Q23.9688 65.9219 18.8125 64.3125
Q13.6719 62.7031 7.8125 59.4219
L7.8125 69.3906
Q13.7656 71.7812 18.9375 73
Q24.125 74.2188 28.4219 74.2188
Q39.75 74.2188 46.4844 68.5469
Q53.2188 62.8906 53.2188 53.4219
Q53.2188 48.9219 51.5312 44.8906
Q49.8594 40.875 45.4062 35.4062
Q44.1875 33.9844 37.6406 27.2188
Q31.1094 20.4531 19.1875 8.29688" id="BitstreamVeraSans-Roman-32"/>
      </defs>
      <g transform="translate(341.042181604 314.125)scale(0.12 -0.12)">
       <use xlink:href="#BitstreamVeraSans-Roman-32"/>
       <use x="63.623046875" xlink:href="#BitstreamVeraSans-Roman-30"/>
      </g>
     </g>
    </g>
    <g id="xtick_4">
     <g id="line2d_16">
      <g>
       <use style="stroke:#000000;stroke-width:0.5;" x="505.763584906" xlink:href="#mc7db9fdffb" y="301.006875"/>
      </g>
     </g>
     <g id="line2d_17">
      <g>
       <use style="stroke:#000000;stroke-width:0.5;" x="505.763584906" xlink:href="#m5a7d422ac3" y="13.006875"/>
      </g>
     </g>
     <g id="text_4">
      <!-- 30 -->
      <defs>
       <path d="
M40.5781 39.3125
Q47.6562 37.7969 51.625 33
Q55.6094 28.2188 55.6094 21.1875
Q55.6094 10.4062 48.1875 4.48438
Q40.7656 -1.42188 27.0938 -1.42188
Q22.5156 -1.42188 17.6562 -0.515625
Q12.7969 0.390625 7.625 2.20312
L7.625 11.7188
Q11.7188 9.32812 16.5938 8.10938
Q21.4844 6.89062 26.8125 6.89062
Q36.0781 6.89062 40.9375 10.5469
Q45.7969 14.2031 45.7969 21.1875
Q45.7969 27.6406 41.2812 31.2656
Q36.7656 34.9062 28.7188 34.9062
L20.2188 34.9062
L20.2188 43.0156
L29.1094 43.0156
Q36.375 43.0156 40.2344 45.9219
Q44.0938 48.8281 44.0938 54.2969
Q44.0938 59.9062 40.1094 62.9062
Q36.1406 65.9219 28.7188 65.9219
Q24.6562 65.9219 20.0156 65.0312
Q15.375 64.1562 9.8125 62.3125
L9.8125 71.0938
Q15.4375 72.6562 20.3438 73.4375
Q25.25 74.2188 29.5938 74.2188
Q40.8281 74.2188 47.3594 69.1094
Q53.9062 64.0156 53.9062 55.3281
Q53.9062 49.2656 50.4375 45.0938
Q46.9688 40.9219 40.5781 39.3125" id="BitstreamVeraSans-Roman-33"/>
      </defs>
      <g transform="translate(498.984522406 314.125)scale(0.12 -0.12)">
       <use xlink:href="#BitstreamVeraSans-Roman-33"/>
       <use x="63.623046875" xlink:href="#BitstreamVeraSans-Roman-30"/>
      </g>
     </g>
    </g>
    <g id="xtick_5">
     <g id="line2d_18">
      <g>
       <use style="stroke:#000000;stroke-width:0.5;" x="663.688113208" xlink:href="#mc7db9fdffb" y="301.006875"/>
      </g>
     </g>
     <g id="line2d_19">
      <g>
       <use style="stroke:#000000;stroke-width:0.5;" x="663.688113208" xlink:href="#m5a7d422ac3" y="13.006875"/>
      </g>
     </g>
     <g id="text_5">
      <!-- 40 -->
      <defs>
       <path d="
M37.7969 64.3125
L12.8906 25.3906
L37.7969 25.3906
z

M35.2031 72.9062
L47.6094 72.9062
L47.6094 25.3906
L58.0156 25.3906
L58.0156 17.1875
L47.6094 17.1875
L47.6094 0
L37.7969 0
L37.7969 17.1875
L4.89062 17.1875
L4.89062 26.7031
z
" id="BitstreamVeraSans-Roman-34"/>
      </defs>
      <g transform="translate(656.744988208 314.125)scale(0.12 -0.12)">
       <use xlink:href="#BitstreamVeraSans-Roman-34"/>
       <use x="63.623046875" xlink:href="#BitstreamVeraSans-Roman-30"/>
      </g>
     </g>
    </g>
    <g id="xtick_6">
     <g id="line2d_20">
      <g>
       <use style="stroke:#000000;stroke-width:0.5;" x="821.612641509" xlink:href="#mc7db9fdffb" y="301.006875"/>
      </g>
     </g>
     <g id="line2d_21">
      <g>
       <use style="stroke:#000000;stroke-width:0.5;" x="821.612641509" xlink:href="#m5a7d422ac3" y="13.006875"/>
      </g>
     </g>
     <g id="text_6">
      <!-- 50 -->
      <defs>
       <path d="
M10.7969 72.9062
L49.5156 72.9062
L49.5156 64.5938
L19.8281 64.5938
L19.8281 46.7344
Q21.9688 47.4688 24.1094 47.8281
Q26.2656 48.1875 28.4219 48.1875
Q40.625 48.1875 47.75 41.5
Q54.8906 34.8125 54.8906 23.3906
Q54.8906 11.625 47.5625 5.09375
Q40.2344 -1.42188 26.9062 -1.42188
Q22.3125 -1.42188 17.5469 -0.640625
Q12.7969 0.140625 7.71875 1.70312
L7.71875 11.625
Q12.1094 9.23438 16.7969 8.0625
Q21.4844 6.89062 26.7031 6.89062
Q35.1562 6.89062 40.0781 11.3281
Q45.0156 15.7656 45.0156 23.3906
Q45.0156 31 40.0781 35.4375
Q35.1562 39.8906 26.7031 39.8906
Q22.75 39.8906 18.8125 39.0156
Q14.8906 38.1406 10.7969 36.2812
z
" id="BitstreamVeraSans-Roman-35"/>
      </defs>
      <g transform="translate(814.839204009 314.125)scale(0.12 -0.12)">
       <use xlink:href="#BitstreamVeraSans-Roman-35"/>
       <use x="63.623046875" xlink:href="#BitstreamVeraSans-Roman-30"/>
      </g>
     </g>
    </g>
   </g>
   <g id="matplotlib.axis_2">
    <g id="ytick_1">
     <g id="line2d_22">
      <defs>
       <path d="
M0 0
L4 0" id="md7965d1ba0" style="stroke:#000000;stroke-width:0.5;"/>
      </defs>
      <g>
       <use style="stroke:#000000;stroke-width:0.5;" x="31.99" xlink:href="#md7965d1ba0" y="301.006875"/>
      </g>
     </g>
     <g id="line2d_23">
      <defs>
       <path d="
M0 0
L-4 0" id="md9a1c1a7cd" style="stroke:#000000;stroke-width:0.5;"/>
      </defs>
      <g>
       <use style="stroke:#000000;stroke-width:0.5;" x="868.99" xlink:href="#md9a1c1a7cd" y="301.006875"/>
      </g>
     </g>
     <g id="text_7">
      <!-- 0 -->
      <g transform="translate(21.943125 304.318125)scale(0.12 -0.12)">
       <use xlink:href="#BitstreamVeraSans-Roman-30"/>
      </g>
     </g>
    </g>
    <g id="ytick_2">
     <g id="line2d_24">
      <g>
       <use style="stroke:#000000;stroke-width:0.5;" x="31.99" xlink:href="#md7965d1ba0" y="243.406875"/>
      </g>
     </g>
     <g id="line2d_25">
      <g>
       <use style="stroke:#000000;stroke-width:0.5;" x="868.99" xlink:href="#md9a1c1a7cd" y="243.406875"/>
      </g>
     </g>
     <g id="text_8">
      <!-- 20 -->
      <g transform="translate(14.39625 246.718125)scale(0.12 -0.12)">
       <use xlink:href="#BitstreamVeraSans-Roman-32"/>
       <use x="63.623046875" xlink:href="#BitstreamVeraSans-Roman-30"/>
      </g>
     </g>
    </g>
    <g id="ytick_3">
     <g id="line2d_26">
      <g>
       <use style="stroke:#000000;stroke-width:0.5;" x="31.99" xlink:href="#md7965d1ba0" y="185.806875"/>
      </g>
     </g>
     <g id="line2d_27">
      <g>
       <use style="stroke:#000000;stroke-width:0.5;" x="868.99" xlink:href="#md9a1c1a7cd" y="185.806875"/>
      </g>
     </g>
     <g id="text_9">
      <!-- 40 -->
      <g transform="translate(14.10375 189.118125)scale(0.12 -0.12)">
       <use xlink:href="#BitstreamVeraSans-Roman-34"/>
       <use x="63.623046875" xlink:href="#BitstreamVeraSans-Roman-30"/>
      </g>
     </g>
    </g>
    <g id="ytick_4">
     <g id="line2d_28">
      <g>
       <use style="stroke:#000000;stroke-width:0.5;" x="31.99" xlink:href="#md7965d1ba0" y="128.206875"/>
      </g>
     </g>
     <g id="line2d_29">
      <g>
       <use style="stroke:#000000;stroke-width:0.5;" x="868.99" xlink:href="#md9a1c1a7cd" y="128.206875"/>
      </g>
     </g>
     <g id="text_10">
      <!-- 60 -->
      <defs>
       <path d="
M33.0156 40.375
Q26.375 40.375 22.4844 35.8281
Q18.6094 31.2969 18.6094 23.3906
Q18.6094 15.5312 22.4844 10.9531
Q26.375 6.39062 33.0156 6.39062
Q39.6562 6.39062 43.5312 10.9531
Q47.4062 15.5312 47.4062 23.3906
Q47.4062 31.2969 43.5312 35.8281
Q39.6562 40.375 33.0156 40.375
M52.5938 71.2969
L52.5938 62.3125
Q48.875 64.0625 45.0938 64.9844
Q41.3125 65.9219 37.5938 65.9219
Q27.8281 65.9219 22.6719 59.3281
Q17.5312 52.7344 16.7969 39.4062
Q19.6719 43.6562 24.0156 45.9219
Q28.375 48.1875 33.5938 48.1875
Q44.5781 48.1875 50.9531 41.5156
Q57.3281 34.8594 57.3281 23.3906
Q57.3281 12.1562 50.6875 5.35938
Q44.0469 -1.42188 33.0156 -1.42188
Q20.3594 -1.42188 13.6719 8.26562
Q6.98438 17.9688 6.98438 36.375
Q6.98438 53.6562 15.1875 63.9375
Q23.3906 74.2188 37.2031 74.2188
Q40.9219 74.2188 44.7031 73.4844
Q48.4844 72.75 52.5938 71.2969" id="BitstreamVeraSans-Roman-36"/>
      </defs>
      <g transform="translate(14.355 131.518125)scale(0.12 -0.12)">
       <use xlink:href="#BitstreamVeraSans-Roman-36"/>
       <use x="63.623046875" xlink:href="#BitstreamVeraSans-Roman-30"/>
      </g>
     </g>
    </g>
    <g id="ytick_5">
     <g id="line2d_30">
      <g>
       <use style="stroke:#000000;stroke-width:0.5;" x="31.99" xlink:href="#md7965d1ba0" y="70.606875"/>
      </g>
     </g>
     <g id="line2d_31">
      <g>
       <use style="stroke:#000000;stroke-width:0.5;" x="868.99" xlink:href="#md9a1c1a7cd" y="70.606875"/>
      </g>
     </g>
     <g id="text_11">
      <!-- 80 -->
      <defs>
       <path d="
M31.7812 34.625
Q24.75 34.625 20.7188 30.8594
Q16.7031 27.0938 16.7031 20.5156
Q16.7031 13.9219 20.7188 10.1562
Q24.75 6.39062 31.7812 6.39062
Q38.8125 6.39062 42.8594 10.1719
Q46.9219 13.9688 46.9219 20.5156
Q46.9219 27.0938 42.8906 30.8594
Q38.875 34.625 31.7812 34.625
M21.9219 38.8125
Q15.5781 40.375 12.0312 44.7188
Q8.5 49.0781 8.5 55.3281
Q8.5 64.0625 14.7188 69.1406
Q20.9531 74.2188 31.7812 74.2188
Q42.6719 74.2188 48.875 69.1406
Q55.0781 64.0625 55.0781 55.3281
Q55.0781 49.0781 51.5312 44.7188
Q48 40.375 41.7031 38.8125
Q48.8281 37.1562 52.7969 32.3125
Q56.7812 27.4844 56.7812 20.5156
Q56.7812 9.90625 50.3125 4.23438
Q43.8438 -1.42188 31.7812 -1.42188
Q19.7344 -1.42188 13.25 4.23438
Q6.78125 9.90625 6.78125 20.5156
Q6.78125 27.4844 10.7812 32.3125
Q14.7969 37.1562 21.9219 38.8125
M18.3125 54.3906
Q18.3125 48.7344 21.8438 45.5625
Q25.3906 42.3906 31.7812 42.3906
Q38.1406 42.3906 41.7188 45.5625
Q45.3125 48.7344 45.3125 54.3906
Q45.3125 60.0625 41.7188 63.2344
Q38.1406 66.4062 31.7812 66.4062
Q25.3906 66.4062 21.8438 63.2344
Q18.3125 60.0625 18.3125 54.3906" id="BitstreamVeraSans-Roman-38"/>
      </defs>
      <g transform="translate(14.330625 73.918125)scale(0.12 -0.12)">
       <use xlink:href="#BitstreamVeraSans-Roman-38"/>
       <use x="63.623046875" xlink:href="#BitstreamVeraSans-Roman-30"/>
      </g>
     </g>
    </g>
    <g id="ytick_6">
     <g id="line2d_32">
      <g>
       <use style="stroke:#000000;stroke-width:0.5;" x="31.99" xlink:href="#md7965d1ba0" y="13.006875"/>
      </g>
     </g>
     <g id="line2d_33">
      <g>
       <use style="stroke:#000000;stroke-width:0.5;" x="868.99" xlink:href="#md9a1c1a7cd" y="13.006875"/>
      </g>
     </g>
     <g id="text_12">
      <!-- 100 -->
      <g transform="translate(7.2 16.318125)scale(0.12 -0.12)">
       <use xlink:href="#BitstreamVeraSans-Roman-31"/>
       <use x="63.623046875" xlink:href="#BitstreamVeraSans-Roman-30"/>
       <use x="127.24609375" xlink:href="#BitstreamVeraSans-Roman-30"/>
      </g>
     </g>
    </g>
   </g>
  </g>
 </g>
 <defs>
  <clipPath id="p3e29ac047c">
   <rect height="288.0" width="837.0" x="31.99" y="13.006875"/>
  </clipPath>
 </defs>
</svg>
