<?xml version="1.0" encoding="utf-8" standalone="no"?>
<!DOCTYPE svg PUBLIC "-//W3C//DTD SVG 1.1//EN"
  "http://www.w3.org/Graphics/SVG/1.1/DTD/svg11.dtd">
<!-- Created with matplotlib (https://matplotlib.org/) -->
<svg height="589.277344pt" version="1.1" viewBox="0 0 883.85 589.277344" width="883.85pt" xmlns="http://www.w3.org/2000/svg" xmlns:xlink="http://www.w3.org/1999/xlink">
 <defs>
  <style type="text/css">
*{stroke-linecap:butt;stroke-linejoin:round;}
  </style>
 </defs>
 <g id="figure_1">
  <g id="patch_1">
   <path d="M -0 589.277344 
L 883.85 589.277344 
L 883.85 0 
L -0 0 
z
" style="fill:#ffffff;"/>
  </g>
  <g id="axes_1">
   <g id="patch_2">
    <path d="M 39.65 565.399219 
L 876.65 565.399219 
L 876.65 10.999219 
L 39.65 10.999219 
z
" style="fill:#ffffff;"/>
   </g>
   <g id="patch_3">
    <path clip-path="url(#p3ef3c02b81)" d="M 111.392857 565.399219 
L 119.421224 565.399219 
L 119.421224 367.201219 
L 111.392857 367.201219 
z
" style="fill:#1f77b4;"/>
   </g>
   <g id="patch_4">
    <path clip-path="url(#p3ef3c02b81)" d="M 119.421224 565.399219 
L 127.449592 565.399219 
L 127.449592 565.399219 
L 119.421224 565.399219 
z
" style="fill:#1f77b4;"/>
   </g>
   <g id="patch_5">
    <path clip-path="url(#p3ef3c02b81)" d="M 127.449592 565.399219 
L 135.477959 565.399219 
L 135.477959 565.399219 
L 127.449592 565.399219 
z
" style="fill:#1f77b4;"/>
   </g>
   <g id="patch_6">
    <path clip-path="url(#p3ef3c02b81)" d="M 135.477959 565.399219 
L 143.506327 565.399219 
L 143.506327 565.399219 
L 135.477959 565.399219 
z
" style="fill:#1f77b4;"/>
   </g>
   <g id="patch_7">
    <path clip-path="url(#p3ef3c02b81)" d="M 143.506327 565.399219 
L 151.534694 565.399219 
L 151.534694 425.413219 
L 143.506327 425.413219 
z
" style="fill:#1f77b4;"/>
   </g>
   <g id="patch_8">
    <path clip-path="url(#p3ef3c02b81)" d="M 151.534694 565.399219 
L 159.563061 565.399219 
L 159.563061 565.399219 
L 151.534694 565.399219 
z
" style="fill:#1f77b4;"/>
   </g>
   <g id="patch_9">
    <path clip-path="url(#p3ef3c02b81)" d="M 159.563061 565.399219 
L 167.591429 565.399219 
L 167.591429 565.399219 
L 159.563061 565.399219 
z
" style="fill:#1f77b4;"/>
   </g>
   <g id="patch_10">
    <path clip-path="url(#p3ef3c02b81)" d="M 167.591429 565.399219 
L 175.619796 565.399219 
L 175.619796 565.399219 
L 167.591429 565.399219 
z
" style="fill:#1f77b4;"/>
   </g>
   <g id="patch_11">
    <path clip-path="url(#p3ef3c02b81)" d="M 175.619796 565.399219 
L 183.648163 565.399219 
L 183.648163 470.689219 
L 175.619796 470.689219 
z
" style="fill:#1f77b4;"/>
   </g>
   <g id="patch_12">
    <path clip-path="url(#p3ef3c02b81)" d="M 183.648163 565.399219 
L 191.676531 565.399219 
L 191.676531 565.399219 
L 183.648163 565.399219 
z
" style="fill:#1f77b4;"/>
   </g>
   <g id="patch_13">
    <path clip-path="url(#p3ef3c02b81)" d="M 191.676531 565.399219 
L 199.704898 565.399219 
L 199.704898 565.399219 
L 191.676531 565.399219 
z
" style="fill:#1f77b4;"/>
   </g>
   <g id="patch_14">
    <path clip-path="url(#p3ef3c02b81)" d="M 199.704898 565.399219 
L 207.733265 565.399219 
L 207.733265 565.399219 
L 199.704898 565.399219 
z
" style="fill:#1f77b4;"/>
   </g>
   <g id="patch_15">
    <path clip-path="url(#p3ef3c02b81)" d="M 207.733265 565.399219 
L 215.761633 565.399219 
L 215.761633 565.399219 
L 207.733265 565.399219 
z
" style="fill:#1f77b4;"/>
   </g>
   <g id="patch_16">
    <path clip-path="url(#p3ef3c02b81)" d="M 215.761633 565.399219 
L 223.79 565.399219 
L 223.79 496.561219 
L 215.761633 496.561219 
z
" style="fill:#1f77b4;"/>
   </g>
   <g id="patch_17">
    <path clip-path="url(#p3ef3c02b81)" d="M 223.79 565.399219 
L 231.818367 565.399219 
L 231.818367 565.399219 
L 223.79 565.399219 
z
" style="fill:#1f77b4;"/>
   </g>
   <g id="patch_18">
    <path clip-path="url(#p3ef3c02b81)" d="M 231.818367 565.399219 
L 239.846735 565.399219 
L 239.846735 565.399219 
L 231.818367 565.399219 
z
" style="fill:#1f77b4;"/>
   </g>
   <g id="patch_19">
    <path clip-path="url(#p3ef3c02b81)" d="M 239.846735 565.399219 
L 247.875102 565.399219 
L 247.875102 565.399219 
L 239.846735 565.399219 
z
" style="fill:#1f77b4;"/>
   </g>
   <g id="patch_20">
    <path clip-path="url(#p3ef3c02b81)" d="M 247.875102 565.399219 
L 255.903469 565.399219 
L 255.903469 521.971219 
L 247.875102 521.971219 
z
" style="fill:#1f77b4;"/>
   </g>
   <g id="patch_21">
    <path clip-path="url(#p3ef3c02b81)" d="M 255.903469 565.399219 
L 263.931837 565.399219 
L 263.931837 565.399219 
L 255.903469 565.399219 
z
" style="fill:#1f77b4;"/>
   </g>
   <g id="patch_22">
    <path clip-path="url(#p3ef3c02b81)" d="M 263.931837 565.399219 
L 271.960204 565.399219 
L 271.960204 565.399219 
L 263.931837 565.399219 
z
" style="fill:#1f77b4;"/>
   </g>
   <g id="patch_23">
    <path clip-path="url(#p3ef3c02b81)" d="M 271.960204 565.399219 
L 279.988571 565.399219 
L 279.988571 564.937219 
L 271.960204 564.937219 
z
" style="fill:#1f77b4;"/>
   </g>
   <g id="patch_24">
    <path clip-path="url(#p3ef3c02b81)" d="M 279.988571 565.399219 
L 288.016939 565.399219 
L 288.016939 565.399219 
L 279.988571 565.399219 
z
" style="fill:#1f77b4;"/>
   </g>
   <g id="patch_25">
    <path clip-path="url(#p3ef3c02b81)" d="M 288.016939 565.399219 
L 296.045306 565.399219 
L 296.045306 520.123219 
L 288.016939 520.123219 
z
" style="fill:#1f77b4;"/>
   </g>
   <g id="patch_26">
    <path clip-path="url(#p3ef3c02b81)" d="M 296.045306 565.399219 
L 304.073673 565.399219 
L 304.073673 565.399219 
L 296.045306 565.399219 
z
" style="fill:#1f77b4;"/>
   </g>
   <g id="patch_27">
    <path clip-path="url(#p3ef3c02b81)" d="M 304.073673 565.399219 
L 312.102041 565.399219 
L 312.102041 565.399219 
L 304.073673 565.399219 
z
" style="fill:#1f77b4;"/>
   </g>
   <g id="patch_28">
    <path clip-path="url(#p3ef3c02b81)" d="M 312.102041 565.399219 
L 320.130408 565.399219 
L 320.130408 565.399219 
L 312.102041 565.399219 
z
" style="fill:#1f77b4;"/>
   </g>
   <g id="patch_29">
    <path clip-path="url(#p3ef3c02b81)" d="M 320.130408 565.399219 
L 328.158776 565.399219 
L 328.158776 534.907219 
L 320.130408 534.907219 
z
" style="fill:#1f77b4;"/>
   </g>
   <g id="patch_30">
    <path clip-path="url(#p3ef3c02b81)" d="M 328.158776 565.399219 
L 336.187143 565.399219 
L 336.187143 565.399219 
L 328.158776 565.399219 
z
" style="fill:#1f77b4;"/>
   </g>
   <g id="patch_31">
    <path clip-path="url(#p3ef3c02b81)" d="M 336.187143 565.399219 
L 344.21551 565.399219 
L 344.21551 565.399219 
L 336.187143 565.399219 
z
" style="fill:#1f77b4;"/>
   </g>
   <g id="patch_32">
    <path clip-path="url(#p3ef3c02b81)" d="M 344.21551 565.399219 
L 352.243878 565.399219 
L 352.243878 565.399219 
L 344.21551 565.399219 
z
" style="fill:#1f77b4;"/>
   </g>
   <g id="patch_33">
    <path clip-path="url(#p3ef3c02b81)" d="M 352.243878 565.399219 
L 360.272245 565.399219 
L 360.272245 565.399219 
L 352.243878 565.399219 
z
" style="fill:#1f77b4;"/>
   </g>
   <g id="patch_34">
    <path clip-path="url(#p3ef3c02b81)" d="M 360.272245 565.399219 
L 368.300612 565.399219 
L 368.300612 533.521219 
L 360.272245 533.521219 
z
" style="fill:#1f77b4;"/>
   </g>
   <g id="patch_35">
    <path clip-path="url(#p3ef3c02b81)" d="M 368.300612 565.399219 
L 376.32898 565.399219 
L 376.32898 565.399219 
L 368.300612 565.399219 
z
" style="fill:#1f77b4;"/>
   </g>
   <g id="patch_36">
    <path clip-path="url(#p3ef3c02b81)" d="M 376.32898 565.399219 
L 384.357347 565.399219 
L 384.357347 565.399219 
L 376.32898 565.399219 
z
" style="fill:#1f77b4;"/>
   </g>
   <g id="patch_37">
    <path clip-path="url(#p3ef3c02b81)" d="M 384.357347 565.399219 
L 392.385714 565.399219 
L 392.385714 565.399219 
L 384.357347 565.399219 
z
" style="fill:#1f77b4;"/>
   </g>
   <g id="patch_38">
    <path clip-path="url(#p3ef3c02b81)" d="M 392.385714 565.399219 
L 400.414082 565.399219 
L 400.414082 534.445219 
L 392.385714 534.445219 
z
" style="fill:#1f77b4;"/>
   </g>
   <g id="patch_39">
    <path clip-path="url(#p3ef3c02b81)" d="M 400.414082 565.399219 
L 408.442449 565.399219 
L 408.442449 565.399219 
L 400.414082 565.399219 
z
" style="fill:#1f77b4;"/>
   </g>
   <g id="patch_40">
    <path clip-path="url(#p3ef3c02b81)" d="M 408.442449 565.399219 
L 416.470816 565.399219 
L 416.470816 565.399219 
L 408.442449 565.399219 
z
" style="fill:#1f77b4;"/>
   </g>
   <g id="patch_41">
    <path clip-path="url(#p3ef3c02b81)" d="M 416.470816 565.399219 
L 424.499184 565.399219 
L 424.499184 565.399219 
L 416.470816 565.399219 
z
" style="fill:#1f77b4;"/>
   </g>
   <g id="patch_42">
    <path clip-path="url(#p3ef3c02b81)" d="M 424.499184 565.399219 
L 432.527551 565.399219 
L 432.527551 565.399219 
L 424.499184 565.399219 
z
" style="fill:#1f77b4;"/>
   </g>
   <g id="patch_43">
    <path clip-path="url(#p3ef3c02b81)" d="M 432.527551 565.399219 
L 440.555918 565.399219 
L 440.555918 512.731219 
L 432.527551 512.731219 
z
" style="fill:#1f77b4;"/>
   </g>
   <g id="patch_44">
    <path clip-path="url(#p3ef3c02b81)" d="M 440.555918 565.399219 
L 448.584286 565.399219 
L 448.584286 565.399219 
L 440.555918 565.399219 
z
" style="fill:#1f77b4;"/>
   </g>
   <g id="patch_45">
    <path clip-path="url(#p3ef3c02b81)" d="M 448.584286 565.399219 
L 456.612653 565.399219 
L 456.612653 565.399219 
L 448.584286 565.399219 
z
" style="fill:#1f77b4;"/>
   </g>
   <g id="patch_46">
    <path clip-path="url(#p3ef3c02b81)" d="M 456.612653 565.399219 
L 464.64102 565.399219 
L 464.64102 565.399219 
L 456.612653 565.399219 
z
" style="fill:#1f77b4;"/>
   </g>
   <g id="patch_47">
    <path clip-path="url(#p3ef3c02b81)" d="M 464.64102 565.399219 
L 472.669388 565.399219 
L 472.669388 378.289219 
L 464.64102 378.289219 
z
" style="fill:#1f77b4;"/>
   </g>
   <g id="patch_48">
    <path clip-path="url(#p3ef3c02b81)" d="M 472.669388 565.399219 
L 480.697755 565.399219 
L 480.697755 565.399219 
L 472.669388 565.399219 
z
" style="fill:#1f77b4;"/>
   </g>
   <g id="patch_49">
    <path clip-path="url(#p3ef3c02b81)" d="M 480.697755 565.399219 
L 488.726122 565.399219 
L 488.726122 565.399219 
L 480.697755 565.399219 
z
" style="fill:#1f77b4;"/>
   </g>
   <g id="patch_50">
    <path clip-path="url(#p3ef3c02b81)" d="M 488.726122 565.399219 
L 496.75449 565.399219 
L 496.75449 565.399219 
L 488.726122 565.399219 
z
" style="fill:#1f77b4;"/>
   </g>
   <g id="patch_51">
    <path clip-path="url(#p3ef3c02b81)" d="M 496.75449 565.399219 
L 504.782857 565.399219 
L 504.782857 565.399219 
L 496.75449 565.399219 
z
" style="fill:#1f77b4;"/>
   </g>
   <g id="patch_52">
    <path clip-path="url(#p3ef3c02b81)" d="M 504.782857 565.399219 
L 512.811224 565.399219 
L 512.811224 333.937219 
L 504.782857 333.937219 
z
" style="fill:#1f77b4;"/>
   </g>
   <g id="patch_53">
    <path clip-path="url(#p3ef3c02b81)" d="M 512.811224 565.399219 
L 520.839592 565.399219 
L 520.839592 565.399219 
L 512.811224 565.399219 
z
" style="fill:#1f77b4;"/>
   </g>
   <g id="patch_54">
    <path clip-path="url(#p3ef3c02b81)" d="M 520.839592 565.399219 
L 528.867959 565.399219 
L 528.867959 565.399219 
L 520.839592 565.399219 
z
" style="fill:#1f77b4;"/>
   </g>
   <g id="patch_55">
    <path clip-path="url(#p3ef3c02b81)" d="M 528.867959 565.399219 
L 536.896327 565.399219 
L 536.896327 565.399219 
L 528.867959 565.399219 
z
" style="fill:#1f77b4;"/>
   </g>
   <g id="patch_56">
    <path clip-path="url(#p3ef3c02b81)" d="M 536.896327 565.399219 
L 544.924694 565.399219 
L 544.924694 531.673219 
L 536.896327 531.673219 
z
" style="fill:#1f77b4;"/>
   </g>
   <g id="patch_57">
    <path clip-path="url(#p3ef3c02b81)" d="M 544.924694 565.399219 
L 552.953061 565.399219 
L 552.953061 565.399219 
L 544.924694 565.399219 
z
" style="fill:#1f77b4;"/>
   </g>
   <g id="patch_58">
    <path clip-path="url(#p3ef3c02b81)" d="M 552.953061 565.399219 
L 560.981429 565.399219 
L 560.981429 565.399219 
L 552.953061 565.399219 
z
" style="fill:#1f77b4;"/>
   </g>
   <g id="patch_59">
    <path clip-path="url(#p3ef3c02b81)" d="M 560.981429 565.399219 
L 569.009796 565.399219 
L 569.009796 565.399219 
L 560.981429 565.399219 
z
" style="fill:#1f77b4;"/>
   </g>
   <g id="patch_60">
    <path clip-path="url(#p3ef3c02b81)" d="M 569.009796 565.399219 
L 577.038163 565.399219 
L 577.038163 565.399219 
L 569.009796 565.399219 
z
" style="fill:#1f77b4;"/>
   </g>
   <g id="patch_61">
    <path clip-path="url(#p3ef3c02b81)" d="M 577.038163 565.399219 
L 585.066531 565.399219 
L 585.066531 559.855219 
L 577.038163 559.855219 
z
" style="fill:#1f77b4;"/>
   </g>
   <g id="patch_62">
    <path clip-path="url(#p3ef3c02b81)" d="M 585.066531 565.399219 
L 593.094898 565.399219 
L 593.094898 565.399219 
L 585.066531 565.399219 
z
" style="fill:#1f77b4;"/>
   </g>
   <g id="patch_63">
    <path clip-path="url(#p3ef3c02b81)" d="M 593.094898 565.399219 
L 601.123265 565.399219 
L 601.123265 565.399219 
L 593.094898 565.399219 
z
" style="fill:#1f77b4;"/>
   </g>
   <g id="patch_64">
    <path clip-path="url(#p3ef3c02b81)" d="M 601.123265 565.399219 
L 609.151633 565.399219 
L 609.151633 565.399219 
L 601.123265 565.399219 
z
" style="fill:#1f77b4;"/>
   </g>
   <g id="patch_65">
    <path clip-path="url(#p3ef3c02b81)" d="M 609.151633 565.399219 
L 617.18 565.399219 
L 617.18 563.551219 
L 609.151633 563.551219 
z
" style="fill:#1f77b4;"/>
   </g>
   <g id="patch_66">
    <path clip-path="url(#p3ef3c02b81)" d="M 617.18 565.399219 
L 625.208367 565.399219 
L 625.208367 565.399219 
L 617.18 565.399219 
z
" style="fill:#1f77b4;"/>
   </g>
   <g id="patch_67">
    <path clip-path="url(#p3ef3c02b81)" d="M 625.208367 565.399219 
L 633.236735 565.399219 
L 633.236735 565.399219 
L 625.208367 565.399219 
z
" style="fill:#1f77b4;"/>
   </g>
   <g id="patch_68">
    <path clip-path="url(#p3ef3c02b81)" d="M 633.236735 565.399219 
L 641.265102 565.399219 
L 641.265102 564.937219 
L 633.236735 564.937219 
z
" style="fill:#1f77b4;"/>
   </g>
   <g id="patch_69">
    <path clip-path="url(#p3ef3c02b81)" d="M 641.265102 565.399219 
L 649.293469 565.399219 
L 649.293469 565.399219 
L 641.265102 565.399219 
z
" style="fill:#1f77b4;"/>
   </g>
   <g id="patch_70">
    <path clip-path="url(#p3ef3c02b81)" d="M 649.293469 565.399219 
L 657.321837 565.399219 
L 657.321837 565.399219 
L 649.293469 565.399219 
z
" style="fill:#1f77b4;"/>
   </g>
   <g id="patch_71">
    <path clip-path="url(#p3ef3c02b81)" d="M 657.321837 565.399219 
L 665.350204 565.399219 
L 665.350204 565.399219 
L 657.321837 565.399219 
z
" style="fill:#1f77b4;"/>
   </g>
   <g id="patch_72">
    <path clip-path="url(#p3ef3c02b81)" d="M 665.350204 565.399219 
L 673.378571 565.399219 
L 673.378571 564.937219 
L 665.350204 564.937219 
z
" style="fill:#1f77b4;"/>
   </g>
   <g id="matplotlib.axis_1">
    <g id="xtick_1">
     <g id="line2d_1">
      <defs>
       <path d="M 0 0 
L 0 3.5 
" id="m86a41bb9ae" style="stroke:#000000;stroke-width:0.8;"/>
      </defs>
      <g>
       <use style="stroke:#000000;stroke-width:0.8;" x="39.65" xlink:href="#m86a41bb9ae" y="565.399219"/>
      </g>
     </g>
     <g id="text_1">
      <!-- 0 -->
      <defs>
       <path d="M 31.78125 66.40625 
Q 24.171875 66.40625 20.328125 58.90625 
Q 16.5 51.421875 16.5 36.375 
Q 16.5 21.390625 20.328125 13.890625 
Q 24.171875 6.390625 31.78125 6.390625 
Q 39.453125 6.390625 43.28125 13.890625 
Q 47.125 21.390625 47.125 36.375 
Q 47.125 51.421875 43.28125 58.90625 
Q 39.453125 66.40625 31.78125 66.40625 
z
M 31.78125 74.21875 
Q 44.046875 74.21875 50.515625 64.515625 
Q 56.984375 54.828125 56.984375 36.375 
Q 56.984375 17.96875 50.515625 8.265625 
Q 44.046875 -1.421875 31.78125 -1.421875 
Q 19.53125 -1.421875 13.0625 8.265625 
Q 6.59375 17.96875 6.59375 36.375 
Q 6.59375 54.828125 13.0625 64.515625 
Q 19.53125 74.21875 31.78125 74.21875 
z
" id="DejaVuSans-48"/>
      </defs>
      <g transform="translate(36.46875 579.997656)scale(0.1 -0.1)">
       <use xlink:href="#DejaVuSans-48"/>
      </g>
     </g>
    </g>
    <g id="xtick_2">
     <g id="line2d_2">
      <g>
       <use style="stroke:#000000;stroke-width:0.8;" x="63.564286" xlink:href="#m86a41bb9ae" y="565.399219"/>
      </g>
     </g>
     <g id="text_2">
      <!-- 2 -->
      <defs>
       <path d="M 19.1875 8.296875 
L 53.609375 8.296875 
L 53.609375 0 
L 7.328125 0 
L 7.328125 8.296875 
Q 12.9375 14.109375 22.625 23.890625 
Q 32.328125 33.6875 34.8125 36.53125 
Q 39.546875 41.84375 41.421875 45.53125 
Q 43.3125 49.21875 43.3125 52.78125 
Q 43.3125 58.59375 39.234375 62.25 
Q 35.15625 65.921875 28.609375 65.921875 
Q 23.96875 65.921875 18.8125 64.3125 
Q 13.671875 62.703125 7.8125 59.421875 
L 7.8125 69.390625 
Q 13.765625 71.78125 18.9375 73 
Q 24.125 74.21875 28.421875 74.21875 
Q 39.75 74.21875 46.484375 68.546875 
Q 53.21875 62.890625 53.21875 53.421875 
Q 53.21875 48.921875 51.53125 44.890625 
Q 49.859375 40.875 45.40625 35.40625 
Q 44.1875 33.984375 37.640625 27.21875 
Q 31.109375 20.453125 19.1875 8.296875 
z
" id="DejaVuSans-50"/>
      </defs>
      <g transform="translate(60.383036 579.997656)scale(0.1 -0.1)">
       <use xlink:href="#DejaVuSans-50"/>
      </g>
     </g>
    </g>
    <g id="xtick_3">
     <g id="line2d_3">
      <g>
       <use style="stroke:#000000;stroke-width:0.8;" x="87.478571" xlink:href="#m86a41bb9ae" y="565.399219"/>
      </g>
     </g>
     <g id="text_3">
      <!-- 4 -->
      <defs>
       <path d="M 37.796875 64.3125 
L 12.890625 25.390625 
L 37.796875 25.390625 
z
M 35.203125 72.90625 
L 47.609375 72.90625 
L 47.609375 25.390625 
L 58.015625 25.390625 
L 58.015625 17.1875 
L 47.609375 17.1875 
L 47.609375 0 
L 37.796875 0 
L 37.796875 17.1875 
L 4.890625 17.1875 
L 4.890625 26.703125 
z
" id="DejaVuSans-52"/>
      </defs>
      <g transform="translate(84.297321 579.997656)scale(0.1 -0.1)">
       <use xlink:href="#DejaVuSans-52"/>
      </g>
     </g>
    </g>
    <g id="xtick_4">
     <g id="line2d_4">
      <g>
       <use style="stroke:#000000;stroke-width:0.8;" x="111.392857" xlink:href="#m86a41bb9ae" y="565.399219"/>
      </g>
     </g>
     <g id="text_4">
      <!-- 6 -->
      <defs>
       <path d="M 33.015625 40.375 
Q 26.375 40.375 22.484375 35.828125 
Q 18.609375 31.296875 18.609375 23.390625 
Q 18.609375 15.53125 22.484375 10.953125 
Q 26.375 6.390625 33.015625 6.390625 
Q 39.65625 6.390625 43.53125 10.953125 
Q 47.40625 15.53125 47.40625 23.390625 
Q 47.40625 31.296875 43.53125 35.828125 
Q 39.65625 40.375 33.015625 40.375 
z
M 52.59375 71.296875 
L 52.59375 62.3125 
Q 48.875 64.0625 45.09375 64.984375 
Q 41.3125 65.921875 37.59375 65.921875 
Q 27.828125 65.921875 22.671875 59.328125 
Q 17.53125 52.734375 16.796875 39.40625 
Q 19.671875 43.65625 24.015625 45.921875 
Q 28.375 48.1875 33.59375 48.1875 
Q 44.578125 48.1875 50.953125 41.515625 
Q 57.328125 34.859375 57.328125 23.390625 
Q 57.328125 12.15625 50.6875 5.359375 
Q 44.046875 -1.421875 33.015625 -1.421875 
Q 20.359375 -1.421875 13.671875 8.265625 
Q 6.984375 17.96875 6.984375 36.375 
Q 6.984375 53.65625 15.1875 63.9375 
Q 23.390625 74.21875 37.203125 74.21875 
Q 40.921875 74.21875 44.703125 73.484375 
Q 48.484375 72.75 52.59375 71.296875 
z
" id="DejaVuSans-54"/>
      </defs>
      <g transform="translate(108.211607 579.997656)scale(0.1 -0.1)">
       <use xlink:href="#DejaVuSans-54"/>
      </g>
     </g>
    </g>
    <g id="xtick_5">
     <g id="line2d_5">
      <g>
       <use style="stroke:#000000;stroke-width:0.8;" x="135.307143" xlink:href="#m86a41bb9ae" y="565.399219"/>
      </g>
     </g>
     <g id="text_5">
      <!-- 8 -->
      <defs>
       <path d="M 31.78125 34.625 
Q 24.75 34.625 20.71875 30.859375 
Q 16.703125 27.09375 16.703125 20.515625 
Q 16.703125 13.921875 20.71875 10.15625 
Q 24.75 6.390625 31.78125 6.390625 
Q 38.8125 6.390625 42.859375 10.171875 
Q 46.921875 13.96875 46.921875 20.515625 
Q 46.921875 27.09375 42.890625 30.859375 
Q 38.875 34.625 31.78125 34.625 
z
M 21.921875 38.8125 
Q 15.578125 40.375 12.03125 44.71875 
Q 8.5 49.078125 8.5 55.328125 
Q 8.5 64.0625 14.71875 69.140625 
Q 20.953125 74.21875 31.78125 74.21875 
Q 42.671875 74.21875 48.875 69.140625 
Q 55.078125 64.0625 55.078125 55.328125 
Q 55.078125 49.078125 51.53125 44.71875 
Q 48 40.375 41.703125 38.8125 
Q 48.828125 37.15625 52.796875 32.3125 
Q 56.78125 27.484375 56.78125 20.515625 
Q 56.78125 9.90625 50.3125 4.234375 
Q 43.84375 -1.421875 31.78125 -1.421875 
Q 19.734375 -1.421875 13.25 4.234375 
Q 6.78125 9.90625 6.78125 20.515625 
Q 6.78125 27.484375 10.78125 32.3125 
Q 14.796875 37.15625 21.921875 38.8125 
z
M 18.3125 54.390625 
Q 18.3125 48.734375 21.84375 45.5625 
Q 25.390625 42.390625 31.78125 42.390625 
Q 38.140625 42.390625 41.71875 45.5625 
Q 45.3125 48.734375 45.3125 54.390625 
Q 45.3125 60.0625 41.71875 63.234375 
Q 38.140625 66.40625 31.78125 66.40625 
Q 25.390625 66.40625 21.84375 63.234375 
Q 18.3125 60.0625 18.3125 54.390625 
z
" id="DejaVuSans-56"/>
      </defs>
      <g transform="translate(132.125893 579.997656)scale(0.1 -0.1)">
       <use xlink:href="#DejaVuSans-56"/>
      </g>
     </g>
    </g>
    <g id="xtick_6">
     <g id="line2d_6">
      <g>
       <use style="stroke:#000000;stroke-width:0.8;" x="159.221429" xlink:href="#m86a41bb9ae" y="565.399219"/>
      </g>
     </g>
     <g id="text_6">
      <!-- 10 -->
      <defs>
       <path d="M 12.40625 8.296875 
L 28.515625 8.296875 
L 28.515625 63.921875 
L 10.984375 60.40625 
L 10.984375 69.390625 
L 28.421875 72.90625 
L 38.28125 72.90625 
L 38.28125 8.296875 
L 54.390625 8.296875 
L 54.390625 0 
L 12.40625 0 
z
" id="DejaVuSans-49"/>
      </defs>
      <g transform="translate(152.858929 579.997656)scale(0.1 -0.1)">
       <use xlink:href="#DejaVuSans-49"/>
       <use x="63.623047" xlink:href="#DejaVuSans-48"/>
      </g>
     </g>
    </g>
    <g id="xtick_7">
     <g id="line2d_7">
      <g>
       <use style="stroke:#000000;stroke-width:0.8;" x="183.135714" xlink:href="#m86a41bb9ae" y="565.399219"/>
      </g>
     </g>
     <g id="text_7">
      <!-- 12 -->
      <g transform="translate(176.773214 579.997656)scale(0.1 -0.1)">
       <use xlink:href="#DejaVuSans-49"/>
       <use x="63.623047" xlink:href="#DejaVuSans-50"/>
      </g>
     </g>
    </g>
    <g id="xtick_8">
     <g id="line2d_8">
      <g>
       <use style="stroke:#000000;stroke-width:0.8;" x="207.05" xlink:href="#m86a41bb9ae" y="565.399219"/>
      </g>
     </g>
     <g id="text_8">
      <!-- 14 -->
      <g transform="translate(200.6875 579.997656)scale(0.1 -0.1)">
       <use xlink:href="#DejaVuSans-49"/>
       <use x="63.623047" xlink:href="#DejaVuSans-52"/>
      </g>
     </g>
    </g>
    <g id="xtick_9">
     <g id="line2d_9">
      <g>
       <use style="stroke:#000000;stroke-width:0.8;" x="230.964286" xlink:href="#m86a41bb9ae" y="565.399219"/>
      </g>
     </g>
     <g id="text_9">
      <!-- 16 -->
      <g transform="translate(224.601786 579.997656)scale(0.1 -0.1)">
       <use xlink:href="#DejaVuSans-49"/>
       <use x="63.623047" xlink:href="#DejaVuSans-54"/>
      </g>
     </g>
    </g>
    <g id="xtick_10">
     <g id="line2d_10">
      <g>
       <use style="stroke:#000000;stroke-width:0.8;" x="254.878571" xlink:href="#m86a41bb9ae" y="565.399219"/>
      </g>
     </g>
     <g id="text_10">
      <!-- 18 -->
      <g transform="translate(248.516071 579.997656)scale(0.1 -0.1)">
       <use xlink:href="#DejaVuSans-49"/>
       <use x="63.623047" xlink:href="#DejaVuSans-56"/>
      </g>
     </g>
    </g>
    <g id="xtick_11">
     <g id="line2d_11">
      <g>
       <use style="stroke:#000000;stroke-width:0.8;" x="278.792857" xlink:href="#m86a41bb9ae" y="565.399219"/>
      </g>
     </g>
     <g id="text_11">
      <!-- 20 -->
      <g transform="translate(272.430357 579.997656)scale(0.1 -0.1)">
       <use xlink:href="#DejaVuSans-50"/>
       <use x="63.623047" xlink:href="#DejaVuSans-48"/>
      </g>
     </g>
    </g>
    <g id="xtick_12">
     <g id="line2d_12">
      <g>
       <use style="stroke:#000000;stroke-width:0.8;" x="302.707143" xlink:href="#m86a41bb9ae" y="565.399219"/>
      </g>
     </g>
     <g id="text_12">
      <!-- 22 -->
      <g transform="translate(296.344643 579.997656)scale(0.1 -0.1)">
       <use xlink:href="#DejaVuSans-50"/>
       <use x="63.623047" xlink:href="#DejaVuSans-50"/>
      </g>
     </g>
    </g>
    <g id="xtick_13">
     <g id="line2d_13">
      <g>
       <use style="stroke:#000000;stroke-width:0.8;" x="326.621429" xlink:href="#m86a41bb9ae" y="565.399219"/>
      </g>
     </g>
     <g id="text_13">
      <!-- 24 -->
      <g transform="translate(320.258929 579.997656)scale(0.1 -0.1)">
       <use xlink:href="#DejaVuSans-50"/>
       <use x="63.623047" xlink:href="#DejaVuSans-52"/>
      </g>
     </g>
    </g>
    <g id="xtick_14">
     <g id="line2d_14">
      <g>
       <use style="stroke:#000000;stroke-width:0.8;" x="350.535714" xlink:href="#m86a41bb9ae" y="565.399219"/>
      </g>
     </g>
     <g id="text_14">
      <!-- 26 -->
      <g transform="translate(344.173214 579.997656)scale(0.1 -0.1)">
       <use xlink:href="#DejaVuSans-50"/>
       <use x="63.623047" xlink:href="#DejaVuSans-54"/>
      </g>
     </g>
    </g>
    <g id="xtick_15">
     <g id="line2d_15">
      <g>
       <use style="stroke:#000000;stroke-width:0.8;" x="374.45" xlink:href="#m86a41bb9ae" y="565.399219"/>
      </g>
     </g>
     <g id="text_15">
      <!-- 28 -->
      <g transform="translate(368.0875 579.997656)scale(0.1 -0.1)">
       <use xlink:href="#DejaVuSans-50"/>
       <use x="63.623047" xlink:href="#DejaVuSans-56"/>
      </g>
     </g>
    </g>
    <g id="xtick_16">
     <g id="line2d_16">
      <g>
       <use style="stroke:#000000;stroke-width:0.8;" x="398.364286" xlink:href="#m86a41bb9ae" y="565.399219"/>
      </g>
     </g>
     <g id="text_16">
      <!-- 30 -->
      <defs>
       <path d="M 40.578125 39.3125 
Q 47.65625 37.796875 51.625 33 
Q 55.609375 28.21875 55.609375 21.1875 
Q 55.609375 10.40625 48.1875 4.484375 
Q 40.765625 -1.421875 27.09375 -1.421875 
Q 22.515625 -1.421875 17.65625 -0.515625 
Q 12.796875 0.390625 7.625 2.203125 
L 7.625 11.71875 
Q 11.71875 9.328125 16.59375 8.109375 
Q 21.484375 6.890625 26.8125 6.890625 
Q 36.078125 6.890625 40.9375 10.546875 
Q 45.796875 14.203125 45.796875 21.1875 
Q 45.796875 27.640625 41.28125 31.265625 
Q 36.765625 34.90625 28.71875 34.90625 
L 20.21875 34.90625 
L 20.21875 43.015625 
L 29.109375 43.015625 
Q 36.375 43.015625 40.234375 45.921875 
Q 44.09375 48.828125 44.09375 54.296875 
Q 44.09375 59.90625 40.109375 62.90625 
Q 36.140625 65.921875 28.71875 65.921875 
Q 24.65625 65.921875 20.015625 65.03125 
Q 15.375 64.15625 9.8125 62.3125 
L 9.8125 71.09375 
Q 15.4375 72.65625 20.34375 73.4375 
Q 25.25 74.21875 29.59375 74.21875 
Q 40.828125 74.21875 47.359375 69.109375 
Q 53.90625 64.015625 53.90625 55.328125 
Q 53.90625 49.265625 50.4375 45.09375 
Q 46.96875 40.921875 40.578125 39.3125 
z
" id="DejaVuSans-51"/>
      </defs>
      <g transform="translate(392.001786 579.997656)scale(0.1 -0.1)">
       <use xlink:href="#DejaVuSans-51"/>
       <use x="63.623047" xlink:href="#DejaVuSans-48"/>
      </g>
     </g>
    </g>
    <g id="xtick_17">
     <g id="line2d_17">
      <g>
       <use style="stroke:#000000;stroke-width:0.8;" x="422.278571" xlink:href="#m86a41bb9ae" y="565.399219"/>
      </g>
     </g>
     <g id="text_17">
      <!-- 32 -->
      <g transform="translate(415.916071 579.997656)scale(0.1 -0.1)">
       <use xlink:href="#DejaVuSans-51"/>
       <use x="63.623047" xlink:href="#DejaVuSans-50"/>
      </g>
     </g>
    </g>
    <g id="xtick_18">
     <g id="line2d_18">
      <g>
       <use style="stroke:#000000;stroke-width:0.8;" x="446.192857" xlink:href="#m86a41bb9ae" y="565.399219"/>
      </g>
     </g>
     <g id="text_18">
      <!-- 34 -->
      <g transform="translate(439.830357 579.997656)scale(0.1 -0.1)">
       <use xlink:href="#DejaVuSans-51"/>
       <use x="63.623047" xlink:href="#DejaVuSans-52"/>
      </g>
     </g>
    </g>
    <g id="xtick_19">
     <g id="line2d_19">
      <g>
       <use style="stroke:#000000;stroke-width:0.8;" x="470.107143" xlink:href="#m86a41bb9ae" y="565.399219"/>
      </g>
     </g>
     <g id="text_19">
      <!-- 36 -->
      <g transform="translate(463.744643 579.997656)scale(0.1 -0.1)">
       <use xlink:href="#DejaVuSans-51"/>
       <use x="63.623047" xlink:href="#DejaVuSans-54"/>
      </g>
     </g>
    </g>
    <g id="xtick_20">
     <g id="line2d_20">
      <g>
       <use style="stroke:#000000;stroke-width:0.8;" x="494.021429" xlink:href="#m86a41bb9ae" y="565.399219"/>
      </g>
     </g>
     <g id="text_20">
      <!-- 38 -->
      <g transform="translate(487.658929 579.997656)scale(0.1 -0.1)">
       <use xlink:href="#DejaVuSans-51"/>
       <use x="63.623047" xlink:href="#DejaVuSans-56"/>
      </g>
     </g>
    </g>
    <g id="xtick_21">
     <g id="line2d_21">
      <g>
       <use style="stroke:#000000;stroke-width:0.8;" x="517.935714" xlink:href="#m86a41bb9ae" y="565.399219"/>
      </g>
     </g>
     <g id="text_21">
      <!-- 40 -->
      <g transform="translate(511.573214 579.997656)scale(0.1 -0.1)">
       <use xlink:href="#DejaVuSans-52"/>
       <use x="63.623047" xlink:href="#DejaVuSans-48"/>
      </g>
     </g>
    </g>
    <g id="xtick_22">
     <g id="line2d_22">
      <g>
       <use style="stroke:#000000;stroke-width:0.8;" x="541.85" xlink:href="#m86a41bb9ae" y="565.399219"/>
      </g>
     </g>
     <g id="text_22">
      <!-- 42 -->
      <g transform="translate(535.4875 579.997656)scale(0.1 -0.1)">
       <use xlink:href="#DejaVuSans-52"/>
       <use x="63.623047" xlink:href="#DejaVuSans-50"/>
      </g>
     </g>
    </g>
    <g id="xtick_23">
     <g id="line2d_23">
      <g>
       <use style="stroke:#000000;stroke-width:0.8;" x="565.764286" xlink:href="#m86a41bb9ae" y="565.399219"/>
      </g>
     </g>
     <g id="text_23">
      <!-- 44 -->
      <g transform="translate(559.401786 579.997656)scale(0.1 -0.1)">
       <use xlink:href="#DejaVuSans-52"/>
       <use x="63.623047" xlink:href="#DejaVuSans-52"/>
      </g>
     </g>
    </g>
    <g id="xtick_24">
     <g id="line2d_24">
      <g>
       <use style="stroke:#000000;stroke-width:0.8;" x="589.678571" xlink:href="#m86a41bb9ae" y="565.399219"/>
      </g>
     </g>
     <g id="text_24">
      <!-- 46 -->
      <g transform="translate(583.316071 579.997656)scale(0.1 -0.1)">
       <use xlink:href="#DejaVuSans-52"/>
       <use x="63.623047" xlink:href="#DejaVuSans-54"/>
      </g>
     </g>
    </g>
    <g id="xtick_25">
     <g id="line2d_25">
      <g>
       <use style="stroke:#000000;stroke-width:0.8;" x="613.592857" xlink:href="#m86a41bb9ae" y="565.399219"/>
      </g>
     </g>
     <g id="text_25">
      <!-- 48 -->
      <g transform="translate(607.230357 579.997656)scale(0.1 -0.1)">
       <use xlink:href="#DejaVuSans-52"/>
       <use x="63.623047" xlink:href="#DejaVuSans-56"/>
      </g>
     </g>
    </g>
    <g id="xtick_26">
     <g id="line2d_26">
      <g>
       <use style="stroke:#000000;stroke-width:0.8;" x="637.507143" xlink:href="#m86a41bb9ae" y="565.399219"/>
      </g>
     </g>
     <g id="text_26">
      <!-- 50 -->
      <defs>
       <path d="M 10.796875 72.90625 
L 49.515625 72.90625 
L 49.515625 64.59375 
L 19.828125 64.59375 
L 19.828125 46.734375 
Q 21.96875 47.46875 24.109375 47.828125 
Q 26.265625 48.1875 28.421875 48.1875 
Q 40.625 48.1875 47.75 41.5 
Q 54.890625 34.8125 54.890625 23.390625 
Q 54.890625 11.625 47.5625 5.09375 
Q 40.234375 -1.421875 26.90625 -1.421875 
Q 22.3125 -1.421875 17.546875 -0.640625 
Q 12.796875 0.140625 7.71875 1.703125 
L 7.71875 11.625 
Q 12.109375 9.234375 16.796875 8.0625 
Q 21.484375 6.890625 26.703125 6.890625 
Q 35.15625 6.890625 40.078125 11.328125 
Q 45.015625 15.765625 45.015625 23.390625 
Q 45.015625 31 40.078125 35.4375 
Q 35.15625 39.890625 26.703125 39.890625 
Q 22.75 39.890625 18.8125 39.015625 
Q 14.890625 38.140625 10.796875 36.28125 
z
" id="DejaVuSans-53"/>
      </defs>
      <g transform="translate(631.144643 579.997656)scale(0.1 -0.1)">
       <use xlink:href="#DejaVuSans-53"/>
       <use x="63.623047" xlink:href="#DejaVuSans-48"/>
      </g>
     </g>
    </g>
    <g id="xtick_27">
     <g id="line2d_27">
      <g>
       <use style="stroke:#000000;stroke-width:0.8;" x="661.421429" xlink:href="#m86a41bb9ae" y="565.399219"/>
      </g>
     </g>
     <g id="text_27">
      <!-- 52 -->
      <g transform="translate(655.058929 579.997656)scale(0.1 -0.1)">
       <use xlink:href="#DejaVuSans-53"/>
       <use x="63.623047" xlink:href="#DejaVuSans-50"/>
      </g>
     </g>
    </g>
    <g id="xtick_28">
     <g id="line2d_28">
      <g>
       <use style="stroke:#000000;stroke-width:0.8;" x="685.335714" xlink:href="#m86a41bb9ae" y="565.399219"/>
      </g>
     </g>
     <g id="text_28">
      <!-- 54 -->
      <g transform="translate(678.973214 579.997656)scale(0.1 -0.1)">
       <use xlink:href="#DejaVuSans-53"/>
       <use x="63.623047" xlink:href="#DejaVuSans-52"/>
      </g>
     </g>
    </g>
    <g id="xtick_29">
     <g id="line2d_29">
      <g>
       <use style="stroke:#000000;stroke-width:0.8;" x="709.25" xlink:href="#m86a41bb9ae" y="565.399219"/>
      </g>
     </g>
     <g id="text_29">
      <!-- 56 -->
      <g transform="translate(702.8875 579.997656)scale(0.1 -0.1)">
       <use xlink:href="#DejaVuSans-53"/>
       <use x="63.623047" xlink:href="#DejaVuSans-54"/>
      </g>
     </g>
    </g>
    <g id="xtick_30">
     <g id="line2d_30">
      <g>
       <use style="stroke:#000000;stroke-width:0.8;" x="733.164286" xlink:href="#m86a41bb9ae" y="565.399219"/>
      </g>
     </g>
     <g id="text_30">
      <!-- 58 -->
      <g transform="translate(726.801786 579.997656)scale(0.1 -0.1)">
       <use xlink:href="#DejaVuSans-53"/>
       <use x="63.623047" xlink:href="#DejaVuSans-56"/>
      </g>
     </g>
    </g>
    <g id="xtick_31">
     <g id="line2d_31">
      <g>
       <use style="stroke:#000000;stroke-width:0.8;" x="757.078571" xlink:href="#m86a41bb9ae" y="565.399219"/>
      </g>
     </g>
     <g id="text_31">
      <!-- 60 -->
      <g transform="translate(750.716071 579.997656)scale(0.1 -0.1)">
       <use xlink:href="#DejaVuSans-54"/>
       <use x="63.623047" xlink:href="#DejaVuSans-48"/>
      </g>
     </g>
    </g>
    <g id="xtick_32">
     <g id="line2d_32">
      <g>
       <use style="stroke:#000000;stroke-width:0.8;" x="780.992857" xlink:href="#m86a41bb9ae" y="565.399219"/>
      </g>
     </g>
     <g id="text_32">
      <!-- 62 -->
      <g transform="translate(774.630357 579.997656)scale(0.1 -0.1)">
       <use xlink:href="#DejaVuSans-54"/>
       <use x="63.623047" xlink:href="#DejaVuSans-50"/>
      </g>
     </g>
    </g>
    <g id="xtick_33">
     <g id="line2d_33">
      <g>
       <use style="stroke:#000000;stroke-width:0.8;" x="804.907143" xlink:href="#m86a41bb9ae" y="565.399219"/>
      </g>
     </g>
     <g id="text_33">
      <!-- 64 -->
      <g transform="translate(798.544643 579.997656)scale(0.1 -0.1)">
       <use xlink:href="#DejaVuSans-54"/>
       <use x="63.623047" xlink:href="#DejaVuSans-52"/>
      </g>
     </g>
    </g>
    <g id="xtick_34">
     <g id="line2d_34">
      <g>
       <use style="stroke:#000000;stroke-width:0.8;" x="828.821429" xlink:href="#m86a41bb9ae" y="565.399219"/>
      </g>
     </g>
     <g id="text_34">
      <!-- 66 -->
      <g transform="translate(822.458929 579.997656)scale(0.1 -0.1)">
       <use xlink:href="#DejaVuSans-54"/>
       <use x="63.623047" xlink:href="#DejaVuSans-54"/>
      </g>
     </g>
    </g>
    <g id="xtick_35">
     <g id="line2d_35">
      <g>
       <use style="stroke:#000000;stroke-width:0.8;" x="852.735714" xlink:href="#m86a41bb9ae" y="565.399219"/>
      </g>
     </g>
     <g id="text_35">
      <!-- 68 -->
      <g transform="translate(846.373214 579.997656)scale(0.1 -0.1)">
       <use xlink:href="#DejaVuSans-54"/>
       <use x="63.623047" xlink:href="#DejaVuSans-56"/>
      </g>
     </g>
    </g>
   </g>
   <g id="matplotlib.axis_2">
    <g id="ytick_1">
     <g id="line2d_36">
      <defs>
       <path d="M 0 0 
L -3.5 0 
" id="m3f5ea41ebc" style="stroke:#000000;stroke-width:0.8;"/>
      </defs>
      <g>
       <use style="stroke:#000000;stroke-width:0.8;" x="39.65" xlink:href="#m3f5ea41ebc" y="565.399219"/>
      </g>
     </g>
     <g id="text_36">
      <!-- 0 -->
      <g transform="translate(26.2875 569.198438)scale(0.1 -0.1)">
       <use xlink:href="#DejaVuSans-48"/>
      </g>
     </g>
    </g>
    <g id="ytick_2">
     <g id="line2d_37">
      <g>
       <use style="stroke:#000000;stroke-width:0.8;" x="39.65" xlink:href="#m3f5ea41ebc" y="472.999219"/>
      </g>
     </g>
     <g id="text_37">
      <!-- 200 -->
      <g transform="translate(13.5625 476.798438)scale(0.1 -0.1)">
       <use xlink:href="#DejaVuSans-50"/>
       <use x="63.623047" xlink:href="#DejaVuSans-48"/>
       <use x="127.246094" xlink:href="#DejaVuSans-48"/>
      </g>
     </g>
    </g>
    <g id="ytick_3">
     <g id="line2d_38">
      <g>
       <use style="stroke:#000000;stroke-width:0.8;" x="39.65" xlink:href="#m3f5ea41ebc" y="380.599219"/>
      </g>
     </g>
     <g id="text_38">
      <!-- 400 -->
      <g transform="translate(13.5625 384.398438)scale(0.1 -0.1)">
       <use xlink:href="#DejaVuSans-52"/>
       <use x="63.623047" xlink:href="#DejaVuSans-48"/>
       <use x="127.246094" xlink:href="#DejaVuSans-48"/>
      </g>
     </g>
    </g>
    <g id="ytick_4">
     <g id="line2d_39">
      <g>
       <use style="stroke:#000000;stroke-width:0.8;" x="39.65" xlink:href="#m3f5ea41ebc" y="288.199219"/>
      </g>
     </g>
     <g id="text_39">
      <!-- 600 -->
      <g transform="translate(13.5625 291.998438)scale(0.1 -0.1)">
       <use xlink:href="#DejaVuSans-54"/>
       <use x="63.623047" xlink:href="#DejaVuSans-48"/>
       <use x="127.246094" xlink:href="#DejaVuSans-48"/>
      </g>
     </g>
    </g>
    <g id="ytick_5">
     <g id="line2d_40">
      <g>
       <use style="stroke:#000000;stroke-width:0.8;" x="39.65" xlink:href="#m3f5ea41ebc" y="195.799219"/>
      </g>
     </g>
     <g id="text_40">
      <!-- 800 -->
      <g transform="translate(13.5625 199.598438)scale(0.1 -0.1)">
       <use xlink:href="#DejaVuSans-56"/>
       <use x="63.623047" xlink:href="#DejaVuSans-48"/>
       <use x="127.246094" xlink:href="#DejaVuSans-48"/>
      </g>
     </g>
    </g>
    <g id="ytick_6">
     <g id="line2d_41">
      <g>
       <use style="stroke:#000000;stroke-width:0.8;" x="39.65" xlink:href="#m3f5ea41ebc" y="103.399219"/>
      </g>
     </g>
     <g id="text_41">
      <!-- 1000 -->
      <g transform="translate(7.2 107.198438)scale(0.1 -0.1)">
       <use xlink:href="#DejaVuSans-49"/>
       <use x="63.623047" xlink:href="#DejaVuSans-48"/>
       <use x="127.246094" xlink:href="#DejaVuSans-48"/>
       <use x="190.869141" xlink:href="#DejaVuSans-48"/>
      </g>
     </g>
    </g>
    <g id="ytick_7">
     <g id="line2d_42">
      <g>
       <use style="stroke:#000000;stroke-width:0.8;" x="39.65" xlink:href="#m3f5ea41ebc" y="10.999219"/>
      </g>
     </g>
     <g id="text_42">
      <!-- 1200 -->
      <g transform="translate(7.2 14.798438)scale(0.1 -0.1)">
       <use xlink:href="#DejaVuSans-49"/>
       <use x="63.623047" xlink:href="#DejaVuSans-50"/>
       <use x="127.246094" xlink:href="#DejaVuSans-48"/>
       <use x="190.869141" xlink:href="#DejaVuSans-48"/>
      </g>
     </g>
    </g>
   </g>
   <g id="patch_73">
    <path d="M 39.65 565.399219 
L 39.65 10.999219 
" style="fill:none;stroke:#000000;stroke-linecap:square;stroke-linejoin:miter;stroke-width:0.8;"/>
   </g>
   <g id="patch_74">
    <path d="M 876.65 565.399219 
L 876.65 10.999219 
" style="fill:none;stroke:#000000;stroke-linecap:square;stroke-linejoin:miter;stroke-width:0.8;"/>
   </g>
   <g id="patch_75">
    <path d="M 39.65 565.399219 
L 876.65 565.399219 
" style="fill:none;stroke:#000000;stroke-linecap:square;stroke-linejoin:miter;stroke-width:0.8;"/>
   </g>
   <g id="patch_76">
    <path d="M 39.65 10.999219 
L 876.65 10.999219 
" style="fill:none;stroke:#000000;stroke-linecap:square;stroke-linejoin:miter;stroke-width:0.8;"/>
   </g>
  </g>
 </g>
 <defs>
  <clipPath id="p3ef3c02b81">
   <rect height="554.4" width="837" x="39.65" y="10.999219"/>
  </clipPath>
 </defs>
</svg>
